<?xml version="1.0" standalone="no"?>
<!DOCTYPE svg PUBLIC "-//W3C//DTD SVG 1.1//EN" "http://www.w3.org/Graphics/SVG/1.1/DTD/svg11.dtd" >
<svg xmlns="http://www.w3.org/2000/svg" xmlns:xlink="http://www.w3.org/1999/xlink" version="1.1">
<metadata>
Created by FontForge 20161013 at Mon Oct 30 21:03:30 2017
 By stfn,,,
</metadata>
<defs>
<font id="icomoon" horiz-adv-x="1024" >
  <font-face 
    font-family="icomoon"
    font-weight="400"
    font-stretch="normal"
    units-per-em="1024"
    panose-1="2 0 5 3 0 0 0 0 0 0"
    ascent="819"
    descent="-205"
    x-height="722.774"
    cap-height="779.093"
    bbox="-185.171 -315.733 1261.23 980.28"
    underline-thickness="0"
    underline-position="0"
    unicode-range="U+0020-1F6AA"
  />
<missing-glyph 
 />
    <glyph glyph-name=".notdef" 
 />
    <glyph glyph-name="uni2A" unicode="*" 
d="M461.653 200.533q3.413 9.387 -3.413 13.227t-16.213 -0.427l-257.707 -185.173q-23.04 -16.213 -36.693 10.24l-52.053 88.747q-12.8 23.04 13.653 36.693l288.427 131.413q29.013 11.093 0 24.747l-290.987 133.973q-23.893 13.653 -11.093 36.693l52.053 85.333
q17.067 26.453 36.693 7.68l257.707 -179.2q6.827 -2.56 11.093 -2.56t6.4 3.84t2.133 11.52l-23.893 312.32q0 29.867 23.893 29.867h98.987q26.453 0 26.453 -29.867l-26.453 -312.32q-2.56 -9.387 4.267 -13.227t17.067 0.427l256.853 179.2q21.333 18.773 37.547 -7.68
l51.2 -85.333q13.653 -23.04 -10.24 -36.693l-290.987 -133.973q-28.16 -13.653 0 -24.747l288.427 -131.413q26.453 -13.653 12.8 -36.693l-51.2 -88.747q-12.8 -26.453 -37.547 -10.24l-256.853 185.173q-8.533 2.56 -12.373 2.56t-6.4 -3.84t-2.56 -11.52l26.453 -312.32
q0 -29.867 -26.453 -29.867h-98.987q-23.893 0 0 342.187z" />
    <glyph glyph-name="uni2B" unicode="+" 
d="M913.067 212.48q33.28 0 -320.853 0v-323.413q0 -33.28 -23.467 -55.467t-56.32 -22.187t-56.32 22.187t-23.467 55.467v323.413h-323.413q-29.867 0 -53.333 23.04t-23.467 56.32t23.467 55.04t53.333 21.76h323.413v324.267q0 32.427 23.467 55.04t56.32 22.613
q32.853 1.13687e-13 56.32 -22.613t23.467 -55.04v-324.267h320.853q33.28 0 55.467 -21.76t22.187 -55.04t-22.187 -56.32t-55.467 -23.04z" />
    <glyph glyph-name="pen" unicode="0" 
d="M0 -192q30 89 67.5 178.5t93.5 192t119 194t146 177t172 147t199.5 98.5t226.5 37q-71 -57 -141 -153t-121.5 -187t-102 -175.5t-104 -136.5t-107.5 -52h-192l-192 -320h-64z" />
    <glyph glyph-name="cleveland" unicode="1" 
d="M393.805 715.906q-67.5448 -46.4421 -116.859 -87.9754q-49.3138 -41.5333 -83.3461 -80.5633q-34.0323 -39.03 -55.6593 -78.5614q-22.0363 -40.4915 -26.6436 -63.145q-4.60736 -22.6536 -4.60736 -91.293q0 -45.5003 1.83498 -67.9185
q1.83498 -22.4182 6.74704 -38.6041q4.91206 -16.1859 16.809 -39.0905q27.8126 -52.9121 76.0219 -98.3712q48.2094 -45.4591 101.716 -69.3038q63.09 -26.829 84.962 -28.24q17.7189 -2.00186 20.6923 4.7739q2.97342 6.77577 0.792667 45.5291
q-3.61834 53.9565 -12.696 55.598q-1.88319 0.680693 -8.13803 4.01296q-6.25484 3.33226 -14.9441 8.27309t-20.1518 11.8593q-11.4625 6.91846 -22.1971 13.8027q-55.6092 33.0606 -83.7117 77.5022q-28.1026 44.4417 -32.5013 106.058q-4.42256 55.5087 16.5174 105.957
q20.94 50.4485 69.5065 101.08q48.5665 50.6313 129.8 107.133l73.244 50.303l45.899 -29.123q56.3891 -34.625 123.735 -96.036q67.3456 -61.411 91.1133 -98.997q10.304 -17.1903 15.2674 -27.4207q4.96336 -10.2304 8.28434 -24.8733q3.32098 -14.6429 4.04513 -29.8695
t0.724146 -44.0345q0 -52.9057 -4.38737 -72.9933t-21.9806 -47.9097q-13.4022 -19.8969 -38.9757 -42.9934q-25.5735 -23.0964 -53.8866 -41.0936q-28.3131 -17.9972 -48.7417 -23.578q-10.8517 -3.26906 -15.1642 -8.52917q-4.31248 -5.26012 -5.80465 -16.477
t-1.49217 -38.5338q0 -41.5788 3.15046 -48.8148t19.3105 -3.2532q150.308 41.0796 232.98 155.08q82.6724 114.001 57.0636 245.576q-16.822 87.9055 -81.1983 166.007q-64.3763 78.1015 -191.268 164.931q-95.3205 65.4209 -107.119 71.3894
q-32.4836 16.4319 -63.6755 0.0590467q-9.25256 -5.087 -85.0682 -57.3284zM454.353 545.583q-42.5507 -19.6531 -57.5129 -58.3499q-14.9622 -38.6968 2.71921 -76.2739q17.6814 -37.577 61.6297 -54.2312q35.696 -11.3081 68.4692 -4.77226t57.401 30.7242
t29.4059 57.0031q4.25916 30.1492 -8.98755 56.88t-37.2778 41.4087t-54.6731 18.7394t-61.1735 -11.128zM287.358 327.606q0 -26.8733 1.81273 -37.4046q1.81273 -10.5313 6.79121 -15.5008q4.97848 -4.96956 18.7401 -9.75259q30.447 -10.737 63.4419 -41.7886
q32.9949 -31.0515 51.7941 -67.6414q11.4513 -21.6368 15.884 -38.9771q4.43268 -17.3403 5.99334 -45.5962t1.56066 -93.6917v-135.023h122.073v138.553q0 96.0958 3.49571 123.642q3.49571 27.5467 18.9653 55.5055q24.059 40.8473 47.3439 62.1962
q23.2849 21.3489 60.0801 36.6438l41.016 16.768v106.783l-36.133 -6.178q-83.0612 -13.9949 -153.323 -83.838l-44.923 -45.89l-48.829 49.42q-50.627 49.4599 -103.518 66.188q-51.2711 18.533 -62.501 18.533q-9.76682 0 -9.765 -52.951z" />
    <glyph glyph-name="paw" unicode="2" 
d="M415.167 457.902q0 -29.031 -9.222 -54.918t-30.579 -44.757t-50.965 -18.87q-36.889 0 -66.982 27.822t-44.655 65.563t-14.561 73.063q0 29.031 9.222 54.918t30.579 44.757t50.965 18.87q37.374 0 67.225 -27.822t44.412 -65.321t14.561 -73.305zM249.167 224.198
q0 -38.709 -20.386 -67.256t-57.76 -28.548q-36.889 0 -68.681 26.854t-48.781 64.595t-16.988 73.546q0 38.709 20.386 67.498q20.386 28.789 57.76 28.79q36.889 0 68.681 -26.854t48.781 -64.837t16.988 -73.788zM440.407 237.262q57.275 0 123.772 -47.176
q66.497 -47.176 111.152 -114.674t44.655 -123.142q0 -22.257 -8.251 -37.015t-23.541 -21.774t-31.307 -9.677t-36.889 -2.661q-33.006 0 -91.009 21.774t-88.582 21.774q-32.035 0 -93.435 -21.532t-97.318 -21.532q-88.824 0 -88.824 70.643q0 41.612 27.181 92.659
q27.181 51.047 67.71 93.143t91.009 70.643t93.677 28.547zM556.412 339.356q-29.608 0 -50.965 18.87t-30.579 44.757t-9.222 54.918q0 35.805 14.561 73.304t44.412 65.321q29.851 27.822 67.225 27.822q29.608 0 50.965 -18.87t30.579 -44.757t9.222 -54.918
q0 -35.322 -14.561 -73.063t-44.655 -65.563t-66.982 -27.821zM766.096 389.678q37.374 0 57.76 -28.79t20.386 -67.498q0 -35.805 -16.988 -73.546t-48.781 -64.595t-68.681 -26.854q-37.374 0 -57.76 28.548t-20.386 67.256q0 35.805 16.988 73.788t48.781 64.837
t68.681 26.854zM879 776.071l-57.125 -0.964l4.339 -256l57.125 0.964zM720.411 686.964l-0.089 -57.143l256.036 -0.375l0.089 57.143z" />
    <glyph glyph-name="reporter" unicode="3" 
d="M944.476 514.768q-11.5686 13.6006 -26.8031 22.0454q-15.2345 8.44479 -32.2679 10.7066q-1.08462 2.22487 -2.357 4.565l-0.911 1.714q1.3192 2.13508 2.31283 4.31171t1.6568 4.38111t0.996264 4.4367q0.333103 2.23223 0.333103 4.47948v34.936
q0 7.7809 -3.981 15.351l-0.28 0.574q0.75728 2.02291 1.13014 3.94531q0.37286 1.9224 0.37286 3.80169q0 21.6486 -37.12 34.506q-32.5448 11.271 -76.958 11.271q-21.173 0 -41.3144 -2.94984q-20.1414 -2.94984 -35.6516 -8.32216q-18.2138 -6.30903 -27.6669 -15.0987
q-9.45308 -8.78964 -9.45308 -19.4163l1.503 -7.737l-0.26 -0.516q-3.989 -7.65261 -3.989 -15.409v-34.936q0 -9.07104 5.297 -17.583l-0.931 -1.72q-2.17357 -3.99238 -3.27079 -8.04576q-1.09721 -4.05338 -1.09721 -8.09124v-34.942q0 -8.8375 5.026 -17.175
l-0.657 -1.207q-4.368 -8.02157 -4.368 -16.113v-34.965q0 -4.7736 1.44746 -9.40512q1.44746 -4.63152 4.29144 -8.98792q2.84398 -4.3564 6.99739 -8.40507q4.15342 -4.04866 9.62904 -7.7332q5.47563 -3.68454 12.1227 -6.89568q33.643 -16.254 82.346 -16.254
q4.32144 0 8.66358 0.159465t8.67666 0.476726q4.33452 0.317261 8.66134 0.792336t8.61742 1.10547q28.1185 -30.38 68.221 -30.38q25.918 0 47.9391 13.5523q22.0211 13.5523 34.8275 36.8564q12.8064 23.3041 12.8064 50.7323q-0.696174 38.9441 -24.538 67.588z
M698.351 647.809q29.5061 10.359 72.25 10.359q20.6655 0 39.317 -2.67612t32.93 -7.68988q25.156 -8.83406 25.156 -17.798q0 -3.689 -6.46552 -8.61401q-6.46552 -4.92502 -18.6915 -9.22099q-14.2706 -5.01511 -32.9225 -7.69206q-18.6519 -2.67694 -39.3225 -2.67694
q-10.2972 0 -20.2417 0.681447t-19.0893 1.99378q-9.14477 1.31233 -17.4791 3.25419q-8.33436 1.94186 -15.4398 4.43958q-25.146 8.83845 -25.146 17.835q-0.000824052 3.68104 6.46186 8.59735q6.46269 4.91631 18.6831 9.20765zM670.445 595.801
q14.2452 -10.43 41.1938 -16.549q26.9486 -6.11902 58.9622 -6.11902q69.1526 0 100.172 22.675v-24.415q0 -4.4714 -3.24062 -9.16351t-9.37642 -9.15298q-6.1358 -4.46086 -14.604 -8.25551q-30.0967 -13.489 -72.952 -13.489q-42.852 0 -72.944 13.489
q-12.7799 5.72846 -19.9965 12.7753q-7.21654 7.04687 -7.21654 13.7977l0.001 24.408zM770.601 391.553q-42.8457 0 -72.944 13.483q-6.34434 2.84134 -11.4327 6.10256q-5.08832 3.26122 -8.57052 6.65649q-3.4822 3.39527 -5.34551 6.91173
q-1.86331 3.51646 -1.86331 6.86022v27.872q15.4135 -12.6848 42.0826 -19.9494t58.0734 -7.26461q3.10357 0 8.276 0.297q1.46254 -10.5893 5.03706 -20.6911q3.57452 -10.1017 9.05594 -19.1489q-5.57834 -0.56331 -11.1892 -0.84653t-11.1798 -0.28247zM778.808 461.317
q-5.12148 -0.326 -8.207 -0.326q-42.8493 0 -72.944 13.485q-27.213 12.1955 -27.213 26.551v27.89q7.62382 -6.2903 18.3913 -11.3717t23.5977 -8.5825t27.6904 -5.38797q14.8601 -1.88685 30.4766 -1.88685q5.50932 0 11.2595 0.313206q5.7502 0.313206 11.8955 0.948794
q-11.9456 -19.0704 -14.947 -41.633zM873.441 370.747q-19.5853 0 -36.2259 10.2417q-16.6406 10.2417 -26.3178 27.8525q-9.67724 17.6108 -9.67724 38.3377q0 31.6079 21.1768 54.0184q21.1768 22.4106 51.0442 22.4106q29.8685 0 51.0458 -22.4108
q21.1772 -22.4108 21.1772 -54.0182q0 -31.6076 -21.1777 -54.0198t-51.0453 -22.4122zM870.249 411.782v15.72h43.027q2.30124 1.53428 3.191 3.377v32.595q0 3.377 -3.191 3.377h-43.027v15.727q0 2.26032 -1.97 3.119q-1.96838 0.863642 -3.477 -0.731l-33.448 -35.399
q-0.934 -0.988574 -0.934 -2.389q0 -1.40298 0.934 -2.39l33.448 -35.398q0.684283 -0.7248 1.6335 -0.924625t1.8435 0.193625q1.97 0.864556 1.97 3.123zM833.496 -67.401q-19.4292 58.8616 -59.798 85.715q-8.2448 5.52555 -17.278 10.828t-17.1938 9.70485
t-18.3739 9.12686t-17.9622 8.16939q-7.74879 3.4449 -19.0053 7.81876t-18.4566 7.08864q-7.20005 2.71478 -19.3627 6.96535q-12.1626 4.25058 -18.6769 6.46258q-6.51429 2.21201 -19.446 6.56665q-12.9317 4.35465 -18.8137 6.35288q-29.1018 10.2932 -44.648 19.627
q-14.0158 8.40748 -19.988 36.19q-1.81384 10.1092 -2.461 21.571q34.0713 47.0576 55.1312 117.094q21.0598 70.036 21.0598 134.082q0 168.943 -165.136 168.943q-165.138 0 -165.138 -168.888q0 -32.5962 5.90182 -68.4998q5.90182 -35.9036 16.4038 -69.8034
q10.502 -33.8998 25.7217 -65.1592q15.2197 -31.2594 33.1137 -54.2837q-0.747356 -8.32214 -1.904 -14.777q-5.91633 -27.4617 -19.98 -35.901q-13.2601 -7.95397 -44.664 -19.06q-6.43015 -2.18427 -30.8251 -10.3312q-24.395 -8.14696 -33.5266 -11.3512
q-9.13162 -3.20426 -29.7058 -10.9674t-32.6586 -13.4493q-12.0844 -5.68609 -28.2028 -14.2427q-16.1183 -8.55663 -29.6341 -17.6171q-39.4231 -26.209 -59.796 -87.975q-16.3429 -49.9335 -15.112 -111.119h825.525q0.551739 27.2276 -3.2503 56.855
q-3.80204 29.6274 -11.8597 54.264z" />
    <glyph glyph-name="recorder" unicode="4" 
d="M727.692 345.044l196.525 209.682l-50.391 53.764l-186.447 -198.929l-10.078 10.753l186.446 198.929l-10.078 10.753l-196.525 -209.681zM683.6 373.27l34.833 -37.165l-82.074 -13.238l12.407 87.569zM933.617 564.857q0.355086 0.331148 0.679247 0.651406
q0.324161 0.320258 0.626753 0.643594l17.637 18.818q7.827 8.35125 7.827 20.1619t-7.827 20.1611l-32.754 34.947q-5.13308 5.47689 -12.0147 7.42333q-6.88167 1.94644 -13.7632 0q-6.8815 -1.94644 -12.0141 -7.42333l-17.637 -18.818
q-0.564616 -0.601902 -1.213 -1.394zM833.496 -67.401q-19.4292 58.8616 -59.798 85.715q-8.2448 5.52555 -17.278 10.828t-17.1938 9.70485t-18.3739 9.12686t-17.9622 8.16939q-7.74879 3.4449 -19.0053 7.81876t-18.4566 7.08864q-7.20005 2.71478 -19.3627 6.96535
q-12.1626 4.25058 -18.6769 6.46258q-6.51429 2.21201 -19.446 6.56665q-12.9317 4.35465 -18.8137 6.35288q-29.1018 10.2932 -44.648 19.627q-14.0158 8.40748 -19.988 36.19q-1.81384 10.1092 -2.461 21.571q34.0713 47.0576 55.1312 117.094
q21.0598 70.036 21.0598 134.082q0 168.943 -165.136 168.943q-165.138 0 -165.138 -168.888q0 -32.5962 5.90182 -68.4998q5.90182 -35.9036 16.4038 -69.8034q10.502 -33.8998 25.7217 -65.1592q15.2197 -31.2594 33.1137 -54.2837q-0.747356 -8.32214 -1.904 -14.777
q-5.91633 -27.4617 -19.98 -35.901q-13.2601 -7.95397 -44.664 -19.06q-6.43015 -2.18427 -30.8251 -10.3312q-24.395 -8.14696 -33.5266 -11.3512q-9.13162 -3.20426 -29.7058 -10.9674t-32.6586 -13.4493q-12.0844 -5.68609 -28.2028 -14.2427
q-16.1183 -8.55663 -29.6341 -17.6171q-39.4231 -26.209 -59.796 -87.975q-16.3429 -49.9335 -15.112 -111.119h825.525q0.551739 27.2276 -3.2503 56.855q-3.80204 29.6274 -11.8597 54.264z" />
    <glyph glyph-name="verifier" unicode="5" 
d="M820.068 720.484q-47.4966 0 -87.7767 -23.4003q-40.2802 -23.4003 -63.6802 -63.6804q-23.4001 -40.2801 -23.4001 -87.7763q0 -47.4961 23.4003 -87.7763q23.4003 -40.2802 63.6804 -63.6804q40.2802 -23.4003 87.7763 -23.4003q72.4236 0 123.64 51.2169
q51.2167 51.2169 51.2167 123.64q0 47.4961 -23.4003 87.7763t-63.6804 63.6804t-87.7763 23.4003zM820.068 403.556q-58.752 0 -100.412 41.6595q-41.6595 41.6595 -41.6595 100.412t41.6595 100.412t100.412 41.6595t100.412 -41.6595t41.6595 -100.412t-41.6595 -100.412
t-100.412 -41.6595zM891.759 600.139q-3.4016 0.143664 -6.59051 -1.03285q-3.18891 -1.17652 -5.64949 -3.64515l-75.845 -75.833l-43.059 43.047q-4.95138 4.96756 -12.24 4.678q-6.55066 -0.270811 -10.939 -4.678q-2.20737 -2.20737 -3.37914 -5.03654
q-1.17177 -2.82916 -1.29886 -5.90246q-0.307025 -7.27121 4.678 -12.24l54.643 -54.643q4.798 -4.798 11.595 -4.798q6.7985 0 11.595 4.798l87.429 87.429q4.96535 4.96535 4.678 12.24q-0.0836294 2.02291 -0.603713 3.92398q-0.520084 1.90107 -1.55391 3.7177
q-1.03382 1.81663 -2.52038 3.29732q-4.42677 4.42677 -10.939 4.678zM833.496 -67.401q-19.4292 58.8616 -59.798 85.715q-8.2448 5.52555 -17.278 10.828t-17.1938 9.70485t-18.3739 9.12686t-17.9622 8.16939q-7.74879 3.4449 -19.0053 7.81876t-18.4566 7.08864
q-7.20005 2.71478 -19.3627 6.96535q-12.1626 4.25058 -18.6769 6.46258q-6.51429 2.21201 -19.446 6.56665q-12.9317 4.35465 -18.8137 6.35288q-29.1018 10.2932 -44.648 19.627q-14.0158 8.40748 -19.988 36.19q-1.81384 10.1092 -2.461 21.571
q34.0713 47.0576 55.1312 117.094q21.0598 70.036 21.0598 134.082q0 168.943 -165.136 168.943q-165.138 0 -165.138 -168.888q0 -32.5962 5.90182 -68.4998q5.90182 -35.9036 16.4038 -69.8034q10.502 -33.8998 25.7217 -65.1592q15.2197 -31.2594 33.1137 -54.2837
q-0.747356 -8.32214 -1.904 -14.777q-5.91633 -27.4617 -19.98 -35.901q-13.2601 -7.95397 -44.664 -19.06q-6.43015 -2.18427 -30.8251 -10.3312q-24.395 -8.14696 -33.5266 -11.3512q-9.13162 -3.20426 -29.7058 -10.9674t-32.6586 -13.4493
q-12.0844 -5.68609 -28.2028 -14.2427q-16.1183 -8.55663 -29.6341 -17.6171q-39.4231 -26.209 -59.796 -87.975q-16.3429 -49.9335 -15.112 -111.119h825.525q0.551739 27.2276 -3.2503 56.855q-3.80204 29.6274 -11.8597 54.264z" />
    <glyph glyph-name="big" unicode="6" 
d="M1024 256v64h-193.29q-4.33625 53.7675 -22.8233 102.752q-18.4871 48.9843 -48.8467 89.4983h161.944l70.06 280.24l-62.09 15.522l-57.94 -231.76h-174.68q-0.73184 0.569392 -2.698 2.056q10.362 30.1162 10.362 62.194q0.00150001 79.3203 -56.2334 135.409
q-56.2349 56.0888 -135.765 56.0888q-80 0 -136 -56t-56 -135.5q0 -10.7993 1.19837 -21.4607q1.19837 -10.6615 3.4906 -20.7858q2.29223 -10.1244 5.67303 -19.9474q-2.35907 -1.79289 -2.698 -2.056h-174.68l-57.94 231.76l-62.09 -15.522l70.06 -280.24h161.944
q-20.0904 -26.809 -35.0048 -57.2605t-24.3397 -64.751q-9.42524 -34.2995 -12.3235 -70.2365h-193.29v-64h193.37q5.62774 -67.5921 33.638 -127.75h-123.992l-70.06 -280.238l62.09 -15.524l57.94 231.762h112.354q44.8866 -59.6775 109.205 -93.7138
q64.3188 -34.0362 137.455 -34.0362q73.1353 0 137.454 34.036t109.208 93.714h112.354l57.94 -231.762l62.09 15.524l-70.06 280.238h-123.992q28.0114 60.1605 33.636 127.75z" />
    <glyph glyph-name="clover" unicode="7" 
d="M786.832 439.228q-43.5643 0 -82.2947 -17.0436q-38.7304 -17.0436 -67.5573 -47.6504q-23.9706 -25.4512 -73.8 -54.81q10.0108 38.2183 37.2845 82.7866q27.2737 44.5684 52.3435 68.6694q30.2602 29.1381 47.1221 68.3033q16.8619 39.1652 16.8619 83.1967
q0.00177017 33.8971 -10.3139 65.6638q-10.3157 31.7667 -29.2388 57.4058q-18.9231 25.6391 -44.0936 45.0232t-56.4351 30.125q-31.2645 10.741 -64.7066 11.1022q-55.7687 -0.601389 -102.915 -28.716q-47.1458 -28.1146 -74.5136 -76.106
q-27.3678 -47.9913 -27.3678 -104.496q0 -89.8899 63.986 -151.5q25.0711 -24.1008 52.3448 -68.6691q27.2738 -44.5684 37.2832 -82.7869q-49.8349 29.3615 -73.8 54.81q-19.0239 20.1975 -42.4052 34.5889q-23.3813 14.3913 -50.865 22.2482
q-27.4837 7.85688 -56.5799 7.85688q-85.7957 0 -146.438 -61.2931q-60.6422 -61.2931 -60.6422 -148.035q0 -86.728 60.6443 -148.033t146.436 -61.305q88.1982 0 149.85 65.452q12.6428 13.4463 33.5614 29.1254q20.9186 15.6791 44.7306 29.5066
q-2.1213 -104.363 -44.4161 -184.189q-42.2948 -79.8253 -100.902 -114.717v-37.742h384.014v37.74q-58.61 34.8891 -100.905 114.716q-42.295 79.8265 -44.4149 184.19q50.9862 -29.6038 78.292 -58.632q28.9831 -30.7697 67.7279 -48.1109t82.1241 -17.3411
q85.7901 0 146.434 61.3051q60.6439 61.3051 60.6439 148.033q-0.0014999 86.7424 -60.6425 148.035q-60.641 61.2928 -146.438 61.2928z" />
    <glyph glyph-name="uni38" unicode="8" 
d="M864.626 358.838q-46.6418 130.121 -139.87 250.995q-93.2285 120.874 -212.756 222.167q-45.4922 -38.5522 -87.0714 -79.5642q-41.5792 -41.012 -81.7774 -88.2024q-40.1982 -47.1904 -73.7956 -95.5608q-33.5974 -48.3703 -62.155 -102.225
q-28.5576 -53.8547 -47.8266 -107.61q-68.5442 -191.21 12.584 -345.4q49.3949 -93.8747 141.701 -149.656q92.3059 -55.7817 198.341 -55.7817q106.036 0 198.341 55.7821t141.699 149.658q81.1312 154.185 12.586 345.398zM738.764 73.044
q-32.8514 -62.4388 -94.5756 -99.7414q-61.7242 -37.3026 -132.188 -37.3026q-83.3668 0 -152.112 50.652q10.058 -1.30947 20.0899 -1.98074q10.0318 -0.671263 20.0221 -0.671263q88.0703 0 165.211 46.6108q77.1408 46.6108 118.191 124.631
q56.9097 108.159 23.882 244.338q22.0326 -42.6031 36.848 -83.932q48.7258 -138.55 -5.368 -242.604z" />
    <glyph glyph-name="hourglass1" unicode="9" 
d="M728.992 320q105.142 66.6584 168.075 186.188q62.933 119.529 62.933 261.812q0 16.1497 -0.875857 32.1585q-0.875857 16.0089 -2.60214 31.8415h-889.042q-1.72826 -15.8246 -2.60413 -31.8336q-0.875868 -16.0091 -0.875868 -32.1664q0 -142.283 62.9327 -261.812
q62.9327 -119.529 168.073 -186.188q-105.141 -66.6586 -168.073 -186.188q-62.9327 -119.529 -62.9327 -261.812q0 -8.10284 0.221239 -16.1878q0.221239 -8.08499 0.66021 -16.0868q0.438971 -8.00182 1.08741 -15.9201q0.648443 -7.91831 1.50914 -15.8052h889.042
q3.478 31.8705 3.478 64q0.00147602 142.283 -62.9312 261.812q-62.9327 119.529 -168.075 186.188zM160 -128q0 143.162 59.0771 251.194q59.0771 108.032 164.923 146.514v100.586q-105.846 38.4785 -164.923 146.51q-59.0771 108.032 -59.0771 251.196h704
q0 -143.164 -59.0771 -251.196q-59.0771 -108.032 -164.923 -146.51v-100.586q105.846 -38.4815 164.923 -146.514q59.0771 -108.032 59.0771 -251.194zM619.626 162.406q-13.0477 7.40097 -23.7936 15.6432t-18.2772 16.6927t-13.3139 16.6544
q-5.78266 8.20394 -9.31958 17.0355q-3.53692 8.83151 -5.85075 16.2283q-2.31383 7.39676 -3.35094 15.8404t-1.37658 14.2644q-0.33947 5.82069 -0.343513 13.0072v64.228q0 8.36162 0.385734 14.9938q0.385734 6.63215 2.08103 16.6851q1.6953 10.053 4.65863 18.4791
q2.96333 8.4261 8.63933 18.9151q5.676 10.489 13.4676 19.5512q7.79161 9.06218 19.699 18.8294q11.9074 9.76725 26.8127 18.2103q58.2863 33.854 97.048 98.336h-409.582q38.8026 -64.5511 97.166 -98.406q13.0477 -7.40097 23.7935 -15.6431
q10.7459 -8.24208 18.277 -16.6926t13.3136 -16.654q5.78251 -8.2035 9.31937 -17.0354q3.53686 -8.83186 5.85061 -16.228t3.35098 -15.8406q1.03724 -8.44444 1.37684 -14.2645q0.339599 -5.82008 0.344092 -13.0078v-64.228q5.68434e-14 -15.6829 -1.98252 -28.1651
q-1.98252 -12.4822 -8.64789 -30.6188q-6.66537 -18.1366 -23.193 -35.3165q-16.5276 -17.1799 -41.9206 -31.5636q-54.8503 -31.8579 -92.8796 -91.6076q-38.0293 -59.7497 -50.2104 -134.728h501.67q-12.1902 75.0216 -50.2538 134.793q-38.0636 59.7718 -92.9582 91.6126
z" />
    <glyph glyph-name="hourglass2" unicode=":" 
d="M784 -64q7 0 11.5 -4.5t4.5 -11.5v-48h-608v48q0 7 4.5 11.5t11.5 4.5h53.44q0.738068 59.2055 15.6244 110.949q14.8864 51.7434 35.5902 86.624q20.7039 34.8807 41.3071 64.0939t34.9528 56.1575t14.3495 50.0157q0 19.6781 -10.5066 38.3827
q-10.5066 18.7045 -26.2855 34.028q-15.7789 15.3235 -34.2419 40.9009t-34.346 55.828q-15.883 30.2506 -26.6295 82.1942q-10.7465 51.9436 -11.0626 116.826h-52.192q-7 0 -11.5 4.5t-4.5 11.5v48h608v-48q0 -7 -4.5 -11.5t-11.5 -4.5h-48.96
q-0.37417 -76.7939 -15.2509 -134.945q-14.8767 -58.1506 -35.8357 -89.8382t-41.8664 -54.8761q-20.9074 -23.1885 -35.5132 -44.411q-14.6058 -21.2225 -14.6058 -44.0902q0 -19.7563 10.3274 -42.4958q10.3274 -22.7395 25.8558 -43.6523
q15.5284 -20.9128 33.7527 -50.3118q18.2243 -29.399 33.9581 -60.3146t26.5359 -75.9643q10.8021 -45.0487 11.4261 -95.1012h50.176zM547.552 303.84q0 19.7611 10.5088 38.5045q10.5088 18.7434 26.2905 34.0631q15.7817 15.3197 34.2467 40.8756
q18.465 25.5559 34.3483 55.7751t26.6262 82.1396q10.7429 51.9204 11.0515 116.802h-386.016q0.308602 -64.8818 11.0515 -116.802q10.7429 -51.9204 26.6262 -82.1396q15.8833 -30.2192 34.3483 -55.7751q18.465 -25.5559 34.2467 -40.8756
q15.7817 -15.3197 26.2905 -34.0631q10.5088 -18.7434 10.5088 -38.5045q0 -19.1492 -10.3296 -41.555q-10.3296 -22.4058 -25.8609 -43.274q-15.5313 -20.8682 -33.7575 -50.3746t-33.9604 -60.6428q-15.7342 -31.1363 -26.5326 -76.4404
q-10.7985 -45.3041 -11.415 -95.5531h24.256q10.328 34.4072 57.28 58.688l42.464 21.664q39.9906 20.6666 48 27.904q7.968 7.2 18.048 32.256q10.64 -25.0835 18.24 -32.256q3.83537 -3.61963 15.6896 -10.5835q11.8542 -6.9639 31.7984 -17.3205l42.24 -21.664
q46.7919 -24.341 56.928 -58.688h28.608q-0.533655 43.4929 -8.64647 83.052q-8.11281 39.5591 -20.6537 69.0559q-12.5408 29.4968 -27.5856 55.867q-15.0447 26.3702 -29.9805 47.6236q-14.9358 21.2534 -27.2643 39.9114t-20.011 37.1447
q-7.68255 18.4867 -7.68255 35.1852zM514.24 350.816q-1.44137 -2.83469 -2.76547 -6.94444t-2.53006 -9.49312q-1.20596 -5.38337 -2.29194 -12.0589q-1.08598 -6.67551 -2.04453 -14.6076q-0.492906 -4.92906 -1.57418 -12.1959q-1.08127 -7.26688 -2.74582 -16.6681
q-3.35625 19.2265 -4.32 28.864q-4.05894 31.5178 -9.696 43.104q-2.90537 5.64266 -11.0999 15.8048q-8.19449 10.1621 -21.7001 24.8672l-40.032 43.776q-20.4889 22.0945 -33.652 37.9839q-13.1631 15.8894 -18.956 25.5041q71.232 -45.36 139.104 -45.376
q67.872 0 139.584 45.376q-6.00402 -9.60643 -19.2048 -25.4906t-33.5632 -37.9974l-39.872 -43.776q-26.6573 -29.4243 -32.64 -40.672z" />
    <glyph glyph-name="leaf" unicode=";" 
d="M1011.33 697.504q-41.2389 31.2509 -93.4168 56.3129t-110.52 42.2141q-58.3418 17.1521 -122.628 26.3295q-64.2859 9.17745 -129.346 9.17745q-162.09 0 -288.525 -54.1735t-194.635 -152.846q-64.3638 -93.1217 -70.208 -217.474q-5.19272 -110.46 36.684 -242.146
q35.4662 106.31 101.406 199.153q65.9396 92.8439 151.876 161.097q85.9367 68.2534 192.904 107.552t219.08 39.2989q-11.6296 -3.0758 -31.972 -9.53113q-20.3424 -6.45533 -79.331 -32.0167t-113.536 -57.3652q-54.5469 -31.8039 -122.459 -87.9271
q-67.9116 -56.1231 -118.227 -121.352q-0.282398 -0.347955 -0.847329 -1.06324t-2.24734 -2.92485q-1.68241 -2.20956 -3.51933 -4.70991q-57.7201 -77.2342 -91.078 -165.328q-76.784 -182.629 -76.784 -381.782h128q-2.16854 13.7184 -4.46102 37.8898
q-2.29249 24.1713 0.755379 93.2984t18.0656 131.602q83.6279 -11.306 150.852 -11.306q172.485 0 263.388 80.124q25.9891 22.907 49.2213 56.4471q23.2322 33.5401 35.6093 57.7672q12.3771 24.2271 33.7933 70.2417q16.6916 35.8637 26.3424 55.1971
q9.6508 19.3334 28.5315 53.3964q18.8807 34.063 37.4654 57.4603q18.5847 23.3973 44.659 52.3425q26.0743 28.9452 59.1631 54.0923t72.4927 47.6634q14.9445 8.54063 16.056 25.716q0.146721 17.156 -12.606 27.572z" />
    <glyph glyph-name="tree" unicode="&#x3c;" 
d="M554 122.667v-166h256v-84h-596v84h256v168q-107.38 18.1488 -178.69 101.012q-71.3098 82.8627 -71.3098 192.988q0 124.5 87.75 212.25t212.25 87.75q81.6075 0 150.235 -40.1044q68.6277 -40.1044 108.196 -109.125q39.5685 -69.0202 39.5685 -150.771
q0 -114.447 -75.9649 -198.409q-75.9649 -83.9612 -188.035 -97.5914z" />
    <glyph glyph-name="lightning" unicode="=" 
d="M384 832l-384 -512h384l-256 -512l896 640h-512l384 384h-512z" />
    <glyph glyph-name="uni41" unicode="A" 
d="M531.627 518.827q0 -91.307 -63.147 -168.533t-147.2 -77.227t-145.493 77.227t-61.44 168.533q0 85.333 60.16 145.92t147.2 60.587t148.48 -60.587q61.44 -60.587 61.44 -145.92zM-97.28 -170.667q0 110.933 118.613 211.627q118.613 100.694 299.52 100.693
q183.467 0 302.08 -100.693t118.613 -211.627h-838.827zM1083.73 494.08q0 65.707 -47.36 110.933t-110.08 45.227t-109.653 -45.227t-46.933 -110.933q0 -64.853 46.933 -111.36t109.653 -46.507t110.08 46.507q47.36 46.507 47.36 111.36zM1064.11 630.613
q58.027 -56.32 58.027 -137.813t-57.173 -136.96t-139.093 -55.467t-139.093 55.467t-57.173 136.96t57.173 139.52t139.093 58.027t138.24 -59.733zM1024.85 522.24q5.973 -13.653 -10.24 -17.92l-82.773 -31.573h-5.12l-1.707 -2.56q-16.213 0 -16.213 15.36v134.827
q0 13.653 14.507 13.653t14.507 -13.653v-111.787l67.413 20.48q15.36 5.973 19.627 -6.827h-0.001z" />
    <glyph glyph-name="uni42" unicode="B" 
d="M544.427 516.267q0 -90.453 -63.573 -167.68t-147.2 -77.227t-145.067 77.227t-61.44 167.68q0 87.04 59.733 148.48t147.2 61.44t148.907 -61.44t61.44 -148.48zM-82.773 -168.107q0 110.08 118.187 210.347q118.187 100.267 299.093 100.267q181.76 0 300.8 -100.267
t119.04 -210.347h-837.12zM1067.52 555.52q41.813 0 41.813 -43.52q0 -45.227 -41.813 -45.227h-109.227v-108.373q0 -42.667 -43.52 -42.667t-43.52 42.667v108.373h-108.373q-45.227 0 -45.227 45.227q0 43.52 45.227 43.52h108.373v107.52q0 42.667 43.52 42.667
t43.52 -42.667v-107.52z" />
    <glyph glyph-name="uni43" unicode="C" 
d="M552.107 517.12q0 -88.747 -63.573 -165.973t-147.2 -77.227t-145.067 77.227t-61.44 165.973q0 86.187 59.733 146.347t147.2 60.16t148.907 -60.16t61.44 -146.347zM-75.093 -169.813q0 110.08 118.187 209.493q118.187 99.413 299.093 99.413q181.76 0 300.8 -99.413
t119.04 -209.493h-837.12zM1058.13 465.92q41.813 0 -270.507 0q-45.227 0 -45.227 43.52q0 43.52 45.227 43.52h270.507q41.813 0 41.813 -43.52t-41.813 -43.52z" />
    <glyph glyph-name="uni44" unicode="D" 
d="M535.04 517.973q0 -88.747 -61.867 -165.973t-145.493 -77.227t-146.773 77.227t-63.147 165.973q0 86.187 61.44 146.347t147.627 60.16q84.48 0 146.347 -60.16t61.867 -146.347h-0.001zM-93.867 -168.96q0 110.08 118.613 209.493q118.613 99.413 302.08 99.413
q179.2 0 300.373 -99.413t121.173 -209.493h-842.24zM752.64 524.8q-69.973 74.24 89.6 66.56l-75.947 102.4q18.773 18.773 75.947 -9.813t62.293 -66.987q11.093 -58.027 -30.72 -115.2t-112.64 -52.053q-44.373 0.853 -66.56 42.24t-17.067 74.24t75.093 -41.387h0.001z
M1118.72 205.653l-95.573 -67.413l-176.64 249.173l-4.267 6.827q36.693 12.8 66.56 40.96q10.24 14.507 27.307 45.227l7.68 -22.187q58.311 -84.196 174.933 -252.587z" />
    <glyph glyph-name="uni45" unicode="E" 
d="M229.547 219.307q-32.427 0 -61.013 16.213t-49.92 42.667q-21.334 26.454 -33.707 58.88t-12.373 64.853t12.373 61.44t33.707 50.347t49.92 33.707t61.013 12.373q14.507 0 28.587 -3.413q14.08 -3.413 26.027 -7.68q-1.707 -12.8 -3.413 -25.173t-1.707 -26.027
q0 -51.2 20.48 -102.827t57.173 -91.733q-21.333 -35.84 -54.613 -59.733t-72.533 -23.893zM675.84 291.84q40.96 40.96 64.853 95.147t23.893 110.507q0 14.507 -2.133 28.587t-4.693 27.733q9.387 2.56 19.2 4.267t20.053 1.707q32.427 0 61.013 -12.373t49.493 -33.707
t33.28 -50.347t12.373 -61.44t-12.373 -64.853t-33.28 -58.88t-49.493 -42.667t-61.013 -16.213q-36.693 0 -67.84 20.053t-53.333 52.48v-0.001zM220.16 118.613q-61.44 -48.64 -95.573 -110.08t-34.133 -122.88h-178.347q0 36.693 21.333 77.227t61.44 74.667
t97.28 56.747t128 24.32v-0.001zM824.32 117.76q66.56 -4.267 120.32 -28.16t91.307 -57.173t57.6 -72.533t20.053 -74.24h-160.427q0 61.44 -33.707 122.453t-95.147 109.653zM522.24 279.893q-42.667 0 -79.36 23.893t-61.44 59.733q-21.333 29.867 -33.28 64.427
t-11.947 69.547q0 4.267 0.853 8.533t0.853 9.387q3.413 34.987 18.773 65.707t40.107 53.333t56.747 35.84t68.693 13.227q34.133 0 64.853 -11.947t55.04 -32.853t40.533 -49.493t21.333 -61.013q1.707 -7.68 2.133 -15.36t0.427 -15.36q0 -40.107 -15.36 -79.787
t-41.813 -71.253q-24.747 -29.867 -57.6 -48.213t-69.547 -18.347zM727.893 112.64q40.107 -21.333 71.253 -48.64t52.907 -57.173t33.28 -61.013t11.52 -60.16h-750.08q0 28.16 11.093 58.88t32 60.587t51.627 56.747t69.12 48.213q43.52 23.893 96.427 37.973t115.2 14.08
q59.733 0 110.933 -13.653t94.72 -35.84z" />
    <glyph glyph-name="uni46" unicode="F" 
d="M209.067 220.16q-33.28 0 -61.867 16.213t-49.92 42.667q-21.333 26.454 -33.707 58.88t-12.373 65.707q0 32.427 12.373 61.013t33.707 50.347t49.92 34.133q28.586 12.372 61.867 12.373q15.36 0 29.013 -3.413t26.453 -9.387q-4.267 -23.893 -4.267 -49.493
q0 -51.2 20.48 -103.68t56.32 -91.733q-21.333 -36.693 -54.187 -60.16t-73.813 -23.467zM657.067 292.693q42.667 40.96 66.133 95.573t23.467 110.933q0 29.013 -6.827 54.613q9.387 3.413 18.773 5.547t21.333 2.133q32.427 0 61.013 -12.373t49.493 -34.133
t33.28 -50.347t12.373 -61.013q0 -33.28 -12.373 -65.707t-33.28 -58.88t-49.493 -42.667t-61.013 -16.213q-38.4 0 -69.547 20.053t-53.333 52.48zM200.533 118.613q-61.44 -48.64 -96 -110.08t-34.56 -123.733h-178.347q0 36.693 21.333 77.227t61.44 74.667t97.28 57.173
t128.853 24.747zM807.253 116.907q66.56 -4.267 120.32 -27.733t91.307 -57.173t57.6 -72.533t20.053 -74.667h-160.427q0 61.44 -34.133 122.88t-94.72 109.227v-0.001zM501.76 279.893q-41.813 0 -78.08 23.893t-61.867 59.733q-21.333 29.867 -32.853 65.28t-11.52 70.4
q0 5.12 0.427 8.533t1.28 7.68q3.413 35.84 18.773 66.987t39.68 54.187t56.32 36.267t67.84 13.227q34.987 0 66.133 -12.373t55.467 -33.28t40.96 -49.493t22.613 -61.013q0.853 -9.387 1.28 -16.64t0.427 -14.08q0 -40.96 -15.36 -80.64t-42.667 -72.107
q-25.6 -29.013 -58.027 -47.787t-70.827 -18.773zM709.973 112.64q40.107 -21.333 71.68 -49.067t53.333 -58.027t32.853 -61.44t11.093 -59.307h-751.787q0 28.16 11.093 59.307t32 61.013t51.627 56.747t69.973 48.213q43.52 23.893 96 37.973t113.92 14.08
t113.493 -13.227t94.72 -36.267zM1002.67 608.427q-8.533 75.093 80.213 1.707l-3.413 89.6q9.387 0.853 20.48 -9.813t19.627 -26.453t11.947 -33.707t-1.707 -30.72q-7.68 -17.067 -24.747 -31.573t-38.4 -21.76t-44.8 -4.693t-43.947 20.48q-20.48 17.067 -20.907 38.4
t7.68 39.68t18.773 31.147t19.2 -62.293zM1086.29 274.773h-82.773v214.187l-1.707 7.68q15.36 -5.973 29.867 -5.973q14.507 0 25.6 2.56q8.533 2.56 17.067 5.973t17.067 7.68l-4.267 -15.36q-0.284 -72.249 -0.854 -216.747z" />
    <glyph glyph-name="uni47" unicode="G" 
d="M197.12 221.867q-32.427 0 -61.44 16.64t-50.347 42.667q-21.334 26.027 -33.707 58.88t-12.373 66.133q0 32.427 12.373 61.013t33.707 49.92q21.334 21.334 50.347 33.707t61.44 12.373q29.867 0 57.173 -11.093q-5.973 -23.893 -5.973 -52.053
q0 -52.053 20.48 -102.827t57.173 -91.733q-21.333 -36.693 -54.613 -60.16t-74.24 -23.467zM646.827 293.547q41.813 40.96 65.707 96.427t23.893 110.08q0 16.213 -2.133 29.867t-5.547 27.307q17.92 5.973 40.107 5.973q32.427 0 60.587 -12.373t49.493 -33.707
t33.28 -49.92t11.947 -61.013q0 -33.28 -11.947 -66.133t-33.28 -58.88t-49.493 -42.667t-60.587 -16.64q-37.547 0 -68.693 20.053t-53.333 51.627zM189.44 120.32q-63.147 -48.64 -97.28 -110.507t-34.133 -124.16h-179.2q0 36.693 21.333 77.653t61.867 75.093
t98.133 57.173t129.28 24.747v0.001zM796.16 119.467q67.413 -4.267 121.173 -28.16t91.307 -58.027q37.547 -34.134 57.6 -73.387t20.053 -74.24h-159.573q0 62.293 -34.56 123.733q-34.56 61.44 -96 110.08zM492.373 282.453q-43.52 0 -79.787 23.467t-61.867 60.16
q-21.333 29.867 -33.28 64.427t-11.947 69.547q0 5.973 0.427 9.813q0.427 3.84 1.28 8.107q3.413 35.84 19.2 66.56t40.533 53.333t56.747 35.84t68.693 13.227q34.133 0 65.28 -11.947t55.467 -32.853t40.96 -49.493t21.76 -61.867q2.56 -12.8 2.56 -30.72
q0 -40.107 -15.36 -79.36t-42.667 -71.68q-24.747 -30.72 -57.173 -48.64t-70.827 -17.92zM698.88 115.2q40.96 -22.187 72.533 -49.92t53.333 -58.027t32.853 -61.44t11.093 -60.16h-752.64q0 29.013 10.667 59.733t32 60.587t51.627 57.173t70.4 48.64
q43.52 23.04 96.853 37.547t114.773 14.507q60.587 0 112.213 -13.653t94.293 -34.987zM1118.72 660.48q11.093 0 20.053 -8.96t8.96 -20.907t-8.96 -20.907t-20.053 -8.96h-69.12v-68.267q0 -11.093 -8.107 -19.627t-20.053 -8.533q-12.8 0 -20.907 8.533t-8.107 19.627
v68.267h-69.973q-11.947 0 -20.48 8.96t-8.533 20.907t8.533 20.907t20.48 8.96h69.973v69.12q0 11.947 8.107 19.627t20.907 7.68q11.947 0 20.053 -7.68t8.107 -19.627v-69.12h69.12z" />
    <glyph glyph-name="uni48" unicode="H" 
d="M198.827 221.867q-32.427 0 -61.44 16.64t-50.347 42.667q-21.334 26.027 -33.707 58.88t-12.373 66.133q0 32.427 12.373 61.013t33.707 49.92q21.334 21.334 50.347 33.707t61.44 12.373q29.867 0 57.173 -11.093q-5.973 -23.893 -5.973 -52.053
q0 -52.053 20.48 -102.827t57.173 -91.733q-21.333 -36.693 -54.613 -60.16t-74.24 -23.467zM648.533 293.547q41.813 40.96 65.707 96.427t23.893 110.08q0 16.213 -2.133 29.867t-5.547 27.307q17.92 5.973 40.107 5.973q32.427 0 60.587 -12.373t49.493 -33.707
t33.28 -49.92t11.947 -61.013q0 -33.28 -11.947 -66.133t-33.28 -58.88t-49.493 -42.667t-60.587 -16.64q-37.547 0 -68.693 20.053t-53.333 51.627zM191.147 120.32q-63.147 -48.64 -97.28 -110.507t-34.133 -124.16h-179.2q0 36.693 21.333 77.653t61.867 75.093
t98.133 57.173t129.28 24.747v0.001zM797.867 119.467q67.413 -4.267 121.173 -28.16t91.307 -58.027t57.6 -73.387t20.053 -74.24h-159.573q0 62.293 -34.56 123.733q-34.56 61.44 -96 110.08v0.001zM494.08 282.453q-43.52 0 -79.787 23.467t-61.867 60.16
q-21.333 29.867 -33.28 64.427t-11.947 69.547q0 5.973 0.427 9.813q0.427 3.84 1.28 8.107q3.413 35.84 19.2 66.56t40.533 53.333t56.747 35.84t68.693 13.227q34.133 0 65.28 -11.947t55.467 -32.853t40.96 -49.493t21.76 -61.867q2.56 -12.8 2.56 -30.72
q0 -40.107 -15.36 -79.36t-42.667 -71.68q-24.747 -30.72 -57.173 -48.64t-70.827 -17.92zM700.587 115.2q40.96 -22.187 72.533 -49.92t53.333 -58.027t32.853 -61.44t11.093 -60.16h-752.64q0 29.013 10.667 59.733t32 60.587t51.627 57.173t70.4 48.64
q43.52 23.04 96.853 37.547t114.773 14.507q60.587 0 112.213 -13.653t94.293 -34.987zM1113.6 601.6q12.8 0 -188.587 0q-11.947 0 -20.48 8.533t-8.533 20.48t8.533 20.48t20.48 8.533h188.587q12.8 0 21.333 -8.533t8.533 -20.48t-8.533 -20.48t-21.333 -8.533z" />
    <glyph glyph-name="uni49" unicode="I" 
d="M301.227 -129.707l-155.307 40.96l-81.92 20.48v697.173l133.973 -34.133l103.253 -27.307v-697.173h0.001zM820.907 307.2q96.427 145.067 137.387 267.947l2.56 -1.707v-698.88l-135.68 36.693l-110.08 26.453v435.2q9.387 -14.507 22.187 -36.693t20.48 -29.013
l32.427 -41.813q10.24 13.938 30.72 41.813h-0.001zM679.253 669.867q0 46.08 33.28 77.653t78.933 31.573t78.08 -33.28t32.427 -75.947q0 -84.48 -111.787 -273.067q-110.933 172.373 -110.933 273.067v0.001zM790.187 599.04q53.76 0 53.76 52.48t-53.76 52.48
q-22.187 0 -39.253 -14.507t-17.067 -37.547t17.067 -37.973t39.253 -14.933zM610.987 628.907q1.707 -46.08 30.72 -114.347v-576.853l-264.533 -67.413v697.173q77.938 20.48 233.813 61.44z" />
    <glyph glyph-name="uni4A" unicode="J" 
d="M1004.37 480.427v-504.32q0 -67.413 -47.787 -115.2q-47.787 -47.787 -117.76 -47.787h-459.093q-65.707 0 -114.347 47.787t-48.64 111.787h-197.973v439.467h197.973v175.787q0 68.267 48.64 116.053t114.347 47.787h401.067q74.524 -90.453 223.573 -271.36z
M249.173 194.56q5.973 21.333 5.973 34.133q0 17.067 -10.24 28.16q-2.56 10.24 -13.653 28.16q-11.093 12.8 -29.867 19.627q-11.947 6.827 -29.867 6.827h-107.52v-256h48.64v87.04h63.147q21.333 0 29.013 6.827q17.92 11.947 44.373 45.227zM922.453 451.413v3.413
h-122.027q-31.573 0 -52.48 21.333t-20.907 52.053v143.36h-347.307q-33.28 0 -56.747 -25.173t-23.467 -58.453v-175.787h558.08v-439.467h-558.08q0 -29.867 23.467 -54.613t56.747 -24.747h459.093q34.133 0 58.88 24.747t24.747 58.027v475.307h0.001zM425.813 55.467
q31.573 0 52.053 11.947q20.48 4.267 38.827 25.173t25.173 37.973q10.24 27.307 10.24 55.04t-10.24 48.213q-2.56 19.627 -22.187 40.107q-22.187 23.893 -38.4 28.16q-30.72 9.387 -55.467 9.387h-93.867v-256h93.867zM680.107 203.093v64h121.173v44.373h-168.96v-256
h47.787v108.373h104.107v39.253h-104.107v0.001zM497.493 151.04q-2.56 -11.947 -14.507 -26.453q-1.707 -2.56 -5.973 -5.547t-9.387 -6.4t-10.24 -5.12q-8.533 -6.827 -31.573 -6.827h-46.08v166.4h46.08q14.507 0 31.573 -5.973q15.36 -2.56 25.6 -15.36
q11.947 -17.067 14.507 -26.453q5.12 -23.04 5.12 -32.427q0 -17.067 -5.12 -35.84zM192 256.853q5.12 -4.267 7.253 -10.667t2.133 -17.493q0 -19.627 -7.68 -32.427q-9.387 -9.387 -22.187 -9.387h-58.88v80.213h56.32q8.533 0 11.093 -1.707q9.387 0 11.947 -8.533z" />
    <glyph glyph-name="uni4B" unicode="K" 
d="M977.92 525.653q0 88.747 0 -494.933q0 -92.16 -63.147 -154.88t-155.307 -62.72h-493.227q-90.453 0 -153.6 62.72t-63.147 154.88v494.933q0 88.747 63.147 152.747q63.147 64 153.6 64h493.227q92.16 0 155.307 -64t63.147 -152.747zM121.173 30.72
q0 -60.587 41.813 -102.827t103.253 -42.24h493.227q63.147 0 104.533 42.24t41.387 102.827v494.933q0 60.587 -41.387 102.827t-104.533 42.24h-493.227q-61.44 0 -103.253 -42.24t-41.813 -102.827zM621.227 121.173q29.013 29.867 -232.107 130.56
q6.827 18.773 6.827 27.733t-6.827 27.733l232.107 132.267q29.013 -30.72 68.267 -30.72t66.987 28.16t27.733 65.707q0 43.52 -27.733 71.68t-66.987 28.16t-67.84 -28.16t-28.587 -71.68q0 -16.213 2.56 -25.6l-225.28 -130.56q-29.867 27.307 -71.68 27.307
q-40.107 0 -67.84 -27.733t-27.733 -65.707t27.733 -67.413t67.84 -29.44q41.813 0 71.68 29.867l225.28 -131.413q-2.56 -8.533 -2.56 -25.6q0 -42.667 28.587 -70.4t67.84 -27.733t66.987 27.733t27.733 70.4q0 39.253 -27.733 66.987q-27.733 27.734 -66.987 27.733
t-68.267 -29.867z" />
    <glyph glyph-name="uni4C" unicode="L" 
d="M809.813 104.107q62.293 0 105.387 -44.8t43.093 -105.813t-43.093 -102.827t-103.68 -41.813t-103.68 41.813t-43.093 103.253q0 18.773 4.267 43.52l-349.867 204.8q-40.96 -51.2 -104.96 -51.2q-61.44 0 -105.387 44.8t-43.947 105.387t43.947 104.96t105.387 44.373
q64 0 104.96 -49.493l349.867 203.947q-4.267 25.6 -4.267 44.373q0 60.587 43.093 102.827t103.68 42.24t103.68 -42.24t43.093 -102.827t-43.093 -105.387t-103.68 -44.8t-107.52 45.227l-349.867 -201.387q6.827 -29.013 6.827 -41.387t-6.827 -43.093l349.867 -203.947
q42.667 49.493 105.813 49.493v0.001z" />
    <glyph glyph-name="uni4D" unicode="M" 
d="M512.853 418.133q-23.893 0 -44.8 -8.96t-36.693 -24.747t-25.173 -37.12t-9.387 -45.227t9.387 -44.8t25.173 -36.267t36.693 -24.32t44.8 -8.96t44.8 8.96t36.267 24.32t24.32 36.267t8.96 44.8t-8.96 45.227t-24.32 37.12t-36.267 24.747t-44.8 8.96zM956.587 136.533
q-15.36 0 -27.307 -11.52t-11.947 -28.587v-113.493l-140.8 141.653q-11.093 11.093 -27.307 11.093t-26.453 -11.093q-11.947 -11.947 -11.947 -28.16t11.947 -27.307l139.947 -140.8h-114.347q-16.213 0 -28.16 -11.52t-11.947 -26.88q0 -17.067 11.947 -27.733
t28.16 -10.667h245.76v244.907q0 17.067 -10.667 28.587t-26.88 11.52h0.001zM956.587 469.333q-15.36 0 -27.307 11.52t-11.947 27.733v115.2l-140.8 -141.653q-11.093 -11.093 -27.307 -11.093t-26.453 11.093q-11.947 11.947 -11.947 27.733t11.947 26.027l139.947 140.8
h-114.347q-16.213 0 -28.16 11.947t-11.947 28.16q0 15.36 11.947 26.453t28.16 11.093h245.76v-245.76q0 -16.213 -10.667 -27.733t-26.88 -11.52zM69.12 136.533q16.213 0 27.733 -11.52t11.52 -28.587v-113.493l139.947 141.653q11.947 11.093 27.733 11.093
t26.88 -11.093q11.947 -11.947 11.947 -28.16t-11.947 -27.307l-140.8 -140.8h116.053q15.36 0 26.453 -11.52t11.093 -26.88q0 -17.067 -11.093 -27.733t-26.453 -10.667h-248.32v244.907q0 17.067 11.52 28.587t27.733 11.52h0.001zM69.12 469.333q16.213 0 27.733 11.52
t11.52 27.733v115.2l139.947 -141.653q11.947 -11.093 27.733 -11.093t26.88 11.093q11.947 11.947 11.947 27.733t-11.947 26.027l-140.8 140.8h116.053q15.36 0 26.453 11.947t11.093 28.16q0 15.36 -11.093 26.453t-26.453 11.093h-248.32v-245.76
q0 -16.213 11.52 -27.733t27.733 -11.52z" />
    <glyph glyph-name="uni4E" unicode="N" 
d="M976.213 468.48l-413.867 -430.933l-546.987 275.627l413.013 430.08l547.84 -274.773zM585.387 -175.787l-563.2 286.72l79.36 71.68l464.213 -231.253l345.6 363.52l97.28 -53.76z" />
    <glyph glyph-name="uni4F" unicode="O" 
d="M924.16 696.32l81.92 -86.187l-907.947 -847.36l-81.067 86.187l907.093 847.36h0.001z" />
    <glyph glyph-name="uni50" unicode="P" 
d="M778.24 559.787q108.373 -110.933 108.373 -266.667t-109.653 -265.387t-265.813 -109.653t-265.387 109.653t-109.227 265.387q2.84217e-14 155.734 109.227 266.24t265.387 110.507q156.16 0.001 267.093 -110.08zM540.16 3.413q104.107 11.093 177.493 84.053
t82.773 177.92h-147.627v55.467h147.627q-9.387 105.813 -82.773 179.627t-177.493 82.347v-149.333h-56.32v149.333q-104.96 -8.533 -178.347 -82.347t-81.92 -179.627h147.627v-55.467h-147.627q8.533 -104.96 81.92 -177.92q73.387 -72.96 178.347 -84.053v151.04h56.32z
M864.427 645.973q145.92 -147.627 145.92 -351.573t-146.773 -352t-351.573 -148.053t-352 148.053t-147.2 352t147.2 351.573q147.2 147.625 352 147.627t352.427 -147.627h-0.001zM823.467 -17.92q128.853 128.853 128.853 311.467t-128.427 311.893t-311.467 129.28
t-312.32 -129.28t-129.28 -311.893t129.28 -311.04t312.32 -128.427q183.04 0.001 311.04 128z" />
    <glyph glyph-name="uni51" unicode="Q" 
d="M861.867 -53.76q-148.48 -147.627 -352 -147.627t-349.44 146.347t-145.92 350.72t145.92 351.147t349.44 146.773q203.52 -0.001 351.147 -146.773t147.627 -351.147t-146.773 -349.44zM803.84 588.8q-120.32 122.027 -292.267 122.027t-293.973 -121.173
t-122.027 -293.547t122.027 -293.973q122.028 -121.599 293.973 -121.6t293.12 121.6t121.173 293.973t-122.027 292.693h0.001zM759.467 46.933q-104.107 -103.253 -248.747 -103.253t-248.747 103.68t-104.107 247.893t104.107 248.32q104.107 104.107 248.747 104.107
q144.64 -1.13687e-13 249.173 -104.107t104.533 -248.32t-104.96 -248.32zM720.213 505.173q-85.333 86.187 -209.067 86.187t-210.347 -85.333t-86.613 -210.347t86.613 -209.92t210.347 -84.907t209.493 84.907t85.76 209.92q0.001 125.012 -86.187 209.493z
M663.893 302.08q7.68 0 -146.773 0v147.627q0 6.827 -7.253 6.827t-7.253 -6.827v-147.627h-145.92q-8.533 0 -8.533 -6.827t8.533 -6.827h145.92v-146.773q0 -5.973 7.253 -5.973t7.253 5.973v146.773h146.773q7.68 0 7.68 6.827t-7.68 6.827z" />
    <glyph glyph-name="uni52" unicode="R" 
d="M961.707 552.96q18.773 0 -901.973 0q-18.773 0 -31.573 13.227t-12.8 32t12.8 31.147t31.573 12.373h901.973q18.773 0 32.853 -12.373t14.08 -31.147t-14.08 -32t-32.853 -13.227zM961.707 244.907q18.773 0 -901.973 0q-18.773 0 -31.573 13.227
q-12.8 13.227 -12.8 32.853t12.8 32.853t31.573 13.227h901.973q18.773 0 32.853 -13.227t14.08 -32.853t-14.08 -32.853t-32.853 -13.227zM961.707 -59.733q18.773 0 -901.973 0q-18.773 0 -31.573 12.8t-12.8 30.293t12.8 32t31.573 14.507h901.973
q18.773 0 32.853 -14.507t14.08 -32q1.13687e-13 -17.493 -14.08 -30.293t-32.853 -12.8z" />
    <glyph glyph-name="uni53" unicode="S" 
d="M949.76 558.08q18.773 0 -913.067 0q-18.773 0 -33.28 13.653t-14.507 32.427t14.507 31.573t33.28 12.8h913.067q18.773 0 32 -12.8t13.227 -31.573t-13.227 -32.427t-32 -13.653zM502.613 245.76h-465.92q-18.773 0 -33.28 13.653t-14.507 33.28q0 16.213 12.8 30.72
t23.893 14.507h506.027zM553.813 -63.147h-517.12q-18.773 0 -33.28 13.227t-14.507 31.573t14.507 32.427t33.28 14.08h474.453q14.222 -30.436 42.667 -91.307zM1033.39 200.533q-5.12 11.947 -16.213 11.947q-38.4 0 -52.053 33.28q-13.653 34.987 13.653 63.147
q7.68 5.973 2.56 16.213q-23.04 30.72 -41.813 41.813q-6.827 8.533 -18.773 -3.413q-23.04 -29.867 -59.733 -13.653q-38.4 20.48 -32.427 55.467q0 13.653 -14.507 13.653q-26.453 1.707 -53.76 0q-15.36 0 -15.36 -13.653q6.827 -38.4 -30.72 -53.76
q-35.84 -13.653 -63.147 15.36q-5.973 8.533 -16.213 3.413q-23.893 -22.187 -40.96 -42.667q-9.387 -6.827 0 -18.773q29.867 -28.16 17.067 -58.88q-21.333 -37.547 -56.32 -37.547q-12.8 0 -12.8 -9.387q-5.973 -29.867 0 -56.32q0 -11.947 12.8 -11.947
q39.253 0 53.76 -35.84q11.093 -33.28 -14.507 -62.293q-9.387 -6.827 0 -15.36q17.067 -23.04 37.547 -40.96q7.68 -9.387 19.627 0q23.893 30.72 58.88 14.507q34.987 -14.507 34.987 -54.613q-6.827 -13.653 11.947 -13.653h54.613q14.507 0 14.507 13.653
q0 34.987 32.427 54.613q33.28 11.093 62.293 -14.507q11.947 -9.387 18.773 -2.56q23.893 17.067 39.253 39.253q10.24 12.8 0 17.92q-32.427 28.16 -13.653 64q13.653 32.427 50.347 32.427h1.707q11.093 0 16.213 15.36v26.453q2.56 27.307 0 27.307zM787.627 90.453
q-35.84 0 -58.453 23.893t-22.613 58.88t22.613 58.453t58.453 23.467q33.28 0 57.6 -23.467t24.32 -58.453t-24.32 -58.88t-57.6 -23.893z" />
    <glyph glyph-name="uni54" unicode="T" 
d="M866.987 680.96q144.213 -147.627 144.213 -355.413t-145.493 -353.28t-352.853 -145.493t-353.707 145.493t-146.347 353.28t146.347 353.707t353.707 145.92q207.36 0.001 354.133 -144.213zM551.253 -58.027q138.24 12.8 235.52 109.653t110.933 238.507h-195.413
v71.68h195.413q-13.653 140.8 -110.933 238.507t-235.52 109.653v-197.973h-74.24v197.973q-139.947 -11.947 -238.08 -109.653t-110.08 -238.507h197.12v-71.68h-197.12q11.947 -141.653 110.08 -238.507t238.08 -109.653v197.973h74.24v-197.973z" />
    <glyph glyph-name="uni55" unicode="U" 
d="M970.24 -123.733q36.693 -34.987 0 -63.147q-8.533 -14.507 -29.013 -14.507q-21.333 0 -33.28 14.507l-396.8 393.387l-397.653 -393.387q-11.947 -14.507 -33.28 -14.507q-20.48 0 -29.867 14.507q-34.133 28.16 0 63.147l392.533 395.947l-392.533 398.507
q-34.133 33.28 0 63.147q29.867 35.84 63.147 0l397.653 -393.387l396.8 393.387q33.28 35.84 62.293 0q36.693 -29.867 0 -63.147l-393.387 -398.507z" />
    <glyph glyph-name="uni56" unicode="V" 
d="M590.507 -177.493h-205.653v496.64h-104.107v170.667h104.107v100.693q0 224.427 223.573 224.427h134.827v-171.52h-87.893q-29.013 0 -43.52 -8.96t-17.92 -20.907t-3.413 -38.4v-85.333h152.747l-17.92 -170.667h-134.827v-496.64z" />
    <glyph glyph-name="uni57" unicode="W" 
d="M1032.53 636.587q-30.72 -50.347 -105.813 -110.08v-23.04q0 -232.107 -166.4 -418.987t-438.613 -186.88q-172.373 0 -329.387 91.307h54.613q146.773 0 262.827 89.6q-67.413 1.707 -122.88 43.52q-55.467 41.813 -74.24 104.96q10.24 -2.56 36.693 -2.56
q40.96 0 56.32 6.827q-69.12 13.653 -118.613 70.827q-49.493 57.174 -49.493 134.827v5.12q48.64 -24.747 93.867 -24.747q-91.307 56.32 -91.307 173.227q0 61.44 27.307 107.52q171.52 -209.92 436.907 -220.16q-6.827 28.16 -6.827 48.64q0 88.747 63.147 149.333
t152.747 60.587q93.013 0 154.453 -67.413q73.387 18.773 137.387 54.613q-29.867 -81.92 -98.133 -117.76q46.08 3.413 125.44 30.72z" />
    <glyph glyph-name="uni58" unicode="X" 
d="M529.067 193.707l-69.12 -260.267l-444.587 -134.827l217.6 218.453q54.613 -35.84 104.96 11.093q26.453 28.16 26.453 61.44t-27.307 59.733q-27.307 26.453 -59.733 26.453t-61.44 -27.307q-46.08 -49.493 -9.387 -103.253l-218.453 -219.307l134.827 445.44
l258.56 69.973l147.627 -147.627v0.003zM1036.8 649.387l-387.413 -386.56l-82.773 -23.893l-139.093 137.387l24.747 86.187l387.413 386.56l197.12 -199.68z" />
    <glyph glyph-name="uni59" unicode="Y" 
d="M132.267 147.627q96.427 0 149.76 -67.413t58.453 -106.24t5.12 -67.84l-14.507 29.867q-11.947 32.427 -65.707 62.72t-133.12 30.293v-108.373l-174.08 160.427l174.08 154.453v-87.893zM1016.32 630.613v-680.107h-581.12v116.053h467.627v451.413h-723.627v-197.973
h-113.493v310.613h950.613z" />
    <glyph glyph-name="uni5A" unicode="Z" 
d="M876.373 -49.493v107.52q-76.8 0 -130.987 -35.413t-66.56 -54.613t-13.227 -33.707l5.973 58.88q5.12 60.587 58.453 120.32q53.333 59.733 146.347 64v87.04l173.227 -157.013q-57.742 -52.338 -173.227 -157.013zM137.387 64.853h462.507v-110.08h-574.293v674.987
h942.933v-308.907h-112.64v194.56h-718.507z" />
    <glyph glyph-name="uni5B" unicode="[" 
d="M702.293 431.787l-133.12 -233.813l-234.667 -136.533l133.973 237.227l233.813 133.12zM547.84 221.013q29.867 24.747 0 56.32q-26.453 23.893 -56.32 0q-31.573 -31.573 0 -56.32q29.867 -31.573 56.32 -2.84217e-14zM580.267 732.16
q178.347 -26.453 300.373 -163.413t122.027 -320.427q0 -203.947 -144.213 -346.88t-345.173 -142.933t-345.6 142.933t-144.64 346.88q0 183.467 122.027 320.427t300.373 163.413q-17.067 23.04 -17.067 51.2q0 34.133 24.32 59.733t61.013 25.6t61.867 -25.6
t25.173 -59.733q0 -25.6 -20.48 -51.2zM512.853 817.493q-33.28 0 -33.28 -34.133q0 -35.84 33.28 -35.84q37.547 0 37.547 35.84q0 34.133 -37.547 34.133zM126.293 248.32q0 -160.427 114.347 -274.347t273.067 -113.92t273.493 113.92t114.773 274.347
q0 157.867 -114.773 273.067t-273.493 115.2t-273.067 -115.2t-114.347 -273.067z" />
    <glyph glyph-name="uni5C" unicode="\" 
d="M256 44.373l329.387 179.2l179.2 331.093l-330.24 -179.2zM321.707 110.933l124.587 222.72l98.133 -100.693zM510.293 615.253q14.507 0 14.507 13.653v31.573q0 14.507 -14.507 14.507q-13.653 0 -13.653 -14.507v-31.573q0 -13.653 13.653 -13.653zM510.293 -17.92
q-13.653 0 -13.653 -14.507v-31.573q0 -5.973 3.84 -10.24t9.813 -4.267q6.827 0 10.667 4.267t3.84 10.24v31.573q0 14.507 -14.507 14.507zM870.4 312.32q5.12 0 -31.573 0q-14.507 0 -14.507 -13.653q0 -14.507 14.507 -14.507h31.573q5.12 0 9.813 3.84t4.693 10.667
q0 5.973 -4.693 9.813t-9.813 3.84zM181.76 312.32q5.973 0 -31.573 0q-5.973 0 -10.24 -3.84t-4.267 -9.813q0 -6.827 4.267 -10.667t10.24 -3.84h31.573q5.973 0 10.24 3.84t4.267 10.667q0 5.973 -4.267 9.813t-10.24 3.84zM510.293 -194.56q-102.4 0 -192 38.827
t-157.013 106.24t-106.24 157.013t-38.827 192t38.827 192t106.24 157.013t157.013 106.24q89.6 38.827 192 38.827q101.547 0 191.573 -38.827t157.44 -106.24t106.667 -157.013t39.253 -192t-39.253 -192t-106.667 -157.013t-157.44 -106.24t-191.573 -38.827z
M510.293 702.293q-83.627 0 -156.587 -31.573t-128 -86.613t-86.613 -128.427t-31.573 -156.16q0 -83.627 31.573 -156.587t86.613 -128q55.04 -55.04 128 -86.613t156.587 -31.573q82.773 0 156.16 31.573t128.427 86.613t86.613 128t31.573 156.587
q0 82.773 -31.573 156.16t-86.613 128.427t-128.427 86.613t-156.16 31.573z" />
    <glyph glyph-name="uni5D" unicode="]" 
d="M333.653 484.693l696.32 339.627l-339.627 -697.173l-356.693 357.547v-0.001zM333.653 484.693l-339.627 -697.173l696.32 339.627l-356.693 357.547v-0.001zM348.16 399.36l256.853 -257.707l-502.613 -244.907l245.76 502.613v0.001z" />
    <glyph glyph-name="uni5E" unicode="^" 
d="M231.253 -188.587h-187.733v133.973h187.733v-133.973zM419.84 -54.613h-188.587v133.12h188.587v-133.12zM606.72 -188.587h-186.88v133.973h186.88v-133.973zM794.453 -54.613h-187.733v133.12h187.733v-133.12zM981.333 -188.587h-186.88v133.973h186.88v-133.973z
M231.253 78.507h-187.733v133.973h187.733v-133.973zM419.84 212.48h-188.587v134.827h188.587v-134.827zM606.72 78.507h-186.88v133.973h186.88v-133.973zM794.453 212.48h-187.733v134.827h187.733v-134.827zM981.333 78.507h-186.88v133.973h186.88v-133.973z
M231.253 347.307h-187.733v133.973h187.733v-133.973zM419.84 481.28h-188.587v133.12h188.587v-133.12zM606.72 347.307h-186.88v133.973h186.88v-133.973zM794.453 481.28h-187.733v133.12h187.733v-133.12zM981.333 347.307h-186.88v133.973h186.88v-133.973z
M231.253 614.4h-187.733v133.973h187.733v-133.973zM606.72 614.4h-186.88v133.973h186.88v-133.973zM981.333 614.4h-186.88v133.973h186.88v-133.973z" />
    <glyph glyph-name="uni5F" unicode="_" 
d="M915.627 473.6q-64 64 -40.96 -40.96l-110.08 110.933q-8.533 6.827 -19.2 6.827t-17.493 -6.827q-7.68 -8.533 -7.68 -19.2t7.68 -17.493l110.933 -110.933l-41.813 -40.96l-57.173 57.173q-6.827 6.827 -17.493 6.827t-19.2 -6.827q-6.827 -8.533 -6.827 -19.2
t6.827 -17.493l57.173 -57.173l-41.813 -41.813l-110.08 111.787q-7.68 6.827 -18.347 6.827t-18.347 -6.827q-6.827 -8.533 -6.827 -19.2t6.827 -17.493l110.933 -111.787l-40.96 -40.107l-57.173 57.173q-6.827 6.827 -17.92 6.827t-18.773 -6.827
q-6.827 -8.533 -6.827 -19.2t6.827 -17.493l57.173 -57.173l-41.813 -41.813l-110.08 110.933q-7.68 7.68 -18.773 7.68t-17.92 -7.68t-6.827 -18.347t6.827 -18.347l110.933 -110.933l-40.96 -40.107l-57.173 56.32q-7.68 7.68 -18.347 7.68t-18.347 -7.68t-7.68 -18.347
t7.68 -18.347l57.173 -56.32l-41.813 -41.813l-110.08 110.933q-8.533 6.827 -18.773 6.827t-17.92 -6.827q-7.68 -7.68 -7.68 -18.347t7.68 -18.347l110.933 -110.933l-41.813 -40.96l-56.32 57.173q-7.68 6.827 -18.347 6.827t-18.347 -6.827q-7.68 -7.68 -7.68 -18.773
q0 -11.093 7.68 -17.92l56.32 -57.173l-46.933 -46.933l-206.507 206.507l753.493 752.64l206.507 -206.507l-47.787 -46.933l-56.32 57.173q-8.533 6.827 -18.773 6.827t-17.92 -6.827q-7.68 -7.68 -7.68 -18.773t64 -75.093z" />
    <glyph glyph-name="uni60" unicode="`" 
d="M308.053 -190.293h-272.213v957.44h272.213v-128.853h-55.467q-9.387 0 -15.787 -6.4t-6.4 -15.787t6.4 -15.36t15.787 -5.973h55.467v-92.16h-97.28q-9.387 0 -15.787 -6.827t-6.4 -16.213t6.4 -15.36t15.787 -5.973h97.28v-79.36h-55.467q-9.387 0 -15.787 -5.973
t-6.4 -15.36t6.4 -15.787t15.787 -6.4l55.467 -0.853v-75.947h-55.467q-9.387 0 -15.787 -5.973t-6.4 -15.36t6.4 -15.787t15.787 -6.4h55.467v-93.013h-55.467q-9.387 0 -15.787 -6.4t-6.4 -15.787t6.4 -15.36t15.787 -5.973h55.467v-93.013h-97.28q-9.387 0 -15.787 -6.4
t-6.4 -15.787t6.4 -15.36t15.787 -5.973h97.28v-132.267v-0.001zM882.347 494.933v56.32q0 8.533 -6.827 14.933t-16.213 6.4q-8.533 0 -14.933 -6.4t-6.4 -14.933v-56.32h-102.4v96.427q0 9.387 -6.4 16.213t-15.787 6.827t-15.787 -6.827t-6.4 -16.213v-96.427h-81.92
v56.32q0 8.533 -6.4 14.933t-15.787 6.4t-15.787 -6.4t-6.4 -14.933v-56.32h-82.773v56.32q0 8.533 -6.4 14.933t-15.787 6.4t-15.787 -6.4t-6.4 -14.933v-56.32h-82.773v272.213h638.293v-272.213h-110.933z" />
    <glyph glyph-name="uni61" unicode="a" 
d="M0.853 -185.173l-5.12 1035.09l121.173 -121.173l-36.693 -35.84q-6.827 -5.973 -6.827 -17.92q0 -11.093 6.827 -17.067q6.827 -7.68 17.067 -7.68t18.773 7.68l35.84 35.84l51.2 -49.493l-38.4 -37.547q-5.973 -7.68 -5.973 -17.92q0 -7.68 5.973 -17.92
q8.533 -6.827 18.773 -6.827t17.067 6.827l37.547 38.4l50.347 -51.2l-36.693 -36.693q-7.68 -7.68 -7.68 -17.92q0 -9.387 7.68 -17.92q6.827 -7.68 17.067 -7.68t17.92 7.68l36.693 37.547l50.347 -50.347l-69.973 -70.827q-4.267 -3.413 -5.973 -8.107t-1.707 -8.96
q0 -10.24 7.68 -17.92q6.827 -7.68 17.493 -7.68t17.493 7.68l71.68 70.827l48.64 -50.347l-36.693 -37.547q-7.68 -9.387 -7.68 -17.067q0 -8.533 7.68 -17.92q7.68 -7.68 17.92 -7.68t17.067 7.68l37.547 37.547l50.347 -51.2l-36.693 -36.693
q-4.267 -4.267 -5.973 -8.533t-1.707 -8.533q0 -13.653 7.68 -17.92q6.827 -7.68 17.067 -7.68t17.92 7.68l37.547 35.84l50.347 -49.493l-37.547 -37.547q-7.68 -9.387 -7.68 -17.067q0 -10.24 7.68 -17.92q7.68 -6.827 17.92 -6.827t17.067 6.827l37.547 36.693
l51.2 -50.347l-70.827 -69.973q-7.68 -6.827 -7.68 -17.92t7.68 -17.067q6.827 -7.68 17.067 -7.68t17.92 7.68l70.827 69.973l50.347 -51.2l-37.547 -36.693q-4.267 -2.56 -5.547 -7.68t-1.28 -10.24q0 -10.24 6.827 -17.067q7.68 -6.827 18.347 -6.827t17.493 6.827
l36.693 36.693l51.2 -49.493l-36.693 -37.547q-7.68 -6.827 -7.68 -17.92q0 -10.24 7.68 -17.92q6.827 -6.827 16.64 -6.827t18.347 6.827l35.84 37.547l109.227 -108.373h-1031.68zM558.933 7.68l-388.267 388.267l1.707 -388.267z" />
    <glyph glyph-name="uni62" unicode="b" horiz-adv-x="1014" 
d="M367.787 726.187q40.96 0 40.96 -37.973t-40.96 -37.973h-194.56l222.72 -221.013q24.747 -29.013 -1.707 -55.04t-53.76 -2.133l-222.72 222.72v-194.56q0 -40.96 -37.547 -40.96t-37.547 40.96v325.973h325.12zM651.093 650.24q-36.693 0 -36.693 37.973t36.693 37.973
h326.827v-325.973q0 -40.96 -37.547 -40.96t-37.547 40.96v194.56l-221.867 -222.72q-29.867 -20.48 -55.467 0q-25.6 28.16 0 57.173l220.16 221.013h-194.56zM367.787 -133.12q40.96 0 40.96 -38.4t-40.96 -38.4h-325.12v326.827q0 36.693 37.547 36.693t37.547 -36.693
v-194.56l222.72 221.867q27.307 23.893 55.467 0q12.8 -14.507 12.8 -27.307q0 -16.213 -12.8 -29.867l-222.72 -220.16h194.56zM902.827 116.907q0 36.693 37.547 36.693t37.547 -36.693v-326.827h-326.827q-36.693 0 -36.693 38.4t36.693 38.4h194.56l-220.16 220.16
q-25.6 29.867 0 57.173q25.6 21.333 55.467 0l221.867 -221.867v194.56z" />
    <glyph glyph-name="uni63" unicode="c" 
d="M966.827 46.933q-66.56 -68.267 48.64 -49.493l-216.747 -217.6l-299.52 300.373l-110.933 -108.373l-432.64 -221.013l227.84 441.173l102.4 102.4l-312.32 311.467l217.6 216.747l85.333 -86.187l-60.587 -59.733q-6.827 -8.533 -6.827 -19.2t6.827 -18.347
q8.533 -8.533 19.627 -8.533q4.267 0 10.24 2.133t10.24 6.4l57.173 59.733l44.373 -43.52l-116.053 -116.053q-6.827 -7.68 -6.827 -18.773t6.827 -18.773q2.56 -4.267 8.533 -6.4t11.093 -2.133q4.267 0 10.24 2.133t10.24 6.4l114.347 115.2l42.667 -44.373
l-58.88 -58.88q-7.68 -7.68 -7.68 -18.347t7.68 -19.2q3.413 -4.267 8.533 -5.973t10.24 -1.707q4.267 0 9.813 1.707t9.813 5.973l58.88 59.733l24.747 -25.6l317.44 318.293l214.187 -215.04l-318.293 -315.733l50.347 -50.347l-59.733 -58.88
q-9.387 -9.387 -9.387 -20.053t9.387 -19.2q6.827 -6.827 18.773 -6.827t18.773 6.827l59.733 60.587l43.52 -43.52l-116.053 -116.907q-9.387 -6.827 -9.387 -17.92t9.387 -18.773q5.973 -9.387 19.627 -9.387q9.387 0 17.92 9.387l116.907 115.2l42.667 -43.52
l-58.88 -59.733q-8.533 -7.68 -8.533 -18.773t8.533 -18.773q7.68 -8.533 18.773 -8.533q12.8 0 79.36 68.267zM362.667 41.813q-3.413 9.387 -8.96 18.773t-14.08 16.64t-19.627 10.667t-26.453 1.707q2.56 15.36 0 26.453t-8.96 19.627q-6.4 8.534 -15.787 14.08
t-18.773 8.96l-11.093 -12.8l-93.867 -180.053q4.267 -1.707 8.107 -5.12t5.547 -6.827q7.68 -5.12 12.8 -14.507l180.907 92.16l10.24 10.24zM892.587 687.787q-552.96 -536.747 -55.467 53.76l-549.547 -546.133q17.067 -5.12 27.733 -14.507t17.493 -18.773
q6.827 -11.093 559.787 525.653h0.001z" />
    <glyph glyph-name="uni64" unicode="d" 
d="M188.587 523.093q0 65.707 40.107 122.88q36.693 63.147 113.493 105.813q81.92 42.667 178.347 42.667q92.16 0 164.693 -35.84q73.387 -39.253 110.933 -96.427q39.253 -60.587 39.253 -127.147q0 -54.613 -22.187 -96.427q-17.067 -35.84 -54.613 -72.533
q-28.16 -24.747 -109.227 -100.693q-26.453 -24.747 -33.28 -36.693q-18.773 -18.773 -22.187 -27.307q-8.533 -19.627 -8.533 -23.893q-5.12 -9.387 -9.387 -44.373q-18.773 -69.12 -79.36 -69.12q-32.427 0 -59.733 23.04q-17.92 18.773 -17.92 64.853
q0 49.493 16.213 95.573q12.8 33.28 45.227 69.973q41.813 42.667 70.827 69.973t61.44 55.467q21.333 12.8 32.427 40.96q9.387 19.627 9.387 51.2q0 51.2 -36.693 85.333q-37.547 34.987 -97.28 34.987q-74.24 0 -105.813 -34.987q-34.987 -34.133 -56.32 -108.373
q-23.04 -69.12 -85.333 -69.12q-35.84 0 -59.733 26.453q-24.747 22.187 -24.747 53.76zM504.32 -187.733q-42.667 0 -69.12 26.453q-29.013 30.72 -29.013 69.973q0 42.667 29.013 69.973q29.013 29.867 69.12 29.867q36.693 0 66.56 -30.293
q29.867 -30.293 29.867 -69.547t-28.16 -69.973q-26.453 -26.453 -68.267 -26.453z" />
    <glyph glyph-name="uni65" unicode="e" 
d="M98.133 330.24q-4.267 -53.76 5.12 -106.667l-87.04 -15.36q-11.093 62.293 81.92 122.027zM154.453 507.733q-12.8 -23.893 -23.467 -47.787t-18.347 -50.347l-85.333 23.893q9.387 31.573 21.76 61.867t105.387 12.373zM124.587 146.773q21.333 -52.053 52.053 -93.867
l-72.533 -51.2q-19.627 24.747 -34.56 53.76t55.04 91.307zM283.307 642.56q-44.373 -29.013 -81.067 -69.973l-65.707 58.88q41.813 48.64 146.773 11.093h0.001zM230.4 -6.827q18.773 -18.773 40.533 -34.56t45.653 -27.733l-41.813 -79.36q-29.867 16.213 -55.893 35.413
t11.52 106.24zM902.827 439.467q-4.267 9.387 -8.107 18.347t-8.107 18.347q19.627 12.8 36.267 30.293q16.64 17.493 27.733 39.68q11.093 -18.773 19.627 -37.547t-67.413 -69.12zM749.227 -46.08q21.333 16.213 41.387 33.707t37.973 38.827l66.56 -58.027
q-20.48 -24.747 -44.373 -46.507q-23.893 -21.76 -101.547 32zM874.667 92.16q12.8 23.893 22.613 48.213t17.493 50.773l85.333 -23.04q-8.533 -31.573 -20.053 -61.867t-105.387 -14.08zM457.387 708.267q-27.307 -3.413 -52.907 -10.667t-50.347 -17.493l-34.133 81.92
q29.867 12.8 61.44 21.333t75.947 -75.093zM1011.2 375.467q10.24 -64 2.56 -129.707l-87.893 9.387q5.973 52.907 85.333 120.32zM390.827 -99.84q24.747 -8.533 51.2 -12.8t53.76 -5.973l-3.413 -88.747l-30.72 2.56q-24.747 2.56 -49.067 7.253t-21.76 97.707z
M668.16 770.56q-34.133 -29.013 -51.2 -70.827q-19.627 4.267 -39.68 7.253t-39.68 3.84l4.267 89.6q32.427 -2.56 64.427 -8.533t61.867 -21.333zM576 -113.493q27.307 4.267 52.48 11.093t49.92 18.773l35.84 -81.92q-59.733 -26.453 -138.24 52.053v0.001z
M910.507 605.867q-5.12 -24.747 -19.627 -44.8t-34.56 -33.28t-43.947 -18.347t-49.493 0q-7.68 1.707 -14.933 3.84t-14.08 5.547l-145.067 -175.787q6.827 -13.653 9.813 -29.44t-0.427 -32q-3.413 -17.92 -13.653 -32t-24.32 -23.04t-30.72 -12.373t-34.56 0
t-32.427 13.653t-23.467 24.32t-12.8 31.147t0.427 34.987q3.413 17.92 13.653 32t24.32 23.467t31.147 12.373t34.987 -0.427q4.267 -1.707 6.827 -2.133t6.827 -2.133l144.213 175.787q-15.36 21.333 -22.187 47.36t-0.853 53.333q5.12 24.747 19.627 44.8t34.56 33.28
t44.373 17.92t49.067 -0.427q25.6 -5.12 46.08 -19.627t33.28 -34.56t17.92 -43.947t3.41061e-13 -49.493z" />
    <glyph glyph-name="uni66" unicode="f" 
d="M456.533 34.987h110.933v-89.6h-110.933v89.6zM302.933 -11.947q0 22.187 -6.827 46.933h76.8v-89.6h-75.093q1.707 10.24 3.413 20.907t1.707 21.76zM727.04 34.987q-5.12 -23.04 -5.12 -46.933q0 -11.093 0.853 -21.76q0.853 -10.667 3.413 -20.907h-75.093v89.6z
M950.613 166.4q-11.093 2.56 -22.613 4.267t-21.76 1.707q-11.947 0 -23.467 -1.707t-21.76 -4.267v67.413h89.6v-67.413zM861.013 418.987h89.6v-106.667h-89.6v106.667zM861.013 567.467q10.24 -2.56 21.76 -4.267t23.467 -1.707q10.24 0 21.76 1.707t22.613 4.267
v-69.973h-89.6v69.973zM667.307 452.267l-90.453 -86.187l-61.44 64.853l89.6 86.187zM673.28 581.12l74.24 71.68q11.947 -19.627 27.733 -36.267t35.413 -28.587l-75.947 -70.827q-20.48 21.333 -61.44 64zM509.44 300.373l-90.453 -86.187l-61.44 64l89.6 87.04z
M278.187 80.213q-11.947 19.627 -27.733 36.267q-15.786 16.64 -35.413 27.733l74.24 69.973l60.587 -64q-23.893 -23.324 -71.68 -69.973zM1030.83 745.813q0 -25.6 -9.813 -48.64t-26.88 -39.68t-39.68 -26.453t-48.213 -9.813q-26.453 0 -49.067 9.813t-39.253 26.453
t-26.453 39.68t-9.813 48.64t9.813 48.64t26.453 39.68t39.253 26.453t49.067 9.813q25.6 0 48.213 -9.813t39.68 -26.453t26.88 -39.68t9.813 -48.64zM781.653 -11.947q0 25.6 9.813 48.64q9.813 23.04 26.453 39.68t39.253 26.453t49.067 9.813q25.6 0 48.213 -9.813
t39.68 -26.453t26.88 -39.68q9.813 -23.04 9.813 -48.64t-9.813 -48.64t-26.88 -40.107t-39.68 -26.88t-48.213 -9.813q-26.453 0 -49.067 9.813t-39.253 26.88t-26.453 40.107t-9.813 48.64zM117.76 112.64q26.453 0 49.493 -9.813t39.68 -26.453t26.453 -39.68
t9.813 -48.64t-9.813 -48.64t-26.453 -40.107t-39.68 -26.88t-49.493 -9.813q-25.6 0 -48.64 9.813t-39.68 26.88t-26.453 40.107t-9.813 48.64t9.813 48.64t26.453 39.68q16.64 16.64 39.68 26.453t48.64 9.813z" />
    <glyph glyph-name="uni67" unicode="g" 
d="M1053.87 717.653q0 -23.04 -7.68 -43.947t-21.333 -37.547t-32 -28.587t-39.68 -17.067l-74.24 -541.867q29.867 -17.067 48.213 -46.933t18.347 -67.413q0 -27.307 -10.24 -50.773q-10.24 -23.466 -27.733 -41.387t-40.96 -28.16t-50.773 -10.24t-50.773 10.24
t-40.96 28.16t-27.733 41.387t-10.24 50.773q0 35.84 18.773 66.56l-359.253 458.24q-8.533 -2.56 -17.493 -4.693t-18.347 -2.133l-125.44 -349.013q21.333 -17.92 34.133 -43.947t12.8 -55.893q0 -27.307 -10.24 -51.2q-10.24 -23.893 -27.733 -41.813t-40.96 -28.16
t-50.773 -10.24t-50.773 10.24t-40.96 28.16t-27.733 41.813t-10.24 51.2q0 25.6 9.813 48.64q9.813 23.04 26.453 40.533t39.253 27.733q22.613 10.24 48.213 11.947l128 352.427q-21.333 17.92 -33.707 43.093q-12.374 25.173 -12.373 55.04q0 26.453 10.24 50.347
t27.733 41.813t41.387 28.16q23.894 10.241 51.2 10.24q26.453 0 50.347 -10.24t41.387 -28.16t27.733 -41.813t10.24 -50.347q0 -17.92 -5.12 -34.987t-13.653 -31.573l358.4 -457.387q4.267 0 9.387 1.707l74.24 543.573q-29.867 16.213 -48.213 46.08t-18.347 67.413
q0 26.453 10.24 49.92t27.733 41.387t40.96 28.16t50.773 10.24t50.773 -10.24t40.96 -28.16t27.733 -41.387t10.24 -49.92z" />
    <glyph glyph-name="uni68" unicode="h" 
d="M947.2 543.573q31.573 -54.613 48.213 -116.053t16.64 -128.853q0 -103.253 -39.253 -194.133t-106.667 -158.72t-158.293 -107.093t-194.133 -39.253t-194.56 39.253t-159.147 107.093t-107.093 158.72t-39.253 194.133t39.253 194.133t107.093 158.72t159.147 107.093
t194.56 39.253q66.56 0 128 -17.067t116.053 -46.933q23.893 17.92 52.907 26.027t58.88 1.28q28.16 -5.973 49.92 -21.76t35.84 -37.547t19.627 -48.213t-0.427 -53.76q-2.56 -16.213 -9.813 -30.293t-17.493 -26.027h-0.001zM513.707 -103.253q82.773 0 156.16 31.573
t128 85.76t86.187 127.573q31.574 73.386 31.573 157.013q0 53.76 -13.227 103.253t-37.973 93.013q-25.6 -4.267 -49.493 0.853q-11.947 1.707 -22.187 6.4t-20.48 10.667l-174.08 -174.08q6.827 -13.653 9.387 -29.013t-0.853 -30.72q-4.267 -19.627 -14.933 -35.413
t-26.027 -26.027t-34.133 -14.08t-37.547 0.427q-19.627 4.267 -34.987 14.933t-25.6 26.027t-14.08 34.133t-0.427 38.4q4.267 19.627 15.36 34.987t26.453 25.173t33.707 13.227q18.347 3.414 37.12 0q6.827 -1.707 11.52 -2.987t10.667 -2.987l173.227 174.08
q-25.6 39.253 -17.92 91.307q-43.52 23.893 -92.587 37.12t-102.827 13.227q-83.627 0 -157.013 -31.573t-128.427 -85.76t-86.613 -127.573t-31.573 -157.013t31.573 -157.013t86.613 -127.573t128.427 -85.76t157.013 -31.573z" />
    <glyph glyph-name="uni69" unicode="i" 
d="M1031.68 750.933q0 -40.96 -22.187 -72.533t-58.027 -45.227v-525.653q35.84 -12.8 58.027 -44.373t22.187 -72.533q0 -25.6 -9.813 -48.213t-26.453 -40.107t-39.68 -27.307t-48.64 -9.813q-40.96 0 -72.96 23.467t-44.8 59.307h-553.813q-12.8 -35.84 -44.373 -59.307
t-72.533 -23.467q-26.453 0 -49.067 9.813t-39.68 27.307t-26.88 40.107t-9.813 48.213q0 26.453 9.813 49.493q9.813 23.04 26.88 40.107t39.68 26.88t49.067 9.813q14.507 0 27.307 -3.413t24.747 -8.533l622.08 593.067q-5.12 11.947 -8.107 25.173t-2.987 27.733
q0 25.6 9.813 48.213t26.88 39.68t39.68 26.88t49.067 9.813q25.6 0 48.64 -9.813t39.68 -26.88t26.453 -39.68q9.813 -22.613 9.813 -48.213zM791.04 37.547q9.387 24.747 27.733 43.093t43.093 26.88v525.653q-1.707 0.853 -2.987 0.853t-2.987 1.707l-622.08 -593.92
q0 -1.707 0.427 -2.56t0.427 -1.707h556.373z" />
    <glyph glyph-name="uni6A" unicode="j" 
d="M820.053 24.747q-167.253 -65.707 -262.827 -173.227v651.093l262.827 180.907v-658.773zM272.213 638.293q33.28 -22.187 98.56 -68.267t99.413 -67.413v-651.093q-51.2 59.733 -142.507 112.64q-55.467 36.693 -122.027 60.587v658.773q22.187 -15.076 66.56 -45.227z
M890.88 295.253v343.04h2.56q5.973 2.56 19.2 7.68t16.64 7.68h7.68v-703.147q-17.067 -5.12 -216.747 -71.68l13.653 15.36q64 40.107 142.507 74.24q14.507 2.56 14.507 17.92v308.907zM134.827 -13.653q0 -15.36 13.653 -17.92q80.213 -34.133 137.387 -73.387
q-87.04 39.253 -194.56 55.467v703.147q29.867 -12.8 43.52 -15.36zM989.013 570.88h29.013v-708.267q-103.253 16.213 -207.36 -24.747v1.707q5.973 5.973 29.867 23.04q29.013 18.773 87.04 31.573q11.093 0.853 31.573 2.56t29.867 1.707zM34.987 -101.547
q65.707 -7.68 69.973 -7.68q55.467 -9.387 94.72 -35.84l15.36 -15.36q-106.667 39.253 -207.36 23.04v708.267h27.307z" />
    <glyph glyph-name="uni6B" unicode="k" 
d="M205.653 422.4q38.4 -24.747 86.187 -31.573l-25.6 -67.413l-83.627 29.867l23.04 69.12zM209.92 166.4q-18.773 11.947 -40.107 20.053t-45.227 9.813l28.16 77.653l85.333 -29.867q-9.387 -25.884 -28.16 -77.653zM438.613 344.747l-49.493 61.44
q21.333 10.24 39.68 24.747t32 33.28l48.64 -63.147q-23.609 -18.773 -70.827 -56.32zM634.027 244.053l-72.533 -58.027l-69.973 89.6l71.68 58.027l70.827 -89.6zM736.427 113.493q-20.48 -11.093 -39.253 -25.6t-33.28 -32.427l-48.64 62.293l71.68 56.32
q16.498 -20.196 49.493 -60.587v0.001zM849.92 536.747q17.067 -5.973 34.987 -9.813t36.693 -3.84h9.813q28.587 0 10.667 0.853l-11.093 -65.707l-88.747 11.093q2.56 22.471 7.68 67.413v0.001zM905.387 266.24l-89.6 12.8l13.653 109.227l91.307 -11.947z
M884.907 116.053q-17.067 6.827 -34.133 10.24t-35.84 3.413h-10.667q-29.44 0 -10.667 -0.853l10.24 69.12l91.307 -14.507q-3.413 -22.471 -10.24 -67.413zM312.32 708.267q26.453 0 49.92 -10.24t40.96 -27.307t27.733 -40.96t10.24 -50.347q0 -25.6 -10.24 -48.64
t-27.733 -40.533t-40.96 -27.733t-49.92 -10.24q-27.307 0 -50.347 10.24t-40.533 27.733t-27.307 40.533q-9.814 23.04 -9.813 48.64q0 26.453 9.813 50.347t27.307 40.96t40.533 27.307q23.039 10.241 50.347 10.24zM1047.89 713.387q0 -26.453 -9.813 -49.493
t-26.88 -40.533t-40.107 -27.307t-49.493 -9.813q-27.307 0 -50.773 9.813t-40.533 27.307t-27.307 40.533t-10.24 49.493t10.24 49.92t27.307 40.96t40.533 27.307t50.773 9.813q26.453 0 49.493 -9.813t40.107 -27.307t26.88 -40.96t9.813 -49.92zM684.373 -60.587
q0 26.453 10.24 49.92t27.733 40.96t41.387 27.733t51.2 10.24q26.453 0 49.493 -10.24t40.533 -27.733t27.307 -40.96t9.813 -49.92t-9.813 -49.92t-27.307 -40.533t-40.533 -27.307t-49.493 -10.24q-27.307 0 -51.2 10.24t-41.387 27.307t-27.733 40.533t-10.24 49.92z
M107.52 133.973q27.307 0 50.773 -9.813t40.96 -27.307t27.307 -40.96t9.813 -50.773q0 -26.453 -9.813 -49.493q-9.813 -23.04 -27.307 -40.533t-40.96 -27.307t-50.773 -9.813q-26.453 0 -49.92 9.813t-40.96 27.307t-27.733 40.533t-10.24 49.493q0 27.307 10.24 50.773
t27.733 40.96q17.493 17.494 40.96 27.307t49.92 9.813z" />
    <glyph glyph-name="uni6C" unicode="l" 
d="M1089.71 168.96v-211.627h-1149.44v211.627h81.92q0 181.76 122.027 326.827l57.173 -56.32q14.507 -9.387 23.893 -9.387q14.507 0 22.187 9.387q21.333 20.48 0 46.933l-55.467 55.467q131.413 110.08 290.987 119.467v-89.6q0 -32.427 32.853 -32.427t32.853 32.427
v89.6q156.16 -9.387 285.867 -119.467l-57.173 -55.467q-18.773 -26.453 0 -46.933q11.093 -9.387 26.027 -9.387t22.613 9.387l58.027 56.32q128 -141.653 128 -326.827zM808.107 168.96q0 122.027 -86.613 208.213t-206.507 86.187t-206.933 -86.187t-87.04 -208.213
h248.32q7.68 42.667 46.08 42.667q38.4 0 45.227 -42.667h247.467h-0.001z" />
    <glyph glyph-name="uni6D" unicode="m" 
d="M994.133 -187.733q46.08 0 -962.56 0q-47.787 0 -47.787 44.373q0 51.2 47.787 51.2h962.56q46.08 0 46.08 -51.2q0 -44.373 -46.08 -44.373zM105.813 329.387q-77.653 67.413 -4.267 139.093l410.453 459.093l413.867 -459.093q24.747 -27.307 24.747 -68.267
q0 -52.053 -29.867 -70.827q-74.24 -72.533 -139.947 4.267l-149.333 167.253v-523.947h-234.667v523.947l-149.333 -167.253q-65.707 -76.8 -141.653 -4.267z" />
    <glyph glyph-name="uni6E" unicode="n" 
d="M994.987 -187.733q46.08 0 -962.56 0q-47.787 0 -47.787 44.373q0 51.2 47.787 51.2h962.56q46.08 0 46.08 -51.2q0 -44.373 -46.08 -44.373zM929.28 566.613q77.653 -67.413 4.267 -139.093l-410.453 -459.093l-413.867 459.093q-24.747 27.307 -24.747 68.267
q0 52.053 29.867 70.827q74.24 72.533 139.947 -4.267l149.333 -167.253v523.947h234.667v-523.947l149.333 167.253q65.707 76.8 141.653 4.267z" />
    <glyph glyph-name="uni70" unicode="p" 
d="M315.733 309.76q0 19.627 17.067 30.72q11.947 11.947 29.867 11.52t31.573 -14.933l116.053 -128.853l118.613 128.853q12.8 14.507 30.72 14.933t31.573 -11.52q14.507 -12.8 15.36 -30.72t-12.8 -30.72l-183.467 -202.24l-180.907 202.24q-13.653 12.8 -13.653 30.72
h0.001z" />
    <glyph glyph-name="uni71" unicode="q" horiz-adv-x="1014" 
d="M936.96 64.853q23.893 -5.12 43.52 -18.773t32.427 -33.28t17.493 -43.093t-0.427 -48.213q-5.12 -24.747 -18.773 -43.947t-33.28 -32t-43.093 -17.067t-47.36 0.853q-24.747 5.12 -44.373 18.773t-32.427 32.853t-17.493 42.667t0.427 48.213q1.707 4.267 2.987 8.96
t2.987 8.96l-577.707 221.013q-7.68 -20.48 -21.333 -36.693t-32 -26.453t-39.68 -13.653t-43.52 0.853q-24.747 5.12 -43.947 18.773t-32 33.28t-17.92 42.667t0 47.787t19.2 44.373t33.28 32t42.667 17.493q23.467 5.119 48.213 0q20.48 -4.267 37.12 -14.933
t30.293 -25.173l308.053 263.68q-17.067 20.48 -24.747 47.36t-1.707 55.893q5.12 23.893 19.2 43.52t33.28 32.427t42.667 17.067t48.213 -0.853q23.893 -5.12 43.52 -18.773t32.427 -32.853t17.493 -42.667t-0.427 -47.36q-5.973 -29.867 -25.173 -52.48t-45.653 -33.707
l215.04 -505.173q33.28 15.36 72.533 7.68v-0.001z" />
    <glyph glyph-name="uni72" unicode="r" 
d="M855.893 -212.48q25.6 0 48.64 9.813t40.107 26.88t26.88 39.68t9.813 49.067q0 25.6 -9.813 48.213t-26.88 39.253t-40.107 26.453t-48.64 9.813t-48.213 -9.813t-39.68 -26.453t-26.88 -39.253t-9.813 -48.213q0 -26.453 9.813 -49.067t26.88 -39.68t39.68 -26.88
t48.213 -9.813zM69.12 424.96l-27.307 296.107l293.547 -46.08zM411.307 417.28l-64 -64l-131.413 131.413l64.853 64.853l130.56 -132.267v0.001zM583.68 246.613l-64.853 -64.853l-131.413 130.56l64.853 65.707l131.413 -131.413zM756.907 73.387l-64.853 -64.853
l-131.413 131.413l65.707 64l130.56 -130.56h-0.001z" />
    <glyph glyph-name="uni73" unicode="s" 
d="M663.893 448l-43.52 104.96q-21.333 -2.56 -41.813 0.853q-9.387 1.707 -17.067 5.547l-16.213 8.107l-51.2 -40.96l-44.373 52.907l46.933 37.547q-9.387 17.92 -12.373 37.973t1.28 42.24q5.12 23.893 18.773 43.52q13.653 19.627 32.853 32.427t43.093 17.493
t48.64 -0.427q23.893 -5.12 43.52 -18.773t32.427 -33.28t17.067 -43.093t-0.853 -47.36q-3.413 -20.48 -13.227 -36.693t-24.32 -29.013l44.373 -107.52q-21.333 -8.818 -64 -26.453zM817.493 257.707l-64 -26.453l-68.267 165.547l64 27.307l68.267 -166.4z
M407.893 545.28l42.667 -53.76l-139.093 -112.64l-44.373 54.613l140.8 111.787h-0.001zM266.24 343.893l-46.933 -38.4q18.773 -36.693 10.24 -77.653q-5.12 -24.747 -18.773 -44.373t-33.28 -32t-43.093 -17.493t-47.36 0q-24.747 5.12 -44.373 18.773t-32.427 33.28
t-17.493 42.667t0.427 47.787t19.2 44.373t33.28 32.427t42.667 17.493t48.213 -0.427q17.92 -3.413 34.987 -14.507l51.2 40.96q14.507 -17.636 43.52 -52.907h-0.002zM938.667 64.853q23.893 -5.12 43.52 -19.2t32.427 -33.707q12.8 -19.627 17.067 -43.093t-0.853 -47.36
q-5.12 -24.747 -18.773 -44.373q-13.653 -19.626 -32.853 -32.427t-43.093 -17.067t-47.787 0.853q-24.747 5.12 -43.947 18.773t-32 33.28t-17.493 42.667t0.427 47.787q4.267 19.627 14.08 36.267t24.32 29.44l-58.027 141.653l64 26.453l57.173 -139.093
q21.333 2.56 41.813 -0.853z" />
    <glyph glyph-name="uni74" unicode="t" 
d="M586.24 313.173q31.573 -30.72 31.573 -73.813t-31.573 -74.667t-74.24 -31.573t-73.813 31.573t-31.147 74.667t31.147 74.667t73.813 31.573t74.24 -32.427z" />
    <glyph glyph-name="uni75" unicode="u" 
d="M994.987 -171.52l-966.827 288.427l389.973 605.867l499.2 -214.187l77.653 -680.107zM463.36 575.147l-250.88 -389.12l644.267 -192l-49.493 432.64l-343.893 148.48h-0.001z" />
    <glyph glyph-name="uni76" unicode="v" 
d="M512.853 433.493q-29.013 0 -54.613 -10.667t-44.8 -29.867t-30.293 -44.8t-11.093 -54.613t11.093 -54.613t30.293 -44.8t44.8 -30.293t54.613 -11.093q29.013 -2.84217e-14 54.613 11.093t44.8 30.293t30.293 44.8t11.093 54.613t-11.093 54.613t-30.293 44.8
t-44.8 29.867t-54.613 10.667zM511.147 -176.64q-96.427 0 -181.76 37.12t-148.907 101.12t-100.693 149.333t-37.12 182.613t37.12 182.613q37.121 85.333 100.693 149.333q63.572 64 148.907 100.693t181.76 36.693q97.28 0 183.04 -36.693t149.333 -100.693
t100.693 -149.333t37.12 -182.613t-37.12 -182.613t-100.693 -149.333t-149.333 -101.12t-183.04 -37.12zM511.147 719.36q-87.893 0 -165.12 -33.28t-135.253 -91.307t-91.733 -135.68t-33.707 -165.547q0 -88.747 33.707 -166.4t91.733 -135.253t135.253 -91.307
t165.12 -33.707q58.88 0 113.493 15.36t101.973 43.093t86.187 66.56t66.56 86.187t43.093 101.973t15.36 113.493q0 87.893 -33.707 165.547t-91.307 135.68t-135.68 91.307t-165.973 33.28z" />
    <glyph glyph-name="uni77" unicode="w" 
d="M794.453 543.573q31.573 -54.613 48.213 -116.053t16.64 -128.853q0 -103.253 -39.253 -194.133t-106.667 -158.72t-158.293 -107.093t-194.133 -39.253t-194.56 39.253t-159.147 107.093t-107.093 158.72t-39.253 194.133t39.253 194.133t107.093 158.72
t159.147 107.093t194.56 39.253q66.56 0 128 -17.067q61.44 -17.067 116.053 -46.933q23.893 17.92 52.907 26.027t58.88 1.28q28.16 -5.973 49.92 -21.76t35.84 -37.547t19.627 -48.213t-0.427 -53.76q-2.56 -16.213 -9.813 -30.293t-17.493 -26.027h-0.001z
M360.96 -103.253q82.773 0 156.16 31.573t128 85.76t86.187 127.573q31.574 73.386 31.573 157.013q0 53.76 -13.227 103.253t-37.973 93.013q-25.6 -4.267 -49.493 0.853q-11.947 1.707 -22.187 6.4t-20.48 10.667l-174.08 -174.08q6.827 -13.653 9.387 -29.013
t-0.853 -30.72q-4.267 -19.627 -14.933 -35.413t-26.027 -26.027t-34.133 -14.08t-37.547 0.427q-19.627 4.267 -34.987 14.933t-25.6 26.027t-14.08 34.133t-0.427 38.4q4.267 19.627 15.36 34.987t26.453 25.173t33.707 13.227t37.12 0q6.827 -1.707 11.52 -2.987
t10.667 -2.987l173.227 174.08q-25.6 39.253 -17.92 91.307q-43.52 23.893 -92.587 37.12t-102.827 13.227q-83.627 0 -157.013 -31.573t-128.427 -85.76t-86.613 -127.573t-31.573 -157.013t31.573 -157.013t86.613 -127.573q55.039 -54.187 128.427 -85.76
t157.013 -31.573zM1211.73 610.133q23.04 0 23.04 -24.747q0 -25.6 -23.04 -25.6h-95.573v-93.867q0 -23.893 -23.893 -23.893t-23.893 23.893v93.867h-94.72q-24.747 0 -24.747 25.6q0 24.747 24.747 24.747h94.72v93.867q0 23.893 23.893 23.893t23.893 -23.893v-93.867
h95.573z" />
    <glyph glyph-name="uni78" unicode="x" 
d="M872.96 750.933q0 -40.96 -22.187 -72.533t-58.027 -45.227v-525.653q35.84 -12.8 58.027 -44.373t22.187 -72.533q0 -25.6 -9.813 -48.213t-26.453 -40.107t-39.68 -27.307t-48.64 -9.813q-40.96 0 -72.96 23.467t-44.8 59.307h-553.813q-12.8 -35.84 -44.373 -59.307
t-72.533 -23.467q-26.453 0 -49.067 9.813t-39.68 27.307q-17.066 17.494 -26.88 40.107t-9.813 48.213q0 26.453 9.813 49.493q9.813 23.04 26.88 40.107t39.68 26.88t49.067 9.813q14.507 0 27.307 -3.413t24.747 -8.533l622.08 593.067q-5.12 11.947 -8.107 25.173
t-2.987 27.733q0 25.6 9.813 48.213t26.88 39.68t39.68 26.88t49.067 9.813q25.6 0 48.64 -9.813t39.68 -26.88t26.453 -39.68t9.813 -48.213zM632.32 37.547q9.387 24.747 27.733 43.093t43.093 26.88v525.653q-1.707 0.853 -2.987 0.853t-2.987 1.707l-622.08 -593.92
q0 -1.707 0.427 -2.56t0.427 -1.707h556.373zM1218.56 610.133q23.04 0 23.04 -24.747q0 -25.6 -23.04 -25.6h-95.573v-93.867q0 -23.893 -23.893 -23.893t-23.893 23.893v93.867h-94.72q-24.747 0 -24.747 25.6q0 24.747 24.747 24.747h94.72v93.867
q0 23.893 23.893 23.893t23.893 -23.893v-93.867h95.573z" />
    <glyph glyph-name="uni79" unicode="y" 
d="M896.853 717.653q0 -23.04 -7.68 -43.947t-21.333 -37.547t-32 -28.587t-39.68 -17.067l-74.24 -541.867q29.867 -17.067 48.213 -46.933t18.347 -67.413q0 -27.307 -10.24 -50.773q-10.24 -23.466 -27.733 -41.387t-40.96 -28.16t-50.773 -10.24t-50.773 10.24
t-40.96 28.16t-27.733 41.387t-10.24 50.773q0 35.84 18.773 66.56l-359.253 458.24q-8.533 -2.56 -17.493 -4.693t-18.347 -2.133l-125.44 -349.013q21.333 -17.92 34.133 -43.947t12.8 -55.893q0 -27.307 -10.24 -51.2q-10.24 -23.893 -27.733 -41.813t-40.96 -28.16
t-50.773 -10.24t-50.773 10.24t-40.96 28.16t-27.733 41.813t-10.24 51.2q0 25.6 9.813 48.64q9.813 23.04 26.453 40.533t39.253 27.733t48.213 11.947l128 352.427q-21.333 17.92 -33.707 43.093q-12.374 25.173 -12.373 55.04q0 26.453 10.24 50.347t27.733 41.813
t41.387 28.16t51.2 10.24q26.453 0 50.347 -10.24t41.387 -28.16q17.493 -17.92 27.733 -41.813t10.24 -50.347q0 -17.92 -5.12 -34.987t-13.653 -31.573l358.4 -457.387q4.267 0 9.387 1.707l74.24 543.573q-29.867 16.213 -48.213 46.08t-18.347 67.413
q0 26.453 10.24 49.92t27.733 41.387t40.96 28.16t50.773 10.24t50.773 -10.24t40.96 -28.16t27.733 -41.387t10.24 -49.92zM1238.19 627.2q23.04 0 23.04 -24.747q0 -25.6 -23.04 -25.6h-95.573v-93.867q0 -23.893 -23.893 -23.893t-23.893 23.893v93.867h-94.72
q-24.747 0 -24.747 25.6q0 24.747 24.747 24.747h94.72v93.867q0 23.893 23.893 23.893t23.893 -23.893v-93.867h95.573z" />
    <glyph glyph-name="uni7A" unicode="z" 
d="M360.96 433.493q-29.013 0 -54.613 -10.667t-44.8 -29.867t-30.293 -44.8t-11.093 -54.613t11.093 -54.613t30.293 -44.8t44.8 -30.293t54.613 -11.093t54.613 11.093t44.8 30.293t30.293 44.8t11.093 54.613t-11.093 54.613t-30.293 44.8t-44.8 29.867t-54.613 10.667z
M359.253 -176.64q-96.427 0 -181.76 37.12t-148.907 101.12t-100.693 149.333t-37.12 182.613t37.12 182.613q37.121 85.333 100.693 149.333t148.907 100.693t181.76 36.693q97.28 0 183.04 -36.693t149.333 -100.693t100.693 -149.333t37.12 -182.613t-37.12 -182.613
t-100.693 -149.333t-149.333 -101.12t-183.04 -37.12zM359.253 719.36q-87.893 0 -165.12 -33.28t-135.253 -91.307t-91.733 -135.68t-33.707 -165.547q0 -88.747 33.707 -166.4t91.733 -135.253t135.253 -91.307t165.12 -33.707q58.88 0 113.493 15.36
q54.613 15.36 101.973 43.093t86.187 66.56t66.56 86.187t43.093 101.973t15.36 113.493q0 87.893 -33.707 165.547t-91.307 135.68t-135.68 91.307t-165.973 33.28zM1161.39 627.2q23.04 0 -95.573 0v93.867q0 23.893 -23.893 23.893t-23.893 -23.893v-93.867h-94.72
q-24.747 0 -24.747 -24.747q0 -25.6 24.747 -25.6h94.72v-93.867q0 -23.893 23.893 -23.893t23.893 23.893v93.867h95.573q23.04 0 23.04 25.6q0 24.747 -23.04 24.747z" />
    <glyph glyph-name="uni7B" unicode="{" 
d="M512.853 437.76q-29.013 0 -55.04 -11.093t-45.227 -30.72t-30.72 -45.653t-11.52 -55.04q0 -29.867 11.52 -55.893t30.72 -45.227t45.227 -30.293t55.04 -11.093t55.04 11.093t45.653 30.293t30.72 45.227t11.093 55.893q0 29.013 -11.093 55.04t-30.72 45.653
t-45.653 30.72t-55.04 11.093zM445.44 -174.933q-34.133 5.12 -66.56 14.08t-64 23.467l18.773 40.107q27.307 -13.653 57.173 -22.187t54.613 -55.467zM580.267 -174.933q33.28 5.12 -6.827 42.667q31.573 5.12 60.587 13.227t58.027 21.76l17.067 -39.253
q-29.867 -14.507 -62.72 -23.893t-66.133 -14.507zM201.387 -64.853q-51.2 44.373 -87.893 102.4l35.84 23.893q34.133 -53.76 52.053 -126.293zM822.613 -64q52.907 45.227 -28.16 32.427q47.787 41.813 80.213 93.867l37.547 -23.04q-36.693 -58.027 -89.6 -103.253
v-0.001zM56.32 160.427q-18.773 64 -18.773 133.973h42.667q0 -31.573 4.693 -61.867t-28.587 -72.107zM968.533 161.28q18.773 64 -41.813 11.947q7.68 29.867 12.373 60.16t4.693 61.867l43.52 1.707v-1.707q0 -69.973 -18.773 -133.973v-0.001zM98.133 415.573
q17.067 60.587 -42.667 12.8q10.24 32.427 24.32 63.573q14.08 31.146 31.147 59.307l37.547 -23.893q-33.28 -51.2 -50.347 -111.787zM925.867 418.133q-17.92 60.587 -52.053 110.933l36.693 23.893q37.547 -57.173 15.36 -134.827v0.001zM228.693 620.373
q23.04 20.48 -28.16 32.427q24.747 23.04 53.333 41.387t59.307 32.853l18.773 -40.107q-27.307 -13.653 -53.76 -29.867t-49.493 -36.693zM793.6 622.08q-23.893 19.627 -49.493 36.693t-53.76 29.867l17.92 39.253q63.147 -28.16 85.333 -105.813zM449.707 721.92
q15.36 1.707 -5.973 42.667q17.067 3.413 33.707 4.693t33.707 1.28h0.853q34.133 0 66.56 -5.12l-6.827 -43.52l-29.013 3.413q-3.413 -45.227 -31.573 1.707q-14.507 0 -30.293 -1.707t-31.147 -3.413h-0.001z" />
    <glyph glyph-name="uni7C" unicode="|" 
d="M984.747 754.347v-941.227h-941.227v941.227h941.227zM104.107 -126.293h137.387q0 38.4 4.267 96.427t20.053 125.013q15.786 66.986 45.653 137.813q29.867 70.827 81.067 134.827q35.84 46.08 81.493 78.933t95.147 55.467t100.267 35.84t97.707 20.053t87.467 8.96
t69.547 2.133v124.587h-820.053v-820.053h-0.002zM357.547 -126.293v308.053q-17.92 -45.227 -29.013 -89.6t-16.64 -84.48t-7.68 -74.667t-2.133 -59.307h55.467zM471.04 -126.293v491.52q-8.533 -9.387 -16.213 -17.067t-14.507 -17.067q-5.973 -8.533 -11.52 -16.213
t-10.667 -15.36v-425.813zM584.533 -126.293v568.32q-13.653 -6.827 -26.453 -13.653t-25.6 -16.213v-538.453h52.053v-0.001zM698.027 -126.293v608.427q-12.8 -3.413 -26.027 -7.253t-26.88 -8.107v-593.067h52.907zM812.373 -126.293v628.053
q-12.8 -1.707 -26.027 -3.413t-27.733 -3.413v-621.227h53.76zM924.16 -126.293v634.88q-11.093 0 -23.893 -0.427t-27.307 -0.427v-634.027h51.2v0.001z" />
    <glyph glyph-name="uni7D" unicode="}" 
d="M222.72 533.333q4.267 0 9.387 1.707t9.387 3.413l9.387 -10.24q-11.947 -8.533 -28.16 -8.533q-24.747 0 -41.813 17.067t-17.067 41.813t17.067 41.813t41.813 17.067q23.893 0 41.387 -17.067q17.494 -17.067 17.493 -41.813q0 -9.387 -2.56 -17.067t-6.827 -14.507
l-11.093 11.093q5.973 8.533 5.973 20.48q0 18.773 -12.8 31.573t-31.573 12.8t-32 -12.8t-13.227 -31.573t13.227 -32t32 -13.227zM272.213 546.987q-8.533 -11.947 -21.333 -18.773l-9.387 10.24q13.653 5.973 30.72 8.533zM222.72 622.933q18.773 0 31.573 -12.8
t12.8 -31.573q0 -11.947 -5.973 -20.48l-10.24 11.947q1.707 5.12 1.707 8.533q0 11.947 -8.96 20.907t-20.907 8.96q-12.8 0 -21.76 -8.96t-8.96 -20.907q0 -12.8 8.96 -21.76t21.76 -8.96q1.707 0 3.413 0.427t4.267 1.28l11.093 -11.093q-4.267 -1.707 -9.387 -3.413
t-9.387 -1.707q-18.773 0 -32 13.227t-13.227 32t13.227 31.573t32 12.8zM230.4 549.547q6.827 2.56 12.8 7.68t7.68 12.8l10.24 -11.947q-5.973 -13.653 -30.72 -8.533zM753.493 4.267q9.387 13.653 21.333 19.627l10.24 -10.24q-13.653 -5.973 -31.573 -9.387z
M803.84 -70.827q-18.773 0 -31.573 12.8t-12.8 31.573q0 10.24 5.12 20.48l11.093 -11.947q-1.707 -5.12 -1.707 -8.533q0 -12.8 8.533 -21.333t21.333 -8.533q11.947 0 20.907 8.533t8.96 21.333q0 11.947 -8.96 20.907t-20.907 8.96q-1.707 0 -3.84 -0.427t-4.693 -0.427
l-10.24 11.093q4.267 1.707 8.533 2.987t10.24 1.28q17.92 0 30.72 -13.227t12.8 -31.147q0 -18.773 -12.8 -31.573t-30.72 -12.8zM803.84 17.92q-5.973 0 -10.24 -1.28t-8.533 -2.987l-10.24 10.24q12.8 7.68 29.013 7.68q24.747 0 41.387 -16.64t16.64 -41.387
q0 -23.893 -16.64 -41.387q-16.64 -17.494 -41.387 -17.493q-23.893 0 -41.387 17.493t-17.493 41.387q0 16.213 8.533 30.72l11.093 -10.24q-5.12 -10.24 -5.12 -20.48q0 -18.773 12.8 -31.573t31.573 -12.8q17.92 0 30.72 12.8t12.8 31.573q0 17.92 -12.8 31.147
t-30.72 13.227zM994.987 712.533q-1.707 -9.387 -7.68 -34.987t-15.787 -61.867t-24.32 -80.213t-32.853 -89.6t-41.387 -90.027t-50.773 -81.493t-60.16 -64t-69.973 -37.973q-28.16 -7.68 -52.907 -6.827l135.68 -141.653q-11.947 -5.973 -21.333 -19.627l-163.84 170.667
q-17.067 5.973 -33.707 15.787t-33.707 22.613h-76.8v68.267q-17.92 12.8 -32.853 18.773t-26.027 7.253t-19.2 -0.427t-12.373 -2.56q-36.693 -11.093 -70.827 -52.907t-63.573 -100.693t-53.333 -126.293t-40.107 -129.707q-4.267 -17.067 -7.68 -33.28l-6.827 -32.427
q-3.413 -14.507 -15.36 -24.32t-26.453 -9.813q-5.973 0 -8.533 0.853q-17.067 4.267 -27.307 18.773t-5.973 31.573q1.707 9.387 7.68 34.987t15.787 61.867t24.32 80.213q14.506 43.946 32.853 89.6t41.387 90.027t50.773 81.493t60.16 64t69.973 37.973
q11.947 4.267 24.32 5.547t24.32 1.28l-129.707 134.827q12.8 6.827 21.333 18.773l155.307 -161.28q18.773 -5.973 37.12 -15.787t37.12 -24.32h76.8v-68.267q17.92 -12.8 32.427 -18.773t26.027 -7.253t19.2 0t11.947 2.133q36.693 11.093 71.253 53.333t64 101.12
t52.907 126.293t39.68 129.707q4.267 17.067 7.68 33.28t7.68 32.427q4.267 17.067 18.773 26.88t31.573 5.547q17.067 -3.413 26.88 -17.92t6.4 -31.573zM549.547 317.44h-75.947v-75.947h75.947v75.947zM795.307 2.56q-16.213 -5.973 -19.627 -20.48l-11.093 11.947
q6.827 13.653 30.72 8.533z" />
    <glyph glyph-name="uniA5" unicode="&#xa5;" 
d="M704 750.933q-21.333 0 213.333 0q8.533 0 10.667 -4.267t-4.693 -11.093l-310.613 -310.613q-5.12 -5.12 -9.387 -15.36h228.693q8.533 0 11.093 -5.12t-2.56 -11.947l-102.4 -136.533q-5.12 -6.827 -15.36 -11.947t-18.773 -5.12h-106.667v-85.333h234.667
q8.533 0 11.093 -5.12t-2.56 -11.947l-102.4 -136.533q-5.12 -6.827 -15.36 -11.947q-10.24 -5.12 -18.773 -5.12h-106.667v-148.48q0 -9.387 -6.4 -15.787t-15.787 -6.4h-126.293q-9.387 0 -15.787 6.4t-6.4 15.787v148.48h-234.667q-8.533 0 -11.093 5.12t2.56 11.947
l102.4 136.533q5.12 6.827 15.36 11.947t18.773 5.12h106.667v85.333h-234.667q-8.533 0 -11.093 5.12t2.56 11.947l102.4 136.533q5.12 6.827 15.36 11.947t18.773 5.12h100.693q-4.267 10.24 -9.387 15.36l-310.613 310.613q-6.827 6.827 -4.693 11.093t10.667 4.267
h213.333q21.333 0 36.693 -15.36l139.947 -139.947q6.827 -6.827 15.36 -6.827t15.36 6.827l139.947 139.947q15.36 15.36 36.693 15.36h0.001z" />
    <glyph glyph-name="uni20AC" unicode="&#x20ac;" 
d="M607.573 834.56q206.507 0 302.08 -161.28q51.2 -88.747 56.32 -178.347h-154.453q0 38.4 -14.933 70.4t-37.12 52.48t-49.493 34.56t-51.627 20.48t-43.947 6.4q-16.213 0 -34.56 -4.693t-42.24 -17.493t-45.227 -32.427t-41.813 -53.333t-33.28 -76.373h323.413
l-85.333 -85.333h-256q-5.12 -42.667 -5.12 -85.333h346.453l-85.333 -85.333h-256q7.68 -63.147 28.16 -112.64t44.8 -77.653t52.48 -46.507q28.16 -18.347 50.347 -24.747t40.107 -6.4q18.773 0 43.093 6.4t51.627 20.907t49.493 34.987t37.12 52.053
q14.934 31.573 14.933 68.267h148.48q-25.6 -145.92 -109.227 -237.227q-91.307 -99.84 -233.813 -99.84q-175.787 0 -276.48 134.827q-30.72 40.96 -58.88 113.493t-38.4 174.08h-185.173l85.333 85.333h95.573q0.853 40.107 5.12 85.333h-186.027l85.333 85.333h114.347
q17.067 74.24 43.52 130.987t52.907 88.32q99.84 120.32 253.44 120.32z" />
    <glyph glyph-name="uni20BD" unicode="&#x20bd;" 
d="M356.693 836.267q-8.533 0 298.667 0q57.173 0 102.4 -11.093t73.387 -26.453t48.64 -42.24t29.867 -48.213t14.507 -55.04t5.547 -51.627t0.427 -48.64v-28.16q0 -30.72 -0.427 -48.64t-5.547 -52.053t-14.507 -55.467t-29.867 -48.64t-48.64 -43.093t-73.387 -26.88
t-102.4 -11.093h-151.893l-1.707 -85.333h245.76q8.533 0 11.093 -5.12t-2.56 -11.947l-102.4 -136.533q-5.12 -6.827 -15.36 -11.947q-10.24 -5.12 -18.773 -5.12h-117.76v-149.333q0 -9.387 -4.693 -15.36t-13.227 -5.973h-127.147q-8.533 0 -14.933 6.4t-6.4 14.933
v149.333h-227.84q-8.533 0 -11.093 5.12t2.56 11.947l102.4 136.533q5.12 6.827 15.36 11.947t18.773 5.12h99.84v85.333h-227.84q-8.533 0 -11.093 5.12t2.56 11.947l102.4 136.533q5.12 6.827 15.36 11.947t18.773 5.12h99.84v405.333q0 8.533 6.4 14.933t14.933 6.4z
M503.467 665.6v-256h173.227q54.613 0 73.813 28.16t19.2 101.547q0 71.68 -19.2 98.987t-73.813 27.307h-173.227v-0.001z" />
    <glyph glyph-name="uni2212" unicode="&#x2212;" 
d="M908.8 214.187q32.427 0 -792.747 0q-30.72 0 -54.187 22.187t-23.467 55.04t23.467 55.04t54.187 22.187h792.747q32.427 0 54.613 -22.187t22.187 -55.04t-22.187 -55.04t-54.613 -22.187z" />
    <glyph glyph-name="uni231B" unicode="&#x231b;" 
d="M847.36 763.733q-7.68 -117.76 -64.427 -244.053t-142.08 -189.44q85.333 -68.267 142.08 -197.12t64.427 -244.907h85.333v-75.093h-842.24v75.093h87.893q6.827 116.053 63.573 244.907q56.746 128.854 140.373 197.12q-83.627 63.147 -140.373 189.44t-63.573 244.053
h-87.893v70.827h842.24v-70.827h-85.333zM412.16 553.813l99.84 -178.347l100.693 178.347h-200.533zM512 256l-186.88 -289.28h375.467z" />
    <glyph glyph-name="uni2601" unicode="&#x2601;" 
d="M1026.56 220.16q27.307 -103.253 -34.133 -192q-43.52 -61.44 -123.733 -76.8h-355.84q-330.24 -2.56 -330.24 0q-128.853 0 -183.467 114.347q-29.013 60.587 -15.787 126.293q13.226 65.706 61.013 109.227q31.573 29.013 90.453 43.52l11.947 4.267
q-18.773 98.133 52.053 150.187q37.547 23.04 84.48 24.747q46.933 1.707 95.573 -33.28q24.747 45.227 40.107 65.707q58.027 68.267 155.307 81.92q261.973 18.773 303.787 -207.36q5.12 -30.72 0 -64q-6.827 -5.973 3.413 -5.973q115.2 -34.987 145.067 -140.8v-0.002z
" />
    <glyph glyph-name="uni26FA" unicode="&#x26fa;" 
d="M673.28 779.093q8.533 13.653 -116.053 -159.573l398.507 -636.587h25.6q17.067 0 29.867 -15.787q12.8 -15.787 12.8 -33.707v-35.84h-1024v35.84q0 17.92 12.8 33.707t29.867 15.787h25.6l399.36 636.587l-115.2 156.16q-8.533 13.653 -4.693 29.013t17.493 23.893
t29.013 4.693t23.893 -17.493l94.72 -126.293l95.573 128q7.68 13.653 23.04 17.493t29.013 -4.267t17.493 -23.04t-4.693 -28.587zM512 -17.067h321.707l-155.307 95.573l-166.4 455.68v-551.253z" />
    <glyph glyph-name="uni2709" unicode="&#x2709;" 
d="M727.04 245.76q-1.707 -21.333 15.36 -44.373l223.573 -220.16h-907.093l221.867 215.893q30.72 30.72 9.387 63.147q-11.947 17.92 -35.413 20.48t-39.68 -11.947l-223.573 -218.453v534.187l486.4 -402.773q26.453 -29.013 64.853 -4.267l489.813 399.36v-523.093
l-221.013 215.04q-22.187 21.333 -50.347 14.507q-25.6 -6.827 -34.133 -37.547zM508.587 278.187l-445.44 370.347h902.827z" />
    <glyph glyph-name="uni270F" unicode="&#x270f;" 
d="M1021.44 740.493l-552.107 -549.547l-473.6 -241.493l248.32 482.987l542.72 542.72zM441.173 268.6q-4.2666 10.2402 -10.666 20.0537q-6.40039 9.81348 -15.3604 17.0664q-8.95996 7.25391 -20.9062 11.5205q-11.9473 4.2666 -28.1602 2.55957
q2.55957 17.0664 -0.853516 29.4404q-3.41309 12.373 -10.667 21.7598q-7.25293 9.38672 -17.0664 15.3604q-9.81348 5.97266 -20.0527 10.2393l-13.6533 -14.5059l-100.693 -197.974q5.97266 -4.2666 16.2129 -12.7998q7.67969 -7.68066 11.0938 -15.3604l198.826 101.547z
M867.84 820.707l-62.293 60.5859l-445.44 -445.439q17.9199 -5.97363 29.8672 -15.7871q11.9463 -9.81348 18.7734 -20.0527q8.5332 -11.9473 12.7998 -24.7471z" />
    <glyph glyph-name="uniE001" unicode="&#xe001;" 
d="M597.333 366.933v-469.333h213.333q17.92 0 30.293 -12.373t12.373 -30.293v-42.667h-682.667v42.667q0 17.92 12.373 30.293t30.293 12.373h213.333v469.333l-426.667 469.333h1024q-142.222 -156.444 -426.667 -469.333z" />
    <glyph glyph-name="uniE002" unicode="&#xe002;" 
d="M358.4 680.107q-33.28 -11.093 550.4 139.093q33.28 12.8 53.76 0t20.48 -41.813v-709.12q0 -46.933 -35.413 -81.493t-95.147 -54.187q-67.413 -21.333 -125.44 -3.84t-73.387 64t21.76 95.147q37.12 48.64 104.533 69.973q61.44 20.48 117.76 6.827v444.587
l-512 -132.267v-517.12q0 -35.84 -37.547 -76.8t-93.013 -58.88q-67.413 -22.187 -125.44 -4.693t-73.387 64.427t21.76 95.147t104.533 70.4q61.44 20.48 117.76 5.973v545.28q0 32.427 12.373 50.347t45.653 29.013z" />
    <glyph glyph-name="uniE003" unicode="&#xe003;" 
d="M361.813 68.267q-75.093 0 -141.227 26.88t-116.48 79.787q-53.76 53.76 -81.067 121.173q-27.307 67.413 -27.307 137.813t27.307 136.96t81.067 119.467q50.347 52.907 116.48 81.493t141.227 28.587q72.533 0 138.667 -28.587t119.04 -81.493
q53.76 -52.907 80.64 -119.467t26.88 -136.96t-26.88 -137.813t-80.64 -121.173q-52.907 -52.907 -119.04 -79.787t-138.667 -26.88zM361.813 701.44q-56.32 0 -104.107 -20.907t-83.627 -60.16q-40.107 -38.4 -60.16 -87.467t-20.053 -100.267t20.053 -100.267
t60.16 -87.467q35.84 -38.4 83.627 -57.6q47.787 -19.2 104.107 -19.2q52.907 0 101.12 19.2t86.613 57.6q38.4 38.4 57.6 87.467t19.2 100.267t-19.2 100.267t-57.6 87.467q-38.4 39.253 -86.613 60.16t-101.12 20.907zM1028.27 -115.2l-250.027 249.173l-81.067 34.133
l-70.827 -69.973l34.133 -81.067l249.173 -250.88l118.613 118.613z" />
    <glyph glyph-name="uniE005" unicode="&#xe005;" 
d="M512 -119.467q-288.427 207.36 -402.773 436.053q-47.787 99.84 -9.813 209.92q37.974 110.08 142.08 151.04q51.2 21.333 93.44 16.213t71.253 -17.493t56.747 -37.12t35.84 -34.987t13.227 -14.507l31.573 36.693q34.987 37.547 96 57.6t141.227 -8.107
q105.813 -39.253 143.36 -149.333t-11.093 -209.92q-108.373 -226.133 -401.067 -436.053z" />
    <glyph glyph-name="uniE006" unicode="&#xe006;" 
d="M661.333 501.76l344.747 -55.467l-249.173 -239.787l58.88 -337.067l-304.64 162.987l-303.787 -159.573l60.587 337.92l-250.027 239.787l344.747 51.2l151.893 307.2z" />
    <glyph glyph-name="uniE007" unicode="&#xe007;" 
d="M418.133 471.893l-16.213 -29.867l-32.427 -3.413l-210.773 -31.573l152.747 -150.187l21.333 -24.747l-5.12 -30.72l-36.693 -213.333l192.853 98.987l26.453 17.067l29.867 -17.067l192 -98.987l-34.987 213.333l-7.68 30.72l23.893 24.747l153.6 150.187
l-212.48 31.573l-31.573 3.413l-17.067 28.16l-95.573 195.413l-92.16 -193.707zM662.187 497.493l337.92 -46.933l-244.053 -239.787l56.32 -336.213l-302.08 159.573l-301.227 -159.573l58.027 337.067l-244.053 238.933l339.627 51.2l147.627 302.933l151.893 -307.2
h-0.001z" />
    <glyph glyph-name="uniE008" unicode="&#xe008;" 
d="M750.08 595.627q0 -101.547 -72.533 -189.867t-165.973 -88.32t-165.547 88.32t-72.107 189.867q0 98.133 70.827 168.107t167.253 69.973t167.253 -69.973t70.827 -168.107zM32.427 -187.733q0 123.733 135.68 236.8q135.68 113.067 343.04 113.067
q207.36 0 343.467 -113.067t136.107 -236.8h-958.293h-0.001z" />
    <glyph glyph-name="uniE009" unicode="&#xe009;" 
d="M21.333 750.933q-8.533 0 981.333 0q8.533 0 14.933 -6.4t6.4 -14.933v-896q0 -8.533 -6.4 -14.933t-14.933 -6.4h-981.333q-8.533 0 -14.933 6.4t-6.4 14.933v896q0 8.533 6.4 14.933t14.933 6.4zM85.333 665.6v-85.333h85.333v85.333h-85.333zM746.667 665.6
q8.533 0 -469.333 0q-8.533 0 -14.933 -6.4t-6.4 -14.933v-298.667q0 -8.533 6.4 -14.933t14.933 -6.4h469.333q8.533 0 14.933 6.4t6.4 14.933v298.667q0 8.533 -6.4 14.933t-14.933 6.4zM853.333 665.6v-85.333h85.333v85.333h-85.333zM85.333 494.933v-85.333h85.333
v85.333h-85.333zM853.333 494.933v-85.333h85.333v85.333h-85.333zM85.333 324.267v-85.333h85.333v85.333h-85.333zM853.333 324.267v-85.333h85.333v85.333h-85.333zM746.667 238.933q8.533 0 -469.333 0q-8.533 0 -14.933 -6.4t-6.4 -14.933v-298.667
q0 -8.533 6.4 -14.933t14.933 -6.4h469.333q8.533 0 14.933 6.4t6.4 14.933v298.667q0 8.533 -6.4 14.933t-14.933 6.4zM85.333 153.6v-85.333h85.333v85.333h-85.333zM853.333 153.6v-85.333h85.333v85.333h-85.333zM85.333 -17.067v-85.333h85.333v85.333z
M853.333 -17.067v-85.333h85.333v85.333z" />
    <glyph glyph-name="uniE010" unicode="&#xe010;" 
d="M40.96 744.107h436.053v-431.787h-436.053zM546.987 744.107h435.2v-431.787h-435.2zM40.96 245.76h436.053v-433.493h-436.053zM546.987 245.76h435.2v-433.493h-435.2z" />
    <glyph glyph-name="uniE011" unicode="&#xe011;" 
d="M29.867 744.107h444.587v-252.587h-444.587zM549.547 744.107h444.587v-252.587h-444.587v252.587zM29.867 406.187h444.587v-252.587h-444.587zM549.547 406.187h444.587v-252.587h-444.587v252.587zM29.867 65.707h444.587v-249.173h-444.587zM549.547 65.707h444.587
v-249.173h-444.587v249.173z" />
    <glyph glyph-name="uniE012" unicode="&#xe012;" 
d="M35.84 701.44h97.28v-95.573h-97.28v95.573zM282.453 701.44h704.853v-95.573h-704.853v95.573zM35.84 447.147h97.28v-97.28h-97.28v97.28zM282.453 447.147h704.853v-97.28h-704.853v97.28zM35.84 191.147h97.28v-97.28h-97.28v97.28zM282.453 191.147h704.853v-97.28
h-704.853v97.28zM35.84 -65.707h97.28v-95.573h-97.28v95.573zM282.453 -65.707h704.853v-95.573h-704.853v95.573z" />
    <glyph glyph-name="uniE013" unicode="&#xe013;" 
d="M477.014 -140.507l-424.107 409.6q-28.1592 26.4531 -29.8662 66.9863q-1.70703 40.5342 25.5996 70.4004q29.8672 32.4268 70.4004 32.4268t72.96 -29.8662l252.587 -243.2l371.2 544.427q23.04 35.8398 65.2793 42.666q42.2402 6.82715 74.667 -16.2129
t39.6797 -62.7197q7.25391 -39.6807 -14.9326 -75.5205z" />
    <glyph glyph-name="uniE014" unicode="&#xe014;" 
d="M930.133 27.307q62.293 -58.88 5.973 -129.707q-70.827 -69.12 -134.827 -4.267l-289.28 262.827l-288.427 -269.653q-28.16 -17.92 -65.707 -17.92t-69.12 29.013q-57.173 70.827 4.267 129.707l279.893 251.733l-279.893 251.733q-61.44 58.88 -4.267 128.853
q69.12 69.12 134.827 5.973l288.427 -262.827l289.28 269.653q27.307 18.773 64 18.773t70.827 -31.573q56.32 -69.973 -5.973 -128.853l-279.04 -251.733q93.013 -83.911 279.04 -251.733v0.001z" />
    <glyph glyph-name="uniE015" unicode="&#xe015;" 
d="M361.813 68.267q-75.093 0 -141.227 27.307t-116.48 79.36q-53.76 52.053 -81.067 119.04q-27.307 66.987 -27.307 137.387t27.307 138.24t81.067 121.6q50.347 52.053 116.48 78.933t141.227 26.88q72.533 0 138.667 -26.88t119.04 -78.933q53.76 -53.76 80.64 -121.6
t26.88 -138.24t-26.88 -137.387t-80.64 -119.04q-52.907 -52.053 -119.04 -79.36t-138.667 -27.307zM361.813 698.027q-56.32 0 -104.107 -19.2t-83.627 -58.453q-40.107 -38.4 -60.16 -87.467t-20.053 -100.267t20.053 -99.84t60.16 -87.04q35.84 -39.253 83.627 -58.453
q47.787 -19.2 104.107 -19.2q52.907 0 101.12 19.2t86.613 58.453q38.4 38.4 57.6 87.04t19.2 99.84t-19.2 100.267q-19.2 49.067 -57.6 87.467q-38.4 39.253 -86.613 58.453t-101.12 19.2zM1028.27 -118.613l-250.027 253.44l-81.067 29.867l-70.827 -67.413
l34.133 -81.067l249.173 -253.44l118.613 118.613h0.002zM512.853 407.04q11.093 0 -290.987 0q-11.947 0 -18.773 7.253t-6.827 18.347q0 11.947 6.827 18.773t18.773 6.827h290.987q11.093 0 18.347 -6.827t7.253 -18.773q0 -11.093 -7.253 -18.347t-18.347 -7.253z
M365.227 263.68q-11.093 0 -18.347 6.827t-7.253 15.36v294.4q0 8.533 7.253 14.933t18.347 6.4t18.773 -6.4t7.68 -14.933v-294.4q0 -8.533 -7.68 -15.36t-18.773 -6.827z" />
    <glyph glyph-name="uniE016" unicode="&#xe016;" 
d="M361.813 68.267q-75.093 0 -141.227 26.88t-116.48 79.787q-53.76 53.76 -81.067 121.173q-27.307 67.413 -27.307 137.813t27.307 136.96t81.067 119.467q50.347 52.907 116.48 81.493t141.227 28.587q72.533 0 138.667 -28.587t119.04 -81.493
q53.76 -52.907 80.64 -119.467t26.88 -136.96t-26.88 -137.813t-80.64 -121.173q-52.907 -52.907 -119.04 -79.787t-138.667 -26.88zM361.813 701.44q-56.32 0 -104.107 -20.907t-83.627 -60.16q-40.107 -38.4 -60.16 -87.467t-20.053 -100.267t20.053 -100.267
t60.16 -87.467q35.84 -38.4 83.627 -57.6q47.787 -19.2 104.107 -19.2q52.907 0 101.12 19.2t86.613 57.6q38.4 38.4 57.6 87.467t19.2 100.267t-19.2 100.267t-57.6 87.467q-38.4 39.253 -86.613 60.16t-101.12 20.907zM1028.27 -115.2l-250.027 249.173l-81.067 34.133
l-70.827 -69.973l34.133 -81.067l249.173 -250.88l118.613 118.613zM512.853 407.04q11.093 0 -290.987 0q-11.947 0 -18.773 7.253t-6.827 18.347q0 11.947 6.827 18.773t18.773 6.827h290.987q11.093 0 18.347 -6.827t7.253 -18.773q0 -11.093 -7.253 -18.347
t-18.347 -7.253z" />
    <glyph glyph-name="uniE017" unicode="&#xe017;" 
d="M39.253 273.067q0 128 64.427 238.933q64.427 110.933 174.507 170.667l50.347 -93.013q-86.187 -48.64 -135.68 -133.973t-49.493 -182.613q0 -156.16 108.373 -262.827t261.12 -106.667t261.12 106.667t108.373 262.827q0 97.28 -49.493 182.613t-134.827 133.973
l50.347 93.013q108.373 -59.733 172.373 -170.667t64 -238.933q0 -196.267 -139.52 -334.507t-333.227 -138.24t-333.227 138.24t-139.52 334.507zM459.093 394.24q0 -23.04 0 350.72q0 22.187 16.213 37.547t37.973 15.36q21.76 0 37.973 -15.36t16.213 -37.547v-350.72
q0 -23.04 -16.213 -36.693t-37.973 -13.653t-37.973 13.653t-16.213 36.693z" />
    <glyph glyph-name="uniE018" unicode="&#xe018;" 
d="M436.053 -140.8q0 -42.667 -40.96 -42.667h-52.053q-39.253 0 -39.253 42.667v313.173q0 45.227 39.253 45.227h52.053q40.96 0 40.96 -45.227v-313.173zM151.04 -140.8q0 -42.667 -43.52 -42.667h-48.64q-17.067 0 -30.293 13.653t-13.227 29.013v207.36
q0 17.92 13.227 30.293q13.227 12.373 30.293 12.373h48.64q43.52 0 43.52 -42.667v-207.36v0.002zM722.773 -140.8q0 -42.667 -40.96 -42.667h-52.907q-38.4 0 -38.4 42.667v532.48q0 41.813 38.4 41.813h52.907q40.96 0 40.96 -41.813v-532.48zM872.107 767.147
q0 43.52 45.227 43.52h48.64q17.067 0 29.867 -13.653t12.8 -29.867v-907.947q0 -15.36 -12.8 -29.013t-29.867 -13.653h-48.64q-45.227 0 -45.227 42.667v907.947v-0.001z" />
    <glyph glyph-name="uniE019" unicode="&#xe019;" 
d="M1000.96 378.88q8.533 -52.907 0 -110.08q0 -27.307 -28.16 -27.307l-5.12 3.413q-72.533 0 -101.547 -69.12q-27.307 -69.973 29.013 -122.027q18.773 -17.067 3.413 -36.693q-36.693 -42.667 -80.213 -81.067q-19.627 -17.067 -36.693 5.12
q-54.613 55.467 -123.307 26.453t-68.693 -104.96q0 -25.6 -23.893 -25.6q-38.4 -6.827 -53.76 -6.827q-16.213 0 -57.173 6.827q-24.747 0 -24.747 29.013q5.973 75.093 -65.707 104.96q-75.093 30.72 -123.733 -29.867q-17.067 -15.36 -37.547 -2.56
q-45.227 44.373 -76.8 81.067q-17.067 22.187 3.413 36.693q53.76 52.907 24.747 122.88q-29.867 72.533 -98.133 65.707q-33.28 0 -33.28 25.6q-8.533 55.467 0 112.64q0 24.747 29.013 24.747q77.653 0 105.813 67.413q29.867 69.973 -24.747 122.88
q-23.893 15.36 -6.827 36.693q52.053 57.173 80.213 80.213q20.48 16.213 37.547 -6.827q53.76 -52.907 122.88 -24.32t69.12 104.533q0 26.453 22.187 26.453q53.76 8.533 110.933 0q25.6 0 25.6 -29.013q-5.12 -77.653 66.56 -106.667q75.093 -30.72 122.88 29.013
q17.92 16.213 36.693 4.267q45.227 -44.373 77.653 -81.067q17.067 -23.893 -3.413 -36.693q-53.76 -52.907 -25.6 -122.88q23.893 -65.707 101.547 -65.707q29.867 0 29.867 -27.307zM512 159.573q68.267 0 117.76 48.213t49.493 118.187q0 65.707 -49.493 113.92
t-117.76 48.213q-65.707 0 -113.92 -48.213t-48.213 -113.92q0 -69.973 48.213 -118.187t113.92 -48.213z" />
    <glyph glyph-name="uniE020" unicode="&#xe020;" 
d="M860.16 713.387q37.547 0 37.547 -37.973t-37.547 -37.973h-698.88q-35.84 0 -35.84 37.973t35.84 37.973h103.253v37.547q0 39.253 22.187 66.987t52.053 27.733h343.893q33.28 0 55.04 -27.733t21.76 -66.987v-37.547h100.693h0.001zM301.227 713.387h420.693v37.547
q0 56.32 -39.253 56.32h-343.893q-37.547 0 -37.547 -56.32v-37.547zM842.24 540.16l-96.427 -716.8h-471.893l-94.72 716.8h663.04zM377.173 -124.587q28.16 5.973 28.16 35.84l-58.88 549.547q-7.68 34.987 -35.84 29.867q-27.307 0 -27.307 -32.427l60.587 -555.52
q0 -27.307 28.16 -27.307zM542.72 460.8q0 29.867 -31.573 29.867t-31.573 -29.867v-553.813q0 -31.573 31.573 -31.573t31.573 31.573v553.813zM738.133 458.24q0 32.427 -25.6 32.427q-29.867 5.12 -34.133 -29.867l-59.733 -549.547q0 -29.867 27.307 -35.84h1.707
q32.427 0 90.453 582.827h-0.001z" />
    <glyph glyph-name="uniE021" unicode="&#xe021;" 
d="M952.32 -184.32h-303.787v474.453h-273.92v-474.453h-302.933v637.44l439.467 388.267l441.173 -388.267z" />
    <glyph glyph-name="uniE022" unicode="&#xe022;" 
d="M839.68 563.2q8.533 -8.533 8.533 -20.48v-576.853q0 -37.547 -22.613 -64.853t-59.307 -34.987q-5.12 -1.707 -10.667 -2.133t-11.52 -0.427h-477.013q-41.813 0 -69.547 24.747t-34.56 65.707v746.667q0 35.84 23.04 64t58.027 34.987q5.973 1.707 11.52 1.707h330.667
q9.387 0 18.773 -6.827q58.88 -58.88 117.333 -116.053t117.333 -115.2zM808.107 535.04q2.56 0 7.68 -0.427t6.827 -0.427l-237.227 232.107v-132.267q0 -19.627 7.68 -37.547t20.907 -31.573t30.72 -21.76t37.973 -8.107q31.573 -0.853 62.72 -0.427t62.72 0.427v0.001z
" />
    <glyph glyph-name="uniE023" unicode="&#xe023;" 
d="M229.547 576.853q-117.76 -117.76 -117.76 -282.027t119.04 -282.027q119.04 -117.76 282.453 -117.76q163.413 -1.42109e-14 281.6 117.76t118.187 282.027q0 164.267 -118.187 281.6t-281.6 117.333t-283.733 -116.907zM858.453 640q147.627 -142.507 147.627 -345.173
t-145.493 -348.587t-348.16 -145.92t-348.587 145.92t-145.92 348.587t145.92 348.587t348.587 145.92q202.667 0.001 346.027 -149.333zM762.027 367.787q12.8 -38.4 -24.747 -50.347l-211.627 -73.387h-4.267q-6.827 -4.267 -16.213 -4.267q-34.987 0 -34.987 34.987
v337.067q0 35.84 35.84 35.84t35.84 -35.84v-283.307l173.227 58.027q33.28 11.093 46.933 -18.773h0.001z" />
    <glyph glyph-name="uniE024" unicode="&#xe024;" 
d="M470.187 -184.32h-537.6l111.787 935.253h425.813v-162.987h85.333v162.987h429.227l107.52 -935.253h-536.747v231.253h-85.333zM470.187 201.387h85.333v221.013h-85.333v-221.013z" />
    <glyph glyph-name="uniE025" unicode="&#xe025;" 
d="M426.667 836.267q-17.92 0 170.667 0q17.92 0 30.293 -12.373t12.373 -30.293v-384h162.987q17.067 0 21.76 -9.813t-6.4 -23.467l-279.04 -341.333q-11.093 -13.653 -27.307 -13.653t-27.307 13.653l-279.04 341.333q-11.093 13.653 -6.4 23.467t21.76 9.813h162.987
v384q0 17.92 12.373 30.293t30.293 12.373h0.001zM917.333 153.6q-8.533 0 42.667 0q8.533 0 14.933 -6.4t6.4 -14.933v-298.667q0 -8.533 -6.4 -14.933t-14.933 -6.4h-896q-8.533 0 -14.933 6.4t-6.4 14.933v298.667q0 8.533 6.4 14.933t14.933 6.4h42.667
q8.533 0 14.933 -6.4t6.4 -14.933v-149.333h768v149.333q0 8.533 6.4 14.933t14.933 6.4z" />
    <glyph glyph-name="uniE026" unicode="&#xe026;" 
d="M512 169.613l-203.094 222.72q-11.0928 13.6533 -11.0928 34.9873q0 22.1865 16.2129 37.5459q34.9873 32.4268 65.707 -6.82617l75.0938 -79.3604v225.28h104.96v-237.227l83.626 91.3066q33.2803 39.2529 64.8535 6.82617q40.96 -33.2793 4.2666 -72.5332z
M795.307 139.747q120.32 118.613 120.32 283.733q0 165.119 -119.467 283.732q-119.467 118.614 -283.307 118.614t-283.307 -118.614q-119.467 -118.613 -119.467 -283.732q0 -165.12 119.467 -283.733t283.307 -118.613t282.453 118.613zM157.014 69.7734
q-144.214 149.333 -144.214 353.28q0 203.946 148.054 351.146q148.053 147.2 351.146 147.2t350.72 -147.2q147.627 -147.2 147.627 -351.146q0 -203.947 -147.627 -350.721q-147.626 -146.773 -350.72 -146.773t-354.986 144.214z" />
    <glyph glyph-name="uniE027" unicode="&#xe027;" 
d="M511.146 676.493l203.094 -222.72q11.0928 -13.6533 11.0928 -34.9863q0 -22.1875 -16.2129 -37.5469q-34.9863 -32.4268 -65.707 6.82617l-75.0928 79.3604v-225.28h-104.96v237.227l-83.627 -91.3066q-33.2803 -39.2529 -64.8535 -6.82617
q-40.96 33.2793 -4.2666 72.5332zM227.84 706.36q-120.32 -118.613 -120.32 -283.733t119.467 -283.733t283.307 -118.613q163.841 0 283.307 118.613q119.467 118.613 119.467 283.733t-119.467 283.733q-119.466 118.613 -283.307 118.613q-163.84 0 -282.453 -118.613z
M866.134 776.333q144.213 -149.333 144.213 -353.279q0 -203.947 -148.054 -351.147q-148.053 -147.199 -351.146 -147.199q-203.093 0 -350.72 147.199q-147.627 147.2 -147.627 351.147q0 203.946 147.627 350.72t350.72 146.773q203.094 0 354.987 -144.214z" />
    <glyph glyph-name="uniE028" unicode="&#xe028;" 
d="M1008.64 203.093v-279.04h-994.133v279.04l104.107 492.373h785.92l104.107 -492.373zM741.547 278.187h174.933l-75.093 342.187h-660.48l-74.24 -342.187h173.227v-144.213q0 -29.013 19.2 -46.933t46.507 -17.92h331.947q29.013 0 46.507 17.92t17.493 46.933v144.213
h-0.001z" />
    <glyph glyph-name="uniE029" unicode="&#xe029;" 
d="M231.253 578.56q-116.053 -117.76 -116.053 -280.747t117.76 -279.467t280.32 -116.48q162.56 -4.26326e-14 280.32 116.48t117.76 279.467q0 162.987 -117.76 280.32t-280.32 117.333t-282.027 -116.907v0.001zM856.747 642.56q146.773 -144.213 146.773 -345.173
t-145.067 -346.027t-346.453 -145.067t-346.453 145.067t-145.067 346.027t145.067 346.453t346.453 145.493t344.747 -146.773zM414.72 464.213l288.427 -166.4l-288.427 -167.253v333.653z" />
    <glyph glyph-name="uniE030" unicode="&#xe030;" 
d="M507.733 -103.253q133.12 0 238.933 79.787t141.653 207.787l96.427 -29.867q-44.373 -156.16 -178.347 -255.573t-298.667 -99.413q-203.093 0 -348.16 143.787t-145.067 348.16t145.067 348.587t348.16 144.213q243.2 0 393.387 -191.147l14.507 115.2
q5.973 49.493 49.493 43.52q17.067 0 34.987 -20.48q9.387 -11.093 9.387 -31.573l-38.4 -287.573l-280.747 63.147q-21.333 1.707 -31.573 18.773t-3.413 34.133q8.533 46.08 55.467 36.693l103.253 -23.893q-120.32 146.773 -306.347 146.773q-162.987 0 -277.76 -116.48
t-114.773 -279.467t114.773 -279.04t277.76 -116.053z" />
    <glyph glyph-name="uniE031" unicode="&#xe031;" 
d="M999.253 728.747q8.533 -9.387 8.533 -30.72l-34.987 -285.867l-279.893 63.147q-20.48 1.707 -31.573 18.773t-4.267 34.133q9.387 45.227 57.173 35.84l101.547 -23.893q-121.173 145.92 -304.64 145.92q-162.133 0 -277.333 -115.627t-115.2 -276.907h-97.28
q0 203.947 143.36 346.453q143.36 142.506 346.453 142.507q243.2 0 389.973 -192.853l15.36 116.053q5.12 49.493 50.347 43.52q14.507 0 32.427 -20.48zM1003.52 293.547q0 -203.093 -144.64 -346.453t-347.733 -143.36q-239.787 0 -386.56 186.88l-10.24 -115.2
q-6.827 -46.933 -55.467 -39.253q-17.067 0 -27.307 17.92q-16.213 13.653 -10.24 30.72l34.133 287.573l280.747 -62.293q44.373 -13.653 34.133 -54.613q-3.413 -19.627 -20.48 -31.147t-34.987 -4.693l-103.253 24.747q117.76 -143.36 299.52 -143.36
q165.547 0 279.893 115.627t114.347 276.907h98.133z" />
    <glyph glyph-name="uniE032" unicode="&#xe032;" 
d="M326.827 479.573q0 -17.067 -12.8 -30.72t-31.573 -13.653q-40.96 0 -40.96 44.373q0 43.52 40.96 43.52q44.373 0 44.373 -43.52zM282.453 226.133q-40.96 0 -40.96 43.947q0 43.947 40.96 43.947q18.773 0 31.573 -12.8t12.8 -30.72t-12.8 -31.147t-31.573 -13.227z
M326.827 61.44q0 -41.813 -44.373 -41.813q-40.96 0 -40.96 41.813q0 43.52 40.96 43.52q18.773 0 31.573 -13.227t12.8 -30.293zM906.24 834.56v-1029.97h-788.48v1029.97h788.48zM840.533 -131.413v792.747h-658.773v-792.747h658.773zM394.24 512.853h372.907v-67.413
h-372.907zM394.24 302.933h372.907v-64.853h-372.907zM394.24 97.28h372.907v-68.267h-372.907z" />
    <glyph glyph-name="uniE033" unicode="&#xe033;" 
d="M859.307 538.453q25.6 0 47.787 -9.387t38.827 -26.027t26.453 -38.827t9.813 -46.933v-486.4q0 -25.6 -9.813 -47.787t-26.453 -38.827t-38.827 -26.027t-47.787 -9.387h-692.907q-24.747 0 -46.933 9.387t-38.827 26.027t-26.027 38.827t-9.387 47.787v486.4
q0 24.747 9.387 46.933t26.027 38.827q16.64 16.641 38.827 26.027q22.187 9.386 46.933 9.387h40.107v124.587q0 29.013 9.813 55.04t26.453 45.227q16.64 19.2 39.68 30.293t48.64 11.093h364.373q25.6 0 48.64 -11.093t39.68 -30.293t26.453 -45.227t9.813 -55.04
v-124.587h39.253h0.002zM544.427 207.36q14.507 8.533 23.467 23.04t8.96 32.427q0 27.307 -18.347 46.08t-44.8 18.773q-27.307 0 -46.08 -18.773t-18.773 -46.08q0 -17.92 8.96 -32.427t23.467 -23.04l-31.573 -221.013h127.147l-32.427 221.013h-0.001zM692.907 663.04
q0 10.24 -3.413 13.653h-352.427q-1.707 -1.707 -2.987 -5.12t-1.28 -8.533v-124.587h360.107v124.587z" />
    <glyph glyph-name="uniE034" unicode="&#xe034;" 
d="M106.667 750.933q-8.533 0 42.667 0q8.533 0 14.933 -6.4t6.4 -14.933v-917.333h-85.333v917.333q0 8.533 6.4 14.933t14.933 6.4zM917.333 709.973q3.413 0 7.68 -1.707q13.653 -5.12 13.653 -19.627v-359.253q0 -5.12 -2.56 -10.24q-28.16 -50.347 -56.747 -84.48
t-55.893 -49.493t-48.213 -20.907t-44.8 -5.547q-22.187 0 -49.067 5.547t-44.8 11.52t-51.2 17.92q-34.987 12.8 -53.76 19.2t-49.067 12.8t-55.893 6.4q-72.533 0 -136.533 -48.64q-5.973 -4.267 -12.8 -4.267q-5.12 0 -9.387 2.56q-11.947 5.973 -11.947 18.773v373.76
q18.773 46.933 69.973 84.053t101.547 39.68q19.627 1.707 36.693 0.427t36.693 -5.973q19.627 -4.693 27.733 -7.253t32.427 -11.093t27.733 -9.387q34.987 -11.947 54.187 -17.92t48.64 -11.947t54.187 -5.973q87.893 0 156.16 74.24q5.973 6.827 15.36 6.827z" />
    <glyph glyph-name="uniE035" unicode="&#xe035;" 
d="M1024 302.933q0 98.987 0 -256q0 -8.533 -6.4 -14.933t-14.933 -6.4h-42.667q-8.533 0 -14.933 6.4t-6.4 14.933v256q0 108.373 -60.16 197.547q-60.16 89.174 -157.44 137.813t-209.067 48.64t-209.067 -48.64t-157.44 -137.813t-60.16 -197.547v-256
q0 -8.533 -6.4 -14.933t-14.933 -6.4h-42.667q-8.533 0 -14.933 6.4t-6.4 14.933v256q0 98.987 42.24 193.707q42.24 94.72 111.787 164.267q69.547 69.547 164.267 111.787t193.707 42.24t193.707 -42.24t164.267 -111.787t111.787 -164.267q42.24 -94.72 42.24 -193.707z
M187.733 238.933q-6.827 0 136.533 0q6.827 0 11.947 -5.12t5.12 -11.947v-392.533q0 -6.827 -5.12 -11.947t-11.947 -5.12h-136.533q-6.827 0 -11.947 5.12t-5.12 11.947v392.533q0 6.827 5.12 11.947t11.947 5.12zM699.733 238.933q-6.827 0 136.533 0
q6.827 0 11.947 -5.12t5.12 -11.947v-392.533q0 -6.827 -5.12 -11.947t-11.947 -5.12h-136.533q-6.827 0 -11.947 5.12t-5.12 11.947v392.533q0 6.827 5.12 11.947t11.947 5.12z" />
    <glyph glyph-name="uniE036" unicode="&#xe036;" 
d="M318.293 506.88q-17.92 -11.947 220.16 146.773q7.68 5.12 12.8 2.133t5.12 -11.52v-640q0 -8.533 -5.12 -11.52t-12.8 2.133l-220.16 146.773q-17.92 11.947 -39.253 11.947h-213.333q-8.533 0 -14.933 6.4t-6.4 14.933v298.667q0 8.533 6.4 14.933t14.933 6.4h213.333
q21.333 0 39.253 11.947v0.001zM812.373 382.293q-108.373 109.227 102.4 102.4q5.973 5.973 14.507 5.973t14.507 -5.973l29.013 -29.013q5.973 -5.973 5.973 -14.507t-5.973 -14.507l-102.4 -102.4l102.4 -102.4q5.973 -5.973 5.973 -14.507t-5.973 -14.507
l-29.013 -29.013q-5.973 -5.973 -14.507 -5.973t-14.507 5.973l-102.4 101.547l-102.4 -101.547q-5.973 -5.973 -14.507 -5.973t-14.507 5.973l-29.013 29.013q-5.973 5.973 -5.973 14.507t5.973 14.507l101.547 102.4l-101.547 102.4q-5.973 5.973 -5.973 14.507
t5.973 14.507l29.013 29.013q5.973 6.827 14.507 6.827t116.907 -109.227z" />
    <glyph glyph-name="uniE037" unicode="&#xe037;" 
d="M409.6 506.88q-17.92 -11.947 220.16 146.773q7.68 5.12 12.8 2.133t5.12 -11.52v-640q0 -8.533 -5.12 -11.52t-12.8 2.133l-220.16 146.773q-17.92 11.947 -39.253 11.947h-213.333q-8.533 0 -14.933 6.4t-6.4 14.933v298.667q0 8.533 6.4 14.933t14.933 6.4h213.333
q21.333 0 39.253 11.947v0.001zM789.333 580.267q-6.827 0 3.413 0q8.533 -0.853 13.653 -8.533q81.92 -110.08 81.92 -247.467q0 -131.413 -76.8 -239.787q-5.12 -7.68 -14.507 -8.533l-2.56 -0.853q-7.68 0 -13.653 5.12l-24.747 19.627q-5.973 5.973 -7.253 14.08
t3.84 14.933q61.44 87.893 61.44 195.413q0 112.64 -66.56 203.093q-5.12 6.827 -3.84 15.36t8.107 14.507l24.747 18.773q5.973 4.267 12.8 4.267z" />
    <glyph glyph-name="uniE038" unicode="&#xe038;" 
d="M858.453 669.013q-6.827 0 2.56 0q9.387 -0.853 14.507 -8.533q115.2 -152.747 115.2 -337.92q0 -89.6 -29.013 -176.213t-83.627 -158.293q-5.973 -7.68 -14.507 -8.533h-2.56q-7.68 0 -13.653 5.12l-35.84 29.013q-6.827 5.12 -7.68 13.653q-0.853 8.533 4.267 15.36
q94.72 128 94.72 279.893q0 76.8 -25.173 150.187q-25.173 73.387 -72.107 133.973q-5.12 7.68 -4.267 16.213t8.533 13.653l35.84 28.16q5.973 4.267 12.8 4.267zM307.2 506.88q-17.92 -11.947 220.16 146.773q7.68 5.12 12.8 2.133t5.12 -11.52v-640
q0 -8.533 -5.12 -11.52t-12.8 2.133l-220.16 146.773q-17.92 11.947 -39.253 11.947h-213.333q-8.533 0 -14.933 6.4t-6.4 14.933v298.667q0 8.533 6.4 14.933t14.933 6.4h213.333q21.333 0 39.253 11.947zM686.933 580.267q-6.827 0 3.413 0q8.533 -0.853 13.653 -8.533
q81.92 -110.08 81.92 -247.467q0 -131.413 -76.8 -239.787q-5.12 -7.68 -14.507 -8.533l-2.56 -0.853q-7.68 0 -13.653 5.12l-24.747 19.627q-5.973 5.973 -7.253 14.08t3.84 14.933q61.44 87.893 61.44 195.413q0 112.64 -66.56 203.093q-5.12 6.827 -3.84 15.787
t8.107 14.08l24.747 18.773q5.973 4.267 12.8 4.267z" />
    <glyph glyph-name="uniE039" unicode="&#xe039;" 
d="M479.573 352.427h-482.133v478.72h482.133v-478.72zM64 419.84h348.16v345.6h-348.16v-345.6zM136.533 693.76h204.8v-205.653h-204.8zM136.533 145.067h204.8v-207.36h-204.8zM685.227 693.76h205.653v-205.653h-205.653v205.653zM479.573 -186.88h-482.133v482.133
h482.133v-482.133zM64 -117.76h348.16v340.48h-348.16v-340.48zM1027.41 352.427h-481.28v478.72h481.28v-478.72zM614.4 419.84h344.747v345.6h-344.747zM549.547 290.987h118.613v-238.08h-118.613v238.08zM549.547 -64h118.613v-118.613h-118.613v118.613zM668.16 52.907
h119.467v-116.907h-119.467v116.907zM668.16 172.373h119.467v-119.467h-119.467v119.467zM902.827 172.373h120.32v-119.467h-120.32v119.467zM902.827 -64h120.32v-118.613h-120.32v118.613zM549.547 290.987h118.613v-118.613h-118.613v118.613zM787.627 290.987h115.2
v-118.613h-115.2v118.613z" />
    <glyph glyph-name="uniE040" unicode="&#xe040;" 
d="M93.867 -166.4q0 -17.92 -17.92 -17.92h-38.4q-13.653 0 -13.653 17.92v948.053q0 17.92 13.653 17.92h38.4q17.92 0 17.92 -17.92v-948.053zM482.133 -166.4q0 -17.92 -15.36 -17.92h-39.253q-15.36 0 -15.36 17.92v948.053q0 17.92 15.36 17.92h39.253
q15.36 0 15.36 -17.92v-948.053zM870.4 -166.4q0 -17.92 -17.067 -17.92h-40.96q-12.8 0 -12.8 17.92v948.053q0 17.92 12.8 17.92h40.96q17.067 0 17.067 -17.92v-948.053zM1000.11 -166.4q0 -17.92 -14.507 -17.92h-38.4q-16.213 0 -16.213 17.92v948.053
q0 17.92 16.213 17.92h38.4q14.507 0 14.507 -17.92v-948.053zM758.613 -166.4q0 -17.92 -15.36 -17.92h-99.84q-18.773 0 -18.773 17.92v948.053q0 17.92 18.773 17.92h99.84q15.36 0 15.36 -17.92v-948.053zM346.453 -166.4q0 -17.92 -17.067 -17.92h-102.4
q-17.067 0 -17.067 17.92v948.053q0 17.92 17.067 17.92h102.4q17.067 0 17.067 -17.92v-948.053z" />
    <glyph glyph-name="uniE041" unicode="&#xe041;" 
d="M904.533 599.04l-18.773 -330.24l-437.76 -438.613l-328.533 327.68l440.32 437.76l344.747 3.413h-0.001zM775.68 405.333q44.373 41.813 0 81.92q-15.36 17.067 -38.827 17.067t-38.827 -17.067q-40.96 -40.107 0 -81.92q39.253 -40.96 77.653 0h0.001z" />
    <glyph glyph-name="uniE042" unicode="&#xe042;" 
d="M140.8 205.653l-44.373 46.933l441.173 440.32l349.867 3.413l-6.827 -73.387l-324.267 -2.56l-19.627 -19.627l-395.947 -395.093zM912.213 220.16l-436.907 -438.613l-334.507 329.387l444.587 441.173l346.453 4.267l-19.627 -336.213zM715.947 355.84
q46.933 -47.787 96 -0.427t0.427 94.293q-49.493 47.787 -96.427 0q-20.48 -17.067 -20.48 -44.373t20.48 -49.493z" />
    <glyph glyph-name="uniE043" unicode="&#xe043;" 
d="M483.84 20.48q0 11.947 -4.267 26.88t-34.56 38.827q-30.293 23.894 -87.467 23.893h-337.92v646.827h334.507q56.32 0 88.747 -23.893t36.693 -42.667l4.267 -23.893v-645.973v-0.001zM542.72 20.48q0 11.947 3.84 26.88t35.84 38.827q32 23.894 87.467 23.893h342.187
v646.827h-342.187q-55.467 0 -87.467 -23.893t-34.56 -42.667l-5.12 -23.893v-645.973zM573.44 -121.173h-126.293v32.427q0 6.827 -4.267 18.773t-28.16 25.6t-64.853 13.653h-338.773v63.147h338.773q125.44 0 152.747 -89.6h15.36q29.867 89.6 151.893 89.6h342.187
v-63.147h-342.187q-40.107 0 -64 -13.653t-28.16 -28.16l-4.267 -16.213v-32.427z" />
    <glyph glyph-name="uniE044" unicode="&#xe044;" 
d="M885.76 -315.733l-374.613 351.573l-373.76 -351.573v1149.44h748.373v-1149.44z" />
    <glyph glyph-name="uniE045" unicode="&#xe045;" 
d="M321.707 69.12h318.293v-63.147h-318.293v63.147zM321.707 195.413h380.587v-61.44h-380.587v61.44zM954.88 575.147q26.453 0 -889.173 0q-23.893 0 -42.24 -16.64t-18.347 -44.8v-379.733q0 -28.16 17.067 -46.507t43.52 -18.347h128.853v-253.44h634.88v253.44h125.44
q30.72 0 46.933 18.347t16.213 46.507v379.733q0 28.16 -18.347 44.8t-44.8 16.64h0.001zM767.147 -122.027h-511.147v380.587h511.147v-380.587zM950.613 400.213h-106.667v105.813h106.667v-105.813zM836.267 621.227h-69.12v145.92h-511.147v-145.92h-64.853v215.04
h645.12v-215.04z" />
    <glyph glyph-name="uniE046" unicode="&#xe046;" 
d="M624.64 398.507q50.347 -46.08 50.347 -114.347t-47.787 -115.2t-115.627 -46.933t-113.92 46.933t-46.08 115.2t47.36 114.773t113.067 46.507t112.64 -46.933zM1021.44 667.307v-768.853h-1019.73v768.853h749.227v90.453h137.387v-90.453h133.12h-0.001z
M279.04 283.307q0 -97.28 69.973 -165.12t164.267 -67.84q94.294 0 162.987 67.84t68.693 165.12q0 94.72 -68.693 163.84t-162.987 69.12t-164.267 -69.12t-69.973 -163.84z" />
    <glyph glyph-name="uniE047" unicode="&#xe047;" 
d="M919.04 791.893v-215.893h-112.64l-10.24 111.787h-216.747v-769.707l109.227 -19.627v-83.627h-352.427v83.627l110.933 19.627v769.707h-217.6l-9.387 -111.787h-114.347v215.893h813.227h0.001z" />
    <glyph glyph-name="uniE048" unicode="&#xe048;" 
d="M527.36 792.747q175.787 0 272.213 -67.413q98.133 -69.12 98.133 -203.093q0 -69.973 -36.693 -122.88q-34.987 -52.907 -104.96 -81.067q88.747 -19.627 132.267 -81.067q45.227 -61.44 45.227 -144.213q0 -142.507 -93.867 -215.893q-94.72 -72.533 -265.387 -72.533
h-486.4v118.613l105.813 20.48v709.12l-105.813 20.48v119.467h439.467zM391.68 378.88h142.507q81.067 0 122.027 32.427q42.667 33.28 42.667 95.573q0 67.413 -42.667 100.693q-42.667 32.427 -128.853 32.427h-135.68v-261.12h-0.001zM391.68 242.347v-286.72h182.613
q79.36 0 120.32 35.84q41.813 34.133 41.813 101.547q0 69.973 -35.84 110.08q-36.693 39.253 -111.787 39.253h-197.12z" />
    <glyph glyph-name="uniE049" unicode="&#xe049;" 
d="M431.787 727.04v87.04h361.813v-87.04l-112.64 -19.627l-190.293 -791.893l111.787 -19.627v-87.04h-360.96v87.04l111.787 19.627l191.147 791.893l-112.64 19.627h-0.001z" />
    <glyph glyph-name="uniE050" unicode="&#xe050;" 
d="M977.066 -158.92l-150.187 167.253q-10.2402 9.38672 -10.2402 25.6006q0 11.0928 13.6533 25.5996q27.3066 17.0664 51.2002 -4.2666l52.9072 -58.8799v763.733l-52.9072 -59.7334q-23.8936 -22.1865 -51.2002 -3.41309q-13.6533 12.7998 -13.6533 26.4531
q0 15.3604 10.2402 23.04l150.187 167.253l151.894 -167.253q25.5996 -23.04 0 -49.4932q-31.5732 -24.7471 -54.6133 3.41309l-61.4404 66.5596v-779.093l61.4404 67.4131q23.04 27.3066 54.6133 4.2666q25.5996 -25.5996 0 -51.2002zM701.44 870.2v-215.894h-112.641
l-10.2402 111.787h-216.746v-769.707l109.227 -19.627v-83.626h-352.427v83.626l110.934 19.627v769.707h-217.601l-9.38672 -111.787h-114.347v215.894h813.228z" />
    <glyph glyph-name="uniE051" unicode="&#xe051;" 
d="M826.027 -31.573q-19.627 23.893 -39.253 -1.707q-22.187 -21.333 3.413 -41.813l54.613 -53.76h-662.187l56.32 53.76q24.747 20.48 3.413 41.813q-21.333 25.6 -42.667 1.707l-144.213 -128l144.213 -130.56q8.533 -4.267 21.333 -4.267q9.387 0 21.333 9.387
q18.773 24.747 -3.413 45.227l-48.64 46.08h645.973l-46.08 -46.08q-20.48 -20.48 -3.413 -45.227q9.387 -9.387 19.627 -9.387q13.653 0 19.627 4.267l142.507 130.56q-47.502 42.667 -142.507 128zM847.36 762.027v-177.493h-92.16l-8.533 91.307h-177.493v-629.76
l89.6 -15.36v-68.267h-288.427v68.267l90.453 15.36v629.76h-178.347l-6.827 -91.307h-93.867v177.493h665.6h0.001z" />
    <glyph glyph-name="uniE052" unicode="&#xe052;" 
d="M87.04 354.987q-41.813 0 -41.813 36.693v48.64q0 39.253 41.813 39.253h741.547q40.96 0 40.96 -39.253v-48.64q0 -36.693 -40.96 -36.693h-741.547zM87.04 619.52q-41.813 0 -41.813 40.107v48.64q0 13.653 13.227 26.88t28.587 13.227h432.64q17.067 0 28.587 -13.227
t11.52 -26.88v-48.64q0 -40.107 -40.107 -40.107h-432.64h-0.001zM87.04 83.627q-41.813 0 -41.813 39.253v48.64q0 36.693 41.813 36.693h587.947q37.547 0 37.547 -36.693v-48.64q0 -39.253 -37.547 -39.253zM937.813 -56.32q40.107 0 40.107 -40.107v-47.787
q0 -14.507 -11.947 -27.733t-28.16 -13.227h-850.773q-15.36 0 -28.587 13.227t-13.227 27.733v47.787q0 40.107 41.813 40.107h850.773z" />
    <glyph glyph-name="uniE053" unicode="&#xe053;" 
d="M140.8 353.28q-40.107 0 -40.107 36.693v48.64q0 39.253 40.107 39.253h742.4q39.253 0 39.253 -39.253v-48.64q0 -36.693 -39.253 -36.693h-742.4zM292.693 617.813q-36.693 0 -36.693 40.107v48.64q0 40.107 36.693 40.107h438.613q36.693 0 36.693 -40.107v-48.64
q0 -40.107 -36.693 -40.107h-438.613zM217.6 81.92q-39.253 0 -39.253 39.253v48.64q0 36.693 39.253 36.693h587.947q39.253 0 39.253 -36.693v-48.64q0 -39.253 -39.253 -39.253zM937.813 -58.027q40.107 0 40.107 -40.107v-47.787q0 -14.507 -11.947 -27.733
t-28.16 -13.227h-850.773q-15.36 0 -28.587 13.227t-13.227 27.733v47.787q0 40.107 41.813 40.107h850.773z" />
    <glyph glyph-name="uniE054" unicode="&#xe054;" 
d="M937.813 355.84q40.107 0 -742.4 0q-40.107 0 -40.107 36.693v48.64q0 39.253 40.107 39.253h742.4q40.107 0 40.107 -39.253v-48.64q0 -36.693 -40.107 -36.693zM937.813 620.373q40.107 0 -434.347 0q-40.107 0 -40.107 40.107v48.64q0 13.653 12.373 26.88
t27.733 13.227h434.347q16.213 0 28.16 -13.227t11.947 -26.88v-48.64q0 -40.107 -40.107 -40.107h0.001zM937.813 84.48q40.107 0 -589.653 0q-38.4 0 -38.4 39.253v48.64q0 36.693 38.4 36.693h589.653q40.107 0 40.107 -36.693v-48.64q0 -39.253 -40.107 -39.253z
M87.04 -55.467q-41.813 0 850.773 0q40.107 0 40.107 -40.107v-47.787q0 -14.507 -11.947 -27.733t-28.16 -13.227h-850.773q-15.36 0 -28.587 13.227t-13.227 27.733v47.787q0 40.107 41.813 40.107z" />
    <glyph glyph-name="uniE055" unicode="&#xe055;" 
d="M937.813 -56.32q40.107 0 40.107 -40.107v-47.787q0 -14.507 -11.947 -27.733t-28.16 -13.227h-850.773q-15.36 0 -28.587 13.227t-13.227 27.733v47.787q0 40.107 41.813 40.107h850.773zM937.813 208.213q40.107 0 40.107 -36.693v-48.64q0 -39.253 -40.107 -39.253
h-850.773q-41.813 0 -41.813 39.253v48.64q0 36.693 41.813 36.693zM937.813 479.573q40.107 0 40.107 -39.253v-48.64q0 -36.693 -40.107 -36.693h-850.773q-41.813 0 -41.813 36.693v48.64q0 39.253 41.813 39.253h850.773zM937.813 748.373q16.213 0 28.16 -13.227
t11.947 -26.88v-48.64q0 -40.107 -40.107 -40.107h-850.773q-41.813 0 -41.813 40.107v48.64q0 13.653 13.227 26.88t28.587 13.227h850.773h-0.001z" />
    <glyph glyph-name="uniE056" unicode="&#xe056;" 
d="M42.667 750.933q-17.92 0 85.333 0q17.92 0 30.293 -12.373t12.373 -30.293v-85.333q0 -17.92 -12.373 -30.293t-30.293 -12.373h-85.333q-17.92 0 -30.293 12.373t-12.373 30.293v85.333q0 17.92 12.373 30.293q12.373 12.373 30.293 12.373zM298.667 750.933
q-17.92 0 682.667 0q17.92 0 30.293 -12.373q12.373 -12.373 12.373 -30.293v-85.333q0 -17.92 -12.373 -30.293t-30.293 -12.373h-682.667q-17.92 0 -30.293 12.373t-12.373 30.293v85.333q0 17.92 12.373 30.293t30.293 12.373zM42.667 494.933q-17.92 0 85.333 0
q17.92 0 30.293 -12.373t12.373 -30.293v-85.333q0 -17.92 -12.373 -30.293t-30.293 -12.373h-85.333q-17.92 0 -30.293 12.373t-12.373 30.293v85.333q0 17.92 12.373 30.293q12.373 12.373 30.293 12.373zM298.667 494.933q-17.92 0 682.667 0q17.92 0 30.293 -12.373
q12.373 -12.373 12.373 -30.293v-85.333q0 -17.92 -12.373 -30.293t-30.293 -12.373h-682.667q-17.92 0 -30.293 12.373t-12.373 30.293v85.333q0 17.92 12.373 30.293t30.293 12.373zM42.667 238.933q-17.92 0 85.333 0q17.92 0 30.293 -12.373t12.373 -30.293v-85.333
q0 -17.92 -12.373 -30.293t-30.293 -12.373h-85.333q-17.92 0 -30.293 12.373t-12.373 30.293v85.333q0 17.92 12.373 30.293q12.373 12.373 30.293 12.373zM298.667 238.933q-17.92 0 682.667 0q17.92 0 30.293 -12.373q12.373 -12.373 12.373 -30.293v-85.333
q0 -17.92 -12.373 -30.293t-30.293 -12.373h-682.667q-17.92 0 -30.293 12.373t-12.373 30.293v85.333q0 17.92 12.373 30.293t30.293 12.373zM42.667 -17.067q-17.92 0 85.333 0q17.92 0 30.293 -12.373t12.373 -30.293v-85.333q0 -17.92 -12.373 -30.293t-30.293 -12.373
h-85.333q-17.92 0 -30.293 12.373t-12.373 30.293v85.333q0 17.92 12.373 30.293q12.373 12.373 30.293 12.373zM298.667 -17.067q-17.92 0 682.667 0q17.92 0 30.293 -12.373q12.373 -12.373 12.373 -30.293v-85.333q0 -17.92 -12.373 -30.293t-30.293 -12.373h-682.667
q-17.92 0 -30.293 12.373t-12.373 30.293v85.333q0 17.92 12.373 30.293t30.293 12.373z" />
    <glyph glyph-name="uniE057" unicode="&#xe057;" 
d="M384 -187.733h-85.333v938.667h85.333v-938.667zM512 750.933q-17.92 0 85.333 0q17.92 0 30.293 -12.373t12.373 -30.293v-85.333q0 -17.92 -12.373 -30.293t-30.293 -12.373h-85.333q-17.92 0 -30.293 12.373t-12.373 30.293v85.333q0 17.92 12.373 30.293
t30.293 12.373zM512 494.933q-17.92 0 426.667 0q17.92 0 30.293 -12.373t12.373 -30.293v-85.333q0 -17.92 -12.373 -30.293t-30.293 -12.373h-426.667q-17.92 0 -30.293 12.373t-12.373 30.293v85.333q0 17.92 12.373 30.293t30.293 12.373zM270.507 281.6
l-142.507 -106.667v64h-170.667v85.333h170.667v64l142.507 -106.667v0.001zM512 238.933q-17.92 0 256 0q17.92 0 30.293 -12.373t12.373 -30.293v-85.333q0 -17.92 -12.373 -30.293t-30.293 -12.373h-256q-17.92 0 -30.293 12.373t-12.373 30.293v85.333
q0 17.92 12.373 30.293t30.293 12.373zM512 -17.067q-17.92 0 512 0q17.92 0 30.293 -12.373t12.373 -30.293v-85.333q0 -17.92 -12.373 -30.293t-30.293 -12.373h-512q-17.92 0 -30.293 12.373t-12.373 30.293v85.333q0 17.92 12.373 30.293t30.293 12.373z" />
    <glyph glyph-name="uniE058" unicode="&#xe058;" 
d="M0 750.933q-17.92 0 85.333 0q17.92 0 30.293 -12.373t12.373 -30.293v-85.333q0 -17.92 -12.373 -30.293t-30.293 -12.373h-85.333q-17.92 0 -30.293 12.373t-12.373 30.293v85.333q0 17.92 12.373 30.293t30.293 12.373zM725.333 -187.733h-85.333v938.667h85.333
v-938.667zM0 494.933q-17.92 0 426.667 0q17.92 0 30.293 -12.373t12.373 -30.293v-85.333q0 -17.92 -12.373 -30.293t-30.293 -12.373h-426.667q-17.92 0 -30.293 12.373t-12.373 30.293v85.333q0 17.92 12.373 30.293t30.293 12.373zM896 324.267h170.667v-85.333
h-170.667v-64l-142.507 106.667l142.507 106.667v-64v-0.001zM0 238.933q-17.92 0 256 0q17.92 0 30.293 -12.373t12.373 -30.293v-85.333q0 -17.92 -12.373 -30.293t-30.293 -12.373h-256q-17.92 0 -30.293 12.373t-12.373 30.293v85.333q0 17.92 12.373 30.293
t30.293 12.373zM0 -17.067q-17.92 0 512 0q17.92 0 30.293 -12.373t12.373 -30.293v-85.333q0 -17.92 -12.373 -30.293t-30.293 -12.373h-512q-17.92 0 -30.293 12.373t-12.373 30.293v85.333q0 17.92 12.373 30.293t30.293 12.373z" />
    <glyph glyph-name="uniE059" unicode="&#xe059;" 
d="M64 665.6q-26.453 0 640 0q26.453 0 45.227 -18.773t18.773 -45.227v-554.667q0 -26.453 -18.773 -45.227t-45.227 -18.773h-640q-26.453 0 -45.227 18.773t-18.773 45.227v554.667q0 26.453 18.773 45.227q18.773 18.774 45.227 18.773zM1024 68.267l-256 256l256 256
v-512z" />
    <glyph glyph-name="uniE060" unicode="&#xe060;" 
d="M1012.05 620.373v-755.2h-1000.11v755.2h1000.11zM42.667 588.8v-527.36l435.2 204.8l196.267 -161.28l-69.12 161.28l192.853 151.04l184.32 -113.493v285.013h-939.52zM293.547 454.827q25.6 -27.307 25.6 -64.853t-25.6 -63.573t-61.867 -26.027t-62.72 26.027
t-26.453 63.573t26.453 64t62.72 26.453t61.867 -25.6z" />
    <glyph glyph-name="uniE062" unicode="&#xe062;" 
d="M209.92 485.547q0 123.733 88.32 212.48q88.32 88.747 212.907 88.747t213.333 -88.747t88.747 -212.48q0 -258.56 -302.08 -698.88q-301.227 440.32 -301.227 698.88zM587.947 371.2q33.28 29.867 33.28 75.093t-32 77.653t-76.8 32.427t-76.8 -32.427t-32 -77.653
t32 -76.8t76.8 -31.573t75.52 33.28z" />
    <glyph glyph-name="uniE063" unicode="&#xe063;" 
d="M320 877.88q192 85.333 384.854 0q186.026 -80.2129 265.387 -262.826q82.7734 -194.561 0 -387.414q-79.3604 -186.026 -265.387 -262.826q-192.854 -85.333 -384.854 0q-186.88 76.7998 -264.533 262.826q-83.627 192.854 0 387.414q77.6533 182.613 264.533 262.826z
M512 23.6934v791.894q-157.014 7.67969 -279.467 -114.347q-122.453 -122.027 -114.773 -280.747q-4.2666 -160.427 114.347 -280.746q118.613 -120.32 279.894 -116.054z" />
    <glyph glyph-name="uniE064" unicode="&#xe064;" 
d="M826.88 136.533q0 -129.707 -93.013 -222.293t-223.147 -92.587t-221.867 92.587t-91.733 222.293q0 270.507 314.027 731.307q315.733 -460.8 315.733 -731.307z" />
    <glyph glyph-name="uniE065" unicode="&#xe065;" 
d="M1027.41 617.813l-447.147 -443.733l-413.013 -209.92l218.453 424.107l438.613 436.907l45.227 -47.787l134.827 -134.827zM547.84 232.107q-175.787 -83.627 8.533 11.947q-21.333 47.787 -63.147 43.52q2.56 55.467 -43.52 65.707l-12.8 -8.533l-90.453 -177.493
q12.8 -5.12 15.787 -8.533t6.4 -6.827t179.2 80.213v-0.001zM662.187 -184.32q86.187 0 -461.653 0q-86.187 0 -145.067 59.307t-58.88 144.64v461.653q0 85.333 58.88 144.64q58.88 59.307 145.067 59.307h301.227v-67.413h-301.227q-57.173 0 -97.707 -38.827
t-40.533 -97.707v-461.653q0 -58.88 40.533 -98.133q40.533 -39.253 97.707 -39.253h461.653q58.027 0 97.707 39.253t39.68 98.133v269.653h68.267v-269.653q0 -85.333 -59.733 -144.64t-145.92 -59.307z" />
    <glyph glyph-name="uniE066" unicode="&#xe066;" 
d="M310.613 750.933q-140.8 0 308.053 0q-139.947 -124.587 -184.32 -170.667h-166.4q-34.987 0 -60.16 -25.173t-25.173 -60.16v-426.667q0 -34.987 25.173 -60.16t60.16 -25.173h426.667q34.987 0 60.16 25.173q25.173 25.173 25.173 60.16l170.667 130.56v-87.893
q0 -140.8 -78.933 -219.733t-219.733 -78.933h-341.333q-140.8 0 -219.733 78.933t-78.933 219.733v341.333q0 140.8 78.933 219.733q78.933 78.933 219.733 78.933zM715.093 727.893q-6.827 5.973 289.28 -256.853q6.827 -5.973 6.827 -14.933t-6.827 -14.933
l-290.133 -261.12q-5.973 -5.12 -10.667 -3.413t-5.547 9.387v173.227q-22.187 0.853 -46.507 0t-66.987 -6.4t-78.507 -14.933t-73.387 -29.867t-59.733 -48.64q8.533 50.347 28.16 92.16t43.947 69.547t55.467 49.92q31.147 22.186 58.453 34.56
q27.306 12.374 57.173 20.907t47.787 11.52t34.133 3.84v179.2q0.853 8.533 5.547 10.667t11.52 -3.84z" />
    <glyph glyph-name="uniE067" unicode="&#xe067;" 
d="M466.773 230.613l283.307 393.387l44.373 64l43.5205 64.8535q24.7461 34.1328 63.1465 34.1328q28.1602 0 54.6133 -22.1865q55.4668 -54.6133 22.1865 -103.253l-69.9736 -98.1338l-52.0527 -69.9736l-389.12 -541.866l-297.813 394.24
q-21.333 26.4531 -17.9199 64.8535q3.41309 38.3994 27.3066 62.7197q23.8936 24.3193 52.9062 24.3193q31.5742 0 56.3203 -29.8662zM448 -177.28h5.97363l-2.56055 -3.41309zM679.253 -168.747h-461.653q-85.333 0 -145.066 60.1602t-59.7334 144.64v461.653
q0 86.1875 59.7334 144.641t145.066 58.4531h300.374v-67.4131h-300.374q-57.1729 0 -97.2793 -39.2539q-40.1074 -39.2529 -40.1074 -96.4268v-461.653q0 -58.8799 40.1074 -97.7061q40.1064 -38.8271 97.2793 -38.8271h461.653q58.8809 0 98.1338 38.8271
q39.2529 38.8262 39.2529 97.7061v268.801h68.2666v-268.801q0 -84.4795 -60.5859 -144.64q-60.5869 -60.1602 -145.067 -60.1602z" />
    <glyph glyph-name="uniE068" unicode="&#xe068;" 
d="M1036.8 455.48l-168.106 -153.601q-10.2402 -10.2402 -25.5996 -10.2402q-9.38672 0 -26.4541 12.8008q-24.7461 32.4258 2.56055 51.1992l64 60.5869h-331.094v-331.093l59.7334 64q18.7734 26.4531 50.3467 2.55957q24.7471 -24.7471 3.41309 -52.9062l-153.6 -168.107
l-151.894 168.107q-10.2402 9.38574 -10.2402 25.5996q0 8.5332 12.8008 27.3066q30.7197 23.8936 52.9062 -2.55957l57.1738 -64v331.093h-331.094l64 -60.5869q28.1602 -18.7734 1.70703 -51.1992q-17.9199 -12.8008 -26.4541 -12.8008q-14.5059 0 -23.8926 10.2402
l-169.813 153.601l169.813 154.453q26.4531 19.626 50.3467 -4.2666q26.4531 -31.5732 -1.70703 -53.7607l-64 -57.1729h331.094v331.094l-57.1738 -64q-22.1865 -26.4541 -52.9062 -2.56055q-12.8008 18.7734 -12.8008 27.3066q0 15.3604 10.2402 25.5996l151.894 168.107
l153.6 -168.107q21.334 -28.1592 -3.41309 -52.9062q-31.5732 -23.8936 -50.3467 2.56055l-59.7334 64v-331.094h331.094l-64 57.1729q-27.3066 22.1875 -2.56055 53.7607q23.04 23.8926 52.0537 4.2666z" />
    <glyph glyph-name="uniE069" unicode="&#xe069;" 
d="M792.747 96.427q53.76 -43.52 6.827 -89.6q-56.32 -52.053 -106.667 -2.56l-349.013 265.387l349.013 266.24q17.067 17.067 51.2 17.067t55.467 -20.48q46.933 -46.08 -6.827 -89.6l-223.573 -173.227q74.524 -57.742 223.573 -173.227zM226.133 618.667
q18.773 0 34.133 -15.36t15.36 -32.427v-602.453q0 -19.627 -15.36 -33.707t-34.133 -14.08q-49.493 0 -49.493 47.787v602.453q0 47.787 49.493 47.787z" />
    <glyph glyph-name="uniE070" unicode="&#xe070;" 
d="M585.387 96.427q53.76 -43.52 6.827 -89.6q-56.32 -52.053 -106.667 -2.56l-349.013 265.387l349.013 266.24q17.067 17.067 51.2 17.067t55.467 -20.48q46.933 -46.08 -6.827 -89.6l-223.573 -173.227q74.524 -57.742 223.573 -173.227zM999.253 96.427
q56.32 -43.52 1.707 -89.6q-50.347 -52.053 -105.813 -2.56l-347.307 265.387l347.307 266.24q20.48 17.067 54.187 17.067t51.627 -20.48q54.613 -46.08 -1.707 -89.6l-223.573 -173.227q74.524 -57.742 223.573 -173.227zM18.773 618.667q18.773 0 34.133 -15.36
q15.36 -15.36 15.36 -32.427v-602.453q0 -19.627 -15.36 -33.707t-34.133 -14.08q-49.493 0 -49.493 47.787v602.453q0 47.787 49.493 47.787z" />
    <glyph glyph-name="uniE071" unicode="&#xe071;" 
d="M500.053 96.427q53.76 -43.52 6.827 -89.6q-56.32 -52.053 -106.667 -2.56l-349.013 265.387l349.013 266.24q17.067 17.067 51.2 17.067t55.467 -20.48q46.933 -46.08 -6.827 -89.6l-223.573 -173.227q74.524 -57.742 223.573 -173.227zM913.92 96.427
q56.32 -43.52 1.707 -89.6q-50.347 -52.053 -105.813 -2.56l-347.307 265.387l347.307 266.24q20.48 17.067 54.187 17.067t51.627 -20.48q54.613 -46.08 -1.707 -89.6l-223.573 -173.227q74.524 -57.742 223.573 -173.227z" />
    <glyph glyph-name="uniE072" unicode="&#xe072;" 
d="M174.933 662.187l674.133 -388.267l-674.133 -386.56v774.827z" />
    <glyph glyph-name="uniE073" unicode="&#xe073;" 
d="M146.773 651.947h279.04v-738.133h-279.04zM598.187 651.947h279.04v-738.133h-279.04z" />
    <glyph glyph-name="uniE074" unicode="&#xe074;" 
d="M228.693 551.253h565.76v-565.76h-565.76z" />
    <glyph glyph-name="uniE075" unicode="&#xe075;" 
d="M524.8 444.587q-53.76 43.52 -6.827 89.6q56.32 52.053 106.667 2.56l349.013 -265.387l-349.013 -266.24q-17.067 -17.067 -51.2 -17.067t-55.467 20.48q-46.933 46.08 6.827 89.6l223.573 173.227q-74.524 57.742 -223.573 173.227zM110.933 444.587
q-56.32 43.52 -1.707 89.6q50.347 52.053 105.813 2.56l347.307 -265.387l-347.307 -266.24q-20.48 -17.067 -54.187 -17.067t-51.627 20.48q-54.613 46.08 1.707 89.6l223.573 173.227q-74.524 57.742 -223.573 173.227h0.001z" />
    <glyph glyph-name="uniE076" unicode="&#xe076;" 
d="M439.467 444.587q-53.76 43.52 -6.827 89.6q56.32 52.053 106.667 2.56l349.013 -265.387l-349.013 -266.24q-17.067 -17.067 -51.2 -17.067t-55.467 20.48q-46.933 46.08 6.827 89.6l223.573 173.227q-74.524 57.742 -223.573 173.227zM25.6 444.587
q-56.32 43.52 -1.707 89.6q50.347 52.053 105.813 2.56l347.307 -265.387l-347.307 -266.24q-20.48 -17.067 -54.187 -17.067t-51.627 20.48q-54.613 46.08 1.707 89.6l223.573 173.227q-74.524 57.742 -223.573 173.227h0.001zM1006.08 -77.653q-18.773 0 -34.133 15.36
t-15.36 32.427v602.453q0 19.627 15.36 33.707t34.133 14.08q49.493 0 49.493 -47.787v-602.453q0 -47.787 -49.493 -47.787z" />
    <glyph glyph-name="uniE077" unicode="&#xe077;" 
d="M230.4 444.587q-53.76 43.52 -6.827 89.6q56.32 52.053 106.667 2.56l349.013 -265.387l-349.013 -266.24q-17.067 -17.067 -51.2 -17.067t-55.467 20.48q-46.933 46.08 6.827 89.6l223.573 173.227q-74.524 57.742 -223.573 173.227zM797.013 -77.653
q-18.773 0 -34.133 15.36t-15.36 32.427v602.453q0 19.627 15.36 33.707t34.133 14.08q49.493 0 49.493 -47.787v-602.453q0 -47.787 -49.493 -47.787z" />
    <glyph glyph-name="uniE078" unicode="&#xe078;" 
d="M542.72 734.72q-12.8 12.8 427.52 -460.8q12.8 -12.8 8.96 -22.187t-22.613 -9.387h-889.173q-18.773 0 -22.613 9.387t8.96 22.187l427.52 460.8q12.8 12.8 30.72 12.8q17.92 0 30.72 -12.8h-0.001zM85.333 153.6q-17.92 0 853.333 0q17.92 0 30.293 -12.373
t12.373 -30.293v-85.333q0 -17.92 -12.373 -30.293t-30.293 -12.373h-853.333q-17.92 0 -30.293 12.373t-12.373 30.293v85.333q0 17.92 12.373 30.293t30.293 12.373z" />
    <glyph glyph-name="uniE079" unicode="&#xe079;" 
d="M831.147 580.267l-300.373 -301.227l300.373 -301.227l-168.107 -168.96l-471.04 471.04l471.04 469.333l168.107 -168.96z" />
    <glyph glyph-name="uniE080" unicode="&#xe080;" 
d="M831.147 279.04l-470.187 -470.187l-168.96 168.96l301.227 301.227l-301.227 301.227l168.96 168.96z" />
    <glyph glyph-name="uniE081" unicode="&#xe081;" 
d="M861.867 645.973q143.36 -145.067 143.36 -349.867t-144.64 -348.587t-350.293 -143.787t-348.587 143.787t-142.933 348.587t142.933 349.013q142.932 144.213 348.587 144.213t351.573 -143.36v0.001zM812.373 238.08q24.747 0 41.387 16.64q16.64 16.64 16.64 41.387
t-16.64 42.24t-41.387 17.493h-240.64v242.347q0 24.747 -18.347 41.387t-42.24 16.64t-41.387 -16.64t-17.493 -41.387v-242.347h-244.053q-22.187 0 -39.253 -17.493t-17.067 -42.24t17.067 -41.387t39.253 -16.64h244.053v-243.2q0 -24.747 17.493 -41.387t41.387 -16.64
t42.24 16.64t18.347 41.387v243.2z" />
    <glyph glyph-name="uniE082" unicode="&#xe082;" 
d="M859.307 641.707q142.507 -143.36 142.507 -346.88t-143.787 -346.453t-348.16 -142.933t-346.453 142.933t-142.08 346.453t142.08 346.453t346.453 142.933q204.373 0 349.44 -142.507v0.001zM810.667 236.373q24.747 0 40.96 16.64t16.213 41.387t-16.213 42.24
t-40.96 17.493h-600.747q-21.333 0 -38.827 -17.493t-17.493 -42.24t17.493 -41.387t38.827 -16.64h600.747z" />
    <glyph glyph-name="uniE083" unicode="&#xe083;" 
d="M857.6 634.106q141.653 -144.213 141.653 -346.453t-143.359 -343.894q-143.36 -141.653 -346.027 -141.653q-202.666 0 -344.319 141.653t-141.653 343.894t141.653 345.174q141.653 142.933 344.319 142.933q202.667 0 347.733 -141.653zM598.187 288.507
l177.493 158.72q40.1074 38.4004 3.41406 82.7734q-20.4805 19.627 -43.9473 19.627t-41.3867 -11.9473l-182.613 -171.52l-183.467 167.253q-40.96 39.2539 -84.4795 -3.41309q-34.9873 -44.373 2.55957 -82.7734l177.493 -158.72l-177.493 -159.573
q-37.5469 -36.6934 -2.55957 -81.9199q20.4795 -19.627 43.9463 -19.627t40.5332 12.7998l183.467 169.813l182.613 -166.399q40.96 -40.1074 85.334 3.41309q36.6934 45.2266 -3.41406 81.9199z" />
    <glyph glyph-name="uniE084" unicode="&#xe084;" 
d="M162.133 -53.76q-143.36 144.213 -143.36 348.587q0 204.374 143.36 348.16q143.36 143.786 348.587 143.787t349.44 -143.787t144.213 -348.16t-144.213 -348.587t-349.44 -144.213t-348.587 144.213zM209.067 349.013q-22.187 -21.333 -20.053 -53.76t20.053 -51.2
l271.36 -261.973l311.467 459.947q41.813 64.853 -17.067 107.52q-63.147 40.96 -104.96 -17.92l-216.747 -312.32l-136.533 133.973q-57.173 50.347 -107.52 -4.267z" />
    <glyph glyph-name="uniE085" unicode="&#xe085;" 
d="M857.6 638.293q144.213 -144.213 144.213 -345.6t-144.64 -345.6t-345.6 -144.213t-345.6 144.213t-144.64 345.6t144.64 346.027q144.64 144.64 345.6 144.64t346.027 -145.067zM283.307 458.24q0 -22.187 17.92 -38.4q17.067 -18.773 43.52 -18.773
q45.227 0 60.587 48.64q16.213 54.613 41.813 79.36q23.04 24.747 75.947 24.747q44.373 0 70.827 -24.747q27.307 -24.747 27.307 -62.293q0 -22.187 -6.827 -37.547q-7.68 -18.773 -24.747 -28.16q-22.187 -21.333 -43.52 -40.96t-51.2 -50.347
q-23.04 -27.307 -33.28 -49.493q-11.947 -34.987 -11.947 -70.827q0 -33.28 13.653 -46.933q19.627 -16.213 42.667 -16.213q45.227 0 58.027 49.493q3.413 25.6 6.827 32.427q0 3.413 5.973 17.067q2.56 6.827 16.213 19.627q5.12 9.387 23.893 26.453
q58.027 55.467 79.36 73.387q26.453 27.307 40.107 52.053q15.36 31.573 15.36 69.973q0 48.64 -29.013 92.16q-26.453 40.96 -79.36 69.973q-53.76 25.6 -120.32 25.6q-69.12 0 -128.853 -29.867q-55.467 -31.573 -81.92 -77.653q-29.013 -41.813 -29.013 -88.747z
M512.853 -56.32q29.013 0 47.787 19.627q20.48 21.333 20.48 49.92t-20.907 50.347t-47.36 21.76q-29.867 0 -51.2 -21.333q-20.48 -18.773 -20.48 -50.347q0 -29.013 20.48 -50.347q18.773 -19.627 51.2 -19.627z" />
    <glyph glyph-name="uniE086" unicode="&#xe086;" 
d="M512.853 786.773q201.387 0 343.893 -144.64t142.507 -346.027t-142.507 -345.6t-343.893 -144.213q-202.24 0 -345.173 144.213t-142.933 345.6q0 201.387 142.933 346.027t345.173 144.64zM584.533 634.88q-39.253 0 -63.147 -26.88t-23.893 -53.333
q-5.973 -64.853 65.707 -64.853q35.84 0 61.013 23.467q25.173 23.467 25.173 56.747q0 64.853 -64.853 64.853v-0.001zM445.44 -26.453q96.427 0 210.773 115.2l-20.48 26.453q-53.76 -39.253 -79.36 -39.253q-14.507 0 -2.56 41.813l45.227 178.347
q27.307 108.373 -23.04 108.373q-34.133 0 -100.693 -33.28t-124.587 -82.773l16.213 -28.16q63.147 35.84 84.48 35.84q8.533 0 0 -35.84l-42.667 -171.52q-26.453 -115.2 36.693 -115.2z" />
    <glyph glyph-name="uniE087" unicode="&#xe087;" 
d="M1057.28 378.88v-370.347h-489.813v370.347h358.4v43.52h67.413v-43.52h64zM812.373 82.773q23.04 0 43.093 8.96t34.987 23.893t23.893 34.987t8.96 43.093t-8.96 43.52q-8.961 20.481 -23.893 35.84t-34.987 24.32t-43.093 8.96t-43.52 -8.96t-35.84 -24.32
t-23.893 -35.84t-8.533 -43.52t8.533 -43.093t23.893 -34.987t35.84 -23.893t43.52 -8.96zM780.8 611.84v-185.173h-72.533v112.64h-669.867v-430.08h478.72v-74.24h-92.16v-6.827l38.4 -69.12q0 -17.92 -7.253 -26.027t-19.2 -9.813t-28.16 -0.427t-34.987 1.28
t-34.987 -1.28t-28.587 0.427t-19.2 9.813t-6.827 26.027l37.547 69.12v6.827h-356.693v576.853h815.787z" />
    <glyph glyph-name="uniE088" unicode="&#xe088;" 
d="M230.4 576q-117.76 -118.613 -117.76 -283.307t118.613 -282.027q118.613 -117.333 282.453 -117.333t281.173 117.333t117.333 282.027t-117.333 282.453t-281.173 117.76t-283.307 -116.907zM858.453 639.147q147.627 -144.213 147.627 -346.453t-145.493 -348.16
t-348.587 -145.92t-349.013 145.92t-145.92 348.16t145.92 348.587q145.921 146.347 349.013 146.347q203.092 1.13687e-13 346.453 -148.48v-0.001zM761.173 150.187q36.693 -34.133 3.413 -75.947q-40.96 -40.96 -78.507 -2.56l-170.667 154.453l-169.813 -158.72
q-16.213 -10.24 -38.4 -10.24t-40.107 17.067q-34.133 41.813 1.707 75.947l164.693 148.48l-164.693 147.627q-35.84 34.987 -1.707 75.947q40.107 40.96 78.507 3.413l169.813 -154.453l170.667 158.72q15.36 11.093 37.12 11.093t41.387 -18.773
q33.28 -40.96 -3.413 -75.947l-163.84 -147.627q54.613 -49.493 163.84 -148.48z" />
    <glyph glyph-name="uniE089" unicode="&#xe089;" 
d="M224.427 344.747q46.08 52.053 101.547 3.413l130.56 -128l206.507 298.667q40.107 57.173 101.547 17.067q55.467 -40.96 16.213 -101.547l-296.96 -440.32l-259.413 250.027q-19.627 17.92 -21.333 48.64t21.333 52.053zM230.4 576q-117.76 -118.613 -117.76 -283.307
t118.613 -282.027q118.613 -117.333 282.453 -117.333t281.173 117.333t117.333 282.027t-117.333 282.453t-281.173 117.76t-283.307 -116.907zM858.453 639.147q147.627 -144.213 147.627 -346.453t-145.493 -348.16t-348.587 -145.92t-349.013 145.92t-145.92 348.16
t145.92 348.587q145.921 146.347 349.013 146.347q203.092 1.13687e-13 346.453 -148.48v-0.001z" />
    <glyph glyph-name="uniE090" unicode="&#xe090;" 
d="M322.56 875.32q189.44 78.5068 379.733 0q183.467 -75.9473 261.974 -261.974q79.3604 -189.44 0 -379.733q-78.5068 -186.026 -261.974 -261.974q-190.293 -78.5059 -379.733 0q-186.026 75.9473 -261.119 261.974q-80.2139 190.293 0 379.733
q75.0928 186.026 261.119 261.974zM512 801.934q-152.747 1.70605 -265.813 -111.787t-111.359 -266.24q0 -93.8662 70.8262 -209.066l517.12 518.827q-116.054 68.2666 -210.773 68.2666zM826.88 626.146l-516.267 -514.56q110.08 -66.5605 201.387 -66.5605
q154.453 -1.70605 267.52 111.787q113.067 113.493 110.507 267.093q0 87.8936 -63.1465 202.24z" />
    <glyph glyph-name="uniE091" unicode="&#xe091;" 
d="M634.027 -136.533q-67.413 -78.507 -138.24 -4.267l-456.533 410.453l456.533 410.453q26.453 27.307 68.267 27.307q49.493 0 69.973 -30.72q75.093 -73.387 -4.267 -139.093l-165.547 -149.333h520.533v-236.373h-520.533l165.547 -151.893
q79.36 -66.56 4.267 -136.533v-0.001z" />
    <glyph glyph-name="uniE092" unicode="&#xe092;" 
d="M385.707 679.253q70.827 78.507 139.947 5.12l459.093 -411.307l-459.093 -410.453q-25.6 -27.307 -65.707 -27.307q-52.907 0 -74.24 30.72q-70.827 73.387 5.973 139.093l164.693 149.333h-517.12v236.373h517.12l-164.693 151.893q-76.8 65.707 -5.973 136.533z" />
    <glyph glyph-name="uniE093" unicode="&#xe093;" 
d="M102.4 176.64q-77.653 67.413 -4.267 139.093l410.453 459.093l413.867 -459.093q24.747 -27.307 24.747 -68.267q0 -52.053 -29.867 -70.827q-74.24 -72.533 -139.947 4.267l-149.333 167.253v-523.947h-234.667v523.947l-149.333 -167.253
q-65.707 -76.8 -141.653 -4.267z" />
    <glyph glyph-name="uniE094" unicode="&#xe094;" 
d="M912.213 401.067q76.8 -69.12 3.413 -139.093l-409.6 -459.093l-413.013 459.093q-24.747 26.453 -24.747 68.267q0 51.2 29.013 70.827q74.24 71.68 139.947 -5.12l149.333 -167.253v523.093h235.52v-523.093l148.48 167.253q66.56 76.8 141.653 5.12z" />
    <glyph glyph-name="uniE095" unicode="&#xe095;" 
d="M554.667 758.613q-13.653 11.093 445.44 -364.373q13.653 -11.093 13.653 -27.307t-13.653 -27.307l-445.44 -364.373q-13.653 -11.093 -23.467 -6.827t-9.813 22.187v248.32q-80.213 -1.707 -155.307 -17.067t-145.493 -44.373t-125.44 -78.933t-85.76 -115.627
q4.267 89.6 23.04 165.12q18.773 75.52 57.6 142.507q38.827 66.987 96.427 115.2t142.507 78.08t192.427 35.84v223.573q0 17.92 9.813 22.187t23.467 -6.827h-0.001z" />
    <glyph glyph-name="uniE096" unicode="&#xe096;" 
d="M403.627 298.667l97.28 -96.427l-160.427 -160.427l-85.333 -84.48l-48.64 -33.28l59.733 23.04l159.573 12.8l-38.4 -128l-365.227 -10.24l11.093 363.52l128.853 39.253l-13.653 -159.573l-23.04 -58.88l33.28 47.787l244.907 244.907zM1000.96 799.573
l-10.24 -364.373l-128 -38.4l12.8 159.573l22.187 58.88l-33.28 -47.787l-83.627 -85.333l-160.427 -160.427l-96.427 96.427l160.427 161.28l83.627 84.48l48.64 32.427l-58.88 -23.04l-159.573 -12.8l38.4 128.853z" />
    <glyph glyph-name="uniE097" unicode="&#xe097;" 
d="M944.64 803.84l91.307 -91.307l-151.04 -151.893l-80.213 -80.213l-45.227 -31.573l55.467 22.187l151.04 12.8l-37.547 -122.027l-343.893 -10.24l10.24 345.6l120.32 35.84l-11.093 -151.04l-22.187 -55.467l31.573 45.227l80.213 80.213zM438.613 205.653
l-10.24 -344.747l-122.027 -36.693l11.947 151.04l22.187 55.467l-30.72 -46.08l-80.213 -80.213l-152.747 -151.04l-91.307 92.16l151.893 151.04l80.213 80.213l46.08 30.72l-56.32 -20.48l-151.04 -12.8l36.693 122.027l345.6 9.387z" />
    <glyph glyph-name="uniE101" unicode="&#xe101;" 
d="M857.6 638.293q144.213 -144.213 144.213 -345.6t-144.64 -345.6t-345.6 -144.213t-345.6 144.213t-144.64 345.6t144.64 346.027q144.64 144.64 345.6 144.64t346.027 -145.067zM446.293 160.427q0 -42.667 40.96 -42.667h51.2q37.547 0 37.547 42.667v467.627
q0 41.813 -37.547 41.813h-51.2q-40.96 0 -40.96 -41.813v-467.627zM564.053 -64q20.48 21.333 20.48 54.613t-20.48 53.76q-21.333 23.04 -52.48 23.04t-53.333 -23.04q-19.627 -20.48 -19.627 -53.76t21.333 -54.613q20.48 -20.48 51.627 -20.48t52.48 20.48z" />
    <glyph glyph-name="uniE102" unicode="&#xe102;" 
d="M221.867 836.267q7.68 0 16.213 -1.707t12.8 -3.413l4.267 -1.707q18.773 -8.533 37.547 -19.627l167.253 -100.693q17.92 -11.093 30.72 -20.48q24.747 -17.92 31.573 -10.24q9.387 11.093 41.813 29.867l167.253 100.693q18.773 11.093 38.4 19.627
q14.507 5.973 32.427 5.973q19.627 0 40.107 -14.08t31.573 -28.587l11.093 -13.653q11.947 -17.92 15.36 -38.4l21.333 -104.96l6.827 -37.547q0.853 -7.68 7.253 -12.373t14.933 -4.693h52.053q8.533 0 14.933 -6.4t6.4 -14.933v-42.667q0 -8.533 -6.4 -14.933
t-14.933 -6.4h-42.667q-8.533 0 -14.933 -6.4t-6.4 -14.933v-149.333h-341.333v256h-170.667v-256h-341.333v149.333q0 8.533 -6.4 14.933t-14.933 6.4h-42.667q-8.533 0 -14.933 6.4t-6.4 14.933v42.667q0 8.533 6.4 14.933t14.933 6.4h52.053q9.387 0 15.36 2.56
t5.973 6.827q0 3.413 7.68 44.373l21.333 109.227q4.267 21.333 16.213 38.4q1.707 2.56 4.267 5.973t11.52 12.8t18.347 16.64t22.613 13.227t25.173 5.973zM780.8 733.013q5.973 6.827 -141.653 -138.24q-5.973 -5.973 -4.267 -10.24t10.24 -4.267h186.88
q8.533 0 12.8 5.973t1.707 14.507l-43.52 127.147q-2.56 8.533 -9.387 10.24t-12.8 -5.12zM395.093 594.773q5.973 -5.973 -151.04 133.973q-6.827 5.973 -13.653 4.267t-9.387 -10.24l-43.52 -122.027q-2.56 -8.533 1.707 -14.507t12.8 -5.973h197.12q9.387 0 10.667 4.267
t-4.693 10.24zM426.667 -187.733h-320q-8.533 0 -14.933 6.4t-6.4 14.933v320h341.333zM938.667 153.6v-320q0 -8.533 -6.4 -14.933t-14.933 -6.4h-320v341.333z" />
    <glyph glyph-name="uniE103" unicode="&#xe103;" 
d="M713.387 686.933q20.48 4.267 45.227 12.373t51.2 17.92t53.333 21.333t51.627 22.613q58.88 26.453 120.32 56.32q-8.533 -64 -20.48 -119.893t-28.16 -118.187q-24.747 -90.453 -59.733 -174.933t-86.187 -162.987q-36.693 -58.88 -82.347 -107.947t-104.533 -87.467
q-46.933 -32.427 -98.987 -51.627t-109.227 -26.88q-78.507 -11.093 -155.307 -1.28t-151.893 32.853q-1.707 0 -5.12 1.707h-2.56q-22.187 -40.96 -30.293 -85.333q-8.106 -44.373 -8.96 -90.453h-88.747q0 50.347 8.107 98.987t30.293 94.72q4.267 10.24 6.827 15.36
q3.413 1.707 4.267 3.413q0 0.853 4.693 8.533t15.787 20.907q11.094 13.227 30.293 30.72t47.36 37.973q36.693 22.187 84.48 44.8t99.84 43.52t106.24 40.533t105.387 36.693q119.467 40.107 246.613 75.947q-108.373 5.12 -230.4 -15.36q-52.053 -8.533 -112.64 -23.893
t-126.72 -39.253t-136.96 -58.027t-142.507 -80.213q0 40.96 8.96 88.747t34.56 93.013q29.867 58.88 74.24 104.533q44.373 45.653 100.693 81.493q48.64 31.573 100.267 53.76t107.947 39.253q60.587 17.067 120.747 34.56t122.453 31.147z" />
    <glyph glyph-name="uniE104" unicode="&#xe104;" 
d="M543.573 862.72q-33.28 -57.173 -46.507 -111.787t-8.96 -97.707t20.907 -82.347t40.533 -68.267t54.187 -53.333t58.453 -39.68t55.467 -25.6q-3.413 5.973 -14.933 29.867t-15.787 33.707t-14.507 33.707t-14.507 36.693t-11.093 35.84t-8.107 37.973t-1.707 35.84
t3.413 36.693t11.52 33.28t19.627 32.853q81.92 -35.84 140.8 -91.733t89.6 -117.76t44.373 -133.12t11.093 -135.68t-16.213 -127.573q-11.093 -46.933 -37.547 -90.88t-58.027 -74.24t-66.987 -55.04t-61.867 -38.4t-45.227 -18.773q-61.44 -18.773 -108.373 -9.387
q-26.453 5.12 -11.093 16.213q5.12 2.56 14.507 5.973q11.093 4.267 27.733 17.92t34.987 37.547t32.853 54.187t18.347 69.547t-5.547 80.64t-42.667 91.307q-33.279 49.921 -88.747 98.56q8.533 -88.747 -0.427 -161.28t-31.573 -119.893t-55.467 -79.36t-71.68 -44.373
t-79.787 -9.387t-81.067 20.907q-68.267 30.72 -112.213 97.28t-45.653 145.92q-1.707 19.627 0 42.24q1.707 22.613 3.84 44.8t11.52 47.787t23.467 51.2t39.253 55.04t59.307 58.453q-6.827 -45.227 -4.267 -87.467t14.933 -76.8t29.013 -58.453t37.973 -33.28
t41.813 -1.707q26.453 11.093 32.853 30.72t-3.84 46.933q-10.24 27.306 -24.747 55.04t-30.72 64t-22.187 64.427q-12.8 72.533 1.707 137.813t45.653 109.653t72.96 78.933t79.787 52.053t69.547 21.76z" />
    <glyph glyph-name="uniE105" unicode="&#xe105;" 
d="M512.853 694.613q92.16 0 185.6 -40.107t158.293 -90.027t127.573 -114.347t82.347 -88.747t31.573 -38.827l-75.093 -95.573q-74.24 -88.747 -219.733 -182.187t-290.56 -93.44q-90.453 0 -185.173 39.68t-159.147 89.6q-64.427 49.92 -127.147 114.347t-82.347 88.747
t-32.427 38.827l75.947 95.573q74.24 88.747 219.307 182.613q145.067 93.866 290.987 93.867zM675.84 159.573q67.413 67.413 67.413 162.987t-67.413 163.413t-162.56 67.84t-163.413 -67.84t-68.267 -163.413t68.267 -162.987t163.413 -67.413t162.56 67.413zM576 322.56
q63.147 0 77.653 58.027q11.947 -23.04 11.947 -58.027q0 -63.147 -44.8 -107.947t-107.947 -44.8t-108.373 44.8t-45.227 107.947t45.227 108.373t108.373 45.227h23.893q-38.4 -29.013 -38.4 -72.533q0 -34.133 23.04 -57.6t54.613 -23.467z" />
    <glyph glyph-name="uniE106" unicode="&#xe106;" 
d="M398.507 126.293l-116.907 -118.613l-215.893 -215.893l-80.213 79.36l196.267 197.973l778.24 777.387l81.067 -77.653l-331.093 -331.947l-311.467 -310.613zM877.227 549.547q131.413 -106.667 221.013 -227.84l-75.093 -95.573q-74.24 -88.747 -219.733 -182.187
t-290.56 -93.44q-90.453 0 -196.267 40.96l118.613 118.613q40.96 -17.92 77.653 -17.92q95.573 0 162.987 66.987q67.414 66.987 67.413 162.56q0 37.547 133.973 227.84h0.001zM151.04 92.16q-133.973 105.813 -224.427 229.547l75.947 95.573
q74.24 91.307 219.307 183.893q145.067 92.586 290.987 92.587q95.573 0 200.533 -44.373l-119.467 -114.347q-39.253 17.92 -81.067 17.92q-94.72 0 -162.987 -67.84t-68.267 -163.413q0 -38.4 -130.56 -229.547zM665.6 336.213v-17.92q0 -63.147 -44.8 -107.52
t-107.947 -44.373h-15.36q56.036 56.604 168.107 169.813zM359.253 298.667q171.52 173.227 0 19.627q0 64.853 45.227 110.933t108.373 46.08q3.413 0 10.667 -1.707t-164.267 -174.933z" />
    <glyph glyph-name="uniE107" unicode="&#xe107;" 
d="M1038.51 -199.68q16.213 0 -1052.16 0q-15.36 0 -28.587 6.827t-20.053 18.773t-6.827 27.307t8.533 29.013l525.653 912.213q9.387 12.8 21.333 20.907t26.453 8.107q14.507 -1.13687e-13 26.453 -8.107t19.627 -20.907l527.36 -912.213q6.827 -13.653 7.68 -29.013
t-5.973 -27.307t-20.053 -18.773t-29.44 -6.827zM28.16 -121.173h969.387l-484.693 838.827l-484.693 -838.827h-0.001zM461.653 507.733q0 32.427 31.573 32.427h39.253q29.867 0 29.867 -32.427v-364.373q0 -32.427 -29.867 -32.427h-39.253q-31.573 0 -31.573 32.427z
M552.96 -30.72q-7.68 -7.68 -18.347 -11.947t-21.76 -4.267t-22.187 4.267t-18.773 11.947q-16.213 16.213 -16.213 41.813q0 25.6 15.36 42.667q8.533 9.387 19.627 14.08t22.187 4.693q11.093 0 21.76 -4.693t18.347 -14.08q16.213 -16.213 16.213 -42.667
q0 -25.6 -16.213 -41.813h-0.001z" />
    <glyph glyph-name="uniE108" unicode="&#xe108;" 
d="M640 708.267q0 52.907 0 -289.28l309.76 -277.333q12.8 -11.947 22.187 -32.853t9.387 -37.973v-34.987q0 -17.067 -10.24 -22.613t-24.747 4.693l-306.347 212.48v-224.427q85.333 -79.36 85.333 -96.427v-54.613q0 -17.92 -11.093 -24.747t-27.307 0.853
l-174.933 109.227l-174.933 -109.227q-16.213 -7.68 -27.307 -0.853t-11.093 24.747v54.613q0 17.067 85.333 96.427v224.427l-306.347 -212.48q-14.507 -10.24 -24.747 -4.693q-10.24 5.547 -10.24 22.613v34.987q0 17.067 9.387 37.973t22.187 32.853l309.76 277.333
v289.28q0 52.907 37.547 90.453t90.453 37.547t90.453 -37.547t37.547 -90.453z" />
    <glyph glyph-name="uniE109" unicode="&#xe109;" 
d="M430.933 359.253h161.28v-160.427h-161.28v160.427zM650.24 359.253h157.013v-160.427h-157.013v160.427zM430.933 141.653h161.28v-162.133h-161.28v162.133zM215.04 141.653h158.72v-162.133h-158.72v162.133zM650.24 141.653h157.013v-162.133h-157.013v162.133z
M911.36 680.107q19.627 0 35.84 -15.787t16.213 -35.413v-758.613q0 -22.187 -16.213 -38.827t-35.84 -16.64h-799.573q-21.333 0 -36.267 16.64t-14.933 38.827v758.613q0 19.627 14.933 35.413q14.933 15.786 36.267 15.787h81.067v133.12h145.067v-133.12h343.893v133.12
h149.333v-133.12h80.213zM889.173 454.827h-740.693v-563.2h740.693v563.2z" />
    <glyph glyph-name="uniE110" unicode="&#xe110;" 
d="M856.747 220.16q16.213 0 26.453 -15.36l197.973 -173.227l-197.973 -175.787q-26.453 -28.16 -55.467 1.707q-27.307 29.013 0 63.147l69.12 62.293h-190.293l-164.693 156.16l64.853 72.533l139.093 -131.413h155.307l-73.387 66.56q-27.307 26.453 0 58.027
q14.507 15.36 29.013 15.36zM745.813 448.853l-490.667 -465.92h-311.467v97.28h272.213l490.667 465.92h190.293l-69.12 64q-27.307 33.28 0 61.44q11.093 13.653 28.16 13.653t27.307 -9.387l197.973 -177.493l-197.973 -172.373q-26.453 -35.84 -55.467 0
q-27.307 30.72 0 58.88l73.387 64h-155.307zM215.893 448.853h-272.213v97.28h311.467l162.133 -154.453l-68.267 -70.827z" />
    <glyph glyph-name="uniE111" unicode="&#xe111;" 
d="M75.093 698.88q-36.693 0 875.52 0q37.547 0 63.147 -26.027q25.6 -26.027 25.6 -57.6v-423.253q0 -35.84 -25.6 -61.867t-63.147 -26.027h-556.373l-231.253 -261.973v261.973h-87.893q-36.693 0 -63.147 26.027t-26.453 61.867v423.253q0 35.84 26.453 59.733
q26.453 23.893 63.147 23.893z" />
    <glyph glyph-name="uniE112" unicode="&#xe112;" 
d="M509.44 -188.587q-182.613 0 -313.173 136.533t-130.56 332.8v7.68l36.693 291.84l158.72 -21.333l-36.693 -282.453q2.56 -128 86.187 -215.04t198.827 -87.04q120.32 0 203.52 87.04q83.2 87.04 86.613 215.04l-40.107 282.453l157.867 21.333l40.96 -299.52
q0 -196.267 -130.133 -332.8t-318.72 -136.533zM903.68 663.893l-156.16 -25.6l-23.893 177.493l155.307 19.627l24.747 -171.52h-0.001zM141.653 835.413l154.453 -19.627l-24.747 -177.493l-156.16 25.6l26.453 171.52z" />
    <glyph glyph-name="uniE113" unicode="&#xe113;" 
d="M981.333 162.987l-168.96 -169.813l-301.227 301.227l-301.227 -301.227l-168.107 169.813l470.187 470.187l469.333 -470.187z" />
    <glyph glyph-name="uniE114" unicode="&#xe114;" 
d="M981.333 485.547l-469.333 -470.187l-470.187 470.187l168.96 169.813l301.227 -301.227l301.227 301.227l168.107 -169.813h-0.001z" />
    <glyph glyph-name="uniE115" unicode="&#xe115;" 
d="M1152.85 296.107q40.107 -43.52 0.853 -88.747l-252.587 -279.893l-257.707 279.893q-15.36 23.893 -15.36 42.24q0 18.347 20.48 46.507q49.493 34.133 88.747 -7.68l98.133 -108.373v342.187h-442.027v128.853h570.027v-471.04l98.987 108.373q38.4 41.813 90.454 7.68
zM188.587 46.08h443.733v-128h-570.88v471.04l-99.84 -108.373q-39.253 -41.813 -88.747 -7.68q-41.813 42.667 -3.413 88.747l253.44 279.893l259.413 -279.893q15.36 -23.893 15.36 -42.24t-20.48 -46.507q-49.493 -34.133 -88.747 7.68l-99.84 108.373v-343.04z" />
    <glyph glyph-name="uniE116" unicode="&#xe116;" 
d="M404.48 178.347h527.36v-85.333h-688.64v85.333l-149.333 458.24h-116.053v85.333h297.813v-85.333h771.413l-145.067 -342.187zM426.667 -48.64q0 -18.773 -7.253 -35.413t-19.627 -29.013t-29.44 -19.627q-17.066 -7.254 -35.84 -7.253t-35.413 7.253t-29.013 19.627
t-19.627 29.013t-7.253 35.413t7.253 35.84t19.627 29.44t29.013 19.627t35.413 7.253t35.84 -7.253t29.44 -19.627t19.627 -29.44t7.253 -35.84zM905.387 -48.64q0 -18.773 -7.253 -35.413t-19.627 -29.013t-29.44 -19.627q-17.066 -7.254 -35.84 -7.253t-35.413 7.253
t-29.013 19.627t-19.627 29.013t-7.253 35.413t7.253 35.84t19.627 29.44t29.013 19.627t35.413 7.253t35.84 -7.253t29.44 -19.627t19.627 -29.44t7.253 -35.84z" />
    <glyph glyph-name="uniE117" unicode="&#xe117;" 
d="M5.973 -23.893v686.933q0 16.213 9.813 27.733t29.44 13.227h274.773q35.84 0 45.227 -28.16q3.413 -6.827 2.987 -13.653t1.28 -13.653q0.853 -13.653 5.973 -23.04q4.267 -10.24 14.507 -14.933t22.187 -4.693q1.707 -3.413 10.24 -3.413h546.133
q13.653 0 23.893 -2.987t17.067 -15.787q2.56 -4.267 4.693 -9.813t2.133 -12.373q0.853 -10.24 0.427 -21.333t-0.427 -22.187v-620.373h-1010.35v78.507z" />
    <glyph glyph-name="uniE118" unicode="&#xe118;" 
d="M1101.65 399.36l-213.333 -500.053l-1.707 -3.413h-904.533l212.48 501.76l0.853 1.707h906.24v-0.001zM167.253 512q-31.573 0 -55.04 -19.627t-27.733 -49.493l-161.28 -386.56v605.867q0 15.36 10.24 26.88t28.16 14.08h274.773q34.987 0 46.08 -29.867
q1.707 -5.973 1.707 -12.8t0.853 -13.653q1.707 -6.827 2.56 -11.947t4.267 -10.24q11.947 -19.627 35.84 -19.627q3.413 -2.56 5.973 -2.987t4.267 -0.427h546.133q13.653 0 23.893 -3.413t17.92 -16.213q2.56 -4.267 4.693 -9.387t2.133 -11.947
q1.707 -11.947 0.853 -22.613t-0.853 -20.907v-5.12h-765.44z" />
    <glyph glyph-name="uniE119" unicode="&#xe119;" 
d="M673.28 114.347l54.613 -100.693l-215.893 -227.84l-214.187 227.84l55.467 100.693l89.6 -104.107l20.48 -48.64l-9.387 48.64v609.28l9.387 49.493l-20.48 -49.493l-89.6 -104.96l-55.467 102.4l214.187 226.133l215.893 -226.133l-54.613 -102.4l-88.747 104.96
l-23.04 49.493l10.24 -49.493v-609.28l-10.24 -48.64l23.04 48.64z" />
    <glyph glyph-name="uniE120" unicode="&#xe120;" 
d="M312.32 133.973l-100.693 -54.613l-227.84 215.893l227.84 214.187l100.693 -55.467l-104.107 -89.6l-48.64 -20.48l48.64 9.387h609.28l49.493 -9.387l-49.493 20.48l-104.96 89.6l102.4 55.467l226.133 -214.187l-226.133 -215.893l-102.4 54.613l104.96 88.747
l49.493 23.04l-49.493 -10.24h-609.28l-48.64 10.24l48.64 -23.04z" />
    <glyph glyph-name="uniE121" unicode="&#xe121;" 
d="M1010.35 52.053v-239.787h-997.547v239.787h997.547zM937.813 -8.533h-122.88v-119.467h122.88v119.467zM1010.35 184.32h-997.547l106.667 494.08h787.627z" />
    <glyph glyph-name="uniE122" unicode="&#xe122;" 
d="M1066.67 708.267q0 17.92 0 -725.333q0 -17.92 -12.373 -30.293t-30.293 -12.373t-30.293 12.373t-12.373 30.293v725.333q0 17.92 12.373 30.293t30.293 12.373q17.92 0 30.293 -12.373t12.373 -30.293zM896 -17.067l-576 170.667h-32.427l40.107 -235.52
q2.56 -13.653 -4.693 -17.067t-25.173 -3.413h-77.653q-17.067 0 -29.44 11.947t-15.787 29.867q-46.933 287.573 -46.933 299.52v218.453q0 13.653 0.853 20.053t5.547 11.947t14.933 5.547h170.667l576 213.333v-725.333zM42.667 452.267q-17.92 -1.707 0 -213.333
q-3.413 0 -9.387 0.427t-20.48 5.12t-25.6 12.8q-11.094 8.107 -20.48 25.6t-9.387 41.387v42.667q0 22.187 8.96 39.253t21.333 25.6t24.747 13.653t30.293 6.827z" />
    <glyph glyph-name="uniE123" unicode="&#xe123;" 
d="M749.227 380.587q0 -5.973 59.733 -145.493t59.733 -254.72h-713.387q0 115.2 59.307 254.72t59.307 145.493q28.16 124.587 34.987 172.373q0 72.533 47.787 125.44t117.76 69.12v55.467q0 34.987 37.12 34.987t37.12 -34.987v-55.467q69.973 -16.213 116.48 -69.12
t84.053 -297.813zM599.04 -79.36v-6.827q0 -41.813 -25.173 -66.987t-62.293 -25.173t-62.293 25.173t-25.173 66.987v6.827h174.933z" />
    <glyph glyph-name="uniE124" unicode="&#xe124;" 
d="M682.667 619.52l191.147 66.56l-66.56 -191.147l199.68 -38.4l-153.6 -132.267l153.6 -132.267l-199.68 -38.4l66.56 -191.147l-191.147 66.56l-38.4 -199.68l-132.267 153.6l-132.267 -153.6l-38.4 199.68l-191.147 -66.56l66.56 191.147l-199.68 38.4l153.6 132.267
l-153.6 132.267l199.68 38.4l-66.56 191.147l191.147 -66.56l38.4 199.68l132.267 -153.6l132.267 153.6z" />
    <glyph glyph-name="uniE125" unicode="&#xe125;" 
d="M29.867 407.893h175.787v-529.067h-175.787zM991.573 366.08v-92.16q0 -23.04 -3.413 -30.72l-130.56 -308.053q-27.307 -56.32 -79.36 -56.32h-395.947q-39.253 0 -65.28 24.747t-26.027 64v440.32q0 42.667 27.307 62.293l290.987 290.987l48.64 -44.373
q18.773 -38.4 18.773 -49.493v-11.947l-43.52 -204.8h275.627q37.547 0 61.44 -24.747t23.893 -59.733h-2.56z" />
    <glyph glyph-name="uniE126" unicode="&#xe126;" 
d="M29.867 639.147h175.787v-529.067h-175.787zM994.133 153.6q0 -37.547 -23.893 -61.013t-61.44 -23.467h-275.627l43.52 -203.947v-15.36q0 -11.093 -18.773 -46.933l-48.64 -44.373l-290.987 290.133q-27.307 27.307 -27.307 61.44v441.173q0 37.547 26.027 62.72
t65.28 25.173h395.947q52.053 0 79.36 -50.347l130.56 -314.88q3.413 -8.533 3.413 -29.867v-90.453h2.56z" />
    <glyph glyph-name="uniE127" unicode="&#xe127;" 
d="M-52.907 455.68h161.28v-487.253h-161.28v487.253zM752.64 493.227q292.693 0 298.667 -12.8q25.6 -21.333 12.8 -48.64t-19.2 -37.973t-14.08 -14.933q-194.56 -58.027 -205.653 -75.093l-119.467 -286.72q-16.213 -48.64 -71.68 -48.64h-364.373
q-34.987 0 -58.027 24.32t-23.04 56.747v406.187q0 33.28 26.453 54.613l264.533 267.093l43.52 -40.96q17.92 -24.747 17.92 -43.52v-13.653l-42.667 -186.027h254.293z" />
    <glyph glyph-name="uniE128" unicode="&#xe128;" 
d="M1076.91 -31.573h-161.28v487.253h161.28v-487.253zM525.653 493.227l-42.667 186.027v13.653q0 18.773 17.92 43.52l43.52 40.96l264.533 -267.093q26.453 -21.333 26.453 -54.613v-406.187q0 -32.427 -23.04 -56.747t-58.027 -24.32h-364.373q-55.467 0 -71.68 48.64
l-119.467 286.72q-11.093 17.067 -205.653 75.093q-7.68 4.267 -14.08 14.933t-19.2 37.973t12.8 48.64q5.973 12.8 298.667 12.8h254.293z" />
    <glyph glyph-name="uniE129" unicode="&#xe129;" 
d="M403.627 -189.44v161.28h487.253v-161.28h-487.253zM366.08 616.107q0 292.693 12.8 298.667q21.333 25.6 48.64 12.8t37.973 -19.2t14.933 -14.08q58.027 -194.56 75.093 -205.653l286.72 -119.467q48.64 -16.213 48.64 -71.68v-364.373q0 -34.987 -24.32 -58.027
t-56.747 -23.04h-406.187q-33.28 0 -54.613 26.453l-267.093 264.533l40.96 43.52q24.747 17.92 43.52 17.92h13.653l186.027 -42.667v254.293z" />
    <glyph glyph-name="uniE130" unicode="&#xe130;" 
d="M594.773 849.067v-161.28h-487.253v161.28h487.253zM632.32 43.52q0 -292.693 -12.8 -298.667q-21.333 -25.6 -48.64 -12.8t-37.973 19.2t-14.933 14.08q-58.027 194.56 -75.093 205.653l-286.72 119.467q-48.64 16.213 -48.64 71.68v364.373q0 34.987 24.32 58.027
q24.32 23.04 56.747 23.04h406.187q33.28 0 54.613 -26.453l267.093 -264.533l-40.96 -43.52q-24.747 -17.92 -43.52 -17.92h-13.653l-186.027 42.667v-254.293z" />
    <glyph glyph-name="uniE131" unicode="&#xe131;" 
d="M864.427 -52.053q-146.773 -146.773 -352.853 -146.773t-353.707 147.2t-147.627 352.853q0 205.653 147.627 353.707t353.707 148.053t353.707 -148.053t147.627 -353.707t-148.48 -353.28h-0.001zM442.027 72.533q11.947 -16.213 40.107 -16.213q23.04 0 37.547 13.653
l258.56 232.107l-258.56 230.4q-39.253 40.96 -77.653 -1.707q-40.96 -40.96 3.413 -80.213l93.867 -81.92h-294.4v-133.12h294.4l-93.867 -84.48q-44.373 -37.547 -3.413 -78.507z" />
    <glyph glyph-name="uniE132" unicode="&#xe132;" 
d="M158.72 657.067q146.773 146.773 352.853 146.773q206.08 0 353.707 -147.2t147.627 -352.853t-147.627 -353.707t-353.707 -148.053t-353.707 148.053t-147.627 353.707t148.48 353.28h0.001zM581.12 532.48q-11.947 16.213 -40.107 16.213q-23.04 0 -37.547 -13.653
l-258.56 -232.107l258.56 -230.4q39.253 -40.96 77.653 1.707q40.96 40.96 -3.413 80.213l-93.867 81.92h294.4v133.12h-294.4l93.867 84.48q44.373 37.547 3.413 78.507h0.001z" />
    <glyph glyph-name="uniE133" unicode="&#xe133;" 
d="M866.133 648.533q146.773 -146.773 146.773 -352.853t-147.2 -353.707t-352.853 -147.627t-353.707 147.627t-148.053 353.707t148.053 353.707t353.707 147.627t353.28 -148.48v-0.001zM741.547 226.133q16.213 11.947 16.213 40.107q0 23.04 -13.653 37.547
l-232.107 258.56l-230.4 -258.56q-40.96 -39.253 1.707 -77.653q40.96 -40.96 80.213 3.413l81.92 93.867v-294.4h133.12v294.4l84.48 -93.867q37.547 -44.373 78.507 -3.413v-0.001z" />
    <glyph glyph-name="uniE134" unicode="&#xe134;" 
d="M157.867 -58.027q-146.773 146.773 -146.773 352.853t147.2 353.707t352.853 147.627q205.653 1.13687e-13 353.707 -147.627t148.053 -353.707t-148.053 -353.707t-353.707 -147.627t-353.28 148.48zM282.453 364.373q-16.213 -11.947 -16.213 -40.107
q0 -23.04 13.653 -37.547l232.107 -258.56l230.4 258.56q40.96 39.253 -1.707 77.653q-40.96 40.96 -80.213 -3.413l-81.92 -93.867v294.4h-133.12v-294.4l-84.48 93.867q-37.547 44.373 -78.507 3.413z" />
    <glyph glyph-name="uniE135" unicode="&#xe135;" 
d="M321.707 776.533q91.307 39.253 190.293 39.253t189.867 -39.253t157.013 -105.387t105.387 -157.013t39.253 -189.867t-39.253 -189.867t-105.387 -157.013t-157.013 -105.387t-189.867 -39.253t-189.867 39.253t-157.013 105.387t-105.387 157.013t-39.253 189.867
t39.253 189.867t105.387 157.013t156.587 105.387zM535.04 751.787q-12.8 -10.24 -31.147 -17.493t-30.293 -10.24t-36.693 -6.827t-33.28 -5.547q-12.8 -2.56 -38.827 0t-38.827 -1.707q-17.067 -5.973 -43.947 -22.613t-29.44 -29.44q-2.56 -9.387 5.547 -19.2
t7.253 -15.787q-2.56 -29.013 -23.467 -77.653t-25.173 -67.413q-7.68 -29.013 4.267 -79.36t6.827 -74.24q0 -7.68 14.507 -37.973t13.653 -50.773q10.24 0 19.627 -4.267t20.053 -12.8t16.64 -11.947q13.653 -6.827 28.16 -12.8t34.56 -12.8t29.44 -10.24
q17.92 -7.68 44.8 -27.307t51.2 -32.427t49.067 -9.387q5.973 -12.8 -2.56 -29.013t-19.2 -34.133t-8.107 -32.427q11.093 -17.92 19.627 -29.44t23.467 -23.467t31.147 -15.36q0 -5.973 -2.987 -13.653t-2.987 -11.947t4.267 -14.507q88.747 -1.707 188.587 95.573
q25.6 24.747 39.68 40.107t29.44 41.813t17.92 53.76q-11.093 6.827 -31.573 7.253t-30.72 6.4q-12.8 5.973 -42.24 12.8t-43.947 16.213q-15.36 0 -34.987 -0.427t-36.693 -1.28t-35.84 -5.547t-32.427 -14.08q-43.52 -29.867 -56.32 -10.24q-3.413 0.853 -2.987 21.76
t0.427 21.76q-5.12 11.093 -22.613 14.933t-20.907 5.547q0.853 12.8 -0.427 26.027t-5.973 23.893q-4.693 10.666 -15.787 9.813t-26.453 -17.92q-19.627 -21.333 -35.84 3.413q-16.213 23.893 -6.827 49.493q5.12 13.653 18.773 18.773q5.12 -0.853 22.187 -1.28
t28.587 -3.413t16.64 -11.52q5.973 -10.24 15.36 -20.48t18.347 -17.493q8.96 -7.253 17.067 -12.8t13.227 -8.96l4.267 -2.56q1.707 10.24 6.4 26.027q4.693 15.787 6.827 29.44t-0.427 27.307q-2.56 15.36 2.987 24.747t15.36 19.2t13.227 20.907q5.12 11.947 8.96 29.867
t6.827 26.453t13.227 19.2t29.013 19.2q-5.12 15.36 8.533 30.72q6.827 0 20.48 -1.28t20.907 -1.28t17.067 3.84t17.493 13.227q-8.533 19.627 -26.453 36.267t-32 25.173t-41.813 23.04t-37.12 19.627q0 0.853 1.707 6.827t2.56 9.813t1.28 8.96t-0.853 8.107t-3.84 3.84
q26.453 -11.093 49.92 -12.373t32.853 2.133l10.24 4.267q4.267 23.893 -8.107 39.253t-31.147 20.48t-42.667 12.8t-34.987 17.067q-15.36 -3.413 -31.573 0zM523.093 660.48q0 -14.507 6.827 -35.84t14.507 -38.4t7.68 -19.627q-6.827 0.853 -33.707 4.693t-44.8 8.533
t-31.573 14.08q2.56 9.387 13.653 25.173t13.653 21.76q8.533 -8.533 16.213 -8.533t11.947 5.12t11.52 12.373q7.253 7.253 14.08 10.667v0.001z" />
    <glyph glyph-name="uniE136" unicode="&#xe136;" 
d="M190.293 551.054l162.987 170.666l-192 180.054q29.0127 45.2266 156.586 5.97363q127.574 -39.2539 156.587 -114.347q40.96 -112.641 -21.7598 -247.467q-62.7197 -134.827 -209.493 -146.773q-60.5869 -5.97363 -105.813 20.4795q-45.2266 26.4541 -67.4131 70.8271
t-34.9873 90.0264q-12.7998 45.6533 -15.3594 77.2266q-2.56055 31.5732 0.853516 34.1338zM1006.93 84.2803l-172.374 -174.08l-447.146 448.854l-20.4795 7.67969q76.7998 39.2529 122.88 110.934q25.5996 39.2529 40.96 98.9863l24.7461 -41.8135z" />
    <glyph glyph-name="uniE137" unicode="&#xe137;" horiz-adv-x="1034" 
d="M93.867 747.52q-34.987 0 853.333 0q34.987 0 60.16 -25.173t25.173 -60.16v-85.333q0 -34.987 -25.173 -60.16t-60.16 -25.173h-853.333q-34.987 0 -60.16 25.173t-25.173 60.16v85.333q0 34.987 25.173 60.16q25.173 25.173 60.16 25.173zM947.2 662.187h-170.667
v-85.333h170.667v85.333zM93.867 406.187q-34.987 0 853.333 0q34.987 0 60.16 -25.173t25.173 -60.16v-85.333q0 -34.987 -25.173 -60.16t-60.16 -25.173h-853.333q-34.987 0 -60.16 25.173t-25.173 60.16v85.333q0 34.987 25.173 60.16q25.173 25.173 60.16 25.173z
M947.2 320.853h-426.667v-85.333h426.667v85.333zM93.867 64.853q-34.987 0 853.333 0q34.987 0 60.16 -25.173t25.173 -60.16v-85.333q0 -34.987 -25.173 -60.16t-60.16 -25.173h-853.333q-34.987 0 -60.16 25.173t-25.173 60.16v85.333q0 34.987 25.173 60.16
q25.173 25.173 60.16 25.173zM947.2 -20.48h-256v-85.333h256v85.333z" />
    <glyph glyph-name="uniE138" unicode="&#xe138;" 
d="M132.267 756.907q-16.213 0 756.907 0q18.773 0 31.573 -13.653t12.8 -30.72q0 -41.813 -44.373 -41.813h-756.907q-41.813 0 -41.813 41.813q0 17.067 12.8 30.72t29.013 13.653zM596.48 163.84v-252.587l-168.96 -168.96v421.547l-295.253 423.253h756.907
l-292.693 -423.253z" />
    <glyph glyph-name="uniE139" unicode="&#xe139;" 
d="M426.667 836.267q-34.987 0 170.667 0q34.987 0 60.16 -25.173t25.173 -60.16v-85.333h256q34.987 0 60.16 -25.173t25.173 -60.16v-341.333h-426.667v85.333h-170.667v-85.333h-426.667v341.333q0 34.987 25.173 60.16t60.16 25.173h256v85.333q0 34.987 25.173 60.16
t60.16 25.173h0.002zM426.667 750.933v-85.333h170.667v85.333h-170.667zM1024 153.6v-170.667q0 -34.987 -25.173 -60.16q-25.173 -25.173 -60.16 -25.173h-853.333q-34.987 0 -60.16 25.173t-25.173 60.16v170.667h1024h-0.001z" />
    <glyph glyph-name="uniE140" unicode="&#xe140;" 
d="M512.853 375.467q-23.893 0 -44.8 -8.96t-36.693 -24.747t-25.173 -37.12t-9.387 -45.227t9.387 -44.8t25.173 -36.267t36.693 -24.32t44.8 -8.96t44.8 8.96t36.267 24.32t24.32 36.267t8.96 44.8t-8.96 45.227t-24.32 37.12t-36.267 24.747t-44.8 8.96zM956.587 93.867
q-15.36 0 -27.307 -11.52t-11.947 -28.587v-113.493l-140.8 141.653q-11.093 11.093 -27.307 11.093t-26.453 -11.093q-11.947 -11.947 -11.947 -28.16t11.947 -27.307l139.947 -140.8h-114.347q-16.213 0 -28.16 -11.52t-11.947 -26.88q0 -17.067 11.947 -27.733
t28.16 -10.667h245.76v244.907q0 17.067 -10.667 28.587t-26.88 11.52zM956.587 426.667q-15.36 0 -27.307 11.52t-11.947 27.733v115.2l-140.8 -141.653q-11.093 -11.093 -27.307 -11.093t-26.453 11.093q-11.947 11.947 -11.947 27.733t11.947 26.027l139.947 140.8
h-114.347q-16.213 0 -28.16 11.947t-11.947 28.16q0 15.36 11.947 26.453t28.16 11.093h245.76v-245.76q0 -16.213 -10.667 -27.733t-26.88 -11.52h0.001zM69.12 93.867q16.213 0 27.733 -11.52t11.52 -28.587v-113.493l139.947 141.653q11.947 11.093 27.733 11.093
t26.88 -11.093q11.947 -11.947 11.947 -28.16t-11.947 -27.307l-140.8 -140.8h116.053q15.36 0 26.453 -11.52t11.093 -26.88q0 -17.067 -11.093 -27.733t-26.453 -10.667h-248.32v244.907q0 17.067 11.52 28.587t27.733 11.52zM69.12 426.667q16.213 0 27.733 11.52
t11.52 27.733v115.2l139.947 -141.653q11.947 -11.093 27.733 -11.093t26.88 11.093q11.947 11.947 11.947 27.733t-11.947 26.027l-140.8 140.8h116.053q15.36 0 26.453 11.947t11.093 28.16q0 15.36 -11.093 26.453t-26.453 11.093h-248.32v-245.76
q0 -16.213 11.52 -27.733t27.733 -11.52h0.001z" />
    <glyph glyph-name="uniE141" unicode="&#xe141;" 
d="M444.587 619.52q0 -45.227 -44.373 -45.227q-17.067 0 -30.293 12.8t-13.227 32.427q0 17.92 13.227 31.573t30.293 13.653q44.373 0 44.373 -45.227v0.001zM270.507 479.573q0 -17.92 -12.373 -30.72t-31.147 -12.8q-21.333 0 -33.707 12.8t-12.373 30.72
q0 47.787 46.08 47.787q18.773 0 31.147 -13.227q12.374 -13.227 12.373 -34.56zM168.107 244.053q-17.067 0 -31.147 13.653t-14.08 31.147t14.08 30.293t31.147 12.8q42.667 0 42.667 -43.947t-42.667 -43.947v0.001zM1.707 288.427q0 209.92 151.04 360.107
t360.107 150.187q209.067 -1.13687e-13 359.253 -150.187t150.187 -360.107q0 -120.32 -57.173 -226.133q-60.587 -128.853 -182.613 -206.08t-269.227 -77.227t-269.227 77.227t-184.32 206.08q-58.027 105.813 -58.027 226.133zM892.587 62.293
q61.44 108.373 61.44 226.133q0 182.613 -130.133 312.747t-311.893 130.133t-311.893 -130.133t-130.133 -312.747q0 -117.76 62.293 -226.133h760.32zM597.333 396.8q-138.24 -203.093 145.92 215.04l-87.04 -243.2l-78.507 -227.84q0 -5.12 -6.827 -17.067
q-11.093 -23.893 -37.973 -32.427t-49.067 1.707q-24.747 15.36 -33.707 42.24q-8.96 26.88 2.987 49.92q0 3.413 2.987 5.973t141.227 205.653v0.001zM668.16 619.52q0 -19.627 -13.227 -32.427t-32.853 -12.8q-17.92 0 -31.147 12.8t-13.227 32.427q0 17.92 13.227 31.573
t31.147 13.653q46.08 0 46.08 -45.227zM844.8 482.987q0 -43.52 -44.8 -43.52t-44.8 43.947q0 43.947 45.227 43.947q18.773 0 31.573 -13.227t12.8 -31.147zM897.707 294.4q0 -43.52 -46.933 -43.52q-44.373 0 -44.373 43.52q0 18.773 14.08 31.573t30.293 12.8
q22.187 0 34.56 -12.8t12.373 -31.573z" />
    <glyph glyph-name="uniE142" unicode="&#xe142;" 
d="M274.773 192.853q-30.72 -29.867 -30.72 -71.68t30.72 -72.533q29.867 -29.867 73.387 -29.867t73.387 29.867l445.44 446.293q49.493 50.347 49.493 123.733q0 70.827 -49.92 120.747t-122.453 49.92q-70.827 0 -120.32 -50.347l-446.293 -446.293
q-70.827 -72.533 -70.827 -170.667q0 -103.253 70.827 -173.227t171.52 -69.973q107.52 0 169.813 70.827l201.387 196.267q23.893 24.747 51.2 0.427t0.853 -50.773l-199.68 -198.827q-88.747 -95.573 -223.573 -95.573q-131.413 0 -226.133 95.573
q-89.6 92.16 -89.6 225.28q0 130.56 89.6 221.867l449.707 447.147q69.12 70.827 171.52 70.827t175.787 -70.827q69.973 -70.827 69.973 -172.373q0 -104.107 -69.973 -175.787l-446.293 -447.147q-51.2 -52.907 -125.013 -52.907t-126.293 52.907t-52.48 126.293
q0 70.827 52.907 122.027l198.827 198.827q26.453 23.893 50.773 0.427t-197.547 -250.453z" />
    <glyph glyph-name="uniE143" unicode="&#xe143;" 
d="M511.147 622.08q40.96 58.027 93.44 88.747t103.68 32.853t101.12 -17.067t87.467 -54.613t60.587 -85.76t23.04 -104.96q0 -48.64 -28.587 -100.267t-80.213 -106.24t-107.947 -108.8t-128 -130.133t-124.587 -148.48q-52.907 72.533 -124.16 148.48t-128 130.133
q-56.747 54.186 -107.947 108.8t-79.787 106.24t-28.587 100.267q0 54.613 23.893 104.96t62.293 85.76q38.4 35.413 88.747 54.613t101.547 17.067t102.827 -32.853t89.173 -88.747zM721.92 641.707q-28.16 0 -55.04 -16.213t-48.213 -39.253t-40.533 -45.653
t-37.12 -38.827t-32 -16.213t-30.72 16.213t-34.133 38.827t-36.693 45.653t-46.08 39.253t-55.893 16.213q-57.173 0 -104.533 -47.36t-47.36 -113.067q0 -19.627 11.52 -43.52t39.253 -55.467t49.067 -53.76t64.853 -64l18.773 -18.773q12.8 -11.947 37.547 -37.547
t43.093 -43.52t39.253 -37.547t34.987 -29.867t19.627 -10.24t20.053 10.24t36.267 30.72t39.253 37.547t44.8 44.373t37.547 36.693q3.413 3.413 10.24 11.093q36.693 34.987 54.187 52.907t44.373 46.933t39.253 46.933t22.187 39.253t9.813 37.547
q0 67.413 -45.227 113.92t-102.4 46.507z" />
    <glyph glyph-name="uniE144" unicode="&#xe144;" 
d="M236.373 97.28q0 -110.933 0 161.28h123.733v-161.28q0 -60.587 44.373 -103.68t106.24 -43.093t107.52 43.093t45.653 103.68v161.28h122.88v-161.28q0 -110.933 -81.92 -192.853q-81.92 -81.92 -194.56 -81.92t-193.28 81.92t-80.64 192.853zM786.773 348.16h-122.88
v161.28q0 59.733 -45.653 103.68t-107.52 43.947t-106.24 -43.947t-44.373 -103.68v-161.28h-123.733v161.28q0 111.787 80.64 193.28t193.28 81.493t194.56 -81.493t81.92 -193.28v-161.28zM448.853 153.6q0 -23.893 0 296.107q0 27.307 18.347 45.227t43.52 17.92
q25.173 0 43.52 -17.92t18.347 -45.227v-296.107q0 -23.893 -18.347 -42.24t-43.52 -18.347t-43.52 18.347t-18.347 42.24z" />
    <glyph glyph-name="uniE145" unicode="&#xe145;" 
d="M797.013 -52.053v-138.24h-569.173v1053.87h569.173v-915.627zM512.853 -140.8q19.627 0 33.707 13.653t14.08 32.427q0 20.48 -14.08 34.133t-33.707 13.653q-20.48 0 -34.133 -13.653t-13.653 -34.133q0 -18.773 13.653 -32.427t34.133 -13.653zM723.627 -5.12v732.16
h-422.4v-732.16z" />
    <glyph glyph-name="uniE146" unicode="&#xe146;" 
d="M988.16 465.067q22.187 -29.867 0 -55.467q-11.093 -8.533 -24.747 -8.533q-17.067 0 -30.72 8.533l-52.907 59.733l-225.28 -224.427l68.267 -239.787l-537.6 535.893l239.787 -67.413l223.573 224.427l-53.76 54.613q-28.16 29.013 0 52.053
q26.453 31.573 393.387 -339.627zM325.973 283.307l139.947 -139.093l-452.267 -311.467z" />
    <glyph glyph-name="uniE148" unicode="&#xe148;" 
d="M721.92 459.093q-21.333 17.067 -52.907 29.867q-13.653 8.533 -55.467 25.6q-20.48 6.827 -59.733 14.507v-101.547l7.68 -3.413h11.093q-20.48 -97.28 12.373 -3.84t12.373 -3.84q52.053 -15.36 95.573 -36.693q46.08 -17.92 76.8 -47.787
q29.867 -21.333 50.347 -64.853q15.36 -36.693 15.36 -98.133q0 -65.707 -23.04 -113.493q-17.92 -45.227 -61.44 -72.533q-40.107 -32.427 -83.627 -44.373q-33.28 -11.947 -98.987 -18.773v-134.827h-87.893v135.68q-88.747 9.387 -154.453 29.867
q-72.533 24.747 -137.387 59.733l93.867 190.293q7.68 -3.413 29.44 -14.507t33.707 -20.48q3.413 0 28.587 -11.52t39.68 -17.493q46.08 -15.36 78.507 -20.48v102.4q-19.627 2.56 -69.973 20.48q-63.147 23.893 -88.747 34.987q-35.84 24.747 -59.733 48.64
q-29.867 25.6 -38.4 61.44q-9.387 32.427 -9.387 75.093q0 67.413 17.92 107.52q17.92 44.373 53.76 79.36q43.52 37.547 81.067 51.2q64 26.453 101.547 26.453v113.493h87.893v-113.493q48.64 -10.24 69.12 -11.947q11.947 -5.973 33.707 -11.093t35.413 -8.533
l58.88 -26.453l50.347 -23.04q-31.289 -61.156 -93.867 -183.467zM448 497.493q0 -17.92 12.373 -29.867t32 -20.48v84.48q-44.373 -5.12 -44.373 -34.133zM600.747 149.333q0 16.213 -13.653 29.013q-3.413 1.707 -14.507 8.533t-18.773 10.24v-83.627
q23.04 2.56 33.28 11.947q13.653 11.093 13.653 23.893v0.001z" />
    <glyph glyph-name="uniE149" unicode="&#xe149;" 
d="M557.227 833.707q71.68 0 136.96 -34.133t105.387 -93.44t40.107 -125.867h-130.56q0 34.133 -16.64 61.013t-42.24 41.387t-50.773 22.187t-47.36 7.68q-31.573 0 -67.413 -12.373t-52.907 -30.293q-34.987 -37.547 -34.987 -86.187q0 -22.187 11.52 -53.76
t22.613 -52.053t31.573 -56.32q5.12 -7.68 7.68 -11.947h205.653v-85.333h-168.107q6.827 -42.667 -2.133 -98.133t-26.88 -81.067q-38.4 -52.907 -84.48 -95.573q29.013 8.533 70.827 14.933t60.587 6.4q27.307 0.853 87.04 -13.653t88.747 -14.507q70.827 0 116.053 25.6
l42.667 -125.44q-26.453 -16.213 -49.493 -26.027t-46.933 -13.227t-35.84 -3.84t-39.253 -0.427q-19.627 0 -64.853 14.507t-94.72 27.733t-81.92 9.813q-33.28 -2.56 -69.973 -13.653t-57.173 -21.333l-19.627 -9.387l-46.933 123.733q3.413 2.56 13.653 9.387
t13.227 8.96t11.093 7.68t13.227 10.24t12.373 11.947t14.933 15.787q40.96 46.933 46.08 107.947t-25.6 121.6h-188.587v85.333h141.653q-19.627 40.107 -37.547 88.747q-5.973 17.067 -10.24 35.413t-5.12 47.36t5.12 56.747t25.173 60.16t49.92 60.587
q82.773 75.093 224.427 75.093z" />
    <glyph glyph-name="uniE150" unicode="&#xe150;" 
d="M58.88 -60.587l50.347 95.573l84.48 -98.987l21.333 -46.08l-9.387 46.08v886.613h110.933v-886.613l-8.533 -46.08l21.333 46.08l84.48 98.987l50.347 -95.573l-203.093 -215.04zM982.187 607.573l-50.347 -95.573l-84.48 98.987l-20.48 46.08l9.387 -46.08v-886.613
h-110.933v886.613l8.533 46.08l-20.48 -46.08l-84.48 -98.987l-51.2 95.573l203.093 215.04z" />
    <glyph glyph-name="uniE151" unicode="&#xe151;" 
d="M756.907 713.387h101.547l142.507 -404.48h-111.787l-26.453 78.507h-110.933l-20.48 -78.507h-112.64l138.24 404.48h-0.001zM843.093 463.36l-33.28 122.88l-37.547 -122.88h70.827zM638.293 -101.547l186.027 225.28h-179.2v98.133h307.2v-83.627l-175.787 -224.427
h178.347v-96.427h-316.587v81.067zM-17.92 -75.093l50.347 95.573l84.48 -98.987l21.333 -46.08l-9.387 46.08v886.613h110.933v-886.613l-8.533 -46.08l21.333 46.08l84.48 98.987l50.347 -95.573l-203.093 -215.04z" />
    <glyph glyph-name="uniE152" unicode="&#xe152;" 
d="M756.907 221.013h101.547l142.507 -402.773h-111.787l-26.453 77.653h-110.933l-20.48 -77.653h-112.64l138.24 402.773h-0.001zM843.093 -28.16l-33.28 122.88l-37.547 -122.88zM638.293 389.973l186.027 224.427h-179.2v96.427h307.2v-81.067l-175.787 -226.133
h178.347v-97.28h-316.587v83.627zM-17.92 -75.093l50.347 95.573l84.48 -98.987l21.333 -46.08l-9.387 46.08v886.613h110.933v-886.613l-8.533 -46.08l21.333 46.08l84.48 98.987l50.347 -95.573l-203.093 -215.04z" />
    <glyph glyph-name="uniE153" unicode="&#xe153;" 
d="M374.613 68.267h128q17.92 0 21.333 -9.387t-8.533 -21.333l-196.267 -213.333q-11.947 -12.8 -29.867 -12.8t-29.867 12.8l-196.267 213.333q-11.947 11.947 -8.533 21.333t21.333 9.387h128v768h170.667v-768zM886.613 409.6h-85.333v341.333h-85.333v85.333h170.667
v-426.667zM971.947 -187.733h-85.333v85.333h-170.667v341.333h256v-426.667v0.001zM802.133 153.6v-170.667h85.333v170.667h-85.333z" />
    <glyph glyph-name="uniE154" unicode="&#xe154;" 
d="M374.613 68.267h128q17.92 0 21.333 -9.387t-8.533 -21.333l-196.267 -213.333q-11.947 -12.8 -29.867 -12.8t-29.867 12.8l-196.267 213.333q-11.947 11.947 -8.533 21.333t21.333 9.387h128v768h170.667v-768zM971.947 409.6h-85.333v85.333h-170.667v341.333h256
v-426.667v0.001zM802.133 750.933v-170.667h85.333v170.667h-85.333zM886.613 -187.733h-85.333v341.333h-85.333v85.333h170.667v-426.667z" />
    <glyph glyph-name="uniE155" unicode="&#xe155;" 
d="M408.747 349.867q-47.787 0 -47.787 52.053v58.027q0 51.2 47.787 51.2h337.92q49.493 0 49.493 -51.2v-58.027q0 -20.48 -14.933 -36.267t-34.56 -15.787h-337.92zM408.747 617.813q-47.787 0 -47.787 46.933v63.147q0 46.933 47.787 46.933h247.467
q51.2 0 51.2 -46.933v-63.147q0 -46.933 -51.2 -46.933h-247.467zM408.747 85.333q-47.787 0 -47.787 52.907v57.173q0 52.053 47.787 52.053h507.733q49.493 0 49.493 -52.053v-57.173q0 -52.907 -49.493 -52.907zM1063.25 -22.187q46.933 0 46.933 -46.08v-62.293
q0 -47.787 -46.933 -47.787h-654.507q-47.787 0 -47.787 47.787v62.293q0 46.08 47.787 46.08zM-106.667 -17.067l46.08 87.893l77.653 -90.453l20.48 -43.52l-9.387 43.52v820.053h103.253v-820.053l-7.68 -43.52l18.773 43.52l78.507 90.453l46.933 -87.893
l-188.587 -198.827l-186.027 198.827z" />
    <glyph glyph-name="uniE156" unicode="&#xe156;" 
d="M407.04 246.613q-47.787 0 338.773 0q20.48 0 34.987 -15.787t14.507 -36.267v-58.027q0 -52.053 -49.493 -52.053h-338.773q-47.787 0 -47.787 52.053v58.027q0 52.053 47.787 52.053zM407.04 -23.04q-47.787 0 248.32 0q51.2 0 51.2 -46.08v-62.293
q0 -48.64 -51.2 -48.64h-248.32q-47.787 0 -47.787 48.64v62.293q0 46.08 47.787 46.08zM407.04 511.147q-47.787 0 509.44 0q49.493 0 49.493 -50.347v-58.88q0 -52.907 -49.493 -52.907h-509.44q-47.787 0 -47.787 52.907v58.88q0 50.347 47.787 50.347zM1063.25 618.667
q47.787 0 -656.213 0q-47.787 0 -47.787 47.787v61.44q0 47.787 47.787 47.787h656.213q47.787 0 47.787 -47.787v-61.44q0 -47.787 -47.787 -47.787zM-106.667 -17.067l46.08 87.893l77.653 -90.453l20.48 -43.52l-9.387 43.52v820.053h103.253v-820.053l-7.68 -43.52
l18.773 43.52l78.507 90.453l46.933 -87.893l-188.587 -198.827l-186.027 198.827z" />
    <glyph glyph-name="uniE157" unicode="&#xe157;" 
d="M743.253 -186.027q83.627 0 -464.213 0q-86.187 0 -144.64 58.88t-58.453 145.067v461.653q0 87.04 58.453 145.92t144.64 58.88h464.213q83.627 0 144.213 -58.88t60.587 -145.92v-461.653q0 -86.187 -60.587 -145.067q-60.587 -58.88 -144.213 -58.88zM279.04 616.107
q-57.173 0 -96 -38.827t-38.827 -97.707v-461.653q0 -59.733 38.827 -98.133q38.827 -38.4 96 -38.4h464.213q58.88 0 98.133 38.4t39.253 98.133v461.653q0 58.88 -39.253 97.707t-98.133 38.827h-464.213z" />
    <glyph glyph-name="uniE158" unicode="&#xe158;" 
d="M405.333 444.587l283.307 -167.253l-283.307 -164.693v331.947zM976.213 525.653q0 88.747 0 -494.933q0 -92.16 -63.147 -154.88t-155.307 -62.72h-493.227q-90.453 0 -153.6 62.72t-63.147 154.88v494.933q0 88.747 63.147 152.747q63.147 64 153.6 64h493.227
q92.16 0 155.307 -64t63.147 -152.747zM119.467 30.72q0 -60.587 41.813 -102.827q41.813 -42.24 103.253 -42.24h493.227q63.147 0 104.533 42.24t41.387 102.827v494.933q0 60.587 -41.387 102.827t-104.533 42.24h-493.227q-61.44 0 -103.253 -42.24t-41.813 -102.827z
" />
    <glyph glyph-name="uniE159" unicode="&#xe159;" 
d="M678.4 384l-167.253 -283.307l-164.693 283.307h331.947h-0.001zM759.467 -186.88q88.747 0 -494.933 0q-92.16 0 -154.88 63.147t-62.72 155.307v493.227q0 90.453 62.72 153.6t154.88 63.147h494.933q88.747 0 152.747 -63.147t64 -153.6v-493.227
q0 -92.16 -64 -155.307t-152.747 -63.147zM264.533 669.867q-60.587 0 -102.827 -41.813t-42.24 -103.253v-493.227q0 -63.147 42.24 -104.533q42.24 -41.386 102.827 -41.387h494.933q60.587 0 102.827 41.387t42.24 104.533v493.227q0 61.44 -42.24 103.253
t-102.827 41.813h-494.933z" />
    <glyph glyph-name="uniE160" unicode="&#xe160;" 
d="M344.747 172.373l167.253 283.307l164.693 -283.307h-331.947h0.001zM263.68 743.253q-88.747 0 494.933 0q92.16 0 154.88 -63.147t62.72 -155.307v-493.227q0 -90.453 -62.72 -153.6t-154.88 -63.147h-494.933q-88.747 0 -152.747 63.147t-64 153.6v493.227
q0 92.16 64 155.307t152.747 63.147zM758.613 -113.493q60.587 0 102.827 41.813t42.24 103.253v493.227q0 63.147 -42.24 104.533t-102.827 41.387h-494.933q-60.587 0 -102.827 -41.387t-42.24 -104.533v-493.227q0 -61.44 42.24 -103.253t102.827 -41.813z" />
    <glyph glyph-name="uniE161" unicode="&#xe161;" 
d="M30.72 285.013h378.88l-66.56 57.173q-25.6 26.453 -0.853 53.76t48.64 3.413l171.52 -153.6l-171.52 -153.6q-9.387 -9.387 -23.893 -9.387q-11.093 0 -23.893 12.8q-25.6 28.16 0 51.2l66.56 59.733h-378.88v78.507zM323.413 682.667q-84.48 0 465.067 0
q86.187 0 145.493 -59.307t59.307 -145.493v-463.36q0 -86.187 -59.307 -145.92q-59.307 -59.733 -145.493 -59.733h-465.067q-84.48 0 -144.64 59.733t-60.16 145.92h67.413q0 -59.733 39.68 -98.56q39.68 -38.827 97.707 -38.827h465.067q58.88 0 98.56 38.827
t39.68 98.56v463.36q0 58.88 -39.68 98.133t-98.56 39.253h-465.067q-58.027 0 -97.707 -39.253t-39.68 -98.133h-67.413q0 86.187 60.16 145.493q60.16 59.306 144.64 59.307z" />
    <glyph glyph-name="uniE162" unicode="&#xe162;" 
d="M677.547 820.907l7.68 -7.68q6.827 -8.533 4.267 -23.04q-2.56 -9.387 -67.413 -192.427t-66.56 -189.013l256 0.853q20.48 0 27.733 -14.933t-4.693 -30.293q-0.853 0 -113.92 -132.267t-227.84 -266.667t-118.187 -138.667q-10.24 -12.8 -22.187 -12.8h-7.68
l-7.68 6.827q-7.68 9.387 -3.413 27.307q1.707 7.68 35.84 105.387t67.413 191.573l33.28 93.867h-257.707q-19.627 0 -26.453 16.213q-8.533 17.92 5.12 34.987q64 73.387 178.773 202.667q114.773 129.28 194.56 219.307t84.053 95.147q7.68 13.653 21.333 13.653h7.68z
" />
    <glyph glyph-name="uniE163" unicode="&#xe163;" 
d="M457.387 287.573h377.173l-63.147 58.027q-28.16 21.333 -5.12 53.76q23.04 27.307 53.76 3.413l168.96 -153.6l-168.96 -153.6q-9.387 -11.093 -25.173 -11.093t-28.587 12.8q-23.04 32.427 5.12 52.053l63.147 60.587h-377.173zM704.853 -190.293q87.893 0 -465.067 0
q-85.333 0 -145.067 60.16t-59.733 146.347v465.92q0 86.187 59.733 145.493q59.733 59.306 145.067 59.307h465.067q87.893 0 147.2 -59.307t59.307 -145.493h-68.267q0 58.88 -39.253 98.133t-98.987 39.253h-465.067q-58.027 0 -97.707 -39.253t-39.68 -98.133v-465.92
q0 -59.733 39.68 -98.987q39.68 -39.254 97.707 -39.253h465.067q59.733 0 98.987 39.253t39.253 98.987h68.267q0 -86.187 -59.307 -146.347q-59.307 -60.16 -147.2 -60.16z" />
    <glyph glyph-name="uniE164" unicode="&#xe164;" 
d="M720.213 -192q87.893 0 -469.333 0q-87.893 0 -148.907 60.16t-61.013 148.053v469.333q0 87.893 61.013 147.627q61.013 59.734 148.907 59.733h353.28v-67.413h-353.28q-60.587 0 -101.12 -39.253t-40.533 -100.693v-469.333q0 -62.293 40.533 -101.547
q40.533 -39.254 101.12 -39.253h469.333q60.587 0 100.693 39.253t40.107 101.547v362.667h69.12v-362.667q0 -87.893 -61.013 -148.053t-148.907 -60.16zM572.587 396.8l270.507 270.507l-87.893 -6.827q-34.987 0 -39.253 32.427q0 42.667 36.693 42.667l229.547 11.093
l-11.947 -230.4q0 -14.507 -11.947 -23.04q-11.947 -11.947 -28.16 -11.947q-34.133 4.267 -34.133 40.107l5.12 87.04l-271.36 -268.8l-57.173 57.173h-0.001z" />
    <glyph glyph-name="uniE165" unicode="&#xe165;" 
d="M228.693 577.707q-118.613 -117.76 -118.613 -283.307t119.467 -282.453q119.467 -116.906 283.733 -116.907t282.027 116.907t117.76 282.453q-0.001 165.545 -117.76 283.307t-282.027 117.76t-284.587 -117.76zM858.453 641.707q149.333 -143.36 149.333 -346.88
t-146.347 -349.44t-349.867 -145.92t-349.44 145.92t-145.92 349.44t145.92 349.867q145.92 146.347 349.44 146.347q203.52 0 346.88 -149.333zM630.613 413.013q49.493 -49.493 49.493 -118.613t-49.92 -118.187t-118.613 -49.067t-117.76 49.067t-49.067 118.187
t49.067 119.04t117.76 49.92t119.04 -50.347z" />
    <glyph glyph-name="uniE166" unicode="&#xe166;" 
d="M1011.2 -5.12v-184.32h-998.4v184.32zM958.293 -52.053h-96.427v-91.307h96.427v91.307zM189.44 434.347q-19.627 23.893 -17.493 54.187t25.173 52.48q11.093 10.24 25.173 14.933t28.16 3.84q14.08 -0.853 27.733 -7.253t23.893 -18.347l119.467 -130.56v375.467
h160.427v-375.467l117.76 130.56q22.187 23.893 52.053 25.6t53.76 -18.773q12.8 -11.093 19.627 -25.6t6.827 -29.867q0 -28.16 -20.48 -51.2l-311.467 -343.04q-103.538 114.347 -310.613 343.04z" />
    <glyph glyph-name="uniE167" unicode="&#xe167;" 
d="M1011.2 -5.12v-184.32h-998.4v184.32zM958.293 -52.053h-96.427v-91.307h96.427v91.307zM810.667 451.413q19.627 -23.893 17.493 -54.187t-25.173 -52.48q-11.093 -10.24 -25.173 -14.933t-28.16 -3.84t-27.733 7.253t-23.893 18.347l-119.467 130.56v-375.467h-160.427
v375.467l-117.76 -130.56q-22.187 -23.893 -52.053 -25.6t-53.76 18.773q-12.8 11.093 -19.627 25.6t-6.827 29.867q0 28.16 20.48 51.2l311.467 343.04q103.538 -114.347 310.613 -343.04z" />
    <glyph glyph-name="uniE168" unicode="&#xe168;" 
d="M12.8 -5.12v-184.32h998.4v184.32zM958.293 -143.36h-96.427v91.307h96.427v-91.307zM194.56 520.533q11.093 11.947 26.027 18.347t30.293 6.4q15.359 0 30.72 -5.973t27.307 -17.067l145.92 -139.947l227.84 329.387q8.533 13.653 22.187 22.613t29.013 11.947
t30.72 -0.427t29.013 -12.8q13.653 -10.24 22.187 -23.893t11.093 -28.587t-0.427 -30.72t-12.373 -29.44l-332.8 -488.107l-285.013 274.773q-11.947 11.093 -17.92 26.027t-6.4 30.293t5.12 30.293t17.493 26.88z" />
    <glyph glyph-name="uniE169" unicode="&#xe169;" 
d="M12.8 -5.12v-184.32h998.4v184.32zM958.293 -143.36h-96.427v91.307h96.427v-91.307zM855.04 544.427q-9.387 27.307 -35.84 42.667t-53.76 10.24q-28.16 -6.827 -41.813 -31.147t-5.12 -51.627l58.88 -168.96l-440.32 283.307l-76.8 -115.2l428.373 -275.627
l-158.72 -16.213q-29.013 -3.413 -44.8 -25.6t-9.813 -50.347q3.413 -14.507 13.227 -26.88t21.76 -19.2q23.04 -17.067 50.347 -12.8l435.2 43.52q-46.933 137.956 -140.8 413.867h-0.001zM111.787 773.973l151.04 -98.987l-74.24 -117.76l-152.747 97.28z" />
    <glyph glyph-name="uniE170" unicode="&#xe170;" 
d="M1011.2 -6.2002v-184.319h-998.4v184.319h998.4zM958.293 -53.1328h-96.4268v-91.3066h96.4268v91.3066zM983.04 730.227l-136.533 -415.573q-7.67969 -26.4531 -32.4268 -40.96q-11.9463 -8.5332 -26.8799 -12.373t-29.4404 -0.426758
q-14.5068 2.55957 -25.1729 10.2402q-10.667 7.67969 -17.0674 18.7734q-6.39941 11.0928 -7.67969 24.3193t2.9873 26.8799l49.4932 151.894l-425.813 -279.894l-74.2402 116.907l437.76 287.573l-178.347 15.3604q-29.0127 3.41309 -45.2266 25.1729
q-16.2129 21.7598 -11.0928 50.7734q3.41309 13.6533 11.5195 25.1729q8.10645 11.5205 19.627 20.0537q11.5195 8.5332 25.1729 12.7998t28.1602 2.56055zM35.8398 183.24l151.894 98.1328l77.6533 -116.053l-151.04 -99.8398z" />
    <glyph glyph-name="uniE171" unicode="&#xe171;" 
d="M10.24 758.613l1002.67 -497.493l-1002.67 -497.493l220.16 449.707l331.093 40.107l-331.093 54.613l-220.16 450.56z" />
    <glyph glyph-name="uniE172" unicode="&#xe172;" 
d="M512 -165.547h-425.813q-44.373 0 -52.053 37.547v17.92q-4.267 271.36 -4.267 816.64q0 26.453 17.493 40.96q17.493 14.507 38.827 14.507h749.227l9.387 -1.707q50.347 -47.787 143.36 -141.653q2.56 -2.56 2.56 -11.947q3.413 -238.08 3.413 -720.213
q0 -23.04 -16.64 -37.547t-38.827 -14.507zM768.853 651.093q0 23.04 -14.933 37.973t-37.12 14.933h-406.187q-23.893 0 -38.827 -14.933t-14.933 -37.973v-174.933q0 -23.04 14.933 -37.547t38.827 -14.507h406.187q22.187 0 37.12 14.507t14.933 37.547v174.933z
M856.747 331.093h-688.64v-401.067h688.64v401.067zM674.987 662.187v-197.973h-96.427v197.973h96.427z" />
    <glyph glyph-name="uniE173" unicode="&#xe173;" 
d="M490.667 -13.1729l-133.974 128q-30.7197 31.5732 0 55.4668q27.3066 28.1602 58.8799 3.41309l62.293 -62.293l98.9873 149.333q25.5996 29.0137 58.4531 7.25293q32.8535 -21.7598 8.10645 -55.0391zM512 -165.92h-425.813q-44.373 0 -52.0527 37.5469v17.9199
q-4.26758 271.36 -4.26758 816.641q0 26.4531 17.4941 40.96q17.4932 14.5068 38.8262 14.5068h749.227l9.38672 -1.70703q50.3467 -47.7871 143.36 -141.653q2.55957 -2.56055 2.55957 -11.9473q3.41406 -238.079 3.41406 -720.213q0 -23.04 -16.6406 -37.5469
q-16.6396 -14.5068 -38.8262 -14.5068h-426.667zM768.854 650.721q0 23.04 -14.9336 37.9727q-14.9336 14.9336 -37.1201 14.9336h-406.187q-23.8936 0 -38.8262 -14.9336q-14.9336 -14.9326 -14.9336 -37.9727v-174.934q0 -23.04 14.9336 -37.5469
q14.9326 -14.5068 38.8262 -14.5068h406.187q22.1865 0 37.1201 14.5068t14.9336 37.5469v174.934zM856.747 330.721h-688.641v-401.066h688.641v401.066zM674.986 661.813v-197.973h-96.4268v197.973h96.4268z" />
    <glyph glyph-name="uniE174" unicode="&#xe174;" 
d="M512 -166.4h-425.813q-44.373 0 -52.053 37.547v17.92q-4.267 271.36 -4.267 816.64q0 26.453 17.493 40.96q17.493 14.507 38.827 14.507h749.227l9.387 -1.707q50.347 -47.787 143.36 -141.653q2.56 -2.56 2.56 -11.947q3.413 -238.08 3.413 -720.213
q0 -23.04 -16.64 -37.547t-38.827 -14.507h-426.667zM768.853 650.24q0 23.04 -14.933 37.973t-37.12 14.933h-406.187q-23.893 0 -38.827 -14.933t-14.933 -37.973v-174.933q0 -23.04 14.933 -37.547t38.827 -14.507h406.187q22.187 0 37.12 14.507t14.933 37.547v174.933z
M856.747 330.24h-688.64v-401.067h688.64v401.067zM674.987 661.333v-197.973h-96.427v197.973h96.427zM663.04 40.96q27.307 -21.333 3.413 -47.787q-23.893 -25.6 -47.787 -1.707l-106.667 94.72l-105.813 -94.72q-8.533 -9.387 -22.187 -9.387q-15.36 0 -23.04 11.093
q-23.893 23.893 1.707 47.787l98.987 93.013l-98.987 87.04q-25.6 25.6 -1.707 47.787q21.333 28.16 45.227 1.707l105.813 -93.013l106.667 93.013q7.68 10.24 21.333 10.24q17.067 0 26.453 -11.947q21.333 -22.187 -3.413 -47.787l-100.693 -87.04
q33.564 -31.004 100.693 -93.013z" />
    <glyph glyph-name="uniE175" unicode="&#xe175;" 
d="M512 -164.693h-425.813q-44.373 0 -52.053 37.547v17.92q-4.267 271.36 -4.267 816.64q0 26.453 17.493 40.96q17.493 14.507 38.827 14.507h749.227l9.387 -1.707q50.347 -47.787 143.36 -141.653q2.56 -2.56 2.56 -11.947q3.413 -238.08 3.413 -720.213
q0 -23.04 -16.64 -37.547t-38.827 -14.507h-426.667zM768.853 651.947q0 23.04 -14.933 37.973t-37.12 14.933h-406.187q-23.893 0 -38.827 -14.933t-14.933 -37.973v-174.933q0 -23.04 14.933 -37.547t38.827 -14.507h406.187q22.187 0 37.12 14.507t14.933 37.547v174.933
zM856.747 331.947h-688.64v-401.067h688.64v401.067zM674.987 663.04v-197.973h-96.427v197.973h96.427zM648.533 168.107q26.453 -18.773 3.413 -46.933l-139.947 -151.893l-137.387 151.893q-9.387 11.947 -9.387 22.187q0 16.213 11.947 24.747
q23.893 24.747 46.933 -3.413l49.493 -52.053v171.52h78.507v-171.52l50.347 52.053q21.333 28.16 46.08 3.413z" />
    <glyph glyph-name="uniE176" unicode="&#xe176;" 
d="M512 -167.253h-425.813q-44.373 0 -52.053 37.547v17.92q-4.267 271.36 -4.267 816.64q0 26.453 17.493 40.96q17.493 14.507 38.827 14.507h749.227l9.387 -1.707q50.347 -47.787 143.36 -141.653q2.56 -2.56 2.56 -11.947q3.413 -238.08 3.413 -720.213
q0 -23.04 -16.64 -37.547t-38.827 -14.507zM768.853 649.387q0 23.04 -14.933 37.973t-37.12 14.933h-406.187q-23.893 0 -38.827 -14.933t-14.933 -37.973v-174.933q0 -23.04 14.933 -37.547t38.827 -14.507h406.187q22.187 0 37.12 14.507t14.933 37.547v174.933z
M856.747 329.387h-688.64v-401.067h688.64v401.067zM674.987 660.48v-197.973h-96.427v197.973h96.427zM377.173 87.893q-26.453 22.187 -2.56 45.227l137.387 155.307l139.947 -155.307q8.533 -9.387 8.533 -23.467t-11.947 -21.76q-24.747 -25.6 -46.08 0l-50.347 57.173
v-175.787h-78.507v175.787l-49.493 -57.173q-23.04 -25.6 -46.933 -2.84217e-14z" />
    <glyph glyph-name="uniE177" unicode="&#xe177;" 
d="M42.667 750.933q-17.92 0 938.667 0q17.92 0 30.293 -12.373q12.373 -12.373 12.373 -30.293v-128h-1024v128q0 17.92 12.373 30.293t30.293 12.373h0.001zM1024 494.933v-469.333q0 -17.92 -12.373 -30.293t-30.293 -12.373h-938.667q-17.92 0 -30.293 12.373
t-12.373 30.293v469.333h1024h-0.001zM85.333 238.933v-170.667h341.333v170.667h-341.333z" />
    <glyph glyph-name="uniE178" unicode="&#xe178;" 
d="M1014.61 698.68l-252.587 -227.84q-13.6533 -12.7998 -34.9863 -12.7998q-27.3066 0 -38.4004 17.0664q-36.6934 41.8135 0.853516 76.7998l93.8672 83.627h-375.467v115.2h387.413l-105.813 93.0137q-37.5469 35.8398 -1.70605 77.6533q35.8398 41.8125 74.2393 2.55957
zM212.48 750.733h133.973v-115.2h-133.973v115.2zM16.2129 755h132.268v-116.054h-132.268v116.054zM9.38672 158.52l252.587 227.841q14.5068 14.5059 37.5459 14.5059q22.1875 0 40.1074 -17.9199q34.1328 -46.0801 -5.12012 -76.7998l-88.7471 -84.4795h373.76v-116.054
h-386.56l101.547 -91.3066q39.2529 -33.2803 5.12012 -77.6533q-38.4004 -40.1064 -77.6533 -2.55957zM680.106 221.667h133.974v-116.054h-133.974v116.054zM876.373 218.253h131.414v-115.199h-131.414v115.199z" />
    <glyph glyph-name="uniE179" unicode="&#xe179;" 
d="M692.907 727.893q-21.333 -15.36 235.52 98.987q21.333 15.36 37.12 6.827t15.787 -34.987v-943.787q0 -17.92 -12.373 -30.293t-30.293 -12.373h-170.667q-17.92 0 -30.293 12.373t-12.373 30.293v338.773q-3.413 0.853 -9.387 4.267t-20.48 14.933t-25.6 24.747
t-20.48 35.84t-9.387 48.213v306.347q0 26.453 15.787 55.467t37.12 44.373zM426.667 836.267q18.773 0 29.44 -10.667t12.373 -20.907l0.853 -11.093v-384q0 -23.893 -8.96 -50.773t-21.333 -47.787t-24.747 -38.4t-21.76 -26.88l-8.533 -9.387v-381.44
q0 -17.92 -12.373 -30.293t-30.293 -12.373h-170.667q-17.92 0 -30.293 12.373t-12.373 30.293v381.44q-3.413 3.413 -9.387 9.813t-20.48 26.027t-25.6 39.253t-20.48 46.933t-9.387 51.2v384q0 1.707 0.427 4.693t3.413 10.24t7.253 12.8t12.373 10.24t19.2 4.693
q17.067 0 27.733 -10.667t12.373 -20.907l2.56 -11.093v-298.667h85.333v303.36q89.6 -16.64 2.133 10.24t5.973 12.8t12.8 10.24t21.76 4.693q19.627 0 30.293 -10.667t11.52 -20.907l0.853 -11.093v-298.667h85.333v298.667q0 1.707 0.427 4.693t2.56 10.24t5.973 12.8
t12.8 10.24t20.907 4.693z" />
    <glyph glyph-name="uniE180" unicode="&#xe180;" 
d="M981.333 750.933v-47.787q-3.413 0 -9.387 -0.427t-20.48 -2.56t-25.6 -6.4t-20.48 -12.8t-9.387 -20.48v-757.76q0 -18.773 21.333 -29.44t42.667 -11.52l21.333 -1.707v-47.787h-341.333v47.787q64 0 74.667 5.547t10.667 37.12v336.213h-426.667v-336.213
q0 -31.573 10.667 -37.12t74.667 -5.547v-47.787h-341.333v47.787q3.413 0 9.387 0.427t20.48 2.56t25.6 6.4t20.48 12.8t9.387 20.48v757.76q0 18.773 -21.333 29.44t-42.667 11.52l-21.333 1.707v47.787h341.333v-47.787q-64 0 -74.667 -5.547t-10.667 -37.12v-336.213
h426.667v336.213q0 31.573 -10.667 37.12t-74.667 5.547v47.787z" />
    <glyph glyph-name="uniE181" unicode="&#xe181;" 
d="M1145.17 254.293l-65.707 68.267q-35.84 35.84 0 69.12q32.427 37.547 65.707 0zM69.973 368.64q31.573 33.28 66.133 2.133t0.427 -69.547l-147.627 -146.773q-35.84 -34.133 -71.253 0.853t152.32 213.333zM339.627 645.973v-756.907h-148.48v278.187l-13.653 -12.8
q-34.133 -34.133 -69.973 0q-31.573 35.84 0 69.12l83.627 81.92v340.48h148.48h-0.001zM956.587 368.64q-32.427 33.28 151.04 -145.067q34.133 -33.28 -0.853 -68.267t-69.12 -0.853l-148.48 146.773q-36.693 38.4 -0.853 69.547t68.267 -2.133zM916.48 223.573
q33.28 -33.28 0 -69.12q-33.28 -34.133 -70.827 0l-11.093 12.8v-278.187h-147.627v756.907h147.627v-340.48zM-52.907 368.64q34.987 -29.013 0 -67.413l-67.413 -66.56v133.973q34.987 33.28 67.413 0zM396.8 447.147h232.107v-419.84h-232.107z" />
    <glyph glyph-name="uniE182" unicode="&#xe182;" 
d="M13.653 671.573q-1.707 -28.16 138.24 138.24q14.507 14.507 34.133 11.947t31.573 -18.773l118.613 -165.547q11.947 -17.067 9.387 -37.973t-17.067 -35.413l-101.547 -100.693q87.04 -121.173 194.56 -228.693t227.84 -193.707l101.547 100.693
q14.507 14.507 36.267 16.213t37.973 -10.24l163.84 -116.053q16.213 -11.947 19.2 -32t-11.52 -34.56l-139.093 -138.24q-2.56 -0.853 -8.107 -0.853t-25.173 1.707t-40.533 5.12t-53.333 12.373t-66.133 22.613t-76.8 36.267t-86.613 51.2t-94.72 70.827t-101.547 92.587
q-63.147 63.147 -113.92 128.427t-80.64 118.187t-51.2 101.973q-21.333 49.066 -29.44 85.333t-12.8 63.573t-2.987 55.467z" />
    </font>
</defs>
</svg>
