<?xml version="1.0" standalone="no"?>
<!DOCTYPE svg PUBLIC "-//W3C//DTD SVG 1.1//EN" "http://www.w3.org/Graphics/SVG/1.1/DTD/svg11.dtd" >
<svg xmlns="http://www.w3.org/2000/svg">
<metadata>Generated by IcoMoon</metadata>
<defs>
<font id="icomoon" horiz-adv-x="1024">
<font-face units-per-em="1024" ascent="819.2" descent="-204.8" />
<missing-glyph horiz-adv-x="1024" />
<glyph unicode="&#x20;" d="" />
<glyph unicode="&#x2a;" glyph-name="uni2A" d="M461.653 200.533q3.413 9.387-3.413 13.227t-16.213-0.427l-257.707-185.173q-23.040-16.213-36.693 10.24l-52.053 88.747q-12.8 23.040 13.653 36.693l288.427 131.413q29.013 11.093 0 24.747l-290.987 133.973q-23.893 13.653-11.093 36.693l52.053 85.333q17.067 26.453 36.693 7.68l257.707-179.2q6.827-2.56 11.093-2.56t6.4 3.84 2.133 11.52l-23.893 312.32q0 29.867 23.893 29.867h98.987q26.453 0 26.453-29.867l-26.453-312.32q-2.56-9.387 4.267-13.227t17.067 0.427l256.853 179.2q21.333 18.773 37.547-7.68l51.2-85.333q13.653-23.040-10.24-36.693l-290.987-133.973q-28.16-13.653 0-24.747l288.427-131.413q26.453-13.653 12.8-36.693l-51.2-88.747q-12.8-26.453-37.547-10.24l-256.853 185.173q-8.533 2.56-12.373 2.56t-6.4-3.84-2.56-11.52l26.453-312.32q0-29.867-26.453-29.867h-98.987q-23.893 0 0 342.187z" />
<glyph unicode="&#x2b;" glyph-name="uni2B" d="M913.067 212.48q33.28 0-320.853 0v-323.413q0-33.28-23.467-55.467t-56.32-22.187-56.32 22.187-23.467 55.467v323.413h-323.413q-29.867 0-53.333 23.040t-23.467 56.32 23.467 55.040 53.333 21.76h323.413v324.267q0 32.427 23.467 55.040t56.32 22.613 56.32-22.613 23.467-55.040v-324.267h320.853q33.28 0 55.467-21.76t22.187-55.040-22.187-56.32-55.467-23.040z" />
<glyph unicode="&#x30;" glyph-name="pen" d="M0-192c128 384 463 1024 1024 1024-263-211-384-704-576-704s-192 0-192 0l-192-320h-64z" />
<glyph unicode="&#x31;" glyph-name="cleveland" d="M393.805 715.906c-134.768-92.663-212.895-168.558-255.864-247.1-29.297-53.833-31.251-62.658-31.251-154.438 0-86.485 2.93-102.37 25.391-145.613 37.11-70.6 106.447-135.905 177.738-167.675 33.204-14.12 71.29-27.358 84.962-28.24 23.438-2.648 24.415-1.765 21.485 50.303-1.953 29.123-7.813 54.715-12.696 55.598-4.883 1.765-35.157 18.533-65.431 37.948-74.22 44.125-110.354 101.488-116.213 183.56-8.789 110.313 54.689 202.093 215.824 314.17l73.244 50.303 45.899-29.123c76.173-46.773 183.597-145.613 214.848-195.033 25.391-42.36 28.321-54.715 28.321-126.198 0-70.6-2.93-83.838-26.368-120.903-27.344-40.595-99.611-96.193-141.604-107.665-20.508-6.178-22.461-12.355-22.461-63.54 0-55.598 0.977-57.363 22.461-52.068 200.199 54.715 324.225 225.038 290.044 400.656-22.461 117.373-103.518 215.33-272.466 330.938-154.3 105.9-125.002 104.135-255.863 14.12zM454.353 545.583c-87.892-40.595-83.986-154.438 6.836-188.855 68.361-25.593 145.51 15.885 155.276 82.955 11.719 82.955-81.056 143.848-162.112 105.9zM287.358 327.606c0-50.303 1.953-53.833 27.344-62.658 40.040-14.12 89.845-60.010 115.236-109.43 21.485-40.595 23.438-55.598 23.438-178.265v-135.023h122.073v138.553c0 128.845 1.953 142.083 22.461 179.148 32.227 54.715 58.595 78.543 107.424 98.84l41.016 16.768v106.783l-36.133-6.178c-57.618-9.708-104.494-35.3-153.323-83.838l-44.923-45.89-48.829 49.42c-36.133 35.3-64.454 53.833-103.518 66.188-29.297 10.59-57.618 18.533-62.501 18.533-5.859 0-9.766-23.828-9.765-52.951z" />
<glyph unicode="&#x32;" glyph-name="paw" d="M415.167 457.902q0-29.031-9.222-54.918t-30.579-44.757-50.965-18.87q-36.889 0-66.982 27.822t-44.655 65.563-14.561 73.063q0 29.031 9.222 54.918t30.579 44.757 50.965 18.87q37.374 0 67.225-27.822t44.412-65.321 14.561-73.305zM249.167 224.198q0-38.709-20.386-67.256t-57.76-28.548q-36.889 0-68.681 26.854t-48.781 64.595-16.988 73.546q0 38.709 20.386 67.498t57.76 28.79q36.889 0 68.681-26.854t48.781-64.837 16.988-73.788zM440.407 237.262q57.275 0 123.772-47.176t111.152-114.674 44.655-123.142q0-22.257-8.251-37.015t-23.541-21.774-31.307-9.677-36.889-2.661q-33.006 0-91.009 21.774t-88.582 21.774q-32.035 0-93.435-21.532t-97.318-21.532q-88.824 0-88.824 70.643 0 41.612 27.181 92.659t67.71 93.143 91.009 70.643 93.677 28.547zM556.412 339.356q-29.608 0-50.965 18.87t-30.579 44.757-9.222 54.918q0 35.805 14.561 73.304t44.412 65.321 67.225 27.822q29.608 0 50.965-18.87t30.579-44.757 9.222-54.918q0-35.322-14.561-73.063t-44.655-65.563-66.982-27.821zM766.096 389.678q37.374 0 57.76-28.79t20.386-67.498q0-35.805-16.988-73.546t-48.781-64.595-68.681-26.854q-37.374 0-57.76 28.548t-20.386 67.256q0 35.805 16.988 73.788t48.781 64.837 68.681 26.854zM879 776.071l-57.125-0.964 4.339-256 57.125 0.964-4.339 256zM720.411 686.964l-0.089-57.143 256.036-0.375 0.089 57.143-256.036 0.375z" />
<glyph unicode="&#x33;" glyph-name="reporter" d="M944.476 514.768c-15.429 18.139-36.366 29.737-59.071 32.752-0.78 1.6-2.015 3.936-2.357 4.565l-0.911 1.714c3.52 5.697 5.299 11.614 5.299 17.609v34.936c0 5.161-1.35 10.348-3.981 15.351l-0.28 0.574c1.010 2.698 1.503 5.242 1.503 7.747 0 14.164-12.837 26.095-37.12 34.506-20.683 7.163-48.732 11.271-76.958 11.271-28.231 0-56.286-4.109-76.966-11.272-24.285-8.412-37.12-20.346-37.12-34.515 0-2.494 0.492-5.035 1.503-7.737l-0.26-0.516c-2.648-5.080-3.989-10.264-3.989-15.409v-34.936c0-6.025 1.781-11.933 5.297-17.583l-0.931-1.72c-2.898-5.323-4.368-10.753-4.368-16.137v-34.942c0-5.866 1.69-11.641 5.026-17.175l-0.657-1.207c-2.898-5.322-4.368-10.745-4.368-16.113v-34.965c0-15.972 12.248-30.683 34.488-41.427 21.698-10.483 50.944-16.254 82.346-16.254 11.53 0 23.171 0.852 34.619 2.534 18.141-19.6 42.323-30.38 68.221-30.38 52.699 0 95.573 45.371 95.573 101.141 0.001 24.984-8.714 48.989-24.538 67.588zM698.351 647.809c19.027 6.68 44.686 10.359 72.25 10.359 27.554 0 53.209-3.681 72.247-10.366 17.379-6.103 25.156-13.337 25.156-17.798 0-4.476-7.777-11.728-25.157-17.835-19.028-6.687-44.685-10.369-72.245-10.369-27.567 0-53.227 3.682-72.25 10.369-17.372 6.106-25.146 13.358-25.146 17.835-0.001 4.467 7.774 11.705 25.145 17.805zM670.445 595.801c18.945-13.871 57.363-22.668 100.156-22.668 42.762 0 81.191 8.8 100.172 22.675v-24.415c0-9-10.176-18.934-27.221-26.572-19.407-8.698-45.315-13.489-72.952-13.489-27.634 0-53.54 4.791-72.944 13.489-17.040 7.638-27.213 17.572-27.213 26.573l0.001 24.408 0.001-0.001zM770.601 391.553c-27.627 0-53.534 4.788-72.944 13.483-17.039 7.631-27.212 17.551-27.212 26.531v27.872c20.51-16.879 58.2-27.214 100.156-27.214 2.83 0 5.594 0.143 8.276 0.297 1.951-14.126 6.788-27.783 14.093-39.84-7.437-0.751-14.943-1.13-22.369-1.129zM778.808 461.317c-2.655-0.169-5.39-0.326-8.207-0.326-27.631 0-53.537 4.789-72.944 13.485-17.039 7.636-27.213 17.562-27.213 26.551v27.89c20.467-16.887 58.155-27.229 100.156-27.229 7.341 0 14.956 0.414 23.155 1.262-7.845-12.524-12.972-26.786-14.947-41.633zM873.441 370.747c-39.823 0-72.221 34.288-72.221 76.432s32.398 76.429 72.221 76.429c39.825 0 72.223-34.286 72.223-76.429s-32.399-76.432-72.223-76.432zM870.249 411.782v15.72h43.027c1.761 0 3.191 1.511 3.191 3.377v32.595c0 1.866-1.43 3.377-3.191 3.377h-43.027v15.727c0 1.367-0.777 2.599-1.97 3.119-1.192 0.523-2.565 0.233-3.477-0.731l-33.448-35.399c-0.599-0.634-0.934-1.494-0.934-2.389 0-0.896 0.335-1.757 0.934-2.39l33.448-35.398c0.912-0.966 2.285-1.256 3.477-0.731 1.194 0.524 1.97 1.754 1.97 3.123zM833.496-67.401c-10.9 33.022-30.658 66.331-59.798 85.715-56.071 37.578-121.4 57.624-184.569 79.084-15.239 5.39-30.722 11.266-44.648 19.627-12.433 7.458-17.1 22.755-19.988 36.19-1.275 7.106-2.056 14.398-2.461 21.571 45.806 63.265 76.191 166.515 76.191 251.176 0 132.123-73.941 168.943-165.136 168.943-91.214 0-165.138-36.765-165.138-168.888 0-87.69 32.576-195.257 81.141-257.746-0.443-4.933-1.024-9.866-1.904-14.777-2.894-13.433-7.555-28.445-19.98-35.901-13.942-8.363-29.423-13.67-44.664-19.060-63.169-21.458-128.497-40.381-184.553-77.959-29.157-19.384-48.904-54.953-59.796-87.975-11.217-34.272-15.804-76.721-15.112-111.119h825.525c0.697 34.396-3.9 76.844-15.11 111.119z" />
<glyph unicode="&#x34;" glyph-name="recorder" d="M727.692 345.044l196.525 209.682-50.391 53.764-186.447-198.929-10.078 10.753 186.446 198.929-10.078 10.753-196.525-209.681 70.548-75.271zM683.6 373.27l34.833-37.165-82.074-13.238 12.407 87.569 34.834-37.166zM933.617 564.857c0.445 0.415 0.883 0.843 1.306 1.295l17.637 18.818c10.436 11.135 10.436 29.189 0 40.323l-32.754 34.947c-10.436 11.135-27.357 11.135-37.792 0l-17.637-18.818c-0.424-0.452-0.825-0.92-1.213-1.394l70.453-75.171zM833.496-67.401c-10.9 33.022-30.658 66.331-59.798 85.715-56.071 37.578-121.4 57.624-184.569 79.084-15.239 5.39-30.722 11.266-44.648 19.627-12.433 7.458-17.1 22.755-19.988 36.19-1.275 7.106-2.056 14.398-2.461 21.571 45.806 63.265 76.191 166.515 76.191 251.176 0 132.123-73.941 168.943-165.136 168.943-91.214 0-165.138-36.765-165.138-168.888 0-87.69 32.576-195.257 81.141-257.746-0.443-4.933-1.024-9.866-1.904-14.777-2.894-13.433-7.555-28.445-19.98-35.901-13.942-8.363-29.423-13.67-44.664-19.060-63.169-21.458-128.497-40.381-184.553-77.959-29.157-19.384-48.904-54.953-59.796-87.975-11.217-34.272-15.804-76.721-15.112-111.119h825.525c0.697 34.396-3.9 76.844-15.11 111.119z" />
<glyph unicode="&#x35;" glyph-name="verifier" d="M820.068 720.484c-96.565 0-174.857-78.293-174.857-174.857s78.293-174.857 174.857-174.857c96.565 0 174.857 78.293 174.857 174.857s-78.293 174.857-174.857 174.857zM820.068 403.556c-78.336 0-142.071 63.735-142.071 142.071s63.735 142.071 142.071 142.071c78.336 0 142.071-63.735 142.071-142.071s-63.735-142.071-142.071-142.071zM891.759 600.139c-4.404 0.186-8.874-1.301-12.24-4.678l-75.845-75.833-43.059 43.047c-3.366 3.377-7.835 4.853-12.24 4.678-3.967-0.164-7.913-1.639-10.939-4.678-3.027-3.027-4.514-6.973-4.678-10.939-0.186-4.405 1.301-8.874 4.678-12.24l54.643-54.643c3.202-3.202 7.399-4.798 11.595-4.798s8.393 1.595 11.595 4.798l87.429 87.429c3.377 3.377 4.852 7.835 4.678 12.24-0.164 3.967-1.639 7.912-4.678 10.939-3.038 3.038-6.973 4.525-10.939 4.678zM833.496-67.401c-10.9 33.022-30.658 66.331-59.798 85.715-56.071 37.578-121.4 57.624-184.569 79.084-15.239 5.39-30.722 11.266-44.648 19.627-12.433 7.458-17.1 22.755-19.988 36.19-1.275 7.106-2.056 14.398-2.461 21.571 45.806 63.265 76.191 166.515 76.191 251.176 0 132.123-73.941 168.943-165.136 168.943-91.214 0-165.138-36.765-165.138-168.888 0-87.69 32.576-195.257 81.141-257.746-0.443-4.933-1.024-9.866-1.904-14.777-2.894-13.433-7.555-28.445-19.98-35.901-13.942-8.363-29.423-13.67-44.664-19.060-63.169-21.458-128.497-40.381-184.553-77.959-29.157-19.384-48.904-54.953-59.796-87.975-11.217-34.272-15.804-76.721-15.112-111.119h825.525c0.697 34.396-3.9 76.844-15.11 111.119z" />
<glyph unicode="&#x36;" glyph-name="big" d="M1024 256v64h-193.29c-5.862 72.686-31.786 139.026-71.67 192.25h161.944l70.060 280.24-62.090 15.522-57.94-231.76h-174.68c-0.892 0.694-1.796 1.374-2.698 2.056 6.71 19.502 10.362 40.422 10.362 62.194 0.002 105.76-85.958 191.498-191.998 191.498s-192-85.738-192-191.5c0-21.772 3.65-42.692 10.362-62.194-0.9-0.684-1.804-1.362-2.698-2.056h-174.68l-57.94 231.76-62.090-15.522 70.060-280.24h161.944c-39.884-53.222-65.806-119.562-71.668-192.248h-193.29v-64h193.37c3.802-45.664 15.508-88.812 33.638-127.75h-123.992l-70.060-280.238 62.090-15.524 57.94 231.762h112.354c58.692-78.032 147.396-127.75 246.66-127.75s187.966 49.718 246.662 127.75h112.354l57.94-231.762 62.090 15.524-70.060 280.238h-123.992c18.13 38.938 29.836 82.086 33.636 127.75h193.37z" />
<glyph unicode="&#x37;" glyph-name="clover" d="M786.832 439.228c-59.032 0-112.086-24.596-149.852-64.694-15.996-16.984-43.762-37.112-73.8-54.81 14.11 53.868 58.676 121.7 89.628 151.456 39.64 38.17 63.984 91.83 63.984 151.5 0.006 114.894-91.476 208.096-204.788 209.32-113.32-1.222-204.796-94.426-204.796-209.318 0-59.672 24.344-113.33 63.986-151.5 30.954-29.756 75.52-97.588 89.628-151.456-30.042 17.7-57.806 37.826-73.8 54.81-37.768 40.098-90.82 64.694-149.85 64.694-114.386 0-207.080-93.664-207.080-209.328 0-115.638 92.692-209.338 207.080-209.338 59.042 0 112.082 25.356 149.85 65.452 16.804 17.872 46.444 40.138 78.292 58.632-3.002-147.692-73.532-256.168-145.318-298.906v-37.742h384.014v37.74c-71.792 42.736-142.32 151.216-145.32 298.906 31.852-18.494 61.488-40.768 78.292-58.632 37.766-40.094 90.808-65.452 149.852-65.452 114.386 0 207.078 93.7 207.078 209.338-0.002 115.664-92.692 209.328-207.080 209.328z" />
<glyph unicode="&#x38;" glyph-name="uni38" d="M864.626 358.838c-65.754 183.44-205.11 348.15-352.626 473.162-147.516-125.012-286.87-289.722-352.626-473.162-40.664-113.436-44.682-236.562 12.584-345.4 65.846-125.14 198.632-205.438 340.042-205.438s274.196 80.298 340.040 205.44c57.27 108.838 53.25 231.962 12.586 345.398zM738.764 73.044c-43.802-83.252-132.812-137.044-226.764-137.044-55.12 0-108.524 18.536-152.112 50.652 13.242-1.724 26.632-2.652 40.112-2.652 117.426 0 228.668 67.214 283.402 171.242 44.878 85.292 40.978 173.848 23.882 244.338 14.558-28.15 26.906-56.198 36.848-83.932 22.606-63.062 40.024-156.34-5.368-242.604z" />
<glyph unicode="&#x39;" glyph-name="hourglass1" d="M728.992 320c137.754 87.334 231.008 255.208 231.008 448 0 21.676-1.192 43.034-3.478 64h-889.042c-2.29-20.968-3.48-42.326-3.48-64 0-192.792 93.254-360.666 231.006-448-137.752-87.334-231.006-255.208-231.006-448 0-21.676 1.19-43.034 3.478-64h889.042c2.288 20.966 3.478 42.324 3.478 64 0.002 192.792-93.252 360.666-231.006 448zM160-128c0 186.912 80.162 345.414 224 397.708v100.586c-143.838 52.29-224 210.792-224 397.706h704c0-186.914-80.162-345.416-224-397.706v-100.586c143.838-52.294 224-210.796 224-397.708h-704zM619.626 162.406c-71.654 40.644-75.608 93.368-75.626 125.366v64.228c0 31.994 3.804 84.914 75.744 125.664 38.504 22.364 71.808 56.348 97.048 98.336h-409.582c25.266-42.032 58.612-76.042 97.166-98.406 71.654-40.644 75.606-93.366 75.626-125.366v-64.228c0-31.992-3.804-84.914-75.744-125.664-72.622-42.18-126.738-125.684-143.090-226.336h501.67c-16.364 100.708-70.53 184.248-143.212 226.406z" />
<glyph unicode="&#x3a;" glyph-name="hourglass2" d="M784-64c8.8 0 16-7.168 16-16s0-48 0-48h-608c0 0 0 39.168 0 48s7.168 16 16 16h53.44c2.656 213.056 141.824 281.728 141.824 367.84 0 86.56-141.728 92.32-143.072 368.16h-52.192c-8.832 0-16 7.168-16 16s0 48 0 48h608c0 0 0-39.168 0-48s-7.2-16-16-16h-48.96c-1.344-275.84-143.072-281.6-143.072-368.16 0-86.112 139.2-154.784 141.856-367.84h50.176zM547.552 303.84c0 86.912 141.76 92.32 143.072 368.16h-386.016c1.312-275.84 143.072-281.248 143.072-368.16 0-83.552-139.232-153.984-141.856-367.84h24.256c5.696 18.976 24.608 41.792 57.28 58.688l42.464 21.664c26.688 13.792 42.688 23.104 48 27.904s11.328 15.552 18.048 32.256c7.072-16.672 13.12-27.424 18.24-32.256s20.928-14.112 47.488-27.904l42.24-21.664c32.48-16.896 51.328-39.712 56.928-58.688h28.608c-2.624 213.856-141.824 284.288-141.824 367.84zM514.24 350.816c-3.84-7.552-7.072-21.92-9.632-43.104-0.64-6.4-2.048-16.032-4.32-28.864-2.24 12.832-3.68 22.464-4.32 28.864-2.592 21.184-5.824 35.52-9.696 43.104-3.872 7.52-14.784 21.056-32.8 40.672l-40.032 43.776c-27.36 29.504-44.896 50.688-52.608 63.488 47.488-30.24 93.856-45.376 139.104-45.376s91.776 15.136 139.584 45.376c-8-12.8-25.6-33.984-52.768-63.488l-39.872-43.776c-17.92-19.616-28.832-33.152-32.64-40.672z" />
<glyph unicode="&#x3b;" glyph-name="leaf" d="M1011.328 697.504c-110.752 83.928-281.184 134.034-455.91 134.034-216.12 0-392.226-75.456-483.16-207.020-42.708-61.79-66.33-134.958-70.208-217.474-3.454-73.474 8.884-154.726 36.684-242.146 94.874 284.384 359.82 507.102 665.266 507.102 0 0-285.826-75.232-465.524-308.192-0.112-0.138-2.494-3.090-6.614-8.698-36.080-48.278-67.538-103.162-91.078-165.328-39.87-94.83-76.784-224.948-76.784-381.782h128c0 0-19.43 122.222 14.36 262.79 55.89-7.556 105.858-11.306 150.852-11.306 117.678 0 201.37 25.46 263.388 80.124 55.568 48.978 86.198 114.786 118.624 184.456 49.524 106.408 105.654 227.010 268.654 320.152 9.33 5.332 15.362 14.992 16.056 25.716s-4.040 21.080-12.606 27.572z" />
<glyph unicode="&#x3c;" glyph-name="tree" d="M554 122.667v-166h256v-84h-596v84h256v168c-142 24-250 146-250 294 0 166 134 300 300 300s298-134 298-300c0-154-116-278-264-296z" />
<glyph unicode="&#x3d;" glyph-name="lightning" d="M384 832l-384-512h384l-256-512 896 640h-512l384 384h-512z" />
<glyph unicode="&#x41;" glyph-name="uni41" d="M531.627 518.827q0-91.307-63.147-168.533t-147.2-77.227-145.493 77.227-61.44 168.533q0 85.333 60.16 145.92t147.2 60.587 148.48-60.587 61.44-145.92zM-97.28-170.667q0 110.933 118.613 211.627t299.52 100.693q183.467 0 302.080-100.693t118.613-211.627h-838.827zM1083.733 494.080q0 65.707-47.36 110.933t-110.080 45.227-109.653-45.227-46.933-110.933q0-64.853 46.933-111.36t109.653-46.507 110.080 46.507 47.36 111.36zM1064.107 630.613q58.027-56.32 58.027-137.813t-57.173-136.96-139.093-55.467-139.093 55.467-57.173 136.96 57.173 139.52 139.093 58.027 138.24-59.733zM1024.853 522.24q5.973-13.653-10.24-17.92l-82.773-31.573h-5.12l-1.707-2.56q-16.213 0-16.213 15.36v134.827q0 13.653 14.507 13.653t14.507-13.653v-111.787l67.413 20.48q15.36 5.973 19.627-6.827z" />
<glyph unicode="&#x42;" glyph-name="uni42" d="M544.427 516.267q0-90.453-63.573-167.68t-147.2-77.227-145.067 77.227-61.44 167.68q0 87.040 59.733 148.48t147.2 61.44 148.907-61.44 61.44-148.48zM-82.773-168.107q0 110.080 118.187 210.347t299.093 100.267q181.76 0 300.8-100.267t119.040-210.347h-837.12zM1067.52 555.52q41.813 0 41.813-43.52 0-45.227-41.813-45.227h-109.227v-108.373q0-42.667-43.52-42.667t-43.52 42.667v108.373h-108.373q-45.227 0-45.227 45.227 0 43.52 45.227 43.52h108.373v107.52q0 42.667 43.52 42.667t43.52-42.667v-107.52h109.227z" />
<glyph unicode="&#x43;" glyph-name="uni43" d="M552.107 517.12q0-88.747-63.573-165.973t-147.2-77.227-145.067 77.227-61.44 165.973q0 86.187 59.733 146.347t147.2 60.16 148.907-60.16 61.44-146.347zM-75.093-169.813q0 110.080 118.187 209.493t299.093 99.413q181.76 0 300.8-99.413t119.040-209.493h-837.12zM1058.133 465.92q41.813 0-270.507 0-45.227 0-45.227 43.52t45.227 43.52h270.507q41.813 0 41.813-43.52t-41.813-43.52z" />
<glyph unicode="&#x44;" glyph-name="uni44" d="M535.040 517.973q0-88.747-61.867-165.973t-145.493-77.227-146.773 77.227-63.147 165.973q0 86.187 61.44 146.347t147.627 60.16q84.48 0 146.347-60.16t61.867-146.347zM-93.867-168.96q0 110.080 118.613 209.493t302.080 99.413q179.2 0 300.373-99.413t121.173-209.493h-842.24zM752.64 524.8q-69.973 74.24 89.6 66.56l-75.947 102.4q18.773 18.773 75.947-9.813t62.293-66.987q11.093-58.027-30.72-115.2t-112.64-52.053q-44.373 0.853-66.56 42.24t-17.067 74.24 75.093-41.387zM1118.72 205.653l-95.573-67.413-176.64 249.173-4.267 6.827q36.693 12.8 66.56 40.96 10.24 14.507 27.307 45.227l7.68-22.187q58.311-84.196 174.933-252.587z" />
<glyph unicode="&#x45;" glyph-name="uni45" d="M229.547 219.307q-32.427 0-61.013 16.213t-49.92 42.667-33.707 58.88-12.373 64.853 12.373 61.44 33.707 50.347 49.92 33.707 61.013 12.373q14.507 0 28.587-3.413t26.027-7.68q-1.707-12.8-3.413-25.173t-1.707-26.027q0-51.2 20.48-102.827t57.173-91.733q-21.333-35.84-54.613-59.733t-72.533-23.893zM675.84 291.84q40.96 40.96 64.853 95.147t23.893 110.507q0 14.507-2.133 28.587t-4.693 27.733q9.387 2.56 19.2 4.267t20.053 1.707q32.427 0 61.013-12.373t49.493-33.707 33.28-50.347 12.373-61.44-12.373-64.853-33.28-58.88-49.493-42.667-61.013-16.213q-36.693 0-67.84 20.053t-53.333 52.48zM220.16 118.613q-61.44-48.64-95.573-110.080t-34.133-122.88h-178.347q0 36.693 21.333 77.227t61.44 74.667 97.28 56.747 128 24.32zM824.32 117.76q66.56-4.267 120.32-28.16t91.307-57.173 57.6-72.533 20.053-74.24h-160.427q0 61.44-33.707 122.453t-95.147 109.653zM522.24 279.893q-42.667 0-79.36 23.893t-61.44 59.733q-21.333 29.867-33.28 64.427t-11.947 69.547q0 4.267 0.853 8.533t0.853 9.387q3.413 34.987 18.773 65.707t40.107 53.333 56.747 35.84 68.693 13.227q34.133 0 64.853-11.947t55.040-32.853 40.533-49.493 21.333-61.013q1.707-7.68 2.133-15.36t0.427-15.36q0-40.107-15.36-79.787t-41.813-71.253q-24.747-29.867-57.6-48.213t-69.547-18.347zM727.893 112.64q40.107-21.333 71.253-48.64t52.907-57.173 33.28-61.013 11.52-60.16h-750.080q0 28.16 11.093 58.88t32 60.587 51.627 56.747 69.12 48.213q43.52 23.893 96.427 37.973t115.2 14.080q59.733 0 110.933-13.653t94.72-35.84z" />
<glyph unicode="&#x46;" glyph-name="uni46" d="M209.067 220.16q-33.28 0-61.867 16.213t-49.92 42.667-33.707 58.88-12.373 65.707q0 32.427 12.373 61.013t33.707 50.347 49.92 34.133 61.867 12.373q15.36 0 29.013-3.413t26.453-9.387q-4.267-23.893-4.267-49.493 0-51.2 20.48-103.68t56.32-91.733q-21.333-36.693-54.187-60.16t-73.813-23.467zM657.067 292.693q42.667 40.96 66.133 95.573t23.467 110.933q0 29.013-6.827 54.613 9.387 3.413 18.773 5.547t21.333 2.133q32.427 0 61.013-12.373t49.493-34.133 33.28-50.347 12.373-61.013q0-33.28-12.373-65.707t-33.28-58.88-49.493-42.667-61.013-16.213q-38.4 0-69.547 20.053t-53.333 52.48zM200.533 118.613q-61.44-48.64-96-110.080t-34.56-123.733h-178.347q0 36.693 21.333 77.227t61.44 74.667 97.28 57.173 128.853 24.747zM807.253 116.907q66.56-4.267 120.32-27.733t91.307-57.173 57.6-72.533 20.053-74.667h-160.427q0 61.44-34.133 122.88t-94.72 109.227zM501.76 279.893q-41.813 0-78.080 23.893t-61.867 59.733q-21.333 29.867-32.853 65.28t-11.52 70.4q0 5.12 0.427 8.533t1.28 7.68q3.413 35.84 18.773 66.987t39.68 54.187 56.32 36.267 67.84 13.227q34.987 0 66.133-12.373t55.467-33.28 40.96-49.493 22.613-61.013q0.853-9.387 1.28-16.64t0.427-14.080q0-40.96-15.36-80.64t-42.667-72.107q-25.6-29.013-58.027-47.787t-70.827-18.773zM709.973 112.64q40.107-21.333 71.68-49.067t53.333-58.027 32.853-61.44 11.093-59.307h-751.787q0 28.16 11.093 59.307t32 61.013 51.627 56.747 69.973 48.213q43.52 23.893 96 37.973t113.92 14.080 113.493-13.227 94.72-36.267zM1002.667 608.427q-8.533 75.093 80.213 1.707l-3.413 89.6q9.387 0.853 20.48-9.813t19.627-26.453 11.947-33.707-1.707-30.72q-7.68-17.067-24.747-31.573t-38.4-21.76-44.8-4.693-43.947 20.48q-20.48 17.067-20.907 38.4t7.68 39.68 18.773 31.147 19.2-62.293zM1086.293 274.773h-82.773v214.187l-1.707 7.68q15.36-5.973 29.867-5.973t25.6 2.56q8.533 2.56 17.067 5.973t17.067 7.68l-4.267-15.36q-0.284-72.249-0.853-216.747z" />
<glyph unicode="&#x47;" glyph-name="uni47" d="M197.12 221.867q-32.427 0-61.44 16.64t-50.347 42.667-33.707 58.88-12.373 66.133q0 32.427 12.373 61.013t33.707 49.92 50.347 33.707 61.44 12.373q29.867 0 57.173-11.093-5.973-23.893-5.973-52.053 0-52.053 20.48-102.827t57.173-91.733q-21.333-36.693-54.613-60.16t-74.24-23.467zM646.827 293.547q41.813 40.96 65.707 96.427t23.893 110.080q0 16.213-2.133 29.867t-5.547 27.307q17.92 5.973 40.107 5.973 32.427 0 60.587-12.373t49.493-33.707 33.28-49.92 11.947-61.013q0-33.28-11.947-66.133t-33.28-58.88-49.493-42.667-60.587-16.64q-37.547 0-68.693 20.053t-53.333 51.627zM189.44 120.32q-63.147-48.64-97.28-110.507t-34.133-124.16h-179.2q0 36.693 21.333 77.653t61.867 75.093 98.133 57.173 129.28 24.747zM796.16 119.467q67.413-4.267 121.173-28.16t91.307-58.027 57.6-73.387 20.053-74.24h-159.573q0 62.293-34.56 123.733t-96 110.080zM492.373 282.453q-43.52 0-79.787 23.467t-61.867 60.16q-21.333 29.867-33.28 64.427t-11.947 69.547q0 5.973 0.427 9.813t1.28 8.107q3.413 35.84 19.2 66.56t40.533 53.333 56.747 35.84 68.693 13.227q34.133 0 65.28-11.947t55.467-32.853 40.96-49.493 21.76-61.867q2.56-12.8 2.56-30.72 0-40.107-15.36-79.36t-42.667-71.68q-24.747-30.72-57.173-48.64t-70.827-17.92zM698.88 115.2q40.96-22.187 72.533-49.92t53.333-58.027 32.853-61.44 11.093-60.16h-752.64q0 29.013 10.667 59.733t32 60.587 51.627 57.173 70.4 48.64q43.52 23.040 96.853 37.547t114.773 14.507q60.587 0 112.213-13.653t94.293-34.987zM1118.72 660.48q11.093 0 20.053-8.96t8.96-20.907-8.96-20.907-20.053-8.96h-69.12v-68.267q0-11.093-8.107-19.627t-20.053-8.533q-12.8 0-20.907 8.533t-8.107 19.627v68.267h-69.973q-11.947 0-20.48 8.96t-8.533 20.907 8.533 20.907 20.48 8.96h69.973v69.12q0 11.947 8.107 19.627t20.907 7.68q11.947 0 20.053-7.68t8.107-19.627v-69.12h69.12z" />
<glyph unicode="&#x48;" glyph-name="uni48" d="M198.827 221.867q-32.427 0-61.44 16.64t-50.347 42.667-33.707 58.88-12.373 66.133q0 32.427 12.373 61.013t33.707 49.92 50.347 33.707 61.44 12.373q29.867 0 57.173-11.093-5.973-23.893-5.973-52.053 0-52.053 20.48-102.827t57.173-91.733q-21.333-36.693-54.613-60.16t-74.24-23.467zM648.533 293.547q41.813 40.96 65.707 96.427t23.893 110.080q0 16.213-2.133 29.867t-5.547 27.307q17.92 5.973 40.107 5.973 32.427 0 60.587-12.373t49.493-33.707 33.28-49.92 11.947-61.013q0-33.28-11.947-66.133t-33.28-58.88-49.493-42.667-60.587-16.64q-37.547 0-68.693 20.053t-53.333 51.627zM191.147 120.32q-63.147-48.64-97.28-110.507t-34.133-124.16h-179.2q0 36.693 21.333 77.653t61.867 75.093 98.133 57.173 129.28 24.747zM797.867 119.467q67.413-4.267 121.173-28.16t91.307-58.027 57.6-73.387 20.053-74.24h-159.573q0 62.293-34.56 123.733t-96 110.080zM494.080 282.453q-43.52 0-79.787 23.467t-61.867 60.16q-21.333 29.867-33.28 64.427t-11.947 69.547q0 5.973 0.427 9.813t1.28 8.107q3.413 35.84 19.2 66.56t40.533 53.333 56.747 35.84 68.693 13.227q34.133 0 65.28-11.947t55.467-32.853 40.96-49.493 21.76-61.867q2.56-12.8 2.56-30.72 0-40.107-15.36-79.36t-42.667-71.68q-24.747-30.72-57.173-48.64t-70.827-17.92zM700.587 115.2q40.96-22.187 72.533-49.92t53.333-58.027 32.853-61.44 11.093-60.16h-752.64q0 29.013 10.667 59.733t32 60.587 51.627 57.173 70.4 48.64q43.52 23.040 96.853 37.547t114.773 14.507q60.587 0 112.213-13.653t94.293-34.987zM1113.6 601.6q12.8 0-188.587 0-11.947 0-20.48 8.533t-8.533 20.48 8.533 20.48 20.48 8.533h188.587q12.8 0 21.333-8.533t8.533-20.48-8.533-20.48-21.333-8.533z" />
<glyph unicode="&#x49;" glyph-name="uni49" d="M301.227-129.707l-155.307 40.96-81.92 20.48v697.173l133.973-34.133 103.253-27.307v-697.173zM820.907 307.2q96.427 145.067 137.387 267.947l2.56-1.707v-698.88l-135.68 36.693-110.080 26.453v435.2q9.387-14.507 22.187-36.693t20.48-29.013l32.427-41.813q10.24 13.938 30.72 41.813zM679.253 669.867q0 46.080 33.28 77.653t78.933 31.573 78.080-33.28 32.427-75.947q0-84.48-111.787-273.067-110.933 172.373-110.933 273.067zM790.187 599.040q53.76 0 53.76 52.48t-53.76 52.48q-22.187 0-39.253-14.507t-17.067-37.547 17.067-37.973 39.253-14.933zM610.987 628.907q1.707-46.080 30.72-114.347v-576.853l-264.533-67.413v697.173q77.938 20.48 233.813 61.44z" />
<glyph unicode="&#x4a;" glyph-name="uni4A" d="M1004.373 480.427v-504.32q0-67.413-47.787-115.2t-117.76-47.787h-459.093q-65.707 0-114.347 47.787t-48.64 111.787h-197.973v439.467h197.973v175.787q0 68.267 48.64 116.053t114.347 47.787h401.067q74.524-90.453 223.573-271.36zM249.173 194.56q5.973 21.333 5.973 34.133 0 17.067-10.24 28.16-2.56 10.24-13.653 28.16-11.093 12.8-29.867 19.627-11.947 6.827-29.867 6.827h-107.52v-256h48.64v87.040h63.147q21.333 0 29.013 6.827 17.92 11.947 44.373 45.227zM922.453 451.413v3.413h-122.027q-31.573 0-52.48 21.333t-20.907 52.053v143.36h-347.307q-33.28 0-56.747-25.173t-23.467-58.453v-175.787h558.080v-439.467h-558.080q0-29.867 23.467-54.613t56.747-24.747h459.093q34.133 0 58.88 24.747t24.747 58.027v475.307zM425.813 55.467q31.573 0 52.053 11.947 20.48 4.267 38.827 25.173t25.173 37.973q10.24 27.307 10.24 55.040t-10.24 48.213q-2.56 19.627-22.187 40.107-22.187 23.893-38.4 28.16-30.72 9.387-55.467 9.387h-93.867v-256h93.867zM680.107 203.093v64h121.173v44.373h-168.96v-256h47.787v108.373h104.107v39.253h-104.107zM497.493 151.040q-2.56-11.947-14.507-26.453-1.707-2.56-5.973-5.547t-9.387-6.4-10.24-5.12q-8.533-6.827-31.573-6.827h-46.080v166.4h46.080q14.507 0 31.573-5.973 15.36-2.56 25.6-15.36 11.947-17.067 14.507-26.453 5.12-23.040 5.12-32.427 0-17.067-5.12-35.84zM192 256.853q5.12-4.267 7.253-10.667t2.133-17.493q0-19.627-7.68-32.427-9.387-9.387-22.187-9.387h-58.88v80.213h56.32q8.533 0 11.093-1.707 9.387 0 11.947-8.533z" />
<glyph unicode="&#x4b;" glyph-name="uni4B" d="M977.92 525.653q0 88.747 0-494.933 0-92.16-63.147-154.88t-155.307-62.72h-493.227q-90.453 0-153.6 62.72t-63.147 154.88v494.933q0 88.747 63.147 152.747t153.6 64h493.227q92.16 0 155.307-64t63.147-152.747zM121.173 30.72q0-60.587 41.813-102.827t103.253-42.24h493.227q63.147 0 104.533 42.24t41.387 102.827v494.933q0 60.587-41.387 102.827t-104.533 42.24h-493.227q-61.44 0-103.253-42.24t-41.813-102.827v-494.933zM621.227 121.173q29.013 29.867-232.107 130.56 6.827 18.773 6.827 27.733t-6.827 27.733l232.107 132.267q29.013-30.72 68.267-30.72t66.987 28.16 27.733 65.707q0 43.52-27.733 71.68t-66.987 28.16-67.84-28.16-28.587-71.68q0-16.213 2.56-25.6l-225.28-130.56q-29.867 27.307-71.68 27.307-40.107 0-67.84-27.733t-27.733-65.707 27.733-67.413 67.84-29.44q41.813 0 71.68 29.867l225.28-131.413q-2.56-8.533-2.56-25.6 0-42.667 28.587-70.4t67.84-27.733 66.987 27.733 27.733 70.4q0 39.253-27.733 66.987t-66.987 27.733-68.267-29.867z" />
<glyph unicode="&#x4c;" glyph-name="uni4C" d="M809.813 104.107q62.293 0 105.387-44.8t43.093-105.813-43.093-102.827-103.68-41.813-103.68 41.813-43.093 103.253q0 18.773 4.267 43.52l-349.867 204.8q-40.96-51.2-104.96-51.2-61.44 0-105.387 44.8t-43.947 105.387 43.947 104.96 105.387 44.373q64 0 104.96-49.493l349.867 203.947q-4.267 25.6-4.267 44.373 0 60.587 43.093 102.827t103.68 42.24 103.68-42.24 43.093-102.827-43.093-105.387-103.68-44.8-107.52 45.227l-349.867-201.387q6.827-29.013 6.827-41.387t-6.827-43.093l349.867-203.947q42.667 49.493 105.813 49.493z" />
<glyph unicode="&#x4d;" glyph-name="uni4D" d="M512.853 418.133q-23.893 0-44.8-8.96t-36.693-24.747-25.173-37.12-9.387-45.227 9.387-44.8 25.173-36.267 36.693-24.32 44.8-8.96 44.8 8.96 36.267 24.32 24.32 36.267 8.96 44.8-8.96 45.227-24.32 37.12-36.267 24.747-44.8 8.96zM956.587 136.533q-15.36 0-27.307-11.52t-11.947-28.587v-113.493l-140.8 141.653q-11.093 11.093-27.307 11.093t-26.453-11.093q-11.947-11.947-11.947-28.16t11.947-27.307l139.947-140.8h-114.347q-16.213 0-28.16-11.52t-11.947-26.88q0-17.067 11.947-27.733t28.16-10.667h245.76v244.907q0 17.067-10.667 28.587t-26.88 11.52zM956.587 469.333q-15.36 0-27.307 11.52t-11.947 27.733v115.2l-140.8-141.653q-11.093-11.093-27.307-11.093t-26.453 11.093q-11.947 11.947-11.947 27.733t11.947 26.027l139.947 140.8h-114.347q-16.213 0-28.16 11.947t-11.947 28.16q0 15.36 11.947 26.453t28.16 11.093h245.76v-245.76q0-16.213-10.667-27.733t-26.88-11.52zM69.12 136.533q16.213 0 27.733-11.52t11.52-28.587v-113.493l139.947 141.653q11.947 11.093 27.733 11.093t26.88-11.093q11.947-11.947 11.947-28.16t-11.947-27.307l-140.8-140.8h116.053q15.36 0 26.453-11.52t11.093-26.88q0-17.067-11.093-27.733t-26.453-10.667h-248.32v244.907q0 17.067 11.52 28.587t27.733 11.52zM69.12 469.333q16.213 0 27.733 11.52t11.52 27.733v115.2l139.947-141.653q11.947-11.093 27.733-11.093t26.88 11.093q11.947 11.947 11.947 27.733t-11.947 26.027l-140.8 140.8h116.053q15.36 0 26.453 11.947t11.093 28.16q0 15.36-11.093 26.453t-26.453 11.093h-248.32v-245.76q0-16.213 11.52-27.733t27.733-11.52z" />
<glyph unicode="&#x4e;" glyph-name="uni4E" d="M976.213 468.48l-413.867-430.933-546.987 275.627 413.013 430.080 547.84-274.773zM585.387-175.787l-563.2 286.72 79.36 71.68 464.213-231.253 345.6 363.52 97.28-53.76-423.253-436.907z" />
<glyph unicode="&#x4f;" glyph-name="uni4F" d="M924.16 696.32l81.92-86.187-907.947-847.36-81.067 86.187 907.093 847.36z" />
<glyph unicode="&#x50;" glyph-name="uni50" d="M778.24 559.787q108.373-110.933 108.373-266.667t-109.653-265.387-265.813-109.653-265.387 109.653-109.227 265.387 109.227 266.24 265.387 110.507 267.093-110.080zM540.16 3.413q104.107 11.093 177.493 84.053t82.773 177.92h-147.627v55.467h147.627q-9.387 105.813-82.773 179.627t-177.493 82.347v-149.333h-56.32v149.333q-104.96-8.533-178.347-82.347t-81.92-179.627h147.627v-55.467h-147.627q8.533-104.96 81.92-177.92t178.347-84.053v151.040h56.32v-151.040zM864.427 645.973q145.92-147.627 145.92-351.573t-146.773-352-351.573-148.053-352 148.053-147.2 352 147.2 351.573 352 147.627 352.427-147.627zM823.467-17.92q128.853 128.853 128.853 311.467t-128.427 311.893-311.467 129.28-312.32-129.28-129.28-311.893 129.28-311.040 312.32-128.427 311.040 128z" />
<glyph unicode="&#x51;" glyph-name="uni51" d="M861.867-53.76q-148.48-147.627-352-147.627t-349.44 146.347-145.92 350.72 145.92 351.147 349.44 146.773 351.147-146.773 147.627-351.147-146.773-349.44zM803.84 588.8q-120.32 122.027-292.267 122.027t-293.973-121.173-122.027-293.547 122.027-293.973 293.973-121.6 293.12 121.6 121.173 293.973-122.027 292.693zM759.467 46.933q-104.107-103.253-248.747-103.253t-248.747 103.68-104.107 247.893 104.107 248.32 248.747 104.107 249.173-104.107 104.533-248.32-104.96-248.32zM720.213 505.173q-85.333 86.187-209.067 86.187t-210.347-85.333-86.613-210.347 86.613-209.92 210.347-84.907 209.493 84.907 85.76 209.92-86.187 209.493zM663.893 302.080q7.68 0-146.773 0v147.627q0 6.827-7.253 6.827t-7.253-6.827v-147.627h-145.92q-8.533 0-8.533-6.827t8.533-6.827h145.92v-146.773q0-5.973 7.253-5.973t7.253 5.973v146.773h146.773q7.68 0 7.68 6.827t-7.68 6.827z" />
<glyph unicode="&#x52;" glyph-name="uni52" d="M961.707 552.96q18.773 0-901.973 0-18.773 0-31.573 13.227t-12.8 32 12.8 31.147 31.573 12.373h901.973q18.773 0 32.853-12.373t14.080-31.147-14.080-32-32.853-13.227zM961.707 244.907q18.773 0-901.973 0-18.773 0-31.573 13.227t-12.8 32.853 12.8 32.853 31.573 13.227h901.973q18.773 0 32.853-13.227t14.080-32.853-14.080-32.853-32.853-13.227zM961.707-59.733q18.773 0-901.973 0-18.773 0-31.573 12.8t-12.8 30.293 12.8 32 31.573 14.507h901.973q18.773 0 32.853-14.507t14.080-32-14.080-30.293-32.853-12.8z" />
<glyph unicode="&#x53;" glyph-name="uni53" d="M949.76 558.080q18.773 0-913.067 0-18.773 0-33.28 13.653t-14.507 32.427 14.507 31.573 33.28 12.8h913.067q18.773 0 32-12.8t13.227-31.573-13.227-32.427-32-13.653zM502.613 245.76h-465.92q-18.773 0-33.28 13.653t-14.507 33.28q0 16.213 12.8 30.72t23.893 14.507h506.027q-9.671-30.72-29.013-92.16zM553.813-63.147h-517.12q-18.773 0-33.28 13.227t-14.507 31.573 14.507 32.427 33.28 14.080h474.453q14.222-30.436 42.667-91.307zM1033.387 200.533q-5.12 11.947-16.213 11.947-38.4 0-52.053 33.28-13.653 34.987 13.653 63.147 7.68 5.973 2.56 16.213-23.040 30.72-41.813 41.813-6.827 8.533-18.773-3.413-23.040-29.867-59.733-13.653-38.4 20.48-32.427 55.467 0 13.653-14.507 13.653-26.453 1.707-53.76 0-15.36 0-15.36-13.653 6.827-38.4-30.72-53.76-35.84-13.653-63.147 15.36-5.973 8.533-16.213 3.413-23.893-22.187-40.96-42.667-9.387-6.827 0-18.773 29.867-28.16 17.067-58.88-21.333-37.547-56.32-37.547-12.8 0-12.8-9.387-5.973-29.867 0-56.32 0-11.947 12.8-11.947 39.253 0 53.76-35.84 11.093-33.28-14.507-62.293-9.387-6.827 0-15.36 17.067-23.040 37.547-40.96 7.68-9.387 19.627 0 23.893 30.72 58.88 14.507 34.987-14.507 34.987-54.613-6.827-13.653 11.947-13.653h54.613q14.507 0 14.507 13.653 0 34.987 32.427 54.613 33.28 11.093 62.293-14.507 11.947-9.387 18.773-2.56 23.893 17.067 39.253 39.253 10.24 12.8 0 17.92-32.427 28.16-13.653 64 13.653 32.427 50.347 32.427h1.707q11.093 0 16.213 15.36v26.453q2.56 27.307 0 27.307zM787.627 90.453q-35.84 0-58.453 23.893t-22.613 58.88 22.613 58.453 58.453 23.467q33.28 0 57.6-23.467t24.32-58.453-24.32-58.88-57.6-23.893z" />
<glyph unicode="&#x54;" glyph-name="uni54" d="M866.987 680.96q144.213-147.627 144.213-355.413t-145.493-353.28-352.853-145.493-353.707 145.493-146.347 353.28 146.347 353.707 353.707 145.92 354.133-144.213zM551.253-58.027q138.24 12.8 235.52 109.653t110.933 238.507h-195.413v71.68h195.413q-13.653 140.8-110.933 238.507t-235.52 109.653v-197.973h-74.24v197.973q-139.947-11.947-238.080-109.653t-110.080-238.507h197.12v-71.68h-197.12q11.947-141.653 110.080-238.507t238.080-109.653v197.973h74.24v-197.973z" />
<glyph unicode="&#x55;" glyph-name="uni55" d="M970.24-123.733q36.693-34.987 0-63.147-8.533-14.507-29.013-14.507-21.333 0-33.28 14.507l-396.8 393.387-397.653-393.387q-11.947-14.507-33.28-14.507-20.48 0-29.867 14.507-34.133 28.16 0 63.147l392.533 395.947-392.533 398.507q-34.133 33.28 0 63.147 29.867 35.84 63.147 0l397.653-393.387 396.8 393.387q33.28 35.84 62.293 0 36.693-29.867 0-63.147l-393.387-398.507 393.387-395.947z" />
<glyph unicode="&#x56;" glyph-name="uni56" d="M590.507-177.493h-205.653v496.64h-104.107v170.667h104.107v100.693q0 224.427 223.573 224.427h134.827v-171.52h-87.893q-29.013 0-43.52-8.96t-17.92-20.907-3.413-38.4v-85.333h152.747l-17.92-170.667h-134.827v-496.64z" />
<glyph unicode="&#x57;" glyph-name="uni57" d="M1032.533 636.587q-30.72-50.347-105.813-110.080v-23.040q0-232.107-166.4-418.987t-438.613-186.88q-172.373 0-329.387 91.307h54.613q146.773 0 262.827 89.6-67.413 1.707-122.88 43.52t-74.24 104.96q10.24-2.56 36.693-2.56 40.96 0 56.32 6.827-69.12 13.653-118.613 70.827t-49.493 134.827v5.12q48.64-24.747 93.867-24.747-91.307 56.32-91.307 173.227 0 61.44 27.307 107.52 171.52-209.92 436.907-220.16-6.827 28.16-6.827 48.64 0 88.747 63.147 149.333t152.747 60.587q93.013 0 154.453-67.413 73.387 18.773 137.387 54.613-29.867-81.92-98.133-117.76 46.080 3.413 125.44 30.72z" />
<glyph unicode="&#x58;" glyph-name="uni58" d="M529.067 193.707l-69.12-260.267-444.587-134.827 217.6 218.453q54.613-35.84 104.96 11.093 26.453 28.16 26.453 61.44t-27.307 59.733-59.733 26.453-61.44-27.307q-46.080-49.493-9.387-103.253l-218.453-219.307 134.827 445.44 258.56 69.973q49.209-49.209 147.627-147.627zM1036.8 649.387l-387.413-386.56-82.773-23.893-139.093 137.387 24.747 86.187 387.413 386.56 197.12-199.68z" />
<glyph unicode="&#x59;" glyph-name="uni59" d="M132.267 147.627q96.427 0 149.76-67.413t58.453-106.24 5.12-67.84l-14.507 29.867q-11.947 32.427-65.707 62.72t-133.12 30.293v-108.373l-174.080 160.427 174.080 154.453v-87.893zM1016.32 630.613v-680.107h-581.12v116.053h467.627v451.413h-723.627v-197.973h-113.493v310.613h950.613z" />
<glyph unicode="&#x5a;" glyph-name="uni5A" d="M876.373-49.493v107.52q-76.8 0-130.987-35.413t-66.56-54.613-13.227-33.707l5.973 58.88q5.12 60.587 58.453 120.32t146.347 64v87.040l173.227-157.013q-57.742-52.338-173.227-157.013zM137.387 64.853h462.507v-110.080h-574.293v674.987h942.933v-308.907h-112.64v194.56h-718.507v-450.56z" />
<glyph unicode="&#x5b;" glyph-name="uni5B" d="M702.293 431.787l-133.12-233.813-234.667-136.533 133.973 237.227 233.813 133.12zM547.84 221.013q29.867 24.747 0 56.32-26.453 23.893-56.32 0-31.573-31.573 0-56.32 29.867-31.573 56.32 0zM580.267 732.16q178.347-26.453 300.373-163.413t122.027-320.427q0-203.947-144.213-346.88t-345.173-142.933-345.6 142.933-144.64 346.88q0 183.467 122.027 320.427t300.373 163.413q-17.067 23.040-17.067 51.2 0 34.133 24.32 59.733t61.013 25.6 61.867-25.6 25.173-59.733q0-25.6-20.48-51.2zM512.853 817.493q-33.28 0-33.28-34.133 0-35.84 33.28-35.84 37.547 0 37.547 35.84 0 34.133-37.547 34.133zM126.293 248.32q0-160.427 114.347-274.347t273.067-113.92 273.493 113.92 114.773 274.347q0 157.867-114.773 273.067t-273.493 115.2-273.067-115.2-114.347-273.067z" />
<glyph unicode="&#x5c;" glyph-name="uni5C" d="M256 44.373l329.387 179.2 179.2 331.093-330.24-179.2-178.347-331.093zM321.707 110.933l124.587 222.72 98.133-100.693-222.72-122.027zM510.293 615.253q14.507 0 14.507 13.653v31.573q0 14.507-14.507 14.507-13.653 0-13.653-14.507v-31.573q0-13.653 13.653-13.653zM510.293-17.92q-13.653 0-13.653-14.507v-31.573q0-5.973 3.84-10.24t9.813-4.267q6.827 0 10.667 4.267t3.84 10.24v31.573q0 14.507-14.507 14.507zM870.4 312.32q5.12 0-31.573 0-14.507 0-14.507-13.653 0-14.507 14.507-14.507h31.573q5.12 0 9.813 3.84t4.693 10.667q0 5.973-4.693 9.813t-9.813 3.84zM181.76 312.32q5.973 0-31.573 0-5.973 0-10.24-3.84t-4.267-9.813q0-6.827 4.267-10.667t10.24-3.84h31.573q5.973 0 10.24 3.84t4.267 10.667q0 5.973-4.267 9.813t-10.24 3.84zM510.293-194.56q-102.4 0-192 38.827t-157.013 106.24-106.24 157.013-38.827 192 38.827 192 106.24 157.013 157.013 106.24 192 38.827q101.547 0 191.573-38.827t157.44-106.24 106.667-157.013 39.253-192-39.253-192-106.667-157.013-157.44-106.24-191.573-38.827zM510.293 702.293q-83.627 0-156.587-31.573t-128-86.613-86.613-128.427-31.573-156.16q0-83.627 31.573-156.587t86.613-128 128-86.613 156.587-31.573q82.773 0 156.16 31.573t128.427 86.613 86.613 128 31.573 156.587q0 82.773-31.573 156.16t-86.613 128.427-128.427 86.613-156.16 31.573z" />
<glyph unicode="&#x5d;" glyph-name="uni5D" d="M333.653 484.693l696.32 339.627-339.627-697.173-356.693 357.547zM333.653 484.693l-339.627-697.173 696.32 339.627-356.693 357.547zM348.16 399.36l256.853-257.707-502.613-244.907 245.76 502.613z" />
<glyph unicode="&#x5e;" glyph-name="uni5E" d="M231.253-188.587h-187.733v133.973h187.733v-133.973zM419.84-54.613h-188.587v133.12h188.587v-133.12zM606.72-188.587h-186.88v133.973h186.88v-133.973zM794.453-54.613h-187.733v133.12h187.733v-133.12zM981.333-188.587h-186.88v133.973h186.88v-133.973zM231.253 78.507h-187.733v133.973h187.733v-133.973zM419.84 212.48h-188.587v134.827h188.587v-134.827zM606.72 78.507h-186.88v133.973h186.88v-133.973zM794.453 212.48h-187.733v134.827h187.733v-134.827zM981.333 78.507h-186.88v133.973h186.88v-133.973zM231.253 347.307h-187.733v133.973h187.733v-133.973zM419.84 481.28h-188.587v133.12h188.587v-133.12zM606.72 347.307h-186.88v133.973h186.88v-133.973zM794.453 481.28h-187.733v133.12h187.733v-133.12zM981.333 347.307h-186.88v133.973h186.88v-133.973zM231.253 614.4h-187.733v133.973h187.733v-133.973zM606.72 614.4h-186.88v133.973h186.88v-133.973zM981.333 614.4h-186.88v133.973h186.88v-133.973z" />
<glyph unicode="&#x5f;" glyph-name="uni5F" d="M915.627 473.6q-64 64-40.96-40.96l-110.080 110.933q-8.533 6.827-19.2 6.827t-17.493-6.827q-7.68-8.533-7.68-19.2t7.68-17.493l110.933-110.933-41.813-40.96-57.173 57.173q-6.827 6.827-17.493 6.827t-19.2-6.827q-6.827-8.533-6.827-19.2t6.827-17.493l57.173-57.173-41.813-41.813-110.080 111.787q-7.68 6.827-18.347 6.827t-18.347-6.827q-6.827-8.533-6.827-19.2t6.827-17.493l110.933-111.787-40.96-40.107-57.173 57.173q-6.827 6.827-17.92 6.827t-18.773-6.827q-6.827-8.533-6.827-19.2t6.827-17.493l57.173-57.173-41.813-41.813-110.080 110.933q-7.68 7.68-18.773 7.68t-17.92-7.68-6.827-18.347 6.827-18.347l110.933-110.933-40.96-40.107-57.173 56.32q-7.68 7.68-18.347 7.68t-18.347-7.68-7.68-18.347 7.68-18.347l57.173-56.32-41.813-41.813-110.080 110.933q-8.533 6.827-18.773 6.827t-17.92-6.827q-7.68-7.68-7.68-18.347t7.68-18.347l110.933-110.933-41.813-40.96-56.32 57.173q-7.68 6.827-18.347 6.827t-18.347-6.827q-7.68-7.68-7.68-18.773t7.68-17.92l56.32-57.173-46.933-46.933-206.507 206.507 753.493 752.64 206.507-206.507-47.787-46.933-56.32 57.173q-8.533 6.827-18.773 6.827t-17.92-6.827q-7.68-7.68-7.68-18.773t64-75.093z" />
<glyph unicode="&#x60;" glyph-name="uni60" d="M308.053-190.293h-272.213v957.44h272.213v-128.853h-55.467q-9.387 0-15.787-6.4t-6.4-15.787 6.4-15.36 15.787-5.973h55.467v-92.16h-97.28q-9.387 0-15.787-6.827t-6.4-16.213 6.4-15.36 15.787-5.973h97.28v-79.36h-55.467q-9.387 0-15.787-5.973t-6.4-15.36 6.4-15.787 15.787-6.4l55.467-0.853v-75.947h-55.467q-9.387 0-15.787-5.973t-6.4-15.36 6.4-15.787 15.787-6.4h55.467v-93.013h-55.467q-9.387 0-15.787-6.4t-6.4-15.787 6.4-15.36 15.787-5.973h55.467v-93.013h-97.28q-9.387 0-15.787-6.4t-6.4-15.787 6.4-15.36 15.787-5.973h97.28v-132.267zM882.347 494.933v56.32q0 8.533-6.827 14.933t-16.213 6.4q-8.533 0-14.933-6.4t-6.4-14.933v-56.32h-102.4v96.427q0 9.387-6.4 16.213t-15.787 6.827-15.787-6.827-6.4-16.213v-96.427h-81.92v56.32q0 8.533-6.4 14.933t-15.787 6.4-15.787-6.4-6.4-14.933v-56.32h-82.773v56.32q0 8.533-6.4 14.933t-15.787 6.4-15.787-6.4-6.4-14.933v-56.32h-82.773v272.213h638.293v-272.213h-110.933z" />
<glyph unicode="&#x61;" glyph-name="uni61" d="M0.853-185.173l-5.12 1035.093 121.173-121.173-36.693-35.84q-6.827-5.973-6.827-17.92 0-11.093 6.827-17.067 6.827-7.68 17.067-7.68t18.773 7.68l35.84 35.84 51.2-49.493-38.4-37.547q-5.973-7.68-5.973-17.92 0-7.68 5.973-17.92 8.533-6.827 18.773-6.827t17.067 6.827l37.547 38.4 50.347-51.2-36.693-36.693q-7.68-7.68-7.68-17.92 0-9.387 7.68-17.92 6.827-7.68 17.067-7.68t17.92 7.68l36.693 37.547 50.347-50.347-69.973-70.827q-4.267-3.413-5.973-8.107t-1.707-8.96q0-10.24 7.68-17.92 6.827-7.68 17.493-7.68t17.493 7.68l71.68 70.827 48.64-50.347-36.693-37.547q-7.68-9.387-7.68-17.067 0-8.533 7.68-17.92 7.68-7.68 17.92-7.68t17.067 7.68l37.547 37.547 50.347-51.2-36.693-36.693q-4.267-4.267-5.973-8.533t-1.707-8.533q0-13.653 7.68-17.92 6.827-7.68 17.067-7.68t17.92 7.68l37.547 35.84 50.347-49.493-37.547-37.547q-7.68-9.387-7.68-17.067 0-10.24 7.68-17.92 7.68-6.827 17.92-6.827t17.067 6.827l37.547 36.693 51.2-50.347-70.827-69.973q-7.68-6.827-7.68-17.92t7.68-17.067q6.827-7.68 17.067-7.68t17.92 7.68l70.827 69.973 50.347-51.2-37.547-36.693q-4.267-2.56-5.547-7.68t-1.28-10.24q0-10.24 6.827-17.067 7.68-6.827 18.347-6.827t17.493 6.827l36.693 36.693 51.2-49.493-36.693-37.547q-7.68-6.827-7.68-17.92 0-10.24 7.68-17.92 6.827-6.827 16.64-6.827t18.347 6.827l35.84 37.547 109.227-108.373h-1031.68zM558.933 7.68l-388.267 388.267 1.707-388.267h386.56z" />
<glyph unicode="&#x62;" glyph-name="uni62" horiz-adv-x="1014" d="M367.787 726.187q40.96 0 40.96-37.973t-40.96-37.973h-194.56l222.72-221.013q24.747-29.013-1.707-55.040t-53.76-2.133l-222.72 222.72v-194.56q0-40.96-37.547-40.96t-37.547 40.96v325.973h325.12zM651.093 650.24q-36.693 0-36.693 37.973t36.693 37.973h326.827v-325.973q0-40.96-37.547-40.96t-37.547 40.96v194.56l-221.867-222.72q-29.867-20.48-55.467 0-25.6 28.16 0 57.173l220.16 221.013h-194.56zM367.787-133.12q40.96 0 40.96-38.4t-40.96-38.4h-325.12v326.827q0 36.693 37.547 36.693t37.547-36.693v-194.56l222.72 221.867q27.307 23.893 55.467 0 12.8-14.507 12.8-27.307 0-16.213-12.8-29.867l-222.72-220.16h194.56zM902.827 116.907q0 36.693 37.547 36.693t37.547-36.693v-326.827h-326.827q-36.693 0-36.693 38.4t36.693 38.4h194.56l-220.16 220.16q-25.6 29.867 0 57.173 25.6 21.333 55.467 0l221.867-221.867v194.56z" />
<glyph unicode="&#x63;" glyph-name="uni63" d="M966.827 46.933q-66.56-68.267 48.64-49.493l-216.747-217.6-299.52 300.373-110.933-108.373-432.64-221.013 227.84 441.173 102.4 102.4-312.32 311.467 217.6 216.747 85.333-86.187-60.587-59.733q-6.827-8.533-6.827-19.2t6.827-18.347q8.533-8.533 19.627-8.533 4.267 0 10.24 2.133t10.24 6.4l57.173 59.733 44.373-43.52-116.053-116.053q-6.827-7.68-6.827-18.773t6.827-18.773q2.56-4.267 8.533-6.4t11.093-2.133q4.267 0 10.24 2.133t10.24 6.4l114.347 115.2 42.667-44.373-58.88-58.88q-7.68-7.68-7.68-18.347t7.68-19.2q3.413-4.267 8.533-5.973t10.24-1.707q4.267 0 9.813 1.707t9.813 5.973l58.88 59.733 24.747-25.6 317.44 318.293 214.187-215.040-318.293-315.733 50.347-50.347-59.733-58.88q-9.387-9.387-9.387-20.053t9.387-19.2q6.827-6.827 18.773-6.827t18.773 6.827l59.733 60.587 43.52-43.52-116.053-116.907q-9.387-6.827-9.387-17.92t9.387-18.773q5.973-9.387 19.627-9.387 9.387 0 17.92 9.387l116.907 115.2 42.667-43.52-58.88-59.733q-8.533-7.68-8.533-18.773t8.533-18.773q7.68-8.533 18.773-8.533 12.8 0 79.36 68.267zM362.667 41.813q-3.413 9.387-8.96 18.773t-14.080 16.64-19.627 10.667-26.453 1.707q2.56 15.36 0 26.453t-8.96 19.627-15.787 14.080-18.773 8.96l-11.093-12.8-93.867-180.053q4.267-1.707 8.107-5.12t5.547-6.827q7.68-5.12 12.8-14.507l180.907 92.16q3.413 3.413 10.24 10.24zM892.587 687.787q-552.96-536.747-55.467 53.76l-549.547-546.133q17.067-5.12 27.733-14.507t17.493-18.773q6.827-11.093 559.787 525.653z" />
<glyph unicode="&#x64;" glyph-name="uni64" d="M188.587 523.093q0 65.707 40.107 122.88 36.693 63.147 113.493 105.813 81.92 42.667 178.347 42.667 92.16 0 164.693-35.84 73.387-39.253 110.933-96.427 39.253-60.587 39.253-127.147 0-54.613-22.187-96.427-17.067-35.84-54.613-72.533-28.16-24.747-109.227-100.693-26.453-24.747-33.28-36.693-18.773-18.773-22.187-27.307-8.533-19.627-8.533-23.893-5.12-9.387-9.387-44.373-18.773-69.12-79.36-69.12-32.427 0-59.733 23.040-17.92 18.773-17.92 64.853 0 49.493 16.213 95.573 12.8 33.28 45.227 69.973 41.813 42.667 70.827 69.973t61.44 55.467q21.333 12.8 32.427 40.96 9.387 19.627 9.387 51.2 0 51.2-36.693 85.333-37.547 34.987-97.28 34.987-74.24 0-105.813-34.987-34.987-34.133-56.32-108.373-23.040-69.12-85.333-69.12-35.84 0-59.733 26.453-24.747 22.187-24.747 53.76zM504.32-187.733q-42.667 0-69.12 26.453-29.013 30.72-29.013 69.973 0 42.667 29.013 69.973 29.013 29.867 69.12 29.867 36.693 0 66.56-30.293t29.867-69.547-28.16-69.973q-26.453-26.453-68.267-26.453z" />
<glyph unicode="&#x65;" glyph-name="uni65" d="M98.133 330.24q-4.267-53.76 5.12-106.667l-87.040-15.36q-11.093 62.293 81.92 122.027zM154.453 507.733q-12.8-23.893-23.467-47.787t-18.347-50.347l-85.333 23.893q9.387 31.573 21.76 61.867t105.387 12.373zM124.587 146.773q21.333-52.053 52.053-93.867l-72.533-51.2q-19.627 24.747-34.56 53.76t55.040 91.307zM283.307 642.56q-44.373-29.013-81.067-69.973l-65.707 58.88q41.813 48.64 146.773 11.093zM230.4-6.827q18.773-18.773 40.533-34.56t45.653-27.733l-41.813-79.36q-29.867 16.213-55.893 35.413t11.52 106.24zM902.827 439.467q-4.267 9.387-8.107 18.347t-8.107 18.347q19.627 12.8 36.267 30.293t27.733 39.68q11.093-18.773 19.627-37.547t-67.413-69.12zM749.227-46.080q21.333 16.213 41.387 33.707t37.973 38.827l66.56-58.027q-20.48-24.747-44.373-46.507t-101.547 32zM874.667 92.16q12.8 23.893 22.613 48.213t17.493 50.773l85.333-23.040q-8.533-31.573-20.053-61.867t-105.387-14.080zM457.387 708.267q-27.307-3.413-52.907-10.667t-50.347-17.493l-34.133 81.92q29.867 12.8 61.44 21.333t75.947-75.093zM1011.2 375.467q10.24-64 2.56-129.707l-87.893 9.387q5.973 52.907 85.333 120.32zM390.827-99.84q24.747-8.533 51.2-12.8t53.76-5.973l-3.413-88.747-30.72 2.56q-24.747 2.56-49.067 7.253t-21.76 97.707zM668.16 770.56q-34.133-29.013-51.2-70.827-19.627 4.267-39.68 7.253t-39.68 3.84l4.267 89.6q32.427-2.56 64.427-8.533t61.867-21.333zM576-113.493q27.307 4.267 52.48 11.093t49.92 18.773l35.84-81.92q-59.733-26.453-138.24 52.053zM910.507 605.867q-5.12-24.747-19.627-44.8t-34.56-33.28-43.947-18.347-49.493 0q-7.68 1.707-14.933 3.84t-14.080 5.547l-145.067-175.787q6.827-13.653 9.813-29.44t-0.427-32q-3.413-17.92-13.653-32t-24.32-23.040-30.72-12.373-34.56 0-32.427 13.653-23.467 24.32-12.8 31.147 0.427 34.987q3.413 17.92 13.653 32t24.32 23.467 31.147 12.373 34.987-0.427q4.267-1.707 6.827-2.133t6.827-2.133l144.213 175.787q-15.36 21.333-22.187 47.36t-0.853 53.333q5.12 24.747 19.627 44.8t34.56 33.28 44.373 17.92 49.067-0.427q25.6-5.12 46.080-19.627t33.28-34.56 17.92-43.947 0-49.493z" />
<glyph unicode="&#x66;" glyph-name="uni66" d="M456.533 34.987h110.933v-89.6h-110.933v89.6zM302.933-11.947q0 22.187-6.827 46.933h76.8v-89.6h-75.093q1.707 10.24 3.413 20.907t1.707 21.76zM727.040 34.987q-5.12-23.040-5.12-46.933 0-11.093 0.853-21.76t3.413-20.907h-75.093v89.6h75.947zM950.613 166.4q-11.093 2.56-22.613 4.267t-21.76 1.707q-11.947 0-23.467-1.707t-21.76-4.267v67.413h89.6v-67.413zM861.013 418.987h89.6v-106.667h-89.6v106.667zM861.013 567.467q10.24-2.56 21.76-4.267t23.467-1.707q10.24 0 21.76 1.707t22.613 4.267v-69.973h-89.6v69.973zM667.307 452.267l-90.453-86.187-61.44 64.853 89.6 86.187 62.293-64.853zM673.28 581.12l74.24 71.68q11.947-19.627 27.733-36.267t35.413-28.587l-75.947-70.827q-20.48 21.333-61.44 64zM509.44 300.373l-90.453-86.187-61.44 64 89.6 87.040 62.293-64.853zM278.187 80.213q-11.947 19.627-27.733 36.267t-35.413 27.733l74.24 69.973 60.587-64q-23.893-23.324-71.68-69.973zM1030.827 745.813q0-25.6-9.813-48.64t-26.88-39.68-39.68-26.453-48.213-9.813q-26.453 0-49.067 9.813t-39.253 26.453-26.453 39.68-9.813 48.64 9.813 48.64 26.453 39.68 39.253 26.453 49.067 9.813q25.6 0 48.213-9.813t39.68-26.453 26.88-39.68 9.813-48.64zM781.653-11.947q0 25.6 9.813 48.64t26.453 39.68 39.253 26.453 49.067 9.813q25.6 0 48.213-9.813t39.68-26.453 26.88-39.68 9.813-48.64-9.813-48.64-26.88-40.107-39.68-26.88-48.213-9.813q-26.453 0-49.067 9.813t-39.253 26.88-26.453 40.107-9.813 48.64zM117.76 112.64q26.453 0 49.493-9.813t39.68-26.453 26.453-39.68 9.813-48.64-9.813-48.64-26.453-40.107-39.68-26.88-49.493-9.813q-25.6 0-48.64 9.813t-39.68 26.88-26.453 40.107-9.813 48.64 9.813 48.64 26.453 39.68 39.68 26.453 48.64 9.813z" />
<glyph unicode="&#x67;" glyph-name="uni67" d="M1053.867 717.653q0-23.040-7.68-43.947t-21.333-37.547-32-28.587-39.68-17.067l-74.24-541.867q29.867-17.067 48.213-46.933t18.347-67.413q0-27.307-10.24-50.773t-27.733-41.387-40.96-28.16-50.773-10.24-50.773 10.24-40.96 28.16-27.733 41.387-10.24 50.773q0 35.84 18.773 66.56l-359.253 458.24q-8.533-2.56-17.493-4.693t-18.347-2.133l-125.44-349.013q21.333-17.92 34.133-43.947t12.8-55.893q0-27.307-10.24-51.2t-27.733-41.813-40.96-28.16-50.773-10.24-50.773 10.24-40.96 28.16-27.733 41.813-10.24 51.2q0 25.6 9.813 48.64t26.453 40.533 39.253 27.733 48.213 11.947l128 352.427q-21.333 17.92-33.707 43.093t-12.373 55.040q0 26.453 10.24 50.347t27.733 41.813 41.387 28.16 51.2 10.24q26.453 0 50.347-10.24t41.387-28.16 27.733-41.813 10.24-50.347q0-17.92-5.12-34.987t-13.653-31.573l358.4-457.387q4.267 0 9.387 1.707l74.24 543.573q-29.867 16.213-48.213 46.080t-18.347 67.413q0 26.453 10.24 49.92t27.733 41.387 40.96 28.16 50.773 10.24 50.773-10.24 40.96-28.16 27.733-41.387 10.24-49.92z" />
<glyph unicode="&#x68;" glyph-name="uni68" d="M947.2 543.573q31.573-54.613 48.213-116.053t16.64-128.853q0-103.253-39.253-194.133t-106.667-158.72-158.293-107.093-194.133-39.253-194.56 39.253-159.147 107.093-107.093 158.72-39.253 194.133 39.253 194.133 107.093 158.72 159.147 107.093 194.56 39.253q66.56 0 128-17.067t116.053-46.933q23.893 17.92 52.907 26.027t58.88 1.28q28.16-5.973 49.92-21.76t35.84-37.547 19.627-48.213-0.427-53.76q-2.56-16.213-9.813-30.293t-17.493-26.027zM513.707-103.253q82.773 0 156.16 31.573t128 85.76 86.187 127.573 31.573 157.013q0 53.76-13.227 103.253t-37.973 93.013q-25.6-4.267-49.493 0.853-11.947 1.707-22.187 6.4t-20.48 10.667l-174.080-174.080q6.827-13.653 9.387-29.013t-0.853-30.72q-4.267-19.627-14.933-35.413t-26.027-26.027-34.133-14.080-37.547 0.427q-19.627 4.267-34.987 14.933t-25.6 26.027-14.080 34.133-0.427 38.4q4.267 19.627 15.36 34.987t26.453 25.173 33.707 13.227 37.12 0q6.827-1.707 11.52-2.987t10.667-2.987l173.227 174.080q-25.6 39.253-17.92 91.307-43.52 23.893-92.587 37.12t-102.827 13.227q-83.627 0-157.013-31.573t-128.427-85.76-86.613-127.573-31.573-157.013 31.573-157.013 86.613-127.573 128.427-85.76 157.013-31.573z" />
<glyph unicode="&#x69;" glyph-name="uni69" d="M1031.68 750.933q0-40.96-22.187-72.533t-58.027-45.227v-525.653q35.84-12.8 58.027-44.373t22.187-72.533q0-25.6-9.813-48.213t-26.453-40.107-39.68-27.307-48.64-9.813q-40.96 0-72.96 23.467t-44.8 59.307h-553.813q-12.8-35.84-44.373-59.307t-72.533-23.467q-26.453 0-49.067 9.813t-39.68 27.307-26.88 40.107-9.813 48.213q0 26.453 9.813 49.493t26.88 40.107 39.68 26.88 49.067 9.813q14.507 0 27.307-3.413t24.747-8.533l622.080 593.067q-5.12 11.947-8.107 25.173t-2.987 27.733q0 25.6 9.813 48.213t26.88 39.68 39.68 26.88 49.067 9.813q25.6 0 48.64-9.813t39.68-26.88 26.453-39.68 9.813-48.213zM791.040 37.547q9.387 24.747 27.733 43.093t43.093 26.88v525.653q-1.707 0.853-2.987 0.853t-2.987 1.707l-622.080-593.92q0-1.707 0.427-2.56t0.427-1.707h556.373z" />
<glyph unicode="&#x6a;" glyph-name="uni6A" d="M820.053 24.747q-167.253-65.707-262.827-173.227v651.093l262.827 180.907v-658.773zM272.213 638.293q33.28-22.187 98.56-68.267t99.413-67.413v-651.093q-51.2 59.733-142.507 112.64-55.467 36.693-122.027 60.587v658.773q22.187-15.076 66.56-45.227zM890.88 295.253v343.040h2.56q5.973 2.56 19.2 7.68t16.64 7.68h7.68v-703.147q-17.067-5.12-216.747-71.68l13.653 15.36q64 40.107 142.507 74.24 14.507 2.56 14.507 17.92v308.907zM134.827-13.653q0-15.36 13.653-17.92 80.213-34.133 137.387-73.387-87.040 39.253-194.56 55.467v703.147q29.867-12.8 43.52-15.36v-651.947zM989.013 570.88h29.013v-708.267q-103.253 16.213-207.36-24.747v1.707q5.973 5.973 29.867 23.040 29.013 18.773 87.040 31.573 11.093 0.853 31.573 2.56t29.867 1.707v672.427zM34.987-101.547q65.707-7.68 69.973-7.68 55.467-9.387 94.72-35.84l15.36-15.36q-106.667 39.253-207.36 23.040v708.267h27.307v-672.427z" />
<glyph unicode="&#x6b;" glyph-name="uni6B" d="M205.653 422.4q38.4-24.747 86.187-31.573l-25.6-67.413-83.627 29.867q7.68 23.040 23.040 69.12zM209.92 166.4q-18.773 11.947-40.107 20.053t-45.227 9.813l28.16 77.653 85.333-29.867q-9.387-25.884-28.16-77.653zM438.613 344.747l-49.493 61.44q21.333 10.24 39.68 24.747t32 33.28l48.64-63.147q-23.609-18.773-70.827-56.32zM634.027 244.053l-72.533-58.027-69.973 89.6 71.68 58.027 70.827-89.6zM736.427 113.493q-20.48-11.093-39.253-25.6t-33.28-32.427l-48.64 62.293 71.68 56.32q16.498-20.196 49.493-60.587zM849.92 536.747q17.067-5.973 34.987-9.813t36.693-3.84h9.813q28.587 0 10.667 0.853l-11.093-65.707-88.747 11.093q2.56 22.471 7.68 67.413zM905.387 266.24l-89.6 12.8 13.653 109.227 91.307-11.947-15.36-110.080zM884.907 116.053q-17.067 6.827-34.133 10.24t-35.84 3.413h-10.667q-29.44 0-10.667-0.853l10.24 69.12 91.307-14.507q-3.413-22.471-10.24-67.413zM312.32 708.267q26.453 0 49.92-10.24t40.96-27.307 27.733-40.96 10.24-50.347q0-25.6-10.24-48.64t-27.733-40.533-40.96-27.733-49.92-10.24q-27.307 0-50.347 10.24t-40.533 27.733-27.307 40.533-9.813 48.64q0 26.453 9.813 50.347t27.307 40.96 40.533 27.307 50.347 10.24zM1047.893 713.387q0-26.453-9.813-49.493t-26.88-40.533-40.107-27.307-49.493-9.813q-27.307 0-50.773 9.813t-40.533 27.307-27.307 40.533-10.24 49.493 10.24 49.92 27.307 40.96 40.533 27.307 50.773 9.813q26.453 0 49.493-9.813t40.107-27.307 26.88-40.96 9.813-49.92zM684.373-60.587q0 26.453 10.24 49.92t27.733 40.96 41.387 27.733 51.2 10.24q26.453 0 49.493-10.24t40.533-27.733 27.307-40.96 9.813-49.92-9.813-49.92-27.307-40.533-40.533-27.307-49.493-10.24q-27.307 0-51.2 10.24t-41.387 27.307-27.733 40.533-10.24 49.92zM107.52 133.973q27.307 0 50.773-9.813t40.96-27.307 27.307-40.96 9.813-50.773q0-26.453-9.813-49.493t-27.307-40.533-40.96-27.307-50.773-9.813q-26.453 0-49.92 9.813t-40.96 27.307-27.733 40.533-10.24 49.493q0 27.307 10.24 50.773t27.733 40.96 40.96 27.307 49.92 9.813z" />
<glyph unicode="&#x6c;" glyph-name="uni6C" d="M1089.707 168.96v-211.627h-1149.44v211.627h81.92q0 181.76 122.027 326.827l57.173-56.32q14.507-9.387 23.893-9.387 14.507 0 22.187 9.387 21.333 20.48 0 46.933l-55.467 55.467q131.413 110.080 290.987 119.467v-89.6q0-32.427 32.853-32.427t32.853 32.427v89.6q156.16-9.387 285.867-119.467l-57.173-55.467q-18.773-26.453 0-46.933 11.093-9.387 26.027-9.387t22.613 9.387l58.027 56.32q128-141.653 128-326.827h77.653zM808.107 168.96q0 122.027-86.613 208.213t-206.507 86.187-206.933-86.187-87.040-208.213h248.32q7.68 42.667 46.080 42.667t45.227-42.667h247.467z" />
<glyph unicode="&#x6d;" glyph-name="uni6D" d="M994.133-187.733q46.080 0-962.56 0-47.787 0-47.787 44.373 0 51.2 47.787 51.2h962.56q46.080 0 46.080-51.2 0-44.373-46.080-44.373zM105.813 329.387q-77.653 67.413-4.267 139.093l410.453 459.093 413.867-459.093q24.747-27.307 24.747-68.267 0-52.053-29.867-70.827-74.24-72.533-139.947 4.267l-149.333 167.253v-523.947h-234.667v523.947l-149.333-167.253q-65.707-76.8-141.653-4.267z" />
<glyph unicode="&#x6e;" glyph-name="uni6E" d="M994.987-187.733q46.080 0-962.56 0-47.787 0-47.787 44.373 0 51.2 47.787 51.2h962.56q46.080 0 46.080-51.2 0-44.373-46.080-44.373zM929.28 566.613q77.653-67.413 4.267-139.093l-410.453-459.093-413.867 459.093q-24.747 27.307-24.747 68.267 0 52.053 29.867 70.827 74.24 72.533 139.947-4.267l149.333-167.253v523.947h234.667v-523.947l149.333 167.253q65.707 76.8 141.653 4.267z" />
<glyph unicode="&#x70;" glyph-name="uni70" d="M315.733 309.76q0 19.627 17.067 30.72 11.947 11.947 29.867 11.52t31.573-14.933l116.053-128.853 118.613 128.853q12.8 14.507 30.72 14.933t31.573-11.52q14.507-12.8 15.36-30.72t-12.8-30.72l-183.467-202.24-180.907 202.24q-13.653 12.8-13.653 30.72z" />
<glyph unicode="&#x71;" glyph-name="uni71" horiz-adv-x="1014" d="M936.96 64.853q23.893-5.12 43.52-18.773t32.427-33.28 17.493-43.093-0.427-48.213-18.773-43.947-33.28-32-43.093-17.067-47.36 0.853q-24.747 5.12-44.373 18.773t-32.427 32.853-17.493 42.667 0.427 48.213q1.707 4.267 2.987 8.96t2.987 8.96l-577.707 221.013q-7.68-20.48-21.333-36.693t-32-26.453-39.68-13.653-43.52 0.853q-24.747 5.12-43.947 18.773t-32 33.28-17.92 42.667 0 47.787 19.2 44.373 33.28 32 42.667 17.493 48.213 0q20.48-4.267 37.12-14.933t30.293-25.173l308.053 263.68q-17.067 20.48-24.747 47.36t-1.707 55.893q5.12 23.893 19.2 43.52t33.28 32.427 42.667 17.067 48.213-0.853q23.893-5.12 43.52-18.773t32.427-32.853 17.493-42.667-0.427-47.36q-5.973-29.867-25.173-52.48t-45.653-33.707l215.040-505.173q33.28 15.36 72.533 7.68z" />
<glyph unicode="&#x72;" glyph-name="uni72" d="M855.893-212.48q25.6 0 48.64 9.813t40.107 26.88 26.88 39.68 9.813 49.067q0 25.6-9.813 48.213t-26.88 39.253-40.107 26.453-48.64 9.813-48.213-9.813-39.68-26.453-26.88-39.253-9.813-48.213q0-26.453 9.813-49.067t26.88-39.68 39.68-26.88 48.213-9.813zM69.12 424.96l-27.307 296.107 293.547-46.080-266.24-250.027zM411.307 417.28l-64-64-131.413 131.413 64.853 64.853 130.56-132.267zM583.68 246.613l-64.853-64.853-131.413 130.56 64.853 65.707 131.413-131.413zM756.907 73.387l-64.853-64.853-131.413 131.413 65.707 64 130.56-130.56z" />
<glyph unicode="&#x73;" glyph-name="uni73" d="M663.893 448l-43.52 104.96q-21.333-2.56-41.813 0.853-9.387 1.707-17.067 5.547l-16.213 8.107-51.2-40.96-44.373 52.907 46.933 37.547q-9.387 17.92-12.373 37.973t1.28 42.24q5.12 23.893 18.773 43.52t32.853 32.427 43.093 17.493 48.64-0.427q23.893-5.12 43.52-18.773t32.427-33.28 17.067-43.093-0.853-47.36q-3.413-20.48-13.227-36.693t-24.32-29.013l44.373-107.52q-21.333-8.818-64-26.453zM817.493 257.707l-64-26.453-68.267 165.547 64 27.307 68.267-166.4zM407.893 545.28l42.667-53.76-139.093-112.64-44.373 54.613 140.8 111.787zM266.24 343.893l-46.933-38.4q18.773-36.693 10.24-77.653-5.12-24.747-18.773-44.373t-33.28-32-43.093-17.493-47.36 0q-24.747 5.12-44.373 18.773t-32.427 33.28-17.493 42.667 0.427 47.787 19.2 44.373 33.28 32.427 42.667 17.493 48.213-0.427q17.92-3.413 34.987-14.507l51.2 40.96q14.507-17.636 43.52-52.907zM938.667 64.853q23.893-5.12 43.52-19.2t32.427-33.707 17.067-43.093-0.853-47.36q-5.12-24.747-18.773-44.373t-32.853-32.427-43.093-17.067-47.787 0.853q-24.747 5.12-43.947 18.773t-32 33.28-17.493 42.667 0.427 47.787q4.267 19.627 14.080 36.267t24.32 29.44l-58.027 141.653 64 26.453 57.173-139.093q21.333 2.56 41.813-0.853z" />
<glyph unicode="&#x74;" glyph-name="uni74" d="M586.24 313.173q31.573-30.72 31.573-73.813t-31.573-74.667-74.24-31.573-73.813 31.573-31.147 74.667 31.147 74.667 73.813 31.573 74.24-32.427z" />
<glyph unicode="&#x75;" glyph-name="uni75" d="M994.987-171.52l-966.827 288.427 389.973 605.867 499.2-214.187 77.653-680.107zM463.36 575.147l-250.88-389.12 644.267-192-49.493 432.64-343.893 148.48z" />
<glyph unicode="&#x76;" glyph-name="uni76" d="M512.853 433.493q-29.013 0-54.613-10.667t-44.8-29.867-30.293-44.8-11.093-54.613 11.093-54.613 30.293-44.8 44.8-30.293 54.613-11.093 54.613 11.093 44.8 30.293 30.293 44.8 11.093 54.613-11.093 54.613-30.293 44.8-44.8 29.867-54.613 10.667zM511.147-176.64q-96.427 0-181.76 37.12t-148.907 101.12-100.693 149.333-37.12 182.613 37.12 182.613 100.693 149.333 148.907 100.693 181.76 36.693q97.28 0 183.040-36.693t149.333-100.693 100.693-149.333 37.12-182.613-37.12-182.613-100.693-149.333-149.333-101.12-183.040-37.12zM511.147 719.36q-87.893 0-165.12-33.28t-135.253-91.307-91.733-135.68-33.707-165.547q0-88.747 33.707-166.4t91.733-135.253 135.253-91.307 165.12-33.707q58.88 0 113.493 15.36t101.973 43.093 86.187 66.56 66.56 86.187 43.093 101.973 15.36 113.493q0 87.893-33.707 165.547t-91.307 135.68-135.68 91.307-165.973 33.28z" />
<glyph unicode="&#x77;" glyph-name="uni77" d="M794.453 543.573q31.573-54.613 48.213-116.053t16.64-128.853q0-103.253-39.253-194.133t-106.667-158.72-158.293-107.093-194.133-39.253-194.56 39.253-159.147 107.093-107.093 158.72-39.253 194.133 39.253 194.133 107.093 158.72 159.147 107.093 194.56 39.253q66.56 0 128-17.067t116.053-46.933q23.893 17.92 52.907 26.027t58.88 1.28q28.16-5.973 49.92-21.76t35.84-37.547 19.627-48.213-0.427-53.76q-2.56-16.213-9.813-30.293t-17.493-26.027zM360.96-103.253q82.773 0 156.16 31.573t128 85.76 86.187 127.573 31.573 157.013q0 53.76-13.227 103.253t-37.973 93.013q-25.6-4.267-49.493 0.853-11.947 1.707-22.187 6.4t-20.48 10.667l-174.080-174.080q6.827-13.653 9.387-29.013t-0.853-30.72q-4.267-19.627-14.933-35.413t-26.027-26.027-34.133-14.080-37.547 0.427q-19.627 4.267-34.987 14.933t-25.6 26.027-14.080 34.133-0.427 38.4q4.267 19.627 15.36 34.987t26.453 25.173 33.707 13.227 37.12 0q6.827-1.707 11.52-2.987t10.667-2.987l173.227 174.080q-25.6 39.253-17.92 91.307-43.52 23.893-92.587 37.12t-102.827 13.227q-83.627 0-157.013-31.573t-128.427-85.76-86.613-127.573-31.573-157.013 31.573-157.013 86.613-127.573 128.427-85.76 157.013-31.573zM1211.733 610.133q23.040 0 23.040-24.747 0-25.6-23.040-25.6h-95.573v-93.867q0-23.893-23.893-23.893t-23.893 23.893v93.867h-94.72q-24.747 0-24.747 25.6 0 24.747 24.747 24.747h94.72v93.867q0 23.893 23.893 23.893t23.893-23.893v-93.867h95.573z" />
<glyph unicode="&#x78;" glyph-name="uni78" d="M872.96 750.933q0-40.96-22.187-72.533t-58.027-45.227v-525.653q35.84-12.8 58.027-44.373t22.187-72.533q0-25.6-9.813-48.213t-26.453-40.107-39.68-27.307-48.64-9.813q-40.96 0-72.96 23.467t-44.8 59.307h-553.813q-12.8-35.84-44.373-59.307t-72.533-23.467q-26.453 0-49.067 9.813t-39.68 27.307-26.88 40.107-9.813 48.213q0 26.453 9.813 49.493t26.88 40.107 39.68 26.88 49.067 9.813q14.507 0 27.307-3.413t24.747-8.533l622.080 593.067q-5.12 11.947-8.107 25.173t-2.987 27.733q0 25.6 9.813 48.213t26.88 39.68 39.68 26.88 49.067 9.813q25.6 0 48.64-9.813t39.68-26.88 26.453-39.68 9.813-48.213zM632.32 37.547q9.387 24.747 27.733 43.093t43.093 26.88v525.653q-1.707 0.853-2.987 0.853t-2.987 1.707l-622.080-593.92q0-1.707 0.427-2.56t0.427-1.707h556.373zM1218.56 610.133q23.040 0 23.040-24.747 0-25.6-23.040-25.6h-95.573v-93.867q0-23.893-23.893-23.893t-23.893 23.893v93.867h-94.72q-24.747 0-24.747 25.6 0 24.747 24.747 24.747h94.72v93.867q0 23.893 23.893 23.893t23.893-23.893v-93.867h95.573z" />
<glyph unicode="&#x79;" glyph-name="uni79" d="M896.853 717.653q0-23.040-7.68-43.947t-21.333-37.547-32-28.587-39.68-17.067l-74.24-541.867q29.867-17.067 48.213-46.933t18.347-67.413q0-27.307-10.24-50.773t-27.733-41.387-40.96-28.16-50.773-10.24-50.773 10.24-40.96 28.16-27.733 41.387-10.24 50.773q0 35.84 18.773 66.56l-359.253 458.24q-8.533-2.56-17.493-4.693t-18.347-2.133l-125.44-349.013q21.333-17.92 34.133-43.947t12.8-55.893q0-27.307-10.24-51.2t-27.733-41.813-40.96-28.16-50.773-10.24-50.773 10.24-40.96 28.16-27.733 41.813-10.24 51.2q0 25.6 9.813 48.64t26.453 40.533 39.253 27.733 48.213 11.947l128 352.427q-21.333 17.92-33.707 43.093t-12.373 55.040q0 26.453 10.24 50.347t27.733 41.813 41.387 28.16 51.2 10.24q26.453 0 50.347-10.24t41.387-28.16 27.733-41.813 10.24-50.347q0-17.92-5.12-34.987t-13.653-31.573l358.4-457.387q4.267 0 9.387 1.707l74.24 543.573q-29.867 16.213-48.213 46.080t-18.347 67.413q0 26.453 10.24 49.92t27.733 41.387 40.96 28.16 50.773 10.24 50.773-10.24 40.96-28.16 27.733-41.387 10.24-49.92zM1238.187 627.2q23.040 0 23.040-24.747 0-25.6-23.040-25.6h-95.573v-93.867q0-23.893-23.893-23.893t-23.893 23.893v93.867h-94.72q-24.747 0-24.747 25.6 0 24.747 24.747 24.747h94.72v93.867q0 23.893 23.893 23.893t23.893-23.893v-93.867h95.573z" />
<glyph unicode="&#x7a;" glyph-name="uni7A" d="M360.96 433.493q-29.013 0-54.613-10.667t-44.8-29.867-30.293-44.8-11.093-54.613 11.093-54.613 30.293-44.8 44.8-30.293 54.613-11.093 54.613 11.093 44.8 30.293 30.293 44.8 11.093 54.613-11.093 54.613-30.293 44.8-44.8 29.867-54.613 10.667zM359.253-176.64q-96.427 0-181.76 37.12t-148.907 101.12-100.693 149.333-37.12 182.613 37.12 182.613 100.693 149.333 148.907 100.693 181.76 36.693q97.28 0 183.040-36.693t149.333-100.693 100.693-149.333 37.12-182.613-37.12-182.613-100.693-149.333-149.333-101.12-183.040-37.12zM359.253 719.36q-87.893 0-165.12-33.28t-135.253-91.307-91.733-135.68-33.707-165.547q0-88.747 33.707-166.4t91.733-135.253 135.253-91.307 165.12-33.707q58.88 0 113.493 15.36t101.973 43.093 86.187 66.56 66.56 86.187 43.093 101.973 15.36 113.493q0 87.893-33.707 165.547t-91.307 135.68-135.68 91.307-165.973 33.28zM1161.387 627.2q23.040 0-95.573 0v93.867q0 23.893-23.893 23.893t-23.893-23.893v-93.867h-94.72q-24.747 0-24.747-24.747 0-25.6 24.747-25.6h94.72v-93.867q0-23.893 23.893-23.893t23.893 23.893v93.867h95.573q23.040 0 23.040 25.6 0 24.747-23.040 24.747z" />
<glyph unicode="&#x7b;" glyph-name="uni7B" d="M512.853 437.76q-29.013 0-55.040-11.093t-45.227-30.72-30.72-45.653-11.52-55.040q0-29.867 11.52-55.893t30.72-45.227 45.227-30.293 55.040-11.093 55.040 11.093 45.653 30.293 30.72 45.227 11.093 55.893q0 29.013-11.093 55.040t-30.72 45.653-45.653 30.72-55.040 11.093zM445.44-174.933q-34.133 5.12-66.56 14.080t-64 23.467l18.773 40.107q27.307-13.653 57.173-22.187t54.613-55.467zM580.267-174.933q33.28 5.12-6.827 42.667 31.573 5.12 60.587 13.227t58.027 21.76l17.067-39.253q-29.867-14.507-62.72-23.893t-66.133-14.507zM201.387-64.853q-51.2 44.373-87.893 102.4l35.84 23.893q34.133-53.76 52.053-126.293zM822.613-64q52.907 45.227-28.16 32.427 47.787 41.813 80.213 93.867l37.547-23.040q-36.693-58.027-89.6-103.253zM56.32 160.427q-18.773 64-18.773 133.973h42.667q0-31.573 4.693-61.867t-28.587-72.107zM968.533 161.28q18.773 64-41.813 11.947 7.68 29.867 12.373 60.16t4.693 61.867l43.52 1.707v-1.707q0-69.973-18.773-133.973zM98.133 415.573q17.067 60.587-42.667 12.8 10.24 32.427 24.32 63.573t31.147 59.307l37.547-23.893q-33.28-51.2-50.347-111.787zM925.867 418.133q-17.92 60.587-52.053 110.933l36.693 23.893q37.547-57.173 15.36-134.827zM228.693 620.373q23.040 20.48-28.16 32.427 24.747 23.040 53.333 41.387t59.307 32.853l18.773-40.107q-27.307-13.653-53.76-29.867t-49.493-36.693zM793.6 622.080q-23.893 19.627-49.493 36.693t-53.76 29.867l17.92 39.253q63.147-28.16 85.333-105.813zM449.707 721.92q15.36 1.707-5.973 42.667 17.067 3.413 33.707 4.693t33.707 1.28h0.853q34.133 0 66.56-5.12l-6.827-43.52-29.013 3.413q-3.413-45.227-31.573 1.707-14.507 0-30.293-1.707t-31.147-3.413z" />
<glyph unicode="&#x7c;" glyph-name="uni7C" d="M984.747 754.347v-941.227h-941.227v941.227h941.227zM104.107-126.293h137.387q0 38.4 4.267 96.427t20.053 125.013 45.653 137.813 81.067 134.827q35.84 46.080 81.493 78.933t95.147 55.467 100.267 35.84 97.707 20.053 87.467 8.96 69.547 2.133v124.587h-820.053v-820.053zM357.547-126.293v308.053q-17.92-45.227-29.013-89.6t-16.64-84.48-7.68-74.667-2.133-59.307h55.467zM471.040-126.293v491.52q-8.533-9.387-16.213-17.067t-14.507-17.067q-5.973-8.533-11.52-16.213t-10.667-15.36v-425.813h52.907zM584.533-126.293v568.32q-13.653-6.827-26.453-13.653t-25.6-16.213v-538.453h52.053zM698.027-126.293v608.427q-12.8-3.413-26.027-7.253t-26.88-8.107v-593.067h52.907zM812.373-126.293v628.053q-12.8-1.707-26.027-3.413t-27.733-3.413v-621.227h53.76zM924.16-126.293v634.88q-11.093 0-23.893-0.427t-27.307-0.427v-634.027h51.2z" />
<glyph unicode="&#x7d;" glyph-name="uni7D" d="M222.72 533.333q4.267 0 9.387 1.707t9.387 3.413l9.387-10.24q-11.947-8.533-28.16-8.533-24.747 0-41.813 17.067t-17.067 41.813 17.067 41.813 41.813 17.067q23.893 0 41.387-17.067t17.493-41.813q0-9.387-2.56-17.067t-6.827-14.507l-11.093 11.093q5.973 8.533 5.973 20.48 0 18.773-12.8 31.573t-31.573 12.8-32-12.8-13.227-31.573 13.227-32 32-13.227zM272.213 546.987q-8.533-11.947-21.333-18.773l-9.387 10.24q13.653 5.973 30.72 8.533zM222.72 622.933q18.773 0 31.573-12.8t12.8-31.573q0-11.947-5.973-20.48l-10.24 11.947q1.707 5.12 1.707 8.533 0 11.947-8.96 20.907t-20.907 8.96q-12.8 0-21.76-8.96t-8.96-20.907q0-12.8 8.96-21.76t21.76-8.96q1.707 0 3.413 0.427t4.267 1.28l11.093-11.093q-4.267-1.707-9.387-3.413t-9.387-1.707q-18.773 0-32 13.227t-13.227 32 13.227 31.573 32 12.8zM230.4 549.547q6.827 2.56 12.8 7.68t7.68 12.8l10.24-11.947q-5.973-13.653-30.72-8.533zM753.493 4.267q9.387 13.653 21.333 19.627l10.24-10.24q-13.653-5.973-31.573-9.387zM803.84-70.827q-18.773 0-31.573 12.8t-12.8 31.573q0 10.24 5.12 20.48l11.093-11.947q-1.707-5.12-1.707-8.533 0-12.8 8.533-21.333t21.333-8.533q11.947 0 20.907 8.533t8.96 21.333q0 11.947-8.96 20.907t-20.907 8.96q-1.707 0-3.84-0.427t-4.693-0.427l-10.24 11.093q4.267 1.707 8.533 2.987t10.24 1.28q17.92 0 30.72-13.227t12.8-31.147q0-18.773-12.8-31.573t-30.72-12.8zM803.84 17.92q-5.973 0-10.24-1.28t-8.533-2.987l-10.24 10.24q12.8 7.68 29.013 7.68 24.747 0 41.387-16.64t16.64-41.387q0-23.893-16.64-41.387t-41.387-17.493q-23.893 0-41.387 17.493t-17.493 41.387q0 16.213 8.533 30.72l11.093-10.24q-5.12-10.24-5.12-20.48 0-18.773 12.8-31.573t31.573-12.8q17.92 0 30.72 12.8t12.8 31.573q0 17.92-12.8 31.147t-30.72 13.227zM994.987 712.533q-1.707-9.387-7.68-34.987t-15.787-61.867-24.32-80.213-32.853-89.6-41.387-90.027-50.773-81.493-60.16-64-69.973-37.973q-28.16-7.68-52.907-6.827l135.68-141.653q-11.947-5.973-21.333-19.627l-163.84 170.667q-17.067 5.973-33.707 15.787t-33.707 22.613h-76.8v68.267q-17.92 12.8-32.853 18.773t-26.027 7.253-19.2-0.427-12.373-2.56q-36.693-11.093-70.827-52.907t-63.573-100.693-53.333-126.293-40.107-129.707q-4.267-17.067-7.68-33.28l-6.827-32.427q-3.413-14.507-15.36-24.32t-26.453-9.813q-5.973 0-8.533 0.853-17.067 4.267-27.307 18.773t-5.973 31.573q1.707 9.387 7.68 34.987t15.787 61.867 24.32 80.213 32.853 89.6 41.387 90.027 50.773 81.493 60.16 64 69.973 37.973q11.947 4.267 24.32 5.547t24.32 1.28l-129.707 134.827q12.8 6.827 21.333 18.773l155.307-161.28q18.773-5.973 37.12-15.787t37.12-24.32h76.8v-68.267q17.92-12.8 32.427-18.773t26.027-7.253 19.2 0 11.947 2.133q36.693 11.093 71.253 53.333t64 101.12 52.907 126.293 39.68 129.707q4.267 17.067 7.68 33.28t7.68 32.427q4.267 17.067 18.773 26.88t31.573 5.547q17.067-3.413 26.88-17.92t6.4-31.573zM549.547 317.44h-75.947v-75.947h75.947v75.947zM795.307 2.56q-16.213-5.973-19.627-20.48l-11.093 11.947q6.827 13.653 30.72 8.533z" />
<glyph unicode="&#xa5;" glyph-name="uniA5" d="M704 750.933q-21.333 0 213.333 0 8.533 0 10.667-4.267t-4.693-11.093l-310.613-310.613q-5.12-5.12-9.387-15.36h228.693q8.533 0 11.093-5.12t-2.56-11.947l-102.4-136.533q-5.12-6.827-15.36-11.947t-18.773-5.12h-106.667v-85.333h234.667q8.533 0 11.093-5.12t-2.56-11.947l-102.4-136.533q-5.12-6.827-15.36-11.947t-18.773-5.12h-106.667v-148.48q0-9.387-6.4-15.787t-15.787-6.4h-126.293q-9.387 0-15.787 6.4t-6.4 15.787v148.48h-234.667q-8.533 0-11.093 5.12t2.56 11.947l102.4 136.533q5.12 6.827 15.36 11.947t18.773 5.12h106.667v85.333h-234.667q-8.533 0-11.093 5.12t2.56 11.947l102.4 136.533q5.12 6.827 15.36 11.947t18.773 5.12h100.693q-4.267 10.24-9.387 15.36l-310.613 310.613q-6.827 6.827-4.693 11.093t10.667 4.267h213.333q21.333 0 36.693-15.36l139.947-139.947q6.827-6.827 15.36-6.827t15.36 6.827l139.947 139.947q15.36 15.36 36.693 15.36z" />
<glyph unicode="&#x20ac;" glyph-name="uni20AC" d="M607.573 834.56q206.507 0 302.080-161.28 51.2-88.747 56.32-178.347h-154.453q0 38.4-14.933 70.4t-37.12 52.48-49.493 34.56-51.627 20.48-43.947 6.4q-16.213 0-34.56-4.693t-42.24-17.493-45.227-32.427-41.813-53.333-33.28-76.373h323.413l-85.333-85.333h-256q-5.12-42.667-5.12-85.333h346.453l-85.333-85.333h-256q7.68-63.147 28.16-112.64t44.8-77.653 52.48-46.507 50.347-24.747 40.107-6.4q18.773 0 43.093 6.4t51.627 20.907 49.493 34.987 37.12 52.053 14.933 68.267h148.48q-25.6-145.92-109.227-237.227-91.307-99.84-233.813-99.84-175.787 0-276.48 134.827-30.72 40.96-58.88 113.493t-38.4 174.080h-185.173l85.333 85.333h95.573q0.853 40.107 5.12 85.333h-186.027l85.333 85.333h114.347q17.067 74.24 43.52 130.987t52.907 88.32q99.84 120.32 253.44 120.32z" />
<glyph unicode="&#x20bd;" glyph-name="uni20BD" d="M356.693 836.267q-8.533 0 298.667 0 57.173 0 102.4-11.093t73.387-26.453 48.64-42.24 29.867-48.213 14.507-55.040 5.547-51.627 0.427-48.64v-28.16q0-30.72-0.427-48.64t-5.547-52.053-14.507-55.467-29.867-48.64-48.64-43.093-73.387-26.88-102.4-11.093h-151.893l-1.707-85.333h245.76q8.533 0 11.093-5.12t-2.56-11.947l-102.4-136.533q-5.12-6.827-15.36-11.947t-18.773-5.12h-117.76v-149.333q0-9.387-4.693-15.36t-13.227-5.973h-127.147q-8.533 0-14.933 6.4t-6.4 14.933v149.333h-227.84q-8.533 0-11.093 5.12t2.56 11.947l102.4 136.533q5.12 6.827 15.36 11.947t18.773 5.12h99.84v85.333h-227.84q-8.533 0-11.093 5.12t2.56 11.947l102.4 136.533q5.12 6.827 15.36 11.947t18.773 5.12h99.84v405.333q0 8.533 6.4 14.933t14.933 6.4zM503.467 665.6v-256h173.227q54.613 0 73.813 28.16t19.2 101.547q0 71.68-19.2 98.987t-73.813 27.307h-173.227z" />
<glyph unicode="&#x2212;" glyph-name="uni2212" d="M908.8 214.187q32.427 0-792.747 0-30.72 0-54.187 22.187t-23.467 55.040 23.467 55.040 54.187 22.187h792.747q32.427 0 54.613-22.187t22.187-55.040-22.187-55.040-54.613-22.187z" />
<glyph unicode="&#x231b;" glyph-name="uni231B" d="M847.36 763.733q-7.68-117.76-64.427-244.053t-142.080-189.44q85.333-68.267 142.080-197.12t64.427-244.907h85.333v-75.093h-842.24v75.093h87.893q6.827 116.053 63.573 244.907t140.373 197.12q-83.627 63.147-140.373 189.44t-63.573 244.053h-87.893v70.827h842.24v-70.827h-85.333zM412.16 553.813l99.84-178.347 100.693 178.347h-200.533zM512 256l-186.88-289.28h375.467l-188.587 289.28z" />
<glyph unicode="&#x2601;" glyph-name="uni2601" d="M1026.56 220.16q27.307-103.253-34.133-192-43.52-61.44-123.733-76.8h-355.84q-330.24-2.56-330.24 0-128.853 0-183.467 114.347-29.013 60.587-15.787 126.293t61.013 109.227q31.573 29.013 90.453 43.52l11.947 4.267q-18.773 98.133 52.053 150.187 37.547 23.040 84.48 24.747t95.573-33.28q24.747 45.227 40.107 65.707 58.027 68.267 155.307 81.92 261.973 18.773 303.787-207.36 5.12-30.72 0-64-6.827-5.973 3.413-5.973 115.2-34.987 145.067-140.8z" />
<glyph unicode="&#x26fa;" glyph-name="uni26FA" d="M673.28 779.093q8.533 13.653-116.053-159.573l398.507-636.587h25.6q17.067 0 29.867-15.787t12.8-33.707v-35.84h-1024v35.84q0 17.92 12.8 33.707t29.867 15.787h25.6l399.36 636.587-115.2 156.16q-8.533 13.653-4.693 29.013t17.493 23.893 29.013 4.693 23.893-17.493l94.72-126.293 95.573 128q7.68 13.653 23.040 17.493t29.013-4.267 17.493-23.040-4.693-28.587zM512-17.067h321.707l-155.307 95.573-166.4 455.68v-551.253z" />
<glyph unicode="&#x2709;" glyph-name="uni2709" d="M727.040 245.76q-1.707-21.333 15.36-44.373l223.573-220.16h-907.093l221.867 215.893q30.72 30.72 9.387 63.147-11.947 17.92-35.413 20.48t-39.68-11.947l-223.573-218.453v534.187l486.4-402.773q26.453-29.013 64.853-4.267l489.813 399.36v-523.093l-221.013 215.040q-22.187 21.333-50.347 14.507-25.6-6.827-34.133-37.547zM508.587 278.187l-445.44 370.347h902.827l-457.387-370.347z" />
<glyph unicode="&#x270f;" glyph-name="uni270F" d="M1021.44 612.693l-552.107-549.547-473.6-241.493 248.32 482.987 542.72 542.72 234.667-234.667zM441.173 140.8q-4.267 10.24-10.667 20.053t-15.36 17.067-20.907 11.52-28.16 2.56q2.56 17.067-0.853 29.44t-10.667 21.76-17.067 15.36-20.053 10.24l-13.653-14.507-100.693-197.973q5.973-4.267 16.213-12.8 7.68-7.68 11.093-15.36l198.827 101.547q3.982 3.698 11.947 11.093zM867.84 692.907q-450.56-432.64-62.293 60.587l-445.44-445.44q17.92-5.973 29.867-15.787t18.773-20.053q8.533-11.947 459.093 420.693z" />
<glyph unicode="&#xe001;" glyph-name="uniE001" d="M597.333 366.933v-469.333h213.333q17.92 0 30.293-12.373t12.373-30.293v-42.667h-682.667v42.667q0 17.92 12.373 30.293t30.293 12.373h213.333v469.333l-426.667 469.333h1024q-142.222-156.444-426.667-469.333z" />
<glyph unicode="&#xe002;" glyph-name="uniE002" d="M358.4 680.107q-33.28-11.093 550.4 139.093 33.28 12.8 53.76 0t20.48-41.813v-709.12q0-46.933-35.413-81.493t-95.147-54.187q-67.413-21.333-125.44-3.84t-73.387 64 21.76 95.147 104.533 69.973q61.44 20.48 117.76 6.827v444.587l-512-132.267v-517.12q0-35.84-37.547-76.8t-93.013-58.88q-67.413-22.187-125.44-4.693t-73.387 64.427 21.76 95.147 104.533 70.4q61.44 20.48 117.76 5.973v545.28q0 32.427 12.373 50.347t45.653 29.013z" />
<glyph unicode="&#xe003;" glyph-name="uniE003" d="M361.813 68.267q-75.093 0-141.227 26.88t-116.48 79.787q-53.76 53.76-81.067 121.173t-27.307 137.813 27.307 136.96 81.067 119.467q50.347 52.907 116.48 81.493t141.227 28.587q72.533 0 138.667-28.587t119.040-81.493q53.76-52.907 80.64-119.467t26.88-136.96-26.88-137.813-80.64-121.173q-52.907-52.907-119.040-79.787t-138.667-26.88zM361.813 701.44q-56.32 0-104.107-20.907t-83.627-60.16q-40.107-38.4-60.16-87.467t-20.053-100.267 20.053-100.267 60.16-87.467q35.84-38.4 83.627-57.6t104.107-19.2q52.907 0 101.12 19.2t86.613 57.6 57.6 87.467 19.2 100.267-19.2 100.267-57.6 87.467q-38.4 39.253-86.613 60.16t-101.12 20.907zM1028.267-115.2l-250.027 249.173-81.067 34.133-70.827-69.973 34.133-81.067 249.173-250.88 118.613 118.613z" />
<glyph unicode="&#xe005;" glyph-name="uniE005" d="M512-119.467q-288.427 207.36-402.773 436.053-47.787 99.84-9.813 209.92t142.080 151.040q51.2 21.333 93.44 16.213t71.253-17.493 56.747-37.12 35.84-34.987 13.227-14.507l31.573 36.693q34.987 37.547 96 57.6t141.227-8.107q105.813-39.253 143.36-149.333t-11.093-209.92q-108.373-226.133-401.067-436.053z" />
<glyph unicode="&#xe006;" glyph-name="uniE006" d="M661.333 501.76l344.747-55.467-249.173-239.787 58.88-337.067-304.64 162.987-303.787-159.573 60.587 337.92-250.027 239.787 344.747 51.2 151.893 307.2 146.773-307.2z" />
<glyph unicode="&#xe007;" glyph-name="uniE007" d="M418.133 471.893l-16.213-29.867-32.427-3.413-210.773-31.573 152.747-150.187 21.333-24.747-5.12-30.72-36.693-213.333 192.853 98.987 26.453 17.067 29.867-17.067 192-98.987-34.987 213.333-7.68 30.72 23.893 24.747 153.6 150.187-212.48 31.573-31.573 3.413-17.067 28.16-95.573 195.413-92.16-193.707zM662.187 497.493l337.92-46.933-244.053-239.787 56.32-336.213-302.080 159.573-301.227-159.573 58.027 337.067-244.053 238.933 339.627 51.2 147.627 302.933 151.893-307.2z" />
<glyph unicode="&#xe008;" glyph-name="uniE008" d="M750.080 595.627q0-101.547-72.533-189.867t-165.973-88.32-165.547 88.32-72.107 189.867q0 98.133 70.827 168.107t167.253 69.973 167.253-69.973 70.827-168.107zM32.427-187.733q0 123.733 135.68 236.8t343.040 113.067 343.467-113.067 136.107-236.8h-958.293z" />
<glyph unicode="&#xe009;" glyph-name="uniE009" d="M21.333 750.933q-8.533 0 981.333 0 8.533 0 14.933-6.4t6.4-14.933v-896q0-8.533-6.4-14.933t-14.933-6.4h-981.333q-8.533 0-14.933 6.4t-6.4 14.933v896q0 8.533 6.4 14.933t14.933 6.4zM85.333 665.6v-85.333h85.333v85.333h-85.333zM746.667 665.6q8.533 0-469.333 0-8.533 0-14.933-6.4t-6.4-14.933v-298.667q0-8.533 6.4-14.933t14.933-6.4h469.333q8.533 0 14.933 6.4t6.4 14.933v298.667q0 8.533-6.4 14.933t-14.933 6.4zM853.333 665.6v-85.333h85.333v85.333h-85.333zM85.333 494.933v-85.333h85.333v85.333h-85.333zM853.333 494.933v-85.333h85.333v85.333h-85.333zM85.333 324.267v-85.333h85.333v85.333h-85.333zM853.333 324.267v-85.333h85.333v85.333h-85.333zM746.667 238.933q8.533 0-469.333 0-8.533 0-14.933-6.4t-6.4-14.933v-298.667q0-8.533 6.4-14.933t14.933-6.4h469.333q8.533 0 14.933 6.4t6.4 14.933v298.667q0 8.533-6.4 14.933t-14.933 6.4zM85.333 153.6v-85.333h85.333v85.333h-85.333zM853.333 153.6v-85.333h85.333v85.333h-85.333zM85.333-17.067v-85.333h85.333v85.333h-85.333zM853.333-17.067v-85.333h85.333v85.333h-85.333z" />
<glyph unicode="&#xe010;" glyph-name="uniE010" d="M40.96 744.107h436.053v-431.787h-436.053v431.787zM546.987 744.107h435.2v-431.787h-435.2v431.787zM40.96 245.76h436.053v-433.493h-436.053v433.493zM546.987 245.76h435.2v-433.493h-435.2v433.493z" />
<glyph unicode="&#xe011;" glyph-name="uniE011" d="M29.867 744.107h444.587v-252.587h-444.587v252.587zM549.547 744.107h444.587v-252.587h-444.587v252.587zM29.867 406.187h444.587v-252.587h-444.587v252.587zM549.547 406.187h444.587v-252.587h-444.587v252.587zM29.867 65.707h444.587v-249.173h-444.587v249.173zM549.547 65.707h444.587v-249.173h-444.587v249.173z" />
<glyph unicode="&#xe012;" glyph-name="uniE012" d="M35.84 701.44h97.28v-95.573h-97.28v95.573zM282.453 701.44h704.853v-95.573h-704.853v95.573zM35.84 447.147h97.28v-97.28h-97.28v97.28zM282.453 447.147h704.853v-97.28h-704.853v97.28zM35.84 191.147h97.28v-97.28h-97.28v97.28zM282.453 191.147h704.853v-97.28h-704.853v97.28zM35.84-65.707h97.28v-95.573h-97.28v95.573zM282.453-65.707h704.853v-95.573h-704.853v95.573z" />
<glyph unicode="&#xe013;" glyph-name="uniE013" d="M477.013-171.52q525.653 774.827-424.107 409.6-28.16 26.453-29.867 66.987t25.6 70.4q29.867 32.427 70.4 32.427t72.96-29.867l252.587-243.2 371.2 544.427q23.040 35.84 65.28 42.667t74.667-16.213 39.68-62.72-518.4-814.507z" />
<glyph unicode="&#xe014;" glyph-name="uniE014" d="M930.133 27.307q62.293-58.88 5.973-129.707-70.827-69.12-134.827-4.267l-289.28 262.827-288.427-269.653q-28.16-17.92-65.707-17.92t-69.12 29.013q-57.173 70.827 4.267 129.707l279.893 251.733-279.893 251.733q-61.44 58.88-4.267 128.853 69.12 69.12 134.827 5.973l288.427-262.827 289.28 269.653q27.307 18.773 64 18.773t70.827-31.573q56.32-69.973-5.973-128.853l-279.040-251.733q93.013-83.911 279.040-251.733z" />
<glyph unicode="&#xe015;" glyph-name="uniE015" d="M361.813 68.267q-75.093 0-141.227 27.307t-116.48 79.36q-53.76 52.053-81.067 119.040t-27.307 137.387 27.307 138.24 81.067 121.6q50.347 52.053 116.48 78.933t141.227 26.88q72.533 0 138.667-26.88t119.040-78.933q53.76-53.76 80.64-121.6t26.88-138.24-26.88-137.387-80.64-119.040q-52.907-52.053-119.040-79.36t-138.667-27.307zM361.813 698.027q-56.32 0-104.107-19.2t-83.627-58.453q-40.107-38.4-60.16-87.467t-20.053-100.267 20.053-99.84 60.16-87.040q35.84-39.253 83.627-58.453t104.107-19.2q52.907 0 101.12 19.2t86.613 58.453q38.4 38.4 57.6 87.040t19.2 99.84-19.2 100.267-57.6 87.467q-38.4 39.253-86.613 58.453t-101.12 19.2zM1028.267-118.613l-250.027 253.44-81.067 29.867-70.827-67.413 34.133-81.067 249.173-253.44 118.613 118.613zM512.853 407.040q11.093 0-290.987 0-11.947 0-18.773 7.253t-6.827 18.347q0 11.947 6.827 18.773t18.773 6.827h290.987q11.093 0 18.347-6.827t7.253-18.773q0-11.093-7.253-18.347t-18.347-7.253zM365.227 263.68q-11.093 0-18.347 6.827t-7.253 15.36v294.4q0 8.533 7.253 14.933t18.347 6.4 18.773-6.4 7.68-14.933v-294.4q0-8.533-7.68-15.36t-18.773-6.827z" />
<glyph unicode="&#xe016;" glyph-name="uniE016" d="M361.813 68.267q-75.093 0-141.227 26.88t-116.48 79.787q-53.76 53.76-81.067 121.173t-27.307 137.813 27.307 136.96 81.067 119.467q50.347 52.907 116.48 81.493t141.227 28.587q72.533 0 138.667-28.587t119.040-81.493q53.76-52.907 80.64-119.467t26.88-136.96-26.88-137.813-80.64-121.173q-52.907-52.907-119.040-79.787t-138.667-26.88zM361.813 701.44q-56.32 0-104.107-20.907t-83.627-60.16q-40.107-38.4-60.16-87.467t-20.053-100.267 20.053-100.267 60.16-87.467q35.84-38.4 83.627-57.6t104.107-19.2q52.907 0 101.12 19.2t86.613 57.6 57.6 87.467 19.2 100.267-19.2 100.267-57.6 87.467q-38.4 39.253-86.613 60.16t-101.12 20.907zM1028.267-115.2l-250.027 249.173-81.067 34.133-70.827-69.973 34.133-81.067 249.173-250.88 118.613 118.613zM512.853 407.040q11.093 0-290.987 0-11.947 0-18.773 7.253t-6.827 18.347q0 11.947 6.827 18.773t18.773 6.827h290.987q11.093 0 18.347-6.827t7.253-18.773q0-11.093-7.253-18.347t-18.347-7.253z" />
<glyph unicode="&#xe017;" glyph-name="uniE017" d="M39.253 273.067q0 128 64.427 238.933t174.507 170.667l50.347-93.013q-86.187-48.64-135.68-133.973t-49.493-182.613q0-156.16 108.373-262.827t261.12-106.667 261.12 106.667 108.373 262.827q0 97.28-49.493 182.613t-134.827 133.973l50.347 93.013q108.373-59.733 172.373-170.667t64-238.933q0-196.267-139.52-334.507t-333.227-138.24-333.227 138.24-139.52 334.507zM459.093 394.24q0-23.040 0 350.72 0 22.187 16.213 37.547t37.973 15.36 37.973-15.36 16.213-37.547v-350.72q0-23.040-16.213-36.693t-37.973-13.653-37.973 13.653-16.213 36.693z" />
<glyph unicode="&#xe018;" glyph-name="uniE018" d="M436.053-140.8q0-42.667-40.96-42.667h-52.053q-39.253 0-39.253 42.667v313.173q0 45.227 39.253 45.227h52.053q40.96 0 40.96-45.227v-313.173zM151.040-140.8q0-42.667-43.52-42.667h-48.64q-17.067 0-30.293 13.653t-13.227 29.013v207.36q0 17.92 13.227 30.293t30.293 12.373h48.64q43.52 0 43.52-42.667v-207.36zM722.773-140.8q0-42.667-40.96-42.667h-52.907q-38.4 0-38.4 42.667v532.48q0 41.813 38.4 41.813h52.907q40.96 0 40.96-41.813v-532.48zM872.107 767.147q0 43.52 45.227 43.52h48.64q17.067 0 29.867-13.653t12.8-29.867v-907.947q0-15.36-12.8-29.013t-29.867-13.653h-48.64q-45.227 0-45.227 42.667v907.947z" />
<glyph unicode="&#xe019;" glyph-name="uniE019" d="M1000.96 378.88q8.533-52.907 0-110.080 0-27.307-28.16-27.307l-5.12 3.413q-72.533 0-101.547-69.12-27.307-69.973 29.013-122.027 18.773-17.067 3.413-36.693-36.693-42.667-80.213-81.067-19.627-17.067-36.693 5.12-54.613 55.467-123.307 26.453t-68.693-104.96q0-25.6-23.893-25.6-38.4-6.827-53.76-6.827-16.213 0-57.173 6.827-24.747 0-24.747 29.013 5.973 75.093-65.707 104.96-75.093 30.72-123.733-29.867-17.067-15.36-37.547-2.56-45.227 44.373-76.8 81.067-17.067 22.187 3.413 36.693 53.76 52.907 24.747 122.88-29.867 72.533-98.133 65.707-33.28 0-33.28 25.6-8.533 55.467 0 112.64 0 24.747 29.013 24.747 77.653 0 105.813 67.413 29.867 69.973-24.747 122.88-23.893 15.36-6.827 36.693 52.053 57.173 80.213 80.213 20.48 16.213 37.547-6.827 53.76-52.907 122.88-24.32t69.12 104.533q0 26.453 22.187 26.453 53.76 8.533 110.933 0 25.6 0 25.6-29.013-5.12-77.653 66.56-106.667 75.093-30.72 122.88 29.013 17.92 16.213 36.693 4.267 45.227-44.373 77.653-81.067 17.067-23.893-3.413-36.693-53.76-52.907-25.6-122.88 23.893-65.707 101.547-65.707 29.867 0 29.867-27.307zM512 159.573q68.267 0 117.76 48.213t49.493 118.187q0 65.707-49.493 113.92t-117.76 48.213q-65.707 0-113.92-48.213t-48.213-113.92q0-69.973 48.213-118.187t113.92-48.213z" />
<glyph unicode="&#xe020;" glyph-name="uniE020" d="M860.16 713.387q37.547 0 37.547-37.973t-37.547-37.973h-698.88q-35.84 0-35.84 37.973t35.84 37.973h103.253v37.547q0 39.253 22.187 66.987t52.053 27.733h343.893q33.28 0 55.040-27.733t21.76-66.987v-37.547h100.693zM301.227 713.387h420.693v37.547q0 56.32-39.253 56.32h-343.893q-37.547 0-37.547-56.32v-37.547zM842.24 540.16l-96.427-716.8h-471.893l-94.72 716.8h663.040zM377.173-124.587q28.16 5.973 28.16 35.84l-58.88 549.547q-7.68 34.987-35.84 29.867-27.307 0-27.307-32.427l60.587-555.52q0-27.307 28.16-27.307h5.12zM542.72 460.8q0 29.867-31.573 29.867t-31.573-29.867v-553.813q0-31.573 31.573-31.573t31.573 31.573v553.813zM738.133 458.24q0 32.427-25.6 32.427-29.867 5.12-34.133-29.867l-59.733-549.547q0-29.867 27.307-35.84h1.707q32.427 0 90.453 582.827z" />
<glyph unicode="&#xe021;" glyph-name="uniE021" d="M952.32-184.32h-303.787v474.453h-273.92v-474.453h-302.933v637.44l439.467 388.267 441.173-388.267v-637.44z" />
<glyph unicode="&#xe022;" glyph-name="uniE022" d="M839.68 563.2q8.533-8.533 8.533-20.48v-576.853q0-37.547-22.613-64.853t-59.307-34.987q-5.12-1.707-10.667-2.133t-11.52-0.427h-477.013q-41.813 0-69.547 24.747t-34.56 65.707v746.667q0 35.84 23.040 64t58.027 34.987q5.973 1.707 11.52 1.707h330.667q9.387 0 18.773-6.827 58.88-58.88 117.333-116.053t117.333-115.2zM808.107 535.040q2.56 0 7.68-0.427t6.827-0.427l-237.227 232.107v-132.267q0-19.627 7.68-37.547t20.907-31.573 30.72-21.76 37.973-8.107q31.573-0.853 62.72-0.427t62.72 0.427z" />
<glyph unicode="&#xe023;" glyph-name="uniE023" d="M229.547 576.853q-117.76-117.76-117.76-282.027t119.040-282.027 282.453-117.76 281.6 117.76 118.187 282.027-118.187 281.6-281.6 117.333-283.733-116.907zM858.453 640q147.627-142.507 147.627-345.173t-145.493-348.587-348.16-145.92-348.587 145.92-145.92 348.587 145.92 348.587 348.587 145.92 346.027-149.333zM762.027 367.787q12.8-38.4-24.747-50.347l-211.627-73.387h-4.267q-6.827-4.267-16.213-4.267-34.987 0-34.987 34.987v337.067q0 35.84 35.84 35.84t35.84-35.84v-283.307l173.227 58.027q33.28 11.093 46.933-18.773z" />
<glyph unicode="&#xe024;" glyph-name="uniE024" d="M470.187-184.32h-537.6l111.787 935.253h425.813v-162.987h85.333v162.987h429.227l107.52-935.253h-536.747v231.253h-85.333v-231.253zM470.187 201.387h85.333v221.013h-85.333v-221.013z" />
<glyph unicode="&#xe025;" glyph-name="uniE025" d="M426.667 836.267q-17.92 0 170.667 0 17.92 0 30.293-12.373t12.373-30.293v-384h162.987q17.067 0 21.76-9.813t-6.4-23.467l-279.040-341.333q-11.093-13.653-27.307-13.653t-27.307 13.653l-279.040 341.333q-11.093 13.653-6.4 23.467t21.76 9.813h162.987v384q0 17.92 12.373 30.293t30.293 12.373zM917.333 153.6q-8.533 0 42.667 0 8.533 0 14.933-6.4t6.4-14.933v-298.667q0-8.533-6.4-14.933t-14.933-6.4h-896q-8.533 0-14.933 6.4t-6.4 14.933v298.667q0 8.533 6.4 14.933t14.933 6.4h42.667q8.533 0 14.933-6.4t6.4-14.933v-149.333h768v149.333q0 8.533 6.4 14.933t14.933 6.4z" />
<glyph unicode="&#xe026;" glyph-name="uniE026" d="M512 41.813q237.227 261.973-203.093 222.72-11.093 13.653-11.093 34.987 0 22.187 16.213 37.547 34.987 32.427 65.707-6.827l75.093-79.36v225.28h104.96v-237.227l83.627 91.307q33.28 39.253 64.853 6.827 40.96-33.28-196.267-295.253zM795.307 11.947q120.32 118.613 120.32 283.733t-119.467 283.733-283.307 118.613-283.307-118.613-119.467-283.733 119.467-283.733 283.307-118.613 282.453 118.613zM157.013-58.027q-144.213 149.333-144.213 353.28t148.053 351.147 351.147 147.2 350.72-147.2 147.627-351.147-147.627-350.72-350.72-146.773-354.987 144.213z" />
<glyph unicode="&#xe027;" glyph-name="uniE027" d="M511.147 548.693q-237.227-261.973 203.093-222.72 11.093-13.653 11.093-34.987 0-22.187-16.213-37.547-34.987-32.427-65.707 6.827l-75.093 79.36v-225.28h-104.96v237.227l-83.627-91.307q-33.28-39.253-64.853-6.827-40.96 33.28 196.267 295.253zM227.84 578.56q-120.32-118.613-120.32-283.733t119.467-283.733 283.307-118.613 283.307 118.613 119.467 283.733-119.467 283.733-283.307 118.613-282.453-118.613zM866.133 648.533q144.213-149.333 144.213-353.28t-148.053-351.147-351.147-147.2-350.72 147.2-147.627 351.147 147.627 350.72 350.72 146.773 354.987-144.213z" />
<glyph unicode="&#xe028;" glyph-name="uniE028" d="M1008.64 203.093v-279.040h-994.133v279.040l104.107 492.373h785.92l104.107-492.373zM741.547 278.187h174.933l-75.093 342.187h-660.48l-74.24-342.187h173.227v-144.213q0-29.013 19.2-46.933t46.507-17.92h331.947q29.013 0 46.507 17.92t17.493 46.933v144.213z" />
<glyph unicode="&#xe029;" glyph-name="uniE029" d="M231.253 578.56q-116.053-117.76-116.053-280.747t117.76-279.467 280.32-116.48 280.32 116.48 117.76 279.467-117.76 280.32-280.32 117.333-282.027-116.907zM856.747 642.56q146.773-144.213 146.773-345.173t-145.067-346.027-346.453-145.067-346.453 145.067-145.067 346.027 145.067 346.453 346.453 145.493 344.747-146.773zM414.72 464.213l288.427-166.4-288.427-167.253v333.653z" />
<glyph unicode="&#xe030;" glyph-name="uniE030" d="M507.733-103.253q133.12 0 238.933 79.787t141.653 207.787l96.427-29.867q-44.373-156.16-178.347-255.573t-298.667-99.413q-203.093 0-348.16 143.787t-145.067 348.16 145.067 348.587 348.16 144.213q243.2 0 393.387-191.147l14.507 115.2q5.973 49.493 49.493 43.52 17.067 0 34.987-20.48 9.387-11.093 9.387-31.573l-38.4-287.573-280.747 63.147q-21.333 1.707-31.573 18.773t-3.413 34.133q8.533 46.080 55.467 36.693l103.253-23.893q-120.32 146.773-306.347 146.773-162.987 0-277.76-116.48t-114.773-279.467 114.773-279.040 277.76-116.053z" />
<glyph unicode="&#xe031;" glyph-name="uniE031" d="M999.253 728.747q8.533-9.387 8.533-30.72l-34.987-285.867-279.893 63.147q-20.48 1.707-31.573 18.773t-4.267 34.133q9.387 45.227 57.173 35.84l101.547-23.893q-121.173 145.92-304.64 145.92-162.133 0-277.333-115.627t-115.2-276.907h-97.28q0 203.947 143.36 346.453t346.453 142.507q243.2 0 389.973-192.853l15.36 116.053q5.12 49.493 50.347 43.52 14.507 0 32.427-20.48zM1003.52 293.547q0-203.093-144.64-346.453t-347.733-143.36q-239.787 0-386.56 186.88l-10.24-115.2q-6.827-46.933-55.467-39.253-17.067 0-27.307 17.92-16.213 13.653-10.24 30.72l34.133 287.573 280.747-62.293q44.373-13.653 34.133-54.613-3.413-19.627-20.48-31.147t-34.987-4.693l-103.253 24.747q117.76-143.36 299.52-143.36 165.547 0 279.893 115.627t114.347 276.907h98.133z" />
<glyph unicode="&#xe032;" glyph-name="uniE032" d="M326.827 479.573q0-17.067-12.8-30.72t-31.573-13.653q-40.96 0-40.96 44.373 0 43.52 40.96 43.52 44.373 0 44.373-43.52zM282.453 226.133q-40.96 0-40.96 43.947t40.96 43.947q18.773 0 31.573-12.8t12.8-30.72-12.8-31.147-31.573-13.227zM326.827 61.44q0-41.813-44.373-41.813-40.96 0-40.96 41.813 0 43.52 40.96 43.52 18.773 0 31.573-13.227t12.8-30.293zM906.24 834.56v-1029.973h-788.48v1029.973h788.48zM840.533-131.413v792.747h-658.773v-792.747h658.773zM394.24 512.853h372.907v-67.413h-372.907v67.413zM394.24 302.933h372.907v-64.853h-372.907v64.853zM394.24 97.28h372.907v-68.267h-372.907v68.267z" />
<glyph unicode="&#xe033;" glyph-name="uniE033" d="M859.307 538.453q25.6 0 47.787-9.387t38.827-26.027 26.453-38.827 9.813-46.933v-486.4q0-25.6-9.813-47.787t-26.453-38.827-38.827-26.027-47.787-9.387h-692.907q-24.747 0-46.933 9.387t-38.827 26.027-26.027 38.827-9.387 47.787v486.4q0 24.747 9.387 46.933t26.027 38.827 38.827 26.027 46.933 9.387h40.107v124.587q0 29.013 9.813 55.040t26.453 45.227 39.68 30.293 48.64 11.093h364.373q25.6 0 48.64-11.093t39.68-30.293 26.453-45.227 9.813-55.040v-124.587h39.253zM544.427 207.36q14.507 8.533 23.467 23.040t8.96 32.427q0 27.307-18.347 46.080t-44.8 18.773q-27.307 0-46.080-18.773t-18.773-46.080q0-17.92 8.96-32.427t23.467-23.040l-31.573-221.013h127.147q-10.809 73.671-32.427 221.013zM692.907 663.040q0 10.24-3.413 13.653h-352.427q-1.707-1.707-2.987-5.12t-1.28-8.533v-124.587h360.107v124.587z" />
<glyph unicode="&#xe034;" glyph-name="uniE034" d="M106.667 750.933q-8.533 0 42.667 0 8.533 0 14.933-6.4t6.4-14.933v-917.333h-85.333v917.333q0 8.533 6.4 14.933t14.933 6.4zM917.333 709.973q3.413 0 7.68-1.707 13.653-5.12 13.653-19.627v-359.253q0-5.12-2.56-10.24-28.16-50.347-56.747-84.48t-55.893-49.493-48.213-20.907-44.8-5.547q-22.187 0-49.067 5.547t-44.8 11.52-51.2 17.92q-34.987 12.8-53.76 19.2t-49.067 12.8-55.893 6.4q-72.533 0-136.533-48.64-5.973-4.267-12.8-4.267-5.12 0-9.387 2.56-11.947 5.973-11.947 18.773v373.76q18.773 46.933 69.973 84.053t101.547 39.68q19.627 1.707 36.693 0.427t36.693-5.973 27.733-7.253 32.427-11.093 27.733-9.387q34.987-11.947 54.187-17.92t48.64-11.947 54.187-5.973q87.893 0 156.16 74.24 5.973 6.827 15.36 6.827z" />
<glyph unicode="&#xe035;" glyph-name="uniE035" d="M1024 302.933q0 98.987 0-256 0-8.533-6.4-14.933t-14.933-6.4h-42.667q-8.533 0-14.933 6.4t-6.4 14.933v256q0 108.373-60.16 197.547t-157.44 137.813-209.067 48.64-209.067-48.64-157.44-137.813-60.16-197.547v-256q0-8.533-6.4-14.933t-14.933-6.4h-42.667q-8.533 0-14.933 6.4t-6.4 14.933v256q0 98.987 42.24 193.707t111.787 164.267 164.267 111.787 193.707 42.24 193.707-42.24 164.267-111.787 111.787-164.267 42.24-193.707zM187.733 238.933q-6.827 0 136.533 0 6.827 0 11.947-5.12t5.12-11.947v-392.533q0-6.827-5.12-11.947t-11.947-5.12h-136.533q-6.827 0-11.947 5.12t-5.12 11.947v392.533q0 6.827 5.12 11.947t11.947 5.12zM699.733 238.933q-6.827 0 136.533 0 6.827 0 11.947-5.12t5.12-11.947v-392.533q0-6.827-5.12-11.947t-11.947-5.12h-136.533q-6.827 0-11.947 5.12t-5.12 11.947v392.533q0 6.827 5.12 11.947t11.947 5.12z" />
<glyph unicode="&#xe036;" glyph-name="uniE036" d="M318.293 506.88q-17.92-11.947 220.16 146.773 7.68 5.12 12.8 2.133t5.12-11.52v-640q0-8.533-5.12-11.52t-12.8 2.133l-220.16 146.773q-17.92 11.947-39.253 11.947h-213.333q-8.533 0-14.933 6.4t-6.4 14.933v298.667q0 8.533 6.4 14.933t14.933 6.4h213.333q21.333 0 39.253 11.947zM812.373 382.293q-108.373 109.227 102.4 102.4 5.973 5.973 14.507 5.973t14.507-5.973l29.013-29.013q5.973-5.973 5.973-14.507t-5.973-14.507l-102.4-102.4 102.4-102.4q5.973-5.973 5.973-14.507t-5.973-14.507l-29.013-29.013q-5.973-5.973-14.507-5.973t-14.507 5.973l-102.4 101.547-102.4-101.547q-5.973-5.973-14.507-5.973t-14.507 5.973l-29.013 29.013q-5.973 5.973-5.973 14.507t5.973 14.507l101.547 102.4-101.547 102.4q-5.973 5.973-5.973 14.507t5.973 14.507l29.013 29.013q5.973 6.827 14.507 6.827t116.907-109.227z" />
<glyph unicode="&#xe037;" glyph-name="uniE037" d="M409.6 506.88q-17.92-11.947 220.16 146.773 7.68 5.12 12.8 2.133t5.12-11.52v-640q0-8.533-5.12-11.52t-12.8 2.133l-220.16 146.773q-17.92 11.947-39.253 11.947h-213.333q-8.533 0-14.933 6.4t-6.4 14.933v298.667q0 8.533 6.4 14.933t14.933 6.4h213.333q21.333 0 39.253 11.947zM789.333 580.267q-6.827 0 3.413 0 8.533-0.853 13.653-8.533 81.92-110.080 81.92-247.467 0-131.413-76.8-239.787-5.12-7.68-14.507-8.533l-2.56-0.853q-7.68 0-13.653 5.12l-24.747 19.627q-5.973 5.973-7.253 14.080t3.84 14.933q61.44 87.893 61.44 195.413 0 112.64-66.56 203.093-5.12 6.827-3.84 15.36t8.107 14.507l24.747 18.773q5.973 4.267 12.8 4.267z" />
<glyph unicode="&#xe038;" glyph-name="uniE038" d="M858.453 669.013q-6.827 0 2.56 0 9.387-0.853 14.507-8.533 115.2-152.747 115.2-337.92 0-89.6-29.013-176.213t-83.627-158.293q-5.973-7.68-14.507-8.533h-2.56q-7.68 0-13.653 5.12l-35.84 29.013q-6.827 5.12-7.68 13.653t4.267 15.36q94.72 128 94.72 279.893 0 76.8-25.173 150.187t-72.107 133.973q-5.12 7.68-4.267 16.213t8.533 13.653l35.84 28.16q5.973 4.267 12.8 4.267zM307.2 506.88q-17.92-11.947 220.16 146.773 7.68 5.12 12.8 2.133t5.12-11.52v-640q0-8.533-5.12-11.52t-12.8 2.133l-220.16 146.773q-17.92 11.947-39.253 11.947h-213.333q-8.533 0-14.933 6.4t-6.4 14.933v298.667q0 8.533 6.4 14.933t14.933 6.4h213.333q21.333 0 39.253 11.947zM686.933 580.267q-6.827 0 3.413 0 8.533-0.853 13.653-8.533 81.92-110.080 81.92-247.467 0-131.413-76.8-239.787-5.12-7.68-14.507-8.533l-2.56-0.853q-7.68 0-13.653 5.12l-24.747 19.627q-5.973 5.973-7.253 14.080t3.84 14.933q61.44 87.893 61.44 195.413 0 112.64-66.56 203.093-5.12 6.827-3.84 15.787t8.107 14.080l24.747 18.773q5.973 4.267 12.8 4.267z" />
</font>
</defs>
</svg>
