<?xml version="1.0" encoding="UTF-8" standalone="no"?>
<!-- Created with Inkscape (http://www.inkscape.org/) -->

<svg
   xmlns:dc="http://purl.org/dc/elements/1.1/"
   xmlns:cc="http://creativecommons.org/ns#"
   xmlns:rdf="http://www.w3.org/1999/02/22-rdf-syntax-ns#"
   xmlns:svg="http://www.w3.org/2000/svg"
   xmlns="http://www.w3.org/2000/svg"
   xmlns:sodipodi="http://sodipodi.sourceforge.net/DTD/sodipodi-0.dtd"
   xmlns:inkscape="http://www.inkscape.org/namespaces/inkscape"
   width="40"
   height="45"
   viewBox="0 0 40 45.000001"
   id="svg2"
   version="1.1"
   inkscape:version="0.91 r13725"
   sodipodi:docname="animal-b.svg">
  <defs
     id="defs4" />
  <sodipodi:namedview
     id="base"
     pagecolor="#ffffff"
     bordercolor="#666666"
     borderopacity="1.0"
     inkscape:pageopacity="0.0"
     inkscape:pageshadow="2"
     inkscape:zoom="5.12"
     inkscape:cx="23.47825"
     inkscape:cy="1.1746284"
     inkscape:document-units="px"
     inkscape:current-layer="layer1"
     showgrid="false"
     units="px"
     inkscape:window-width="1920"
     inkscape:window-height="1056"
     inkscape:window-x="1920"
     inkscape:window-y="24"
     inkscape:window-maximized="1" />
  <metadata
     id="metadata7">
    <rdf:RDF>
      <cc:Work
         rdf:about="">
        <dc:format>image/svg+xml</dc:format>
        <dc:type
           rdf:resource="http://purl.org/dc/dcmitype/StillImage" />
        <dc:title></dc:title>
      </cc:Work>
    </rdf:RDF>
  </metadata>
  <g
     inkscape:label="Layer 1"
     inkscape:groupmode="layer"
     id="layer1"
     transform="translate(0,-1007.3621)">
    <path
       style="fill:#000000;fill-opacity:1;fill-rule:evenodd;stroke:none"
       d="M 13.083984 0.078125 L 12.986328 0.4375 L 13.123047 0.11523438 L 13.085938 0.078125 L 13.083984 0.078125 z M 13.142578 0.13476562 L 13.019531 6.6269531 L 12.904297 6.453125 L 12.966797 6.6015625 L 13.740234 7.375 C 13.841301 7.3726247 14.021484 7.3652344 14.021484 7.3652344 L 16.146484 8.2109375 C 16.146484 8.2109375 16.646472 12.128528 16.396484 14.986328 C 16.146496 17.844228 15.770004 21.654728 14.269531 21.548828 C 13.01591 21.460517 11.650597 20.458049 11.214844 20.115234 L 15.876953 24.777344 C 17.092619 23.894259 18.015625 23.337891 18.015625 23.337891 C 18.015625 23.337891 19.141915 23.986995 20.552734 25.21875 C 20.833537 24.439553 21.021156 23.403904 21.158203 22.322266 L 24.976562 26.140625 C 25.190162 26.378625 25.437816 26.508781 25.728516 26.488281 C 25.921189 26.474607 26.116793 26.424805 26.310547 26.373047 C 25.897848 25.196018 26.000175 23.553006 25.603516 22.544922 C 24.978273 20.957322 25.853237 18.52225 27.978516 17.78125 C 28.775659 17.50345 29.483692 17.403812 30.091797 17.382812 C 31.105305 17.347612 31.837807 17.528891 32.228516 17.462891 C 32.228516 17.462891 32.40801 17.631086 32.480469 17.693359 C 32.58525 17.227837 32.607422 16.855469 32.607422 16.855469 C 32.607422 16.855469 32.644196 16.582647 32.630859 16.189453 L 31.603516 15.03125 L 31.871094 13.998047 C 31.734179 13.835488 31.575239 13.682355 31.386719 13.544922 L 27.951172 10.109375 L 28.605469 9.1289062 L 26.855469 5 L 26.855469 5.1503906 L 21.958984 0.25390625 L 23.601562 4.1289062 L 21.990234 6.5410156 L 22.890625 7.4414062 C 23.928002 7.5758836 25.181308 7.8407848 26.103516 8.3613281 C 27.978807 9.4199281 27.603516 11.855469 27.603516 11.855469 C 27.603516 11.855469 27.604159 13.760291 26.228516 14.712891 C 24.85331 15.665591 23.976562 19.900391 23.976562 19.900391 C 23.976562 19.900391 22.227035 21.382181 20.726562 21.488281 C 19.22609 21.593981 18.85155 17.783981 18.601562 14.925781 C 18.530985 14.120337 18.526185 13.243214 18.546875 12.380859 C 18.539119 12.381229 18.541079 12.380468 18.533203 12.380859 L 18.023438 11.498047 L 18.146484 5.0625 L 18.070312 5.2421875 L 18.085938 5.078125 L 13.142578 0.13476562 z M 21.847656 0.14257812 L 21.855469 0.17382812 L 21.853516 0.1484375 L 21.847656 0.14257812 z M 21.976562 6.515625 L 21.972656 6.5234375 L 21.976562 6.5273438 L 21.976562 6.515625 z M 2.2402344 10.802734 L 2.2363281 10.804688 L 2.2363281 10.867188 L 2.25 10.8125 L 2.2402344 10.802734 z M 32.759766 10.804688 L 33.855469 14.818359 L 33.117188 16.693359 L 37.755859 21.332031 L 38.103516 21.724609 L 38.853516 19.820312 L 37.728516 15.691406 L 37.697266 15.8125 L 37.697266 15.742188 L 32.759766 10.804688 z M 2.2949219 10.857422 L 3.3925781 15.091797 L 1.9101562 16.763672 L 2.71875 17.572266 C 2.7217912 17.569805 2.7675781 17.527344 2.7675781 17.527344 C 3.1583549 17.593344 3.8907786 17.410312 4.9042969 17.445312 C 5.5124079 17.466312 6.2223879 17.56585 7.0195312 17.84375 C 7.3659536 17.964509 7.6664251 18.142049 7.9453125 18.341797 L 7.2734375 15.753906 L 7.2539062 15.816406 L 2.2949219 10.857422 z M 33.541016 18.792969 C 34.612155 20.089744 35.74157 22.134807 34.355469 24.025391 C 32.104595 27.095291 29.854232 28.154069 27.728516 27.730469 C 27.496475 27.684241 27.302535 27.600306 27.130859 27.494141 L 31.578125 31.941406 C 31.721525 32.166506 31.903513 32.354394 32.132812 32.496094 L 32.207031 32.570312 L 32.222656 32.544922 C 32.373456 32.625922 32.537169 32.693922 32.730469 32.732422 C 34.856169 33.156022 37.106622 32.097244 39.357422 29.027344 C 41.607922 25.957844 37.230469 22.464844 37.230469 22.464844 C 37.220469 22.464844 37.216937 22.463944 37.210938 22.464844 L 33.541016 18.792969 z M 8.5585938 18.847656 C 8.5585938 18.847656 8.5355011 18.861904 8.5332031 18.863281 C 9.5123835 19.935284 9.8384545 21.480295 9.3945312 22.607422 C 8.7692887 24.195422 9.3952471 27.371622 7.2695312 27.794922 C 5.7382984 28.099913 4.1414968 27.620279 2.5273438 26.189453 L 2.5117188 26.216797 L 7.0976562 30.802734 L 7.1074219 30.791016 C 7.8365671 31.513316 8.5639711 32.027729 9.2832031 32.371094 C 10.191879 29.783054 12.498531 27.482 14.519531 25.833984 C 14.38626 25.144105 14.063869 24.453854 13.558594 23.890625 L 13.578125 23.867188 L 8.5585938 18.847656 z M 22.544922 27.232422 C 24.409568 29.405263 26.142578 32.438014 26.142578 36.251953 C 26.142578 41.120053 17.515625 39.851562 17.515625 39.851562 C 17.515625 39.851562 13.437161 40.45911 10.888672 38.701172 L 14.71875 42.533203 C 16.87855 45.688003 22.513672 44.851562 22.513672 44.851562 C 22.513672 44.851562 31.142578 46.120053 31.142578 41.251953 C 31.142578 37.586453 29.543472 34.635722 27.763672 32.482422 L 27.773438 32.460938 L 27.560547 32.248047 C 26.833447 31.398747 26.101634 30.693134 25.427734 30.115234 L 22.544922 27.232422 z "
       transform="translate(0,1007.3621)"
       id="path14-1-5-8-8" />
    <path
       style="fill:#9e25ca;fill-opacity:1;fill-rule:evenodd;stroke:none"
       d="M 21.851562 0 L 21.976562 6.5625 L 23.601562 4.1289062 L 21.851562 0 z M 13.144531 0.0625 L 11.394531 4.1914062 L 13.019531 6.6269531 L 13.144531 0.0625 z M 20.976562 7.3027344 L 18.851562 8.1503906 C 18.851562 8.1503906 18.351137 12.067881 18.601562 14.925781 C 18.85155 17.783981 19.226089 21.593981 20.726562 21.488281 C 22.227035 21.382181 23.976562 19.900391 23.976562 19.900391 C 23.976562 19.900391 24.85331 15.665591 26.228516 14.712891 C 27.604159 13.760291 27.603516 11.855469 27.603516 11.855469 C 27.603516 11.855469 27.978807 9.4199281 26.103516 8.3613281 C 24.227897 7.3026281 20.976562 7.3027344 20.976562 7.3027344 z M 14.021484 7.3671875 C 14.021484 7.3671875 10.77026 7.3671813 8.8945312 8.4257812 C 7.0193502 9.4839812 7.3945312 11.917969 7.3945312 11.917969 C 7.3945312 11.917969 7.3943255 13.824644 8.7695312 14.777344 C 10.144737 15.729944 11.019531 19.962891 11.019531 19.962891 C 11.019531 19.962891 12.769058 21.445081 14.269531 21.550781 C 15.770004 21.656681 16.146496 17.846181 16.396484 14.988281 C 16.646472 12.130481 16.146484 8.2128906 16.146484 8.2128906 L 14.021484 7.3671875 z M 32.728516 10.691406 L 31.603516 15.03125 L 33.105469 16.724609 L 33.855469 14.820312 L 32.728516 10.691406 z M 2.2675781 10.753906 L 1.1425781 14.882812 L 1.8925781 16.787109 L 3.3925781 15.09375 L 2.2675781 10.753906 z M 30.091797 17.384766 C 29.483692 17.40585 28.775659 17.505366 27.978516 17.783203 C 25.853237 18.524203 24.978273 20.959275 25.603516 22.546875 C 26.228321 24.134775 25.603238 27.309022 27.728516 27.732422 C 29.854232 28.156022 32.104595 27.097244 34.355469 24.027344 C 36.605905 20.957844 32.228516 17.464844 32.228516 17.464844 C 31.837807 17.531156 31.105305 17.349625 30.091797 17.384766 z M 4.9042969 17.447266 C 3.8907786 17.412145 3.1583549 17.595297 2.7675781 17.529297 C 2.7675781 17.529297 -1.6084051 21.022297 0.64257812 24.091797 C 2.8930143 27.161697 5.1438154 28.220275 7.2695312 27.796875 C 9.395247 27.373575 8.7692886 24.197375 9.3945312 22.609375 C 10.019774 21.021875 9.1452471 18.586703 7.0195312 17.845703 C 6.2223878 17.567828 5.5124079 17.468338 4.9042969 17.447266 z M 18.015625 23.337891 C 18.015625 23.337891 8.8886719 28.630894 8.8886719 34.558594 C 8.8886719 41.136994 17.515625 39.851562 17.515625 39.851562 C 17.515625 39.851562 26.142578 41.120053 26.142578 36.251953 C 26.142578 27.989553 18.015625 23.337891 18.015625 23.337891 z "
       id="path14-0-1-8"
       transform="translate(0,1007.3621)" />
  </g>
</svg>
