<?xml version="1.0" encoding="UTF-8" standalone="no"?>
<!-- Created with Inkscape (http://www.inkscape.org/) -->

<svg
   xmlns:dc="http://purl.org/dc/elements/1.1/"
   xmlns:cc="http://creativecommons.org/ns#"
   xmlns:rdf="http://www.w3.org/1999/02/22-rdf-syntax-ns#"
   xmlns:svg="http://www.w3.org/2000/svg"
   xmlns="http://www.w3.org/2000/svg"
   xmlns:sodipodi="http://sodipodi.sourceforge.net/DTD/sodipodi-0.dtd"
   xmlns:inkscape="http://www.inkscape.org/namespaces/inkscape"
   width="40"
   height="45"
   viewBox="0 0 40 45.000001"
   id="svg2"
   version="1.1"
   inkscape:version="0.91 r13725"
   sodipodi:docname="slimemold-b.svg">
  <defs
     id="defs4" />
  <sodipodi:namedview
     id="base"
     pagecolor="#ffffff"
     bordercolor="#666666"
     borderopacity="1.0"
     inkscape:pageopacity="0.0"
     inkscape:pageshadow="2"
     inkscape:zoom="3.6203867"
     inkscape:cx="-39.087873"
     inkscape:cy="12.419597"
     inkscape:document-units="px"
     inkscape:current-layer="layer1"
     showgrid="false"
     units="px"
     inkscape:window-width="1920"
     inkscape:window-height="1056"
     inkscape:window-x="1920"
     inkscape:window-y="24"
     inkscape:window-maximized="1" />
  <metadata
     id="metadata7">
    <rdf:RDF>
      <cc:Work
         rdf:about="">
        <dc:format>image/svg+xml</dc:format>
        <dc:type
           rdf:resource="http://purl.org/dc/dcmitype/StillImage" />
        <dc:title />
      </cc:Work>
    </rdf:RDF>
  </metadata>
  <g
     inkscape:label="Layer 1"
     inkscape:groupmode="layer"
     id="layer1"
     transform="translate(0,-1007.3621)">
    <path
       style="fill:#000000;fill-opacity:1;fill-rule:evenodd;stroke:none;stroke-width:1.07188714px;stroke-linecap:butt;stroke-linejoin:miter;stroke-opacity:1"
       d="M 34.138672 -0.009765625 L 34.142578 -0.005859375 L 34.144531 -0.0078125 L 34.138672 -0.009765625 z M 34.142578 -0.005859375 L 33.957031 0.11328125 C 33.985177 0.10221592 34.171625 0.024287308 34.173828 0.0234375 L 34.171875 0.021484375 C 34.171875 0.021484375 34.169922 0.021484375 34.169922 0.021484375 L 34.142578 -0.005859375 z M 34.177734 0.02734375 C 34.153009 0.0471223 31.667913 2.0338373 30.314453 2.9355469 C 28.954253 3.8418469 25.694078 5.1072437 22.642578 15.152344 C 20.679278 21.615244 20.332875 30.740778 20.296875 35.705078 C 20.301875 35.763978 20.3025 35.821859 20.3125 35.880859 C 20.9708 31.265159 22.6247 25.023312 26.1875 21.820312 C 26.816638 21.254688 27.673781 20.724044 28.605469 20.244141 C 28.201886 20.453344 27.807524 20.670687 27.439453 20.900391 C 27.507453 20.653791 27.563819 20.388138 27.636719 20.148438 C 30.688219 10.103337 33.950347 8.8379406 35.310547 7.9316406 C 36.670747 7.0254406 39.185547 5.0117188 39.185547 5.0117188 C 39.185547 5.0117188 39.061081 5.0643594 39.050781 5.0683594 L 39.150391 5.0019531 L 34.177734 0.02734375 z M 32.666016 0.6640625 C 32.279669 0.83282955 31.93199 0.9918628 31.414062 1.2382812 C 31.883246 1.0133505 32.291533 0.83062269 32.666016 0.6640625 z M 31.414062 1.2382812 C 30.873603 1.4954199 30.292734 1.7879349 29.664062 2.1210938 C 30.282206 1.7924719 30.873738 1.4973178 31.414062 1.2382812 z M 29.664062 2.1210938 C 29.058788 2.441854 28.438615 2.7905295 27.802734 3.1738281 C 28.431553 2.7950267 29.061216 2.4415831 29.664062 2.1210938 z M 27.746094 3.2070312 C 27.192087 3.5424337 26.64788 3.9021438 26.107422 4.2792969 C 26.645066 3.9053555 27.192929 3.5416902 27.746094 3.2070312 z M 25.791016 4.4921875 C 25.500463 4.7014675 25.214561 4.9126419 24.9375 5.1328125 C 25.21424 4.9138754 25.500232 4.7008761 25.791016 4.4921875 z M 24.9375 5.1328125 C 24.643943 5.3660919 24.358171 5.6050612 24.085938 5.8496094 C 24.358304 5.6060606 24.643033 5.3657737 24.9375 5.1328125 z M 24.085938 5.8496094 C 23.874403 6.039631 23.675719 6.2333904 23.480469 6.4296875 C 23.676057 6.2337886 23.873432 6.0396308 24.085938 5.8496094 z M 23.292969 6.6132812 C 23.165156 6.74693 23.052439 6.8852234 22.933594 7.0214844 C 23.052485 6.8854255 23.164744 6.7469153 23.292969 6.6132812 z M 22.388672 7.6972656 C 22.167728 7.9887229 21.947751 8.2818114 21.738281 8.5976562 C 21.948102 8.2817165 22.1675 7.9888529 22.388672 7.6972656 z M 21.335938 9.2519531 C 21.189561 9.4916759 21.040978 9.7275464 20.900391 9.9785156 C 21.041176 9.7277792 21.189415 9.4914752 21.335938 9.2519531 z M 20.484375 10.767578 C 20.369148 10.991208 20.251781 11.21061 20.140625 11.441406 C 20.251896 11.211097 20.369063 10.990749 20.484375 10.767578 z M 5.5761719 11.414062 C 5.5761719 11.414062 5.7181812 11.518203 5.7382812 11.533203 L 10.648438 16.443359 L 10.576172 16.414062 C 10.576172 16.414062 10.715263 16.513084 10.726562 16.521484 L 10.736328 16.521484 C 10.880828 16.627284 11.676706 17.211978 12.566406 17.830078 C 10.86046 14.603994 9.2939067 13.971971 8.5253906 13.492188 C 7.4954377 12.849127 5.5997195 11.428302 5.5859375 11.417969 L 5.5761719 11.414062 z M 12.566406 17.830078 C 12.611741 17.915896 12.657616 18.016028 12.703125 18.105469 C 12.657453 18.0157 12.611892 17.916096 12.566406 17.830078 z M 5.6347656 11.427734 L 5.6425781 11.4375 C 5.6440754 11.438044 5.6716232 11.448414 5.6738281 11.449219 L 5.6347656 11.427734 z M 19.662109 12.494141 C 19.597702 12.641374 19.531692 12.786025 19.46875 12.935547 C 19.531799 12.786304 19.597599 12.6411 19.662109 12.494141 z M 9.0527344 12.929688 C 9.4677722 13.136971 9.8981848 13.366079 10.330078 13.607422 C 9.8972527 13.365017 9.467237 13.136811 9.0527344 12.929688 z M 18.933594 14.279297 C 18.909192 14.343951 18.883534 14.407674 18.859375 14.472656 C 18.883591 14.407745 18.909135 14.343879 18.933594 14.279297 z M 12.794922 15.222656 C 12.908646 15.310008 13.033467 15.3911 13.142578 15.480469 C 13.03334 15.390642 12.908692 15.310376 12.794922 15.222656 z M 14.203125 16.460938 L 14.203125 16.474609 C 14.255529 16.53228 14.315584 16.588248 14.365234 16.646484 C 15.358334 17.811284 16.195309 19.299125 16.912109 20.953125 C 17.026184 20.475913 17.149786 20.003371 17.273438 19.53125 L 14.203125 16.460938 z M 34.912109 17.75 L 34.578125 17.916016 C 34.453449 17.952662 34.185429 18.039311 33.984375 18.101562 C 34.595954 17.908215 34.95757 17.808003 34.976562 17.802734 C 34.984928 17.798117 34.998047 17.791016 34.998047 17.791016 C 34.998047 17.791016 34.963891 17.800781 34.962891 17.800781 L 34.912109 17.75 z M 33.984375 18.101562 C 33.297336 18.314288 32.297316 18.656006 31.105469 19.128906 C 32.216258 18.689096 33.261094 18.330224 33.984375 18.101562 z M 34.972656 17.810547 C 34.922821 17.839156 33.070291 18.902973 32.046875 19.392578 C 31.009675 19.888978 28.524066 20.582484 26.197266 26.083984 C 25.002266 28.909284 24.598797 32.660631 24.466797 35.457031 C 25.012597 32.846831 26.046312 29.910766 27.882812 28.259766 C 29.493313 26.811866 33.451172 25.716797 33.451172 25.716797 C 33.451172 25.716797 32.239084 26.415016 31.583984 26.728516 C 30.928884 27.042016 29.358372 27.478325 27.888672 30.953125 C 26.767472 33.607625 26.735813 37.437903 26.757812 38.720703 L 26.769531 38.720703 L 26.769531 40.015625 L 10.617188 40.015625 L 15.550781 44.949219 L 15.580078 44.949219 L 15.580078 45.009766 L 31.767578 45.009766 L 31.767578 43.714844 L 31.755859 43.714844 C 31.733859 42.432044 31.765819 38.601766 32.886719 35.947266 C 34.356419 32.472466 35.926931 32.034203 36.582031 31.720703 C 37.174731 31.437103 38.123859 30.896456 38.318359 30.785156 L 38.398438 30.751953 L 38.388672 30.742188 L 38.447266 30.708984 C 38.447266 30.708984 38.382953 30.728469 38.376953 30.730469 L 34.037109 26.423828 C 35.319809 25.063528 36.434069 24.676166 37.042969 24.384766 C 38.080069 23.892566 39.998047 22.791016 39.998047 22.791016 C 39.998047 22.791016 39.759322 22.862672 39.669922 22.888672 L 39.923828 22.763672 L 34.972656 17.810547 z M 0.001953125 17.902344 C 0.001953125 17.902344 0.013677109 17.909065 0.015625 17.910156 C 0.051840557 17.920185 6.2780182 19.646098 8.8203125 21.931641 C 8.8651612 21.971961 8.9069258 22.017318 8.9511719 22.058594 C 8.9063874 22.015892 8.8641161 21.968864 8.8183594 21.927734 C 6.2686594 19.635034 0.001953125 17.902344 0.001953125 17.902344 z M 0.056640625 17.943359 L 5.0566406 22.914062 L 5.125 22.943359 C 5.115 22.943359 5.0019531 22.902344 5.0019531 22.902344 C 5.0019531 22.902344 6.9198313 24.005653 7.9570312 24.501953 C 7.9730313 24.511953 8.0015781 24.52425 8.0175781 24.53125 C 5.9394971 20.560795 3.8791717 19.946169 2.9589844 19.505859 C 1.9813407 19.038057 0.32791666 18.090686 0.12890625 17.976562 L 0.056640625 17.943359 z M 29.851562 19.654297 C 29.474231 19.823073 29.106754 19.990032 28.738281 20.177734 C 29.101925 19.993707 29.475864 19.821532 29.851562 19.654297 z M 13.460938 19.75 C 13.758042 20.468569 14.056095 21.276022 14.351562 22.1875 C 14.770812 23.480875 15.092705 24.92908 15.339844 26.421875 C 15.092877 24.931173 14.774224 23.483023 14.355469 22.191406 C 14.059237 21.277597 13.758994 20.472258 13.460938 19.75 z M 9.3769531 22.453125 L 9.4003906 22.5 C 12.516044 25.781335 14.028917 31.466998 14.667969 35.800781 C 14.845269 33.466281 15.133406 30.763187 15.566406 27.929688 C 15.499556 27.426388 15.424164 26.925352 15.341797 26.427734 C 15.423781 26.923381 15.495942 27.424495 15.5625 27.925781 C 15.5175 28.219781 15.491419 28.49035 15.449219 28.78125 C 15.076919 28.26435 14.669034 27.796275 14.240234 27.359375 L 14.240234 27.316406 L 9.3769531 22.453125 z M 10.203125 31.65625 C 10.64338 34.768948 10.617484 37.678234 10.591797 38.716797 L 10.580078 38.716797 L 10.580078 39.345703 C 10.579978 39.345703 10.580078 39.410156 10.580078 39.410156 L 10.580078 39.982422 L 10.580078 40.003906 L 10.583984 40.003906 L 10.583984 39.416016 L 10.582031 39.416016 C 10.582031 39.416016 10.583884 39.349609 10.583984 39.349609 L 10.583984 38.720703 L 10.595703 38.720703 C 10.621345 37.681475 10.64459 34.771086 10.203125 31.65625 z "
       transform="translate(0,1007.3621)"
       id="path4713-3-0-4" />
    <path
       style="fill:#28c1ca;fill-opacity:1;fill-rule:evenodd;stroke:none;stroke-width:1.07188714px;stroke-linecap:butt;stroke-linejoin:miter;stroke-opacity:1"
       d="m 34.1912,1007.3778 c 0,0 -8.2184,3.1653 -11.5622,7.3506 -2.6183,3.2774 -4.4555,8.3107 -5.7167,13.5867 -0.7168,-1.654 -1.5535,-3.1418 -2.5466,-4.3066 -2.5413,-2.9808 -8.7875,-5.2347 -8.7875,-5.2347 0,0 1.913,1.4346 2.9467,2.08 1.0338,0.6454 3.5111,1.5464 5.8302,8.7003 0.5591,1.7245 0.9434,3.7252 1.2108,5.7384 -0.433,2.8335 -0.7211,5.5362 -0.8984,7.8707 -0.6776,-4.5952 -2.3362,-10.7121 -5.8478,-13.8691 -2.5497,-2.2922 -8.8167,-4.0254 -8.8167,-4.0254 0,0 1.9189,1.1034 2.9561,1.5997 1.0372,0.4963 3.5232,1.1898 5.8501,6.6913 1.8668,4.4138 1.8273,10.8614 1.7863,12.5231 l -0.012,0 0,0.6294 c -1e-4,0 -0.001,0.065 -0.001,0.065 l 0.001,0 0,0.6009 16.1863,0 0,-1.295 -0.012,0 c -0.022,-1.2828 0.01,-5.1129 1.1312,-7.7674 1.4697,-3.4748 3.0402,-3.9122 3.6953,-4.2257 0.6551,-0.3135 1.867,-1.0102 1.867,-1.0102 0,0 -3.9589,1.0948 -5.5694,2.5427 -1.8365,1.651 -2.8699,4.5862 -3.4157,7.1964 0.132,-2.7964 0.5351,-6.5468 1.7301,-9.3721 2.3268,-5.5015 4.8129,-6.195 5.8501,-6.6914 1.0372,-0.4962 2.956,-1.5984 2.956,-1.5984 0,0 -6.2658,1.7332 -8.8155,4.0255 -3.5628,3.203 -5.2152,9.4449 -5.8735,14.0606 -0.01,-0.059 -0.012,-0.1178 -0.017,-0.1767 0.036,-4.9643 0.3822,-14.0888 2.3455,-20.5517 3.0515,-10.0451 6.3124,-11.3107 7.6726,-12.217 1.3602,-0.9062 3.8766,-2.9196 3.8766,-2.9196 z"
       id="path4713-1-7"
       inkscape:connector-curvature="0" />
  </g>
</svg>
